<svg xmlns="http://www.w3.org/2000/svg" width="25" height="25" viewBox="0 0 25 25"><defs><style>.a{fill:none;}.b{clip-path:url(#a);}.c{fill:;}</style><clipPath id="a"><rect class="a" width="25" height="25" transform="translate(0 0)"/></clipPath></defs><g transform="translate(0 0)"><g class="b"><path class="c" d="M12.5,465.265c-6.9,0-12.5-2-12.5-4.464v4.464c0,2.466,5.6,4.464,12.5,4.464s12.5-2,12.5-4.464V460.8c0,2.466-5.6,4.464-12.5,4.464" transform="translate(0 -444.729)"/><path class="c" d="M12.5,311.663c-6.9,0-12.5-2-12.5-4.464v4.464c0,2.466,5.6,4.464,12.5,4.464s12.5-2,12.5-4.464V307.2c0,2.466-5.6,4.464-12.5,4.464" transform="translate(0 -296.485)"/><path class="c" d="M12.5,158.066c-6.9,0-12.5-2-12.5-4.464v4.464c0,2.466,5.6,4.464,12.5,4.464s12.5-2,12.5-4.464V153.6c0,2.466-5.6,4.464-12.5,4.464" transform="translate(0 -148.245)"/><path class="c" d="M0,4.464C0,6.93,5.6,8.928,12.5,8.928s12.5-2,12.5-4.464S19.4,0,12.5,0,0,2,0,4.464"/></g></g></svg>
