<svg xmlns="http://www.w3.org/2000/svg" width="24.023" height="27.67" viewBox="0 0 24.023 27.67"><defs><style>.a{fill:;}</style></defs><path class="a" d="M165.175,96.563H146.594a2.721,2.721,0,0,0-2.722,2.722V122.22a2.011,2.011,0,0,0,2.808,1.846l8.059-3.478a2.879,2.879,0,0,1,2.287,0l8.059,3.478a2.011,2.011,0,0,0,2.808-1.846V99.285a2.718,2.718,0,0,0-2.72-2.722Zm-4.322,13.543h-3.914v3.914a1,1,0,0,1-2,0v-3.914h-3.913a1,1,0,0,1,0-2h3.913v-3.913a1,1,0,0,1,2,0V108.1h3.914a1,1,0,1,1,0,2Z" transform="translate(-143.872 -96.563)"/></svg>