<svg width="25" height="25" viewBox="0 0 25 25" fill="none" xmlns="http://www.w3.org/2000/svg">
<g id="ph:coin-vertical">
<path id="Vector" d="M18.7483 6.10219C17.6167 4.1625 16.0679 3.09375 14.3879 3.09375H9.88794C8.20794 3.09375 6.65919 4.1625 5.52763 6.10219C4.47013 7.91437 3.88794 10.3125 3.88794 12.8438C3.88794 15.375 4.47013 17.7731 5.52763 19.5853C6.65919 21.525 8.20794 22.5938 9.88794 22.5938H14.3879C16.0679 22.5938 17.6167 21.525 18.7483 19.5853C19.8058 17.7731 20.3879 15.375 20.3879 12.8438C20.3879 10.3125 19.8058 7.91437 18.7483 6.10219ZM18.8683 12.0938H15.8683C15.8096 10.5547 15.5032 9.03521 14.9608 7.59375H17.8286C18.4023 8.84812 18.7811 10.4062 18.8683 12.0938ZM16.937 6.09375H14.2436C13.9304 5.55023 13.5527 5.04658 13.1186 4.59375H14.3879C15.3254 4.59375 16.2067 5.15625 16.937 6.09375ZM5.38794 12.8438C5.38794 8.37187 7.45044 4.59375 9.88794 4.59375C12.3254 4.59375 14.3879 8.37187 14.3879 12.8438C14.3879 17.3156 12.3254 21.0938 9.88794 21.0938C7.45044 21.0938 5.38794 17.3156 5.38794 12.8438ZM14.3879 21.0938H13.1214C13.5555 20.6409 13.9332 20.1373 14.2464 19.5938H16.9398C16.2067 20.5312 15.3254 21.0938 14.3879 21.0938ZM17.8286 18.0938H14.9617C15.5041 16.6523 15.8106 15.1328 15.8692 13.5938H18.8692C18.7811 15.2812 18.4023 16.8394 17.8286 18.0938Z" fill="black" stroke="black" stroke-width="0.4"/>
</g>
</svg>
