<?xml version="1.0" standalone="no"?><!DOCTYPE svg PUBLIC "-//W3C//DTD SVG 1.1//EN" "http://www.w3.org/Graphics/SVG/1.1/DTD/svg11.dtd">
<svg t="1712560708313" class="icon" viewBox="0 0 1024 1024" version="1.1" xmlns="http://www.w3.org/2000/svg" p-id="1588"
     width="200" height="200"><path d="M818.46178086 755.93223037a47.51773067 47.51773067 0 1 1 0-95.03546133 45.94168653 45.94168653 0 0 0 45.94168653-45.94168652V203.05594971a45.94168653 45.94168653 0 0 0-45.94168653-45.94168653H406.56264805a45.94168653 45.94168653 0 0 0-45.94168653 45.94168653 47.51773067 47.51773067 0 0 1-95.03546133 0A141.371158 141.371158 0 0 1 406.56264805 62h411.89913281a141.29235615 141.29235615 0 0 1 140.97714785 141.05594971v411.89913281a141.29235615 141.29235615 0 0 1-140.97714785 140.97714785z" p-id="1589"></path><path d="M607.82348339 962H213.33963711A148.77856582 148.77856582 0 0 1 64.40346758 813.06382959V417.00394003a148.77856582 148.77856582 0 0 1 148.93616953-149.01497226h394.48384628a148.77856582 148.77856582 0 0 1 148.93616954 148.93617041V812.98502773a147.75413731 147.75413731 0 0 1-148.93616953 149.01497227z m-394.48384628-598.89676904a53.42789619 53.42789619 0 0 0-53.90070908 53.90070908v396.05988955a53.42789619 53.42789619 0 0 0 53.90070908 53.90070908h394.48384628a53.42789619 53.42789619 0 0 0 53.90070909-53.90070908V417.00394003a53.42789619 53.42789619 0 0 0-53.90070908-53.90070907z" p-id="1590"></path></svg>
