<svg xmlns="http://www.w3.org/2000/svg" width="11.715" height="11.673" viewBox="0 0 11.715 11.673"><defs><style>.a{fill:#fff;}</style></defs><path class="a" d="M52.139,59.65a1.461,1.461,0,0,1-1.466-1.466,1.415,1.415,0,0,1,.114-.566,1.471,1.471,0,0,1,.312-.463,1.475,1.475,0,0,1,1.04-.426q.062,0,.114.005t.1.005l2.027-2.453a.7.7,0,0,1-.068-.229,2.106,2.106,0,0,1-.016-.26,1.466,1.466,0,1,1,2.931,0,1.425,1.425,0,0,1-.078.473,1.782,1.782,0,0,1-.213.421L58.7,58.621l1.008-1.8a1.763,1.763,0,0,1-.187-.39,1.389,1.389,0,0,1-.073-.452,1.469,1.469,0,0,1,2.037-1.351,1.518,1.518,0,0,1,.473.312,1.415,1.415,0,0,1,.317.468,1.452,1.452,0,0,1,.114.572,1.472,1.472,0,0,1-.9,1.372,1.452,1.452,0,0,1-.572.114h-.249l-.988,1.8a1.579,1.579,0,0,1,.364.489,1.4,1.4,0,0,1,.135.613,1.452,1.452,0,0,1-.114.572,1.474,1.474,0,0,1-.317.473,1.49,1.49,0,0,1-.468.317,1.457,1.457,0,0,1-1.616-.317,1.517,1.517,0,0,1-.312-.473,1.5,1.5,0,0,1,.016-1.185,1.512,1.512,0,0,1,.359-.489l-1.788-4a.9.9,0,0,1-.166.021,1.187,1.187,0,0,1-.317-.042,1.861,1.861,0,0,1-.286-.1l-1.778,2.245a1.779,1.779,0,0,1,.166.379,1.424,1.424,0,0,1,.062.421,1.453,1.453,0,0,1-.114.572,1.415,1.415,0,0,1-.317.468,1.533,1.533,0,0,1-.468.312,1.44,1.44,0,0,1-.577.114Zm-1.466,2.942H62.389v1.414H50.673V62.592Zm0,0" transform="translate(-50.673 -52.332)"/></svg>