<svg width="375" height="812" viewBox="0 0 375 812" fill="none" xmlns="http://www.w3.org/2000/svg">
    <g clip-path="url(#clip0_89_19583)">
        <rect width="375" height="812" fill="black"/>
        <mask id="mask0_89_19583" style="mask-type:alpha" maskUnits="userSpaceOnUse" x="36" y="467" width="303"
              height="303">
            <circle cx="187.5" cy="618.5" r="151.5" fill="url(#paint0_radial_89_19583)"/>
        </mask>
        <g mask="url(#mask0_89_19583)">
            <path d="M64.9003 445.5V805.5" stroke="#E0FF31" stroke-opacity="0.2" stroke-width="0.72"
                  stroke-miterlimit="10"/>
            <path d="M105.767 445.5V805.5" stroke="#E0FF31" stroke-opacity="0.2" stroke-width="0.72"
                  stroke-miterlimit="10"/>
            <path d="M146.633 445.5V805.5" stroke="#E0FF31" stroke-opacity="0.2" stroke-width="0.72"
                  stroke-miterlimit="10"/>
            <path d="M187.5 445.5V805.5" stroke="#E0FF31" stroke-opacity="0.2" stroke-width="0.72"
                  stroke-miterlimit="10"/>
            <path d="M228.366 445.5V805.5" stroke="#E0FF31" stroke-opacity="0.2" stroke-width="0.72"
                  stroke-miterlimit="10"/>
            <path d="M269.233 445.5V805.5" stroke="#E0FF31" stroke-opacity="0.2" stroke-width="0.72"
                  stroke-miterlimit="10"/>
            <path d="M310.099 445.5V805.5" stroke="#E0FF31" stroke-opacity="0.2" stroke-width="0.72"
                  stroke-miterlimit="10"/>
            <path d="M457.5 502.9H-82.5" stroke="#E0FF31" stroke-opacity="0.2" stroke-width="0.72"
                  stroke-miterlimit="10"/>
            <path d="M457.5 543.768H-82.5" stroke="#E0FF31" stroke-opacity="0.2" stroke-width="0.72"
                  stroke-miterlimit="10"/>
            <path d="M457.5 584.634H-82.5" stroke="#E0FF31" stroke-opacity="0.2" stroke-width="0.72"
                  stroke-miterlimit="10"/>
            <path d="M457.5 625.5H-82.5" stroke="#E0FF31" stroke-opacity="0.2" stroke-width="0.72"
                  stroke-miterlimit="10"/>
            <path d="M457.5 666.367H-82.5" stroke="#E0FF31" stroke-opacity="0.2" stroke-width="0.72"
                  stroke-miterlimit="10"/>
            <path d="M457.5 707.233H-82.5" stroke="#E0FF31" stroke-opacity="0.2" stroke-width="0.72"
                  stroke-miterlimit="10"/>
            <path d="M457.5 748.1H-82.5" stroke="#E0FF31" stroke-opacity="0.2" stroke-width="0.72"
                  stroke-miterlimit="10"/>
        </g>
        <path d="M137.1 521V509.8H138.86V519.32H144.3V521H137.1ZM150.225 521V519.88C150.065 520.12 149.857 520.328 149.617 520.52C149.185 520.84 148.577 521.16 147.745 521.16C146.209 521.16 145.185 520.12 145.185 518.92C145.185 517.64 146.065 516.76 147.425 516.52L150.225 516.04C150.225 515.224 149.585 514.6 148.625 514.6C148.001 514.6 147.537 514.872 147.169 515.128C146.961 515.272 146.785 515.448 146.625 515.64L145.585 514.6C145.793 514.328 146.049 514.088 146.353 513.88C146.865 513.512 147.601 513.16 148.625 513.16C150.545 513.16 151.825 514.44 151.825 516.12V521H150.225ZM150.225 517.56V517.32L147.985 517.72C147.169 517.864 146.785 518.264 146.785 518.76C146.785 519.32 147.249 519.8 148.065 519.8C149.265 519.8 150.225 518.84 150.225 517.56ZM154.058 517.8V513.32H155.658V517.8C155.658 518.936 156.378 519.64 157.418 519.64C158.618 519.64 159.498 518.76 159.498 517.48V513.32H161.098V521H159.498V519.88C159.322 520.12 159.13 520.328 158.89 520.52C158.49 520.84 157.914 521.16 157.098 521.16C155.338 521.16 154.058 519.896 154.058 517.8ZM163.339 521V513.32H164.939V514.44C165.099 514.2 165.291 513.992 165.531 513.8C165.931 513.48 166.523 513.16 167.339 513.16C169.099 513.16 170.379 514.424 170.379 516.52V521H168.779V516.52C168.779 515.384 168.059 514.68 167.019 514.68C165.819 514.68 164.939 515.56 164.939 516.84V521H163.339ZM178.3 518.52L179.42 519.56C179.18 519.864 178.908 520.12 178.588 520.36C178.028 520.76 177.228 521.16 176.14 521.16C173.9 521.16 172.14 519.4 172.14 517.16C172.14 514.92 173.9 513.16 176.14 513.16C177.228 513.16 178.028 513.544 178.556 513.928C178.86 514.152 179.132 514.408 179.34 514.68L178.22 515.72C178.076 515.528 177.9 515.352 177.692 515.208C177.324 514.952 176.828 514.68 176.14 514.68C174.78 514.68 173.74 515.704 173.74 517.16C173.74 518.616 174.78 519.64 176.14 519.64C176.828 519.64 177.356 519.384 177.724 519.08C177.932 518.92 178.124 518.728 178.3 518.52ZM181.013 521V509.8H182.613V514.44C182.773 514.2 182.965 513.992 183.205 513.8C183.605 513.48 184.197 513.16 185.013 513.16C186.773 513.16 188.053 514.424 188.053 516.52V521H186.453V516.52C186.453 515.384 185.733 514.68 184.693 514.68C183.493 514.68 182.613 515.56 182.613 516.84V521H181.013ZM194.131 521V509.8H195.731L199.971 515.24L204.211 509.8H205.811V521H204.051V512.76L199.971 517.96L195.891 512.76V521H194.131ZM214.366 518.6L215.326 519.72C215.118 519.992 214.846 520.232 214.526 520.44C213.966 520.808 213.182 521.16 212.046 521.16C209.806 521.16 208.046 519.4 208.046 517.16C208.046 514.92 209.806 513.16 211.966 513.16C214.142 513.16 215.726 514.744 215.726 516.92C215.726 517.16 215.694 517.352 215.678 517.496L215.646 517.72H209.726C209.902 518.76 210.83 519.64 212.126 519.64C212.814 519.64 213.374 519.384 213.758 519.128C213.982 518.984 214.19 518.808 214.366 518.6ZM209.726 516.36H214.046C213.806 515.32 213.102 514.6 211.966 514.6C210.75 514.6 210.046 515.32 209.726 516.36ZM217.479 521V513.32H219.079V514.44C219.207 514.2 219.383 513.992 219.591 513.8C219.959 513.48 220.503 513.16 221.319 513.16C222.151 513.16 222.759 513.48 223.143 513.8C223.367 513.992 223.559 514.2 223.719 514.44C223.863 514.2 224.071 513.992 224.311 513.8C224.743 513.48 225.399 513.16 226.359 513.16C227.879 513.16 229.159 514.44 229.159 516.44V521H227.559V516.44C227.559 515.304 226.855 514.68 225.959 514.68C224.919 514.68 224.119 515.48 224.119 516.76V521H222.519V516.44C222.519 515.304 221.815 514.68 220.919 514.68C219.879 514.68 219.079 515.48 219.079 516.76V521H217.479ZM237.241 518.6L238.201 519.72C237.993 519.992 237.721 520.232 237.401 520.44C236.841 520.808 236.057 521.16 234.921 521.16C232.681 521.16 230.921 519.4 230.921 517.16C230.921 514.92 232.681 513.16 234.841 513.16C237.017 513.16 238.601 514.744 238.601 516.92C238.601 517.16 238.569 517.352 238.553 517.496L238.521 517.72H232.601C232.777 518.76 233.705 519.64 235.001 519.64C235.689 519.64 236.249 519.384 236.633 519.128C236.857 518.984 237.065 518.808 237.241 518.6ZM232.601 516.36H236.921C236.681 515.32 235.977 514.6 234.841 514.6C233.625 514.6 232.921 515.32 232.601 516.36Z"
              fill="black"/>
        <path d="M42.0363 441.369C43.0523 443.827 44.8402 448.653 42.4152 450.753C37.3762 455.116 41.7099 457.297 39.5297 459.263C37.564 461.036 36.0734 459.758 34.2984 460.01C32.5503 460.258 34.9146 462.917 32.1733 463.687C26.91 465.165 30.8938 467.473 28.368 468.517C26.6394 469.232 24.6789 466.26 24.1693 462.748C23.5742 458.649 18.5176 459.191 15.6576 452.272C12.6469 444.987 16.1111 436.641 23.3954 433.631C30.6798 430.62 39.0255 434.085 42.0363 441.369Z"
              fill="#4E4E4E"/>
        <path d="M41.4561 439.965C42.4722 442.423 44.2601 447.248 41.8351 449.348C36.7961 453.712 41.1298 455.892 38.9495 457.859C36.9839 459.631 35.4932 458.353 33.7182 458.605C31.9702 458.854 34.3345 461.512 31.5931 462.282C26.3299 463.76 30.3136 466.069 27.7879 467.113C26.0593 467.827 24.0987 464.856 23.5891 461.344C22.9941 457.244 17.9375 457.787 15.0775 450.867C12.0668 443.583 15.5311 435.237 22.8154 432.226C30.0998 429.216 38.4454 432.68 41.4561 439.965Z"
              fill="#F8FF21" stroke="#4E4E4E" stroke-width="0.277514" stroke-miterlimit="10"/>
        <path d="M24.829 450.082C25.8171 449.673 25.8983 447.601 25.0104 445.453C24.1226 443.304 22.6018 441.894 21.6136 442.303C20.6255 442.711 20.5443 444.783 21.4322 446.932C22.32 449.08 23.8408 450.49 24.829 450.082Z"
              fill="#101521"/>
        <path d="M33.4355 446.525C34.4236 446.117 34.5049 444.044 33.617 441.896C32.7291 439.748 31.2083 438.337 30.2202 438.746C29.2321 439.154 29.1508 441.227 30.0387 443.375C30.9266 445.523 32.4474 446.934 33.4355 446.525Z"
              fill="#101521"/>
        <path d="M22.3521 453.209C22.3521 453.209 23.7949 454.859 26.3002 454.013C28.8054 453.168 29.5681 451.597 31.1363 452.357C32.7045 453.117 33.9549 453.933 33.985 451.979C34.0149 450.026 33.9288 449.909 36.4096 448.084C38.8903 446.26 37.8187 444.495 37.8187 444.495"
              stroke="#101521" stroke-width="0.277514" stroke-miterlimit="10" stroke-linecap="round"/>
        <path d="M21.4424 417.093C20.8627 416.203 19.788 416.12 19.022 417.087C18.0522 418.311 17.4172 420.489 19.7645 420.312C21.6719 420.168 22.0222 417.983 21.4424 417.093Z"
              fill="white" fill-opacity="0.3"/>
        <path d="M44.4448 537.713C43.8651 536.823 42.7905 536.74 42.0244 537.707C41.0546 538.931 40.4196 541.109 42.7669 540.932C44.6743 540.788 45.0246 538.604 44.4448 537.713Z"
              fill="white" fill-opacity="0.3"/>
        <path d="M373.733 566.294C373.733 566.294 370.572 566.846 367.414 568.342C365.059 569.456 362.707 571.098 361.68 573.427C360.641 575.779 357.36 575.962 353.932 575.381C349.402 574.609 344.628 572.501 344.463 572.287C344.298 572.066 343.382 565.064 342.64 559.146C342.085 554.766 341.624 550.978 341.624 550.978C341.624 550.978 342.49 549.508 344.2 547.892C346.281 545.923 349.615 543.744 354.161 543.744C362.441 543.744 362.824 547.884 366.754 545.117C366.754 545.117 366.375 549.583 360.795 550.978C360.795 550.978 364.474 550.772 370.815 553.536C370.815 553.536 370.688 558.078 365.486 559.855C365.486 559.855 371.449 562.203 373.733 566.294Z"
              fill="#F8FF21" stroke="#101521" stroke-width="0.375023" stroke-miterlimit="10" stroke-linecap="round"/>
        <path d="M373.733 566.295C366.755 567.534 362.708 571.099 361.68 573.428C360.641 575.78 357.36 575.963 353.932 575.382C350.943 571.778 345.629 565.028 342.64 559.147C342.085 554.767 341.624 550.979 341.624 550.979C341.624 550.979 341.222 550.841 342.932 549.224C350.708 547 361.585 549.377 366.303 564.093C366.724 565.409 367.027 567.06 373.134 566.417"
              fill="#101521"/>
        <path d="M373.733 566.295C366.755 567.534 362.708 571.099 361.68 573.428C360.641 575.78 357.36 575.963 353.932 575.382C350.943 571.778 345.629 565.028 342.64 559.147C342.085 554.767 341.624 550.979 341.624 550.979C341.624 550.979 341.222 550.841 342.932 549.224C350.708 547 361.585 549.377 366.303 564.093C366.724 565.409 367.027 567.06 373.134 566.417"
              stroke="#101521" stroke-width="0.375023" stroke-miterlimit="10"/>
        <path d="M360.843 580.438C353.857 597.047 337.236 599.643 338.646 591.763C338.882 590.462 339.606 588.876 340.945 587.019C340.945 587.019 338.769 588.182 335.78 589.374C329.656 591.823 320.116 594.396 318.874 587.334C317.363 578.724 328.483 571.34 328.483 571.34C328.483 571.34 326.784 566.228 328.16 561.105C330.256 553.323 340.945 551.28 340.945 551.28C355.368 548.156 370.054 558.533 360.843 580.438Z"
              fill="#00C057" stroke="#101521" stroke-width="0.375023" stroke-miterlimit="10" stroke-linecap="round"/>
        <path d="M340.871 565.237L332.165 561.729C332.165 561.729 329.051 567.407 332.835 569.479C336.805 571.652 340.871 565.237 340.871 565.237Z"
              fill="#FF69CD" stroke="#101521" stroke-width="0.375023" stroke-miterlimit="10"/>
        <path d="M334.985 562.865C334.985 562.865 333.599 566.545 334.413 566.65C335.226 566.756 336.674 563.546 336.674 563.546L334.985 562.865Z"
              fill="#101521"/>
        <path d="M355.593 560.843L346.004 565.088C346.004 565.088 349.675 571.536 354.747 569.048C358.81 567.055 355.593 560.843 355.593 560.843Z"
              fill="#FF69CD" stroke="#101521" stroke-width="0.375023" stroke-miterlimit="10"/>
        <path d="M350.798 562.966C350.798 562.966 352.542 566.448 353.079 565.828C353.616 565.208 352.479 562.222 352.479 562.222L350.798 562.966Z"
              fill="#101521"/>
        <path d="M345.259 566.653C345.259 566.653 346.949 571.283 349.889 571.533" stroke="#101521"
              stroke-width="0.375023" stroke-miterlimit="10" stroke-linecap="round"/>
        <path d="M336.206 571.649C336.206 571.649 339.463 571.379 340.872 567.929" stroke="#101521"
              stroke-width="0.375023" stroke-miterlimit="10" stroke-linecap="round"/>
        <path d="M352.78 585.459C350.189 589.041 343.075 593.098 338.646 591.763C338.764 591.113 339.004 590.391 339.382 589.599C339.754 588.82 338.973 587.998 338.186 588.353C337.479 588.671 336.665 589.021 335.781 589.374C335.724 589.266 335.672 589.153 335.619 589.037C333.047 583.224 342.617 580.224 347.759 577.029C349.184 576.144 351.337 576.747 352.612 577.831C354.498 579.436 354.937 582.478 352.78 585.459Z"
              fill="#101521" stroke="#101521" stroke-width="0.375023" stroke-miterlimit="10"/>
        <path d="M339.117 581.857C339.117 581.857 347.575 596.999 343.17 618.187L370.434 625.039C370.434 625.039 359.189 586.33 346.311 577.969L339.117 581.857Z"
              fill="url(#paint1_linear_89_19583)" stroke="url(#paint2_linear_89_19583)" stroke-width="0.375023"
              stroke-miterlimit="10"/>
        <path d="M352.116 620.436C352.116 620.436 350.965 589.109 341.445 580.438L339.117 581.858C339.117 581.858 345.26 594.137 343.17 618.188L352.116 620.436Z"
              fill="url(#paint3_linear_89_19583)" stroke="url(#paint4_linear_89_19583)" stroke-width="0.375023"
              stroke-miterlimit="10"/>
        <path d="M343.774 579.213C347.95 584.155 355.998 599.639 361.555 622.809L352.115 620.437C352.115 620.437 348.456 589.656 341.444 580.439L343.774 579.213Z"
              fill="url(#paint5_linear_89_19583)" stroke="url(#paint6_linear_89_19583)" stroke-width="0.375023"
              stroke-miterlimit="10"/>
        <path d="M342.541 556.233C341.92 554.807 340.98 553.599 339.271 551.536C335.174 546.589 328.031 538.303 326.794 539.114C325.535 539.94 327.985 547.422 329.831 552.046C330.555 553.859 332.219 557.698 332.443 558.094C334.305 561.404 343.65 558.776 342.541 556.233Z"
              fill="#F8FF21" stroke="#101521" stroke-width="0.375023" stroke-miterlimit="10" stroke-linecap="round"/>
        <path d="M335.188 556.078C336.753 556.087 341.036 555.147 340.867 553.519" stroke="#101521"
              stroke-width="0.375023" stroke-miterlimit="10" stroke-linecap="round"/>
        <path d="M338.532 550.646C338.532 550.646 339.164 553.322 334.156 553.14L338.532 550.646Z" fill="#F8FF21"/>
        <path d="M338.532 550.646C338.532 550.646 339.164 553.322 334.156 553.14" stroke="#101521"
              stroke-width="0.375023" stroke-miterlimit="10" stroke-linecap="round"/>
        <path d="M329.103 550.154C329.831 552.045 337.129 549.283 335.994 547.656L329.103 550.154Z" fill="#F8FF21"/>
        <path d="M329.103 550.154C329.831 552.045 337.129 549.283 335.994 547.656" stroke="#101521"
              stroke-width="0.375023" stroke-miterlimit="10" stroke-linecap="round"/>
        <path d="M333.786 545.148C333.786 545.148 333.866 546.588 331.464 546.803L333.786 545.148Z" fill="#F8FF21"/>
        <path d="M333.786 545.148C333.786 545.148 333.866 546.588 331.464 546.803" stroke="#101521"
              stroke-width="0.375023" stroke-miterlimit="10" stroke-linecap="round"/>
        <path d="M331.464 542.646C331.464 543.79 328.011 545.841 327.159 544.194" stroke="#101521"
              stroke-width="0.375023" stroke-miterlimit="10" stroke-linecap="round"/>
        <path d="M345.729 561.729C345.729 561.729 347.669 563.157 349.575 561.729" stroke="#101521"
              stroke-width="0.375023" stroke-miterlimit="10" stroke-linecap="round"/>
        <path d="M337.365 562.221C337.365 562.221 339.518 563.086 341.105 562.364" stroke="#101521"
              stroke-width="0.375023" stroke-miterlimit="10" stroke-linecap="round"/>
        <path d="M328.483 571.338C328.483 571.338 331.629 570.045 333.454 572.582" stroke="#101521"
              stroke-width="0.375023" stroke-miterlimit="10" stroke-linecap="round"/>
        <path d="M361.372 554.787C361.372 554.787 368.733 561.359 370.815 553.538C370.815 553.538 369.735 560.503 363.71 559.704L361.372 554.787Z"
              fill="#101521" stroke="#101521" stroke-width="0.375023" stroke-miterlimit="10"/>
        <path d="M366.716 545.371C366.716 545.371 362.879 551.386 351.403 548.823L355.128 551.09C355.212 551.09 364.61 553.233 366.716 545.371Z"
              fill="#101521" stroke="#101521" stroke-width="0.375023" stroke-miterlimit="10"/>
        <path d="M331.453 555.897C331.453 555.897 332.448 558.924 334.994 559.563C335.634 559.723 328.056 560.598 329.009 558.974C330.58 556.298 331.226 556.484 331.453 555.897Z"
              fill="#101521" stroke="#101521" stroke-width="0.375023" stroke-miterlimit="10"/>
        <path d="M31.0129 338.141C33.9364 339.139 37.0821 333.128 35.169 330.965C33.2556 328.802 32.0432 334.453 29.8936 333.923C27.7435 333.394 27.7205 337.016 31.0129 338.141Z"
              fill="#FF69CD"/>
        <path d="M19.0712 555.537C18.4914 554.647 17.4168 554.564 16.6508 555.531C15.681 556.755 15.046 558.933 17.3933 558.756C19.3007 558.613 19.6509 556.428 19.0712 555.537Z"
              fill="#F8FF21"/>
        <path d="M-3.85003 503.536C-3.55581 507.915 0.150945 510.381 4.86185 508.441C8.40152 506.983 7.15675 502.909 10.9583 503.235C14.7599 503.56 15.8539 498.646 8.68985 495.318C1.52448 491.989 -4.14426 499.158 -3.85003 503.536Z"
              fill="white" fill-opacity="0.3"/>
        <path d="M363.128 474.025C362.412 472.925 361.085 472.823 360.139 474.017C358.941 475.528 358.157 478.218 361.056 478C363.411 477.822 363.844 475.124 363.128 474.025Z"
              fill="white" fill-opacity="0.3"/>
        <path d="M335.406 505.041C334.989 504.4 334.216 504.341 333.665 505.036C332.967 505.917 332.511 507.483 334.199 507.356C335.571 507.253 335.823 505.681 335.406 505.041Z"
              fill="white" fill-opacity="0.3"/>
        <path d="M7.37913 290.653C7.90012 291.674 9.04375 291.885 9.97537 290.935C11.1549 289.732 12.0834 287.467 9.54478 287.39C7.48194 287.328 6.85815 289.632 7.37913 290.653Z"
              fill="white" fill-opacity="0.3"/>
        <path d="M353.931 368.324C352.968 368.45 352.81 369.391 351.743 369.527C350.677 369.664 348.955 367.34 345.427 367.695C341.9 368.051 338.045 374.175 337.225 380.109C336.404 386.042 338.182 389.87 339.822 390.417C341.463 390.964 341.435 389.514 342.146 389.514C342.857 389.514 344.388 395.038 346.275 394.901C348.162 394.764 347.998 393.424 349.119 393.315C350.24 393.205 352.455 396.541 354.259 396.268C356.064 395.994 356.501 393.67 357.239 393.67C357.978 393.67 359.017 394.436 360.247 394.217C361.478 393.998 361.204 390.17 361.86 390.034C362.517 389.897 363.72 392.494 364.868 392.084C366.016 391.674 365.005 385.413 365.36 381.12C365.716 376.827 362.342 369.018 360.121 369.018C358.567 369.018 358.962 370.566 357.58 370.72C356.571 370.833 355.599 368.105 353.931 368.324Z"
              fill="#FF69CD"/>
        <path d="M354.044 396.356C353.052 396.356 351.981 395.425 351.028 394.598C350.285 393.952 349.583 393.346 349.126 393.386C348.669 393.431 348.437 393.694 348.169 393.998C347.799 394.418 347.38 394.893 346.281 394.973C345.054 395.059 344.032 392.974 343.209 391.297C342.797 390.456 342.37 389.586 342.147 389.586C341.918 389.586 341.769 389.768 341.596 389.978C341.278 390.365 340.883 390.845 339.8 390.485C338.227 389.96 336.298 386.297 337.155 380.1C338.009 373.921 341.949 367.976 345.421 367.626C347.702 367.395 349.217 368.265 350.322 368.899C350.91 369.237 351.376 369.503 351.735 369.458C352.26 369.391 352.561 369.115 352.852 368.849C353.137 368.589 353.432 368.319 353.922 368.255C354.902 368.126 355.632 368.953 356.276 369.683C356.756 370.227 357.172 370.695 357.572 370.651C358.197 370.581 358.436 370.217 358.689 369.832C358.975 369.398 359.27 368.949 360.122 368.949C360.576 368.949 361.082 369.249 361.627 369.841C363.584 371.967 365.724 377.592 365.431 381.127C365.289 382.84 365.367 384.898 365.436 386.714C365.544 389.605 365.63 391.888 364.893 392.152C364.179 392.407 363.485 391.619 362.873 390.923C362.48 390.476 362.11 390.054 361.875 390.104C361.647 390.151 361.529 390.908 361.414 391.639C361.23 392.817 361.022 394.152 360.26 394.288C359.486 394.425 358.804 394.188 358.201 393.98C357.832 393.852 357.514 393.742 357.24 393.742C356.981 393.742 356.732 394.119 356.444 394.555C355.995 395.237 355.379 396.17 354.27 396.338C354.196 396.35 354.12 396.356 354.044 396.356ZM349.174 393.243C349.684 393.243 350.352 393.823 351.121 394.491C352.123 395.362 353.26 396.349 354.249 396.199C355.296 396.041 355.867 395.174 356.327 394.478C356.65 393.988 356.905 393.601 357.24 393.601C357.537 393.601 357.866 393.715 358.247 393.847C358.834 394.049 359.497 394.28 360.236 394.149C360.898 394.031 361.107 392.693 361.275 391.617C361.413 390.732 361.522 390.033 361.847 389.966C362.162 389.899 362.54 390.331 362.979 390.829C363.561 391.491 364.22 392.242 364.845 392.019C365.485 391.79 365.392 389.327 365.294 386.719C365.226 384.899 365.148 382.836 365.291 381.115C365.58 377.614 363.461 372.042 361.523 369.936C361.006 369.375 360.534 369.09 360.122 369.09C359.346 369.09 359.084 369.488 358.807 369.91C358.548 370.305 358.279 370.714 357.588 370.791C357.11 370.847 356.676 370.349 356.17 369.777C355.549 369.073 354.847 368.277 353.941 368.395C353.494 368.453 353.229 368.696 352.948 368.953C352.641 369.234 352.323 369.525 351.753 369.598C351.346 369.65 350.863 369.373 350.252 369.022C349.163 368.397 347.671 367.541 345.435 367.766C342.021 368.11 338.141 373.998 337.295 380.119C336.827 383.511 337.24 385.876 337.669 387.262C338.179 388.912 338.993 390.066 339.845 390.35C340.836 390.681 341.182 390.259 341.487 389.888C341.675 389.66 341.852 389.444 342.147 389.444C342.445 389.444 342.76 390.058 343.337 391.234C344.098 392.787 345.145 394.918 346.271 394.831C347.313 394.756 347.711 394.303 348.063 393.904C348.34 393.591 348.6 393.295 349.113 393.245C349.133 393.244 349.153 393.243 349.174 393.243Z"
              fill="#080808"/>
        <path d="M349.607 382.919C346.765 382.919 344.747 381.901 343.48 380.945C341.799 379.677 341.059 378.279 341.028 378.22C340.98 378.128 341.016 378.014 341.108 377.966C341.2 377.918 341.314 377.954 341.362 378.046C341.391 378.101 344.32 383.529 351.574 382.383C358.818 381.238 359.081 373.732 359.083 373.656C359.085 373.552 359.17 373.465 359.276 373.472C359.38 373.475 359.462 373.561 359.46 373.665C359.457 373.743 359.183 381.561 351.633 382.755C350.916 382.868 350.241 382.919 349.607 382.919Z"
              fill="#080808"/>
        <path d="M349.45 380.049C349.226 380.049 349.027 379.888 348.987 379.66L348.2 375.189C348.154 374.932 348.326 374.688 348.581 374.643C348.837 374.597 349.082 374.769 349.127 375.025L349.914 379.496C349.959 379.752 349.788 379.996 349.532 380.041C349.504 380.046 349.477 380.049 349.45 380.049Z"
              fill="#080808"/>
        <path d="M351.993 379.734C351.759 379.734 351.557 379.56 351.526 379.322L350.928 374.631C350.895 374.373 351.077 374.137 351.335 374.104C351.594 374.072 351.829 374.254 351.862 374.512L352.46 379.203C352.493 379.461 352.311 379.697 352.053 379.73C352.033 379.732 352.013 379.734 351.993 379.734Z"
              fill="#080808"/>
        <path d="M337.076 381.497C337.076 381.497 332.281 383.24 331.12 385.715C329.959 388.189 331.303 390.755 332.128 390.755C332.953 390.755 333.106 388.831 333.717 388.831C334.328 388.831 334.022 390.603 334.48 390.755C334.939 390.908 334.816 389.167 335.611 389.167C336.405 389.167 335.487 394.452 337.076 394.452C338.666 394.452 337.352 388.739 338.452 388.556C339.552 388.373 339.582 389.931 340.346 389.809C341.11 389.686 340.987 388.22 341.568 388.22C342.148 388.22 343.218 389.259 344.073 389.076C344.928 388.892 344.758 387.67 345.576 387.518C346.395 387.365 348.319 388.248 348.93 387.975C349.541 387.701 349.419 386.784 350.336 386.632C351.252 386.479 351.222 390.909 352.23 390.756C353.238 390.603 352.26 386.051 352.841 386.051C353.421 386.051 353.91 387.976 354.643 387.823C355.376 387.67 354.796 385.929 355.499 385.654C356.201 385.379 356.629 386.387 357.24 386.173C357.851 385.96 357.698 385.135 358.248 385.012C358.798 384.89 359.959 386.204 360.631 386.082C361.303 385.96 361.028 384.279 361.578 384.279C362.127 384.279 363.075 384.524 363.502 384.524C363.93 384.524 363.93 383.669 364.297 383.669C364.663 383.669 364.017 387.732 365.394 387.548C366.771 387.365 366.466 382.54 366.924 382.54C367.382 382.54 368.329 383.485 369.154 383.302C369.979 383.119 369.459 380.339 370.04 380.033C370.62 379.728 370.987 377.589 369.307 376.856C367.626 376.123 364.867 376.856 364.867 376.856L365.125 378.004C365.125 378.004 366.618 377.446 367.046 378.74C367.474 380.033 366.74 381.469 353.238 384.28C339.735 387.09 333.379 388.33 333.151 386.83C332.861 384.921 337.041 383.915 337.041 383.915L337.076 381.497Z"
              fill="#F2FA64"/>
        <path d="M337.077 394.522C336.078 394.522 336.008 392.724 335.946 391.137C335.911 390.246 335.872 389.237 335.611 389.237C335.222 389.237 335.076 389.737 334.946 390.178C334.856 390.487 334.784 390.732 334.635 390.81C334.581 390.838 334.521 390.842 334.459 390.822C334.206 390.737 334.155 390.31 334.1 389.857C334.044 389.387 333.985 388.9 333.718 388.9C333.481 388.9 333.304 389.295 333.116 389.713C332.883 390.234 332.618 390.825 332.129 390.825C331.846 390.825 331.52 390.569 331.236 390.122C330.589 389.103 330.282 387.335 331.057 385.684C332.217 383.211 336.856 381.501 337.053 381.429C337.075 381.421 337.099 381.425 337.118 381.438C337.137 381.452 337.148 381.474 337.148 381.497L337.112 383.914C337.112 383.946 337.089 383.974 337.058 383.982C337.017 383.992 332.945 384.995 333.222 386.818C333.241 386.943 333.309 387.045 333.429 387.128C334.697 388.009 341.431 386.663 353.224 384.209C361.944 382.394 366.169 381.001 366.924 379.692C367.086 379.41 367.103 379.131 366.98 378.76C366.872 378.432 366.682 378.201 366.415 378.073C365.863 377.808 365.158 378.065 365.151 378.068C365.132 378.075 365.111 378.073 365.092 378.064C365.075 378.054 365.062 378.037 365.057 378.017L364.8 376.869C364.791 376.833 364.814 376.795 364.85 376.786C364.964 376.756 367.652 376.055 369.336 376.789C370.106 377.125 370.565 377.814 370.597 378.678C370.62 379.316 370.395 379.925 370.074 380.094C369.846 380.214 369.808 380.871 369.772 381.507C369.723 382.367 369.673 383.257 369.17 383.369C368.638 383.487 368.066 383.164 367.606 382.904C367.337 382.752 367.084 382.608 366.925 382.608C366.816 382.653 366.739 383.416 366.678 384.029C366.531 385.491 366.331 387.493 365.405 387.617C365.213 387.642 365.047 387.594 364.909 387.475C364.406 387.042 364.385 385.718 364.369 384.751C364.362 384.325 364.354 383.794 364.285 383.734C364.166 383.738 364.085 383.913 363.999 384.1C363.892 384.331 363.77 384.593 363.503 384.593C363.297 384.593 362.979 384.539 362.642 384.481C362.26 384.416 361.865 384.348 361.579 384.348C361.373 384.348 361.304 384.71 361.23 385.092C361.142 385.554 361.042 386.077 360.644 386.15C360.267 386.218 359.777 385.888 359.304 385.569C358.908 385.303 358.5 385.028 358.264 385.08C358.027 385.132 357.939 385.338 357.836 385.577C357.726 385.832 357.602 386.12 357.264 386.238C356.937 386.353 356.664 386.159 356.4 385.972C356.12 385.775 355.857 385.588 355.525 385.718C355.22 385.837 355.187 386.31 355.155 386.767C355.119 387.276 355.082 387.802 354.658 387.89C354.21 387.984 353.874 387.436 353.55 386.907C353.312 386.52 353.066 386.12 352.841 386.12C352.834 386.12 352.826 386.122 352.814 386.134C352.673 386.282 352.71 387.086 352.746 387.863C352.807 389.206 352.878 390.727 352.241 390.824C351.655 390.91 351.419 389.805 351.164 388.633C350.96 387.697 350.735 386.637 350.348 386.7C349.856 386.781 349.689 387.089 349.512 387.414C349.379 387.658 349.242 387.911 348.959 388.037C348.618 388.19 347.943 388.018 347.228 387.836C346.608 387.679 345.966 387.515 345.589 387.585C345.218 387.655 345.067 387.971 344.906 388.306C344.733 388.669 344.553 389.044 344.088 389.143C343.56 389.256 342.969 388.934 342.45 388.65C342.11 388.465 341.789 388.289 341.568 388.289C341.343 388.289 341.237 388.586 341.114 388.929C340.968 389.34 340.801 389.806 340.358 389.877C339.966 389.938 339.745 389.611 339.532 389.294C339.28 388.919 339.018 388.531 338.464 388.624C338.023 388.698 338.021 389.955 338.02 391.172C338.018 392.819 338.015 394.522 337.077 394.522ZM335.611 389.095C336.008 389.095 336.041 389.949 336.087 391.132C336.144 392.579 336.214 394.38 337.077 394.38C337.874 394.38 337.877 392.676 337.879 391.172C337.881 389.78 337.883 388.578 338.441 388.485C339.087 388.378 339.385 388.823 339.649 389.215C339.856 389.522 340.036 389.786 340.335 389.738C340.697 389.68 340.842 389.274 340.982 388.882C341.117 388.505 341.244 388.148 341.569 388.148C341.825 388.148 342.146 388.324 342.518 388.527C343.016 388.799 343.581 389.108 344.059 389.005C344.456 388.92 344.613 388.593 344.779 388.246C344.948 387.893 345.122 387.529 345.564 387.447C345.971 387.371 346.628 387.538 347.263 387.7C347.923 387.868 348.605 388.042 348.902 387.909C349.141 387.802 349.261 387.581 349.388 387.347C349.565 387.022 349.765 386.654 350.325 386.561C350.836 386.477 351.064 387.509 351.302 388.604C351.521 389.611 351.768 390.752 352.22 390.685C352.731 390.607 352.658 389.025 352.605 387.87C352.558 386.852 352.538 386.219 352.712 386.037C352.748 385.999 352.792 385.979 352.841 385.979C353.145 385.979 353.4 386.394 353.67 386.834C353.969 387.321 354.276 387.826 354.629 387.753C354.948 387.686 354.98 387.235 355.014 386.758C355.049 386.257 355.085 385.739 355.473 385.587C355.876 385.429 356.197 385.657 356.481 385.857C356.727 386.031 356.96 386.196 357.217 386.105C357.497 386.008 357.598 385.771 357.706 385.521C357.814 385.27 357.926 385.01 358.233 384.942C358.526 384.877 358.943 385.156 359.383 385.453C359.833 385.756 360.296 386.07 360.619 386.011C360.921 385.956 361.008 385.503 361.092 385.066C361.177 384.624 361.257 384.207 361.579 384.207C361.877 384.207 362.278 384.276 362.666 384.342C362.997 384.398 363.309 384.452 363.503 384.452C363.68 384.452 363.773 384.252 363.871 384.04C363.972 383.822 364.076 383.596 364.298 383.596C364.484 383.596 364.497 383.929 364.51 384.749C364.525 385.689 364.546 386.976 365.001 387.368C365.109 387.461 365.236 387.497 365.386 387.476C366.201 387.368 366.404 385.35 366.537 384.015C366.645 382.942 366.702 382.467 366.925 382.467C367.121 382.467 367.378 382.612 367.676 382.781C368.115 383.029 368.661 383.338 369.14 383.231C369.538 383.143 369.587 382.27 369.631 381.499C369.673 380.762 369.709 380.126 370.008 379.969C370.241 379.846 370.479 379.32 370.456 378.683C370.442 378.301 370.299 377.364 369.279 376.919C367.783 376.266 365.38 376.802 364.952 376.906L365.178 377.91C365.386 377.847 365.975 377.705 366.475 377.945C366.778 378.091 366.993 378.35 367.114 378.716C367.205 378.99 367.279 379.358 367.046 379.762C366.523 380.669 364.483 382.01 353.253 384.347C341.08 386.881 334.667 388.161 333.348 387.244C333.197 387.139 333.107 387.002 333.082 386.839C332.801 384.985 336.46 383.987 336.972 383.857L337.005 381.598C336.323 381.861 332.23 383.516 331.185 385.743C330.433 387.346 330.729 389.059 331.356 390.046C331.609 390.445 331.898 390.683 332.129 390.683C332.526 390.683 332.761 390.16 332.987 389.655C333.194 389.194 333.389 388.759 333.718 388.759C334.111 388.759 334.177 389.308 334.241 389.84C334.285 390.211 334.336 390.631 334.504 390.687C334.537 390.698 334.556 390.691 334.569 390.684C334.666 390.634 334.74 390.382 334.811 390.138C334.947 389.674 335.116 389.095 335.611 389.095Z"
              fill="#080808"/>
        <path d="M24.9196 247.927C21.2049 248.187 20.5266 256.337 23.6643 257.843C26.8024 259.349 26.4258 254.831 29.0614 254.412C31.6975 253.994 29.1032 247.634 24.9196 247.927Z"
              fill="#00C057"/>
        <path d="M23.2783 254.299C23.1206 254.969 23.319 255.7 23.8186 256.179C24.0124 256.365 24.301 256.077 24.1137 255.884C23.737 255.497 23.5703 254.927 23.6882 254.412C23.7138 254.3 23.6539 254.182 23.5396 254.151C23.4318 254.121 23.3049 254.186 23.2783 254.299Z"
              fill="black"/>
        <path d="M344.58 247.266C342.788 249.182 343.224 251.808 345.994 253.074C349.502 254.677 355.1 254.914 353.29 249.389C351.819 244.9 346.373 245.35 344.58 247.266Z"
              fill="white" fill-opacity="0.3"/>
        <path d="M236.709 192.547C242.216 190.798 247.853 202.167 244.188 206.133C240.522 210.1 238.485 199.483 234.444 200.386C230.402 201.29 230.507 194.516 236.709 192.547Z"
              fill="#FF69CD"/>
        <path d="M366.378 337.24C365.961 336.6 365.188 336.54 364.637 337.235C363.939 338.116 363.483 339.682 365.171 339.555C366.543 339.452 366.795 337.88 366.378 337.24Z"
              fill="white" fill-opacity="0.3"/>
        <path d="M210.558 219.132C209.663 217.758 208.005 217.63 206.822 219.122C205.325 221.011 204.345 224.373 207.968 224.1C210.913 223.878 211.453 220.506 210.558 219.132Z"
              fill="white" fill-opacity="0.3"/>
        <path d="M182.674 251.963C182.137 251.138 181.142 251.061 180.433 251.957C179.534 253.09 178.946 255.107 181.12 254.944C182.887 254.811 183.211 252.787 182.674 251.963Z"
              fill="white" fill-opacity="0.3"/>
        <path d="M327.924 447.494C328.967 447.278 327.951 444.891 328.854 444.225C329.757 443.56 331.619 444.213 332.343 442.527C333.066 440.84 328.672 437.757 326.068 440.524C323.464 443.293 326.609 447.765 327.924 447.494Z"
              fill="#75E8F5"/>
        <path d="M157.769 173.347C159.138 173.629 157.805 176.763 158.99 177.637C160.175 178.51 162.619 177.652 163.569 179.866C164.519 182.08 158.751 186.127 155.333 182.494C151.915 178.861 156.043 172.991 157.769 173.347Z"
              fill="#75E8F5"/>
        <path d="M337.814 636.207C336.743 633.106 333.587 632.055 330.569 634.377C326.749 637.318 323.218 643.366 330.381 644.592C336.201 645.589 338.884 639.307 337.814 636.207Z"
              fill="#75E8F5"/>
        <path d="M74.6666 631.83C71.5574 642.78 50.0851 646.278 26.7114 639.642C3.33365 633.004 -13.0961 618.743 -9.98707 607.793C-9.92769 607.584 -9.86203 607.382 -9.78824 607.181C-9.15113 605.38 -7.99955 603.796 -6.40934 602.437C0.80631 597.42 18.2266 597.236 37.2203 602.629C56.21 608.021 70.9346 617.332 74.4366 625.393C75.0714 627.383 75.2232 629.337 74.8183 631.204C74.7765 631.414 74.7258 631.621 74.6666 631.83Z"
              fill="#101521" stroke="#4E4E4E" stroke-width="0.461547" stroke-miterlimit="10"/>
        <path d="M74.9851 630.708C74.9368 630.878 74.882 631.043 74.8192 631.205C71.6694 639.647 51.0277 641.265 28.0989 634.755C5.16649 628.244 -11.5448 616.019 -9.78825 607.181C-9.75651 607.01 -9.71678 606.842 -9.6685 606.671C-9.19612 605.008 -8.07571 603.595 -6.40934 602.437C0.80631 597.42 18.2266 597.236 37.2203 602.629C56.21 608.021 70.9346 617.332 74.4366 625.393C75.2468 627.254 75.4575 629.045 74.9851 630.708Z"
              fill="#FF69CD" stroke="#4E4E4E" stroke-width="0.461547" stroke-miterlimit="10"/>
        <path d="M30.7748 626.063C47.551 630.826 62.3773 630.368 63.8904 625.039C65.4034 619.71 53.0302 611.529 36.254 606.766C19.4778 602.002 4.65144 602.46 3.1384 607.789C1.62536 613.118 13.9986 621.299 30.7748 626.063Z"
              fill="#FF69CD" stroke="#4E4E4E" stroke-width="0.461547" stroke-miterlimit="10"/>
        <path d="M31.3953 626.212C43.3925 629.618 53.9954 629.291 55.0773 625.48C56.1593 621.669 47.3108 615.819 35.3135 612.412C23.3163 609.006 12.7134 609.333 11.6314 613.144C10.5495 616.954 19.398 622.805 31.3953 626.212Z"
              fill="#101521" stroke="#4E4E4E" stroke-width="0.461547" stroke-miterlimit="10"/>
        <path d="M3.1383 607.789C3.1383 607.789 11.4939 574.768 42.8143 583.661C63.1191 589.426 68.9129 607.35 63.8903 625.039"
              stroke="#4E4E4E" stroke-width="0.461547" stroke-miterlimit="10" stroke-linecap="round"/>
        <path d="M37.4097 617.519L33.9749 616.544L31.2425 626.167L34.6773 627.142L37.4097 617.519Z" fill="#69F3FF"
              stroke="#4E4E4E" stroke-width="0.461547" stroke-miterlimit="10" stroke-linecap="round"/>
        <path d="M48.0252 601.022L48.7847 598.347C50.2098 598.303 51.4019 597.594 51.7227 596.464C52.1511 594.955 50.8639 593.268 48.8473 592.696C46.8307 592.123 44.8491 592.882 44.4207 594.39C44.0705 595.624 44.8679 596.976 46.2723 597.741L45.69 599.792C44.0334 599.007 42.2342 598.326 40.3228 597.783C37.6393 597.022 35.0006 596.607 32.531 596.506L33.1509 594.323C34.5177 594.24 35.6478 593.544 35.9587 592.449C36.3871 590.94 35.0999 589.253 33.0833 588.681C31.0671 588.108 29.0851 588.867 28.6567 590.375C28.2974 591.641 29.1474 593.029 30.6195 593.782L29.841 596.524C23.9919 596.853 19.5221 599.109 18.4658 602.829C16.833 608.58 23.9709 615.645 34.4093 618.609C44.8476 621.572 54.633 619.313 56.2659 613.562C57.4531 609.383 54.0041 604.51 48.0252 601.022Z"
              fill="#69F3FF" stroke="#4E4E4E" stroke-width="0.461547" stroke-miterlimit="10" stroke-linecap="round"/>
        <path d="M34.129 591.967C33.9499 592.598 33.2129 591.827 32.1891 591.537C31.1648 591.246 30.2412 591.545 30.4203 590.914C30.5994 590.283 31.575 590.007 32.5988 590.298C33.623 590.589 34.3081 591.336 34.129 591.967Z"
              fill="white" stroke="#4E4E4E" stroke-width="0.461547" stroke-miterlimit="10" stroke-linecap="round"/>
        <path d="M49.7918 596.414C49.6126 597.045 48.8757 596.275 47.8518 595.984C46.8275 595.693 45.9039 595.992 46.0831 595.361C46.2622 594.73 47.2377 594.454 48.2616 594.745C49.2858 595.036 49.9709 595.783 49.7918 596.414Z"
              fill="white" stroke="#4E4E4E" stroke-width="0.461547" stroke-miterlimit="10" stroke-linecap="round"/>
        <path d="M33.1168 591.568C33.068 591.74 32.8891 591.839 32.7178 591.79C32.5459 591.742 32.4461 591.563 32.4948 591.391C32.5435 591.219 32.7225 591.12 32.8944 591.168C33.0656 591.218 33.1656 591.396 33.1168 591.568Z"
              fill="#101521"/>
        <path d="M49.0613 596.094C49.0125 596.266 48.8336 596.366 48.6618 596.317C48.4899 596.268 48.3906 596.089 48.4392 595.918C48.488 595.746 48.667 595.646 48.8384 595.695C49.0105 595.744 49.1101 595.922 49.0613 596.094Z"
              fill="#101521"/>
        <path d="M49.4194 607.83C48.6533 610.528 45.1319 617.132 36.7585 614.755C28.3377 612.364 28.1362 604.702 28.9023 602.004C29.6685 599.306 33.5216 603.215 39.1875 604.823C44.8533 606.432 50.1855 605.132 49.4194 607.83Z"
              fill="#101521"/>
        <path d="M33.1284 602.465C33.1284 602.465 31.8302 603.885 32.591 604.357C33.3515 604.829 34.1845 603.02 34.1845 603.02L33.1284 602.465Z"
              fill="white" stroke="#4E4E4E" stroke-width="0.461547" stroke-miterlimit="10" stroke-linecap="round"/>
        <path d="M31.29 611.123C31.29 611.123 33.04 610.323 32.5243 609.591C32.0085 608.859 30.5349 610.198 30.5349 610.198L31.29 611.123Z"
              fill="white" stroke="#4E4E4E" stroke-width="0.461547" stroke-miterlimit="10" stroke-linecap="round"/>
        <path d="M35.4264 614.026C35.4264 614.026 36.5733 612.481 35.7686 612.09C34.9639 611.698 34.3192 613.581 34.3192 613.581L35.4264 614.026Z"
              fill="white" stroke="#4E4E4E" stroke-width="0.461547" stroke-miterlimit="10" stroke-linecap="round"/>
        <path d="M40.8433 615.035C40.8433 615.035 41.3582 613.181 40.4664 613.104C39.5747 613.028 39.6498 615.017 39.6498 615.017L40.8433 615.035Z"
              fill="white" stroke="#4E4E4E" stroke-width="0.461547" stroke-miterlimit="10" stroke-linecap="round"/>
        <path d="M46.049 612.787C46.049 612.787 45.3066 611.012 44.5587 611.503C43.8108 611.995 45.1002 613.512 45.1002 613.512L46.049 612.787Z"
              fill="white" stroke="#4E4E4E" stroke-width="0.461547" stroke-miterlimit="10" stroke-linecap="round"/>
        <path d="M35.8444 603.861C35.8444 603.861 34.6841 605.396 35.4853 605.794C36.2866 606.193 36.9479 604.315 36.9479 604.315L35.8444 603.861Z"
              fill="white" stroke="#4E4E4E" stroke-width="0.461547" stroke-miterlimit="10" stroke-linecap="round"/>
        <path d="M39.2175 605.127C39.2175 605.127 38.3256 606.832 39.1816 607.093C40.0376 607.355 40.3805 605.394 40.3805 605.394L39.2175 605.127Z"
              fill="white" stroke="#4E4E4E" stroke-width="0.461547" stroke-miterlimit="10" stroke-linecap="round"/>
        <path d="M43.4229 605.822C43.4229 605.822 42.6963 607.603 43.5727 607.783C44.4497 607.963 44.6059 605.978 44.6059 605.978L43.4229 605.822Z"
              fill="white" stroke="#4E4E4E" stroke-width="0.461547" stroke-miterlimit="10" stroke-linecap="round"/>
        <rect width="375" height="59" fill="black"/>
        <rect x="125" y="10" width="125" height="37" rx="18.5" fill="black"/>
        <rect x="125" y="10" width="80" height="37" rx="18.5" fill="black"/>
        <rect x="213" y="10" width="37" height="37" rx="18.5" fill="black"/>
    </g>
    <defs>
        <filter id="filter0_b_89_19583" x="-70" y="-11" width="515" height="196" filterUnits="userSpaceOnUse"
                color-interpolation-filters="sRGB">
            <feFlood flood-opacity="0" result="BackgroundImageFix"/>
            <feGaussianBlur in="BackgroundImageFix" stdDeviation="35"/>
            <feComposite in2="SourceAlpha" operator="in" result="effect1_backgroundBlur_89_19583"/>
            <feBlend mode="normal" in="SourceGraphic" in2="effect1_backgroundBlur_89_19583" result="shape"/>
        </filter>
        <radialGradient id="paint0_radial_89_19583" cx="0" cy="0" r="1" gradientUnits="userSpaceOnUse"
                        gradientTransform="translate(187.5 618.5) rotate(90) scale(151.5)">
            <stop stop-color="#D9D9D9"/>
            <stop offset="1" stop-color="#D9D9D9" stop-opacity="0"/>
        </radialGradient>
        <linearGradient id="paint1_linear_89_19583" x1="354.776" y1="577.969" x2="354.776" y2="625.039"
                        gradientUnits="userSpaceOnUse">
            <stop stop-color="#00C057"/>
            <stop offset="1"/>
        </linearGradient>
        <linearGradient id="paint2_linear_89_19583" x1="354.776" y1="577.969" x2="354.776" y2="625.039"
                        gradientUnits="userSpaceOnUse">
            <stop stop-color="#101521"/>
            <stop offset="0.83751" stop-color="#101521" stop-opacity="0"/>
        </linearGradient>
        <linearGradient id="paint3_linear_89_19583" x1="345.617" y1="580.438" x2="345.617" y2="620.436"
                        gradientUnits="userSpaceOnUse">
            <stop stop-color="#F8FF21"/>
            <stop offset="1"/>
        </linearGradient>
        <linearGradient id="paint4_linear_89_19583" x1="345.617" y1="580.438" x2="345.617" y2="620.436"
                        gradientUnits="userSpaceOnUse">
            <stop stop-color="#101521"/>
            <stop offset="0.83751" stop-color="#101521" stop-opacity="0"/>
        </linearGradient>
        <linearGradient id="paint5_linear_89_19583" x1="351.5" y1="579.213" x2="351.5" y2="622.809"
                        gradientUnits="userSpaceOnUse">
            <stop stop-color="#FF69CD"/>
            <stop offset="1"/>
        </linearGradient>
        <linearGradient id="paint6_linear_89_19583" x1="351.5" y1="579.213" x2="351.5" y2="622.809"
                        gradientUnits="userSpaceOnUse">
            <stop stop-color="#101521"/>
            <stop offset="0.83751" stop-color="#101521" stop-opacity="0"/>
        </linearGradient>
        <clipPath id="clip0_89_19583">
            <rect width="375" height="812" fill="white"/>
        </clipPath>
    </defs>
</svg>
