<?xml version="1.0" standalone="no"?><!DOCTYPE svg PUBLIC "-//W3C//DTD SVG 1.1//EN" "http://www.w3.org/Graphics/SVG/1.1/DTD/svg11.dtd">
<svg t="1698820292661" class="icon" viewBox="0 0 1024 1024" version="1.1" xmlns="http://www.w3.org/2000/svg" p-id="1321"
     width="16" height="16"><path d="M927.746284 221.620493 96.281345 221.620493c-17.07898 0-30.990828 13.911848-30.990828 30.962176l0 518.837732c0 17.080004 13.911848 30.957059 30.990828 30.957059l831.464939 0c17.08512 0 30.962176-13.877055 30.962176-30.957059L958.70846 252.582669C958.70846 235.532341 944.831404 221.620493 927.746284 221.620493zM489.611595 663.905712c5.990434 5.996574 13.964036 9.30697 22.38687 9.30697 2.883677 0 5.709025-0.393973 8.420787-1.139963 5.40408-1.347694 10.490935-4.065596 14.602579-8.165983l126.277008-126.877689 0.716314-0.718361 237.513462 232.483912-775.714194 0.713244 238.199077-233.199203L489.611595 663.905712zM511.998465 643.906216 120.930745 252.841565l782.910083-0.712221L511.998465 643.906216zM342.326111 516.621251 93.738429 760.716618 93.738429 268.032546 342.326111 516.621251zM681.706635 516.619204 930.291247 268.032546 930.291247 760.687966 681.706635 516.619204z" fill="#8a8a8a" p-id="1322"></path></svg>
