<?xml version="1.0" standalone="no"?><!DOCTYPE svg PUBLIC "-//W3C//DTD SVG 1.1//EN" "http://www.w3.org/Graphics/SVG/1.1/DTD/svg11.dtd">
<svg t="1712560721215" class="icon" viewBox="0 0 1332 1024" version="1.1" xmlns="http://www.w3.org/2000/svg" p-id="1901"
     width="260.15625" height="200"><path d="M647.54878028 961.90853662a644.72561016 644.72561016 0 0 1-585.36585353-450 644.72561016 644.72561016 0 0 1 585.36585352-450 644.90853691 644.90853691 0 0 1 585.36585351 450 644.63414678 644.63414678 0 0 1-585.36585351 450z m-1e-8-803.50609746a553.71951211 553.71951211 0 0 0-484.75609717 353.50609746 553.81097549 553.81097549 0 0 0 484.75609717 353.59756085 553.81097549 553.81097549 0 0 0 484.75609805-353.59756085 553.71951211 553.71951211 0 0 0-484.75609805-353.50609746z m0 546.31097578a192.8963417 192.8963417 0 1 1 195.18292705-192.80487832 193.90243886 193.90243886 0 0 1-195.18292705 192.8963417z m0-289.29878086a96.49390253 96.49390253 0 1 0 97.50000059 96.49390254 97.13414619 97.13414619 0 0 0-97.50000059-96.40243915z" p-id="1902"></path></svg>
