<svg t="1716254645052" class="icon" viewBox="0 0 1393 1024" version="1.1" xmlns="http://www.w3.org/2000/svg" p-id="1107" width="200" height="200"><path d="M155.71818089 962a72.38484756 72.38484756 0 0 1-38.0327168-10.78346953 71.86827393 71.86827393 0 0 1-34.35213076-61.34309122V199.66680987A137.86052519 137.86052519 0 0 1 221.0001432 62h949.2036161a137.86052519 137.86052519 0 0 1 137.66681075 137.66680987v545.11407685a137.86052519 137.86052519 0 0 1-137.66681075 137.66680986h-794.23159657a186.28928086 186.28928086 0 0 0-82.58717198 19.37150245l-105.31640127 52.36762851a73.03056416 73.03056416 0 0 1-32.35040859 7.81317246z m853.05639199-581.1450706a93.17692617 93.17692617 0 0 0-93.0477832 93.04778232 93.17692617 93.17692617 0 0 0 93.0477832 93.0477832 93.17692617 93.17692617 0 0 0 93.11235469-93.0477832 93.17692617 93.17692617 0 0 0-93.0477832-93.11235469zM603.19988508 473.90271172A93.17692617 93.17692617 0 0 0 696.24766829 566.95049492a93.17692617 93.17692617 0 0 0 93.04778321-93.0477832 93.17692617 93.17692617 0 0 0-93.04778321-93.04778232 92.40206661 92.40206661 0 0 0-65.79853681 27.24924638 92.27292276 92.27292276 0 0 0-27.1846749 65.73396445z m-219.54369374-93.11235469a92.14377979 92.14377979 0 0 0-65.54024913 27.1846749 92.46663808 92.46663808 0 0 0-27.24924726 65.8631083A93.17692617 93.17692617 0 0 0 384.10819349 566.95049492a93.17692617 93.17692617 0 0 0 93.0477832-93.0477832 93.17692617 93.17692617 0 0 0-93.0477832-93.04778232z" p-id="1108"></path></svg>
