<svg xmlns="http://www.w3.org/2000/svg" width="11.758" height="12.856" viewBox="0 0 11.758 12.856"><defs><style>.a{fill:rgba(214,71,59,0.4);}.b{fill:#ef6a63;}.c{fill:#fa4e4e;}.d{fill:#fff;}</style></defs><g transform="translate(-13.474 0)"><path class="a" d="M135.539,3l.034,8.933a.371.371,0,0,1-.372.372h-8.636a.371.371,0,0,1-.372-.372V.917a.371.371,0,0,1,.372-.372l6.56-.014L132.608,0h-6.024a.873.873,0,0,0-.873.874V11.983a.872.872,0,0,0,.873.873h8.6a.873.873,0,0,0,.874-.873V3.535L135.539,3Z" transform="translate(-110.827)"/><path class="b" d="M675.126,2.589a.948.948,0,0,0,.948.948h2.5L675.126,0Z" transform="translate(-653.345 0)"/><path class="c" d="M19.988,227.52h-5.3a1.211,1.211,0,0,1-1.212-1.212v-.8a1.211,1.211,0,0,1,1.212-1.212h5.3a1.211,1.211,0,0,1,1.212,1.212v.8a1.211,1.211,0,0,1-1.212,1.212" transform="translate(0 -221.48)"/><path class="d" d="M85.183,274.863h.445v1.561h.692v.511H85.183v-2.072Zm-1.9,0h.583l.225,1.259.225-1.259H84.9v2.072h-.363v-1.579l-.279,1.579h-.329l-.279-1.579v1.579h-.363v-2.072Zm-1.545,0h1.35v.511h-.454v1.559H82.19v-1.559h-.454v-.511Zm-1.57,0h.445v.724H81.1v-.724h.447v2.072H81.1V276.1h-.485v.837h-.445v-2.072Z" transform="translate(-65.857 -271.412)"/><path class="b" d="M288.931,581.806l-.029-.03a.234.234,0,0,0-.334,0l-1.522,1.523a.238.238,0,0,0,0,.336l1.523,1.523a.234.234,0,0,0,.334,0l.029-.03a.234.234,0,0,0,0-.333l-1.327-1.328,1.327-1.327a.234.234,0,0,0,0-.334m1.813-.082-.041-.016a.235.235,0,0,0-.3.141l-1.116,3.063a.235.235,0,0,0,.141.3l.041.016a.235.235,0,0,0,.3-.141l1.116-3.063a.236.236,0,0,0-.141-.3m2.4,1.575-1.522-1.522a.234.234,0,0,0-.334,0l-.029.029a.234.234,0,0,0,0,.333l1.327,1.328-1.327,1.327a.234.234,0,0,0,0,.334l.029.029a.234.234,0,0,0,.334,0l1.522-1.522a.238.238,0,0,0,0-.336" transform="translate(-270.068 -574.391)"/></g></svg>