<svg xmlns="http://www.w3.org/2000/svg" width="11.807" height="11.807" viewBox="0 0 11.807 11.807"><defs><style>.a{fill:#a4a4a4;}</style></defs><path class="a" d="M439.218,677.376a.85.85,0,1,0,.6.249A.862.862,0,0,0,439.218,677.376Z" transform="translate(-433.314 -669.566)"/><path class="a" d="M343.3,213.312a1.888,1.888,0,0,0-1.39.526,1.934,1.934,0,0,0-.57,1.281c-.011.446.93.353.964.133a1.625,1.625,0,0,1,.371-.78.938.938,0,0,1,.671-.256.893.893,0,0,1,.661.246.826.826,0,0,1,.107,1.045,4.872,4.872,0,0,1-.55.552,2.547,2.547,0,0,0-.613.758,2.086,2.086,0,0,0-.153.859c0,.033,0,.128,0,.282h.955a1.873,1.873,0,0,1,.073-.678,1.741,1.741,0,0,1,.412-.5,4.663,4.663,0,0,0,.839-.951,1.493,1.493,0,0,0,.2-.741,1.7,1.7,0,0,0-.535-1.24,1.951,1.951,0,0,0-1.44-.533Z" transform="translate(-337.4 -210.853)"/><path class="a" d="M5.9,0a5.9,5.9,0,1,0,5.9,5.9A5.911,5.911,0,0,0,5.9,0Zm0,11.056A5.16,5.16,0,1,1,11.061,5.9,5.166,5.166,0,0,1,5.9,11.056Z"/></svg>