<svg width="41" height="41" viewBox="0 0 41 41" fill="none" xmlns="http://www.w3.org/2000/svg">
<rect x="0.949219" y="0.5" width="40" height="40" rx="20" fill="white" fill-opacity="0.1"/>
<rect x="1.44922" y="1" width="39" height="39" rx="19.5" stroke="white" stroke-opacity="0.1"/>
<path d="M20.9488 30.5057C23.0855 30.5057 24.8176 26.0297 24.8176 20.5082C24.8176 14.9868 23.0855 10.5107 20.9488 10.5107C18.8122 10.5107 17.0801 14.9868 17.0801 20.5082C17.0801 26.0297 18.8122 30.5057 20.9488 30.5057Z" stroke="#E1FF01" stroke-width="1.25"/>
<path d="M20.9492 30.501C26.4721 30.501 30.9492 26.0238 30.9492 20.501C30.9492 14.9781 26.4721 10.501 20.9492 10.501C15.4264 10.501 10.9492 14.9781 10.9492 20.501C10.9492 26.0238 15.4264 30.501 20.9492 30.501Z" stroke="#E1FF01" stroke-width="1.25"/>
<path d="M10.9492 20.4951L30.9492 20.5076" stroke="#E1FF01" stroke-width="1.25" stroke-linecap="round" stroke-linejoin="round"/>
</svg>
