<svg xmlns="http://www.w3.org/2000/svg" width="10.184" height="12.856" viewBox="0 0 10.184 12.856"><defs><style>.a{fill:#1296db;}</style></defs><path class="a" d="M170.048,67.224a.456.456,0,0,1,.136.324V76.4a.461.461,0,0,1-.463.459h-9.258A.461.461,0,0,1,160,76.4V64.459a.461.461,0,0,1,.463-.459h6.143a.467.467,0,0,1,.328.135Zm-.932.535-2.722-2.7v2.7ZM163.85,71.7l.855,1.908a.232.232,0,0,0,.212.136h.348a.232.232,0,0,0,.212-.137l.855-1.913v2.259a.231.231,0,0,0,.231.23h.4a.231.231,0,0,0,.232-.23v-3.9a.231.231,0,0,0-.232-.23h-.5a.232.232,0,0,0-.212.138l-1.15,2.62-1.15-2.62a.232.232,0,0,0-.212-.138h-.506a.231.231,0,0,0-.231.23v3.9a.231.231,0,0,0,.231.23h.392a.231.231,0,0,0,.231-.23V71.7Z" transform="translate(-160 -64)"/></svg>