<?xml version="1.0" standalone="no"?><!DOCTYPE svg PUBLIC "-//W3C//DTD SVG 1.1//EN" "http://www.w3.org/Graphics/SVG/1.1/DTD/svg11.dtd">
<svg t="1712044956086" class="icon" viewBox="0 0 1087 1024" version="1.1" xmlns="http://www.w3.org/2000/svg" p-id="1696"
     width="212.3046875" height="200"><path d="M874.80787959 961.9427955h-376.97712803A450.08437675 450.08437675 0 0 1 513.73358105 62.00285997h53.08570108a450.94244238 450.94244238 0 0 1 451.28566933 451.28566933 441.61812246 441.61812246 0 0 1-183.05414384 361.07429942l55.77430957 40.04309355a28.08737051 28.08737051 0 0 1 5.32001074 37.18287333 23.91144785 23.91144785 0 0 1-21.33724834 10.3539999zM325.01619951 466.83854052a66.8147625 66.8147625 0 0 0-47.47966875 19.9071378 60.35066279 60.35066279 0 0 0-19.90713867 43.76138204 67.44401104 67.44401104 0 0 0 19.90713867 49.13859638l140.72287325 140.72287324a76.02467432 76.02467432 0 0 0 47.76569033 18.59143623 46.16396719 46.16396719 0 0 0 42.50288408-18.59143623l281.38854199-281.38854199a60.2934583 60.2934583 0 0 0 19.90713779-43.76138116 67.50121553 67.50121553 0 0 0-19.90713779-49.13859726 60.2934583 60.2934583 0 0 0-45.47751416-19.90713779 66.8147625 66.8147625 0 0 0-47.47966875 19.90713779L463.33648672 579.70286123 370.4365083 486.80288281a60.2934583 60.2934583 0 0 0-45.42030879-19.96434228z" p-id="1697"></path></svg>
