<svg t="1711503805142" class="icon" viewBox="0 0 1024 1024" version="1.1" xmlns="http://www.w3.org/2000/svg" p-id="1340" width="200" height="200"><path d="M451.81965869 600.70093086L133.14861406 414.85567256a24.61618388 24.61618388 0 0 0-36.94736689 19.39736777v317.2393336a25.30894658 25.30894658 0 0 0 12.23881523 19.35118388l318.67104463 187.73881084a24.56999912 24.56999912 0 0 0 36.9473669-21.75276269v-314.05262344a25.2627627 25.2627627 0 0 0-12.23881524-22.07605166z m463.41235634-197.20657442a24.24671016 24.24671016 0 0 0-24.61618388 0l-318.90196494 187.73881085a25.30894658 25.30894658 0 0 0-12.33118389 21.79894745v323.79749122a25.2627627 25.2627627 0 0 0 12.33118389 21.75276269 24.20052539 24.20052539 0 0 0 24.61618389 0l318.67104375-187.73881084a25.21657793 25.21657793 0 0 0 12.33118388-21.7527627V425.20093526a25.21657793 25.21657793 0 0 0-12.10026269-21.70657882z m-50.47934062-117.03078633v-5.77302626a25.21657793 25.21657793 0 0 0-12.37736865-21.79894658L524.09794589 65.37976016a24.06197285 24.06197285 0 0 0-24.56999911 0L158.13427167 266.51199219a25.44749912 25.44749912 0 0 0 1e-8 43.55170927L490.15255273 505.515275a24.33907793 24.33907793 0 0 0 24.56999912 0l337.65275391-197.34512607a25.2627627 25.2627627 0 0 0 12.37736865-21.70657881z" p-id="1341"></path></svg>