<svg width="120" height="120" viewBox="0 0 120 120" fill="none" xmlns="http://www.w3.org/2000/svg">
<g id="shopping-online-gifting">
<g id="Group">
<path id="Vector" d="M28.4528 72.5595C28.2687 72.1629 28.0081 71.8065 27.6859 71.5107C27.3637 71.2149 26.9862 70.9857 26.5752 70.8369C26.1642 70.6875 25.7277 70.6203 25.2908 70.6401C24.854 70.6599 24.4253 70.7661 24.0296 70.9521L18.9446 73.3233L22.0454 79.9833C22.852 80.3409 23.6826 80.6415 24.5312 80.8833C22.148 77.0643 23.0144 76.4031 25.523 79.1391C27.9368 81.7731 30.9152 81.9957 32.9216 82.1835L28.4528 72.5595Z" fill="#E1FF01"/>
<path id="Vector_2" d="M27.8146 88.6576C27.1642 88.4668 26.4748 88.258 25.786 88.042L28.2712 93.3772C27.8539 91.8412 27.6995 90.2452 27.8146 88.6576Z" fill="#E1FF01"/>
<path id="Vector_3" d="M29.5712 94.6429C29.231 94.7875 28.8758 94.5181 28.6592 94.1863L29.651 96.3073L34.5872 94.0039C33.1736 94.1989 30.4034 94.5397 29.5712 94.6429Z" fill="#E1FF01"/>
<path id="Vector_4" d="M21.3507 86.4587C20.3703 86.0711 19.3671 85.6721 18.4209 85.2047C17.1441 84.5777 17.2209 83.9279 18.4665 84.2243C18.9225 84.3269 19.4583 84.3953 20.3361 84.5087C19.3319 84.1361 18.3533 83.6981 17.4063 83.1977C16.1181 82.4687 16.3689 81.6245 17.6001 82.0697C17.9307 82.1951 18.6945 82.4339 19.5837 82.6619L19.4469 82.3769C18.7437 81.9773 18.0626 81.5399 17.4069 81.0665C16.2213 80.1539 16.5633 79.3559 17.7261 79.9715C17.8971 80.0627 18.1593 80.1767 18.4785 80.3135L15.8793 74.7275L10.8057 77.0987C10.409 77.2829 10.0526 77.5433 9.75694 77.8655C9.46132 78.1877 9.23218 78.5651 9.08284 78.9761C8.9335 79.3871 8.86678 79.8239 8.88658 80.2607C8.90644 80.6975 9.01234 81.1259 9.19834 81.5219L17.0871 98.4863C17.2713 98.8829 17.5319 99.2393 17.8541 99.5351C18.1763 99.8303 18.5538 100.06 18.9648 100.209C19.3758 100.358 19.8122 100.425 20.2491 100.405C20.6859 100.385 21.1145 100.28 21.5103 100.094L26.5953 97.7219L21.3507 86.4587Z" fill="#E1FF01"/>
<path id="Vector_5" d="M56.7721 8.28375L48.8941 11.5904L55.8943 6.68775L54.0817 3.39315C54.0223 3.28614 53.9381 3.19492 53.8361 3.12715C53.7341 3.05938 53.6174 3.01702 53.4958 3.00363C53.3741 2.99023 53.251 3.00619 53.1367 3.05016C53.0225 3.09412 52.9204 3.16483 52.8391 3.25635L43.3651 13.802C43.2607 13.9204 43.1954 14.0682 43.1781 14.2251C43.1608 14.3821 43.1923 14.5406 43.2683 14.6789C43.3444 14.8173 43.4612 14.9289 43.603 14.9984C43.7448 15.0679 43.9046 15.092 44.0605 15.0674L58.0489 12.7076C58.1692 12.6879 58.2829 12.6399 58.3807 12.5673C58.4786 12.4947 58.5575 12.3997 58.6111 12.2903C58.6647 12.1809 58.6913 12.0603 58.6887 11.9385C58.6861 11.8167 58.6543 11.6973 58.5961 11.5904L56.7721 8.28375Z" fill="#E1FF01"/>
</g>
<g id="Group_2">
<path id="Vector_6" d="M61.1047 66.7686C60.2155 67.1796 60.0103 68.7978 60.3847 71.0442C62.1871 70.899 63.9709 70.5744 65.7091 70.0752C63.9433 67.704 62.1421 66.2898 61.1047 66.7686Z" fill="white"/>
<path id="Vector_7" d="M70.1913 79.001C68.5611 80.2934 66.6459 81.1778 64.6047 81.581C66.7485 85.0124 69.0285 87.0872 70.2939 86.4944C71.5593 85.91 71.4453 82.8434 70.1913 79.001Z" fill="white"/>
<path id="Vector_8" d="M112.771 18.7842C109.956 21.2124 104.848 29.3184 103.902 32.2482C104.073 33.6618 104.209 34.665 104.301 35.52C106.4 35.8005 108.53 35.7582 110.617 35.3946L110.594 34.4598C113.034 26.4912 113.125 23.0706 112.771 18.7842Z" fill="white"/>
<path id="Vector_9" d="M78.9345 9.03613C76.9053 12.6727 74.7849 21.0181 74.6145 24.8035C75.2187 25.7719 75.8001 26.7295 76.3587 27.6763C77.9685 26.244 79.7967 25.0777 81.7743 24.2215C81.8097 22.1005 82.0923 18.3115 78.9345 9.03613Z" fill="white"/>
<path id="Vector_10" d="M27.8146 88.6582C27.655 91.9528 28.3054 94.5982 29.32 94.6774C30.28 94.7578 31.2466 92.5684 31.6342 89.6044C30.3359 89.401 29.0578 89.0842 27.8146 88.6582Z" fill="white"/>
<path id="Vector_11" d="M55.7924 100.445C55.0686 100.773 54.4163 101.24 53.873 101.821C53.3297 102.4 52.906 103.082 52.6259 103.825C52.3459 104.569 52.2151 105.361 52.241 106.155C52.2669 106.949 52.449 107.731 52.7768 108.454C53.1047 109.178 53.5719 109.83 54.1518 110.374C54.7317 110.917 55.413 111.341 56.1567 111.62C56.9004 111.901 57.6919 112.031 58.4862 112.006C59.2804 111.98 60.062 111.797 60.7856 111.47L55.7924 100.445Z" fill="white"/>
<path id="Vector_12" d="M110.743 40.0449L110.777 41.7093C112.772 41.2179 112.727 40.5009 110.743 40.0449Z" fill="white"/>
<path id="Vector_13" d="M76.3461 34.8125C76.6011 35.2547 78.0789 34.9037 79.9713 34.0373C79.6407 33.3875 79.276 32.7173 78.8998 32.0195C77.1556 33.2387 76.0881 34.3655 76.3461 34.8125Z" fill="white"/>
<path id="Vector_14" d="M86.4936 28.9528C86.3226 28.6564 85.6044 28.7128 84.5898 29.044L85.4676 30.5488C86.2656 29.8306 86.6646 29.2492 86.4936 28.9528Z" fill="white"/>
<path id="Vector_15" d="M57.2289 77.4502C56.9295 78.4042 56.5322 79.3252 56.0433 80.1976L57.2631 80.7796L57.2289 77.4502Z" fill="white"/>
<path id="Vector_16" d="M50.5022 67.9316L49.955 69.6644L49.5902 68.4104L50.5022 67.9316Z" fill="white"/>
<path id="Vector_17" d="M100.482 40.8783C100.482 41.4255 102.124 41.8815 104.404 42.0525C104.438 41.1291 104.449 40.3653 104.461 39.7041C102.146 39.8637 100.482 40.3311 100.482 40.8783Z" fill="white"/>
<path id="Vector_18" d="M61.0933 56.0293C61.2961 55.8972 61.4689 55.7229 61.5985 55.5184C61.7281 55.3138 61.8127 55.0837 61.8457 54.8437C61.8799 54.5884 61.8565 54.3286 61.7761 54.0838C61.6957 53.839 61.5613 53.6155 61.3819 53.4301C61.2031 53.2448 60.9847 53.1024 60.7429 53.0135C60.5011 52.9246 60.2419 52.8917 59.9857 52.9171C60.1405 52.7052 60.2383 52.4574 60.2707 52.1971C60.3307 51.7515 60.2119 51.3002 59.941 50.9415C59.6699 50.5828 59.268 50.3458 58.8229 50.2819C58.4875 50.2351 58.1458 50.2907 57.8425 50.4415C57.8643 50.3709 57.8796 50.2983 57.8881 50.2249C57.9385 49.8567 57.8668 49.4821 57.6842 49.1584C57.5016 48.8347 57.218 48.5797 56.8768 48.4324C56.5356 48.2851 56.1555 48.2535 55.7947 48.3425C55.4338 48.4315 55.1121 48.6362 54.8785 48.9253C54.881 48.515 54.7344 48.1178 54.466 47.8074C54.1977 47.4971 53.8257 47.2948 53.4193 47.2381L53.3053 47.2153C52.9098 47.1604 52.5075 47.247 52.1695 47.4597C51.8316 47.6725 51.5796 47.9977 51.4579 48.3781C51.3248 48.0249 51.0777 47.726 50.7558 47.5288C50.4339 47.3316 50.0555 47.2473 49.6803 47.2891C49.3051 47.3309 48.9545 47.4966 48.684 47.7598C48.4134 48.0231 48.2382 48.369 48.1861 48.7429C48.1767 48.7917 48.1729 48.8414 48.1747 48.8911C47.9155 48.6408 47.5848 48.4775 47.2285 48.4237C47.0076 48.3922 46.7827 48.4048 46.5666 48.4606C46.3506 48.5165 46.1477 48.6145 45.9697 48.7491C45.7917 48.8836 45.642 49.0521 45.5294 49.2447C45.4167 49.4374 45.3433 49.6504 45.3133 49.8715C45.2838 50.1088 45.3037 50.3497 45.3721 50.5789C45.2283 50.5095 45.0744 50.4634 44.9161 50.4421C44.5803 50.3955 44.2382 50.4507 43.934 50.6004C43.6298 50.7502 43.3775 50.9877 43.2096 51.2822C43.0417 51.5767 42.9658 51.9149 42.992 52.2529C43.0181 52.591 43.1449 52.9134 43.3561 53.1787C42.9567 53.1303 42.5529 53.2254 42.2171 53.447C41.8812 53.6687 41.6351 54.0025 41.5226 54.3889C41.4102 54.7753 41.4387 55.189 41.6031 55.5564C41.7675 55.9237 42.0571 56.2206 42.4201 56.3941C42.0209 56.4474 41.6536 56.6408 41.3838 56.9397C41.1139 57.2387 40.959 57.6238 40.9466 58.0264C40.9343 58.4289 41.0653 58.8228 41.3164 59.1377C41.5675 59.4526 41.9223 59.6681 42.3175 59.7457C42.0305 59.9358 41.8083 60.2089 41.6804 60.5287C41.5525 60.8485 41.5252 61.1995 41.602 61.5349C41.6788 61.8709 41.856 62.1751 42.1102 62.4073C42.3643 62.6395 42.6832 62.7889 43.0243 62.8351C43.1641 62.8465 43.3046 62.8465 43.4443 62.8351C43.3016 63.0523 43.2082 63.2983 43.1707 63.5551C43.1108 64.0009 43.2293 64.4521 43.5004 64.8109C43.7716 65.1691 44.1735 65.4067 44.6185 65.4703C44.9577 65.5231 45.3048 65.4673 45.6103 65.3107C45.5265 65.6245 45.5346 65.9557 45.6336 66.2653C45.7326 66.5743 45.9184 66.8485 46.1689 67.0555C45.9544 65.9683 45.9466 64.8505 46.1461 63.7603C46.9327 58.0603 49.9081 61.0129 50.4895 63.0763C50.6263 63.4411 50.8657 63.4525 51.2875 62.8255C52.1659 61.5259 53.7733 63.2587 51.8923 65.0599C51.6985 65.2537 51.6067 66.5761 52.3723 68.0125C52.6201 68.2369 52.9303 68.3797 53.2615 68.4229C53.4945 68.4547 53.7315 68.4373 53.9575 68.3731C54.1836 68.3083 54.3938 68.1973 54.5748 68.0473C54.7559 67.8973 54.9039 67.7113 55.0094 67.5013C55.115 67.2913 55.1758 67.0615 55.1881 66.8269C55.4109 67.0501 55.6916 67.2067 55.9986 67.2787C56.3057 67.3507 56.6268 67.3357 56.9256 67.2349C57.2244 67.1341 57.4891 66.9517 57.6898 66.7087C57.8904 66.4651 58.0189 66.1705 58.0609 65.8579C58.092 65.6251 58.0765 65.3887 58.0153 65.1625C58.2558 65.2717 58.5183 65.3233 58.7822 65.3131C59.0461 65.3029 59.304 65.2315 59.5353 65.1043C59.7667 64.9771 59.9651 64.7977 60.1147 64.5799C60.2647 64.3627 60.3613 64.1131 60.3979 63.8515C60.4309 63.6265 60.4171 63.3973 60.3583 63.1777C60.2995 62.9581 60.1969 62.7529 60.0559 62.5747C60.4561 62.6251 60.8605 62.5321 61.1983 62.3113C61.5355 62.0905 61.7833 61.7569 61.8973 61.3699C62.0107 60.9835 61.9831 60.5683 61.8193 60.2005C61.6555 59.832 61.3657 59.5341 61.0021 59.3599C61.3717 59.3125 61.7155 59.1453 61.9813 58.8838C62.2471 58.6224 62.4193 58.281 62.4727 57.9121C62.5315 57.4807 62.4205 57.0433 62.1631 56.692C61.9063 56.3408 61.5223 56.1032 61.0933 56.0293Z" fill="white"/>
</g>
<g id="Group_3">
<path id="Vector_19" d="M112.704 50.8311C114.413 54.6708 115.344 58.8115 115.442 63.0135C115.541 67.2153 114.805 71.3955 113.277 75.3111C111.749 79.2261 109.46 82.8003 106.542 85.8249C103.623 88.8495 100.134 91.2657 96.2758 92.9331" stroke="white" stroke-width="0.45" stroke-linecap="round" stroke-linejoin="round"/>
<path id="Vector_20" d="M88.5114 32.3848C94.4256 33.2854 99.963 35.8429 104.483 39.7612" stroke="white" stroke-width="0.45" stroke-linecap="round" stroke-linejoin="round"/>
<path id="Vector_21" d="M69.5292 35.3488C72.288 33.9691 75.2334 33.0014 78.273 32.4766" stroke="white" stroke-width="0.45" stroke-linecap="round" stroke-linejoin="round"/>
<path id="Vector_22" d="M50.6277 89.0225L63.3051 116.999" stroke="white" stroke-width="0.45" stroke-linecap="round" stroke-linejoin="round"/>
<path id="Vector_23" d="M43.8332 74.0198L25.946 34.574C24.977 32.474 26.345 30.6182 28.6364 30.914L59.6912 34.9724C61.4966 35.2087 63.2126 35.8968 64.6808 36.9731C66.1496 38.0493 67.3226 39.4787 68.0912 41.129L103.227 116.976" stroke="white" stroke-width="0.45" stroke-linecap="round" stroke-linejoin="round"/>
<path id="Vector_24" d="M50.1342 70.3848C46.179 73.0536 41.876 75.1668 37.3458 76.6644C35.124 76.9836 32.8861 77.1774 30.6426 77.2458" stroke="white" stroke-width="0.45" stroke-linecap="round" stroke-linejoin="round"/>
<path id="Vector_25" d="M32.9109 82.1702L28.4397 72.548C28.0658 71.7488 27.39 71.1302 26.5607 70.829C25.7313 70.5278 24.8163 70.568 24.0165 70.9406L10.8057 77.108C10.0062 77.4818 9.38787 78.1574 9.08637 78.9866C8.78487 79.8164 8.82489 80.7314 9.19767 81.5312L17.0871 98.4956C17.4609 99.2948 18.1367 99.9134 18.9661 100.215C19.7954 100.516 20.7105 100.476 21.5103 100.103L34.5867 94.0034" stroke="white" stroke-width="0.45" stroke-linecap="round" stroke-linejoin="round"/>
<path id="Vector_26" d="M17.3498 74.042C17.3498 74.042 8.4662 73.2248 4.82059 70.6334C1.17499 68.042 4.20259 61.7534 8.8904 65.0924C13.6532 68.4824 17.3498 74.042 17.3498 74.042Z" stroke="white" stroke-width="0.45" stroke-linecap="round" stroke-linejoin="round"/>
<path id="Vector_27" d="M17.3402 74.0428C17.3402 74.0428 22.8638 67.0438 23.4962 62.608C24.1286 58.1722 17.4848 56.0542 16.6802 61.7398C15.8546 67.5346 17.3402 74.0428 17.3402 74.0428Z" stroke="white" stroke-width="0.45" stroke-linecap="round" stroke-linejoin="round"/>
<path id="Vector_28" d="M49.9362 69.7231L50.5014 67.9231C50.5014 67.9231 45.1788 71.5369 46.158 63.7615C46.8606 58.1815 49.7814 60.8815 50.4576 62.9341C50.616 63.4141 50.8092 63.5659 51.2976 62.8381C52.1748 61.5379 53.7924 63.2815 51.9018 65.0725C51.5388 65.4169 51.6774 67.9759 53.8518 69.8383C55.2318 71.0215 59.5062 71.8447 65.6964 70.0783" stroke="white" stroke-width="0.45" stroke-linecap="round" stroke-linejoin="round"/>
<path id="Vector_29" d="M49.5903 68.4102C49.9464 69.9462 50.4543 71.4432 51.1065 72.879" stroke="white" stroke-width="0.45" stroke-linecap="round" stroke-linejoin="round"/>
<path id="Vector_30" d="M52.9648 68.9004C51.5848 73.3122 47.5264 78.2142 44.3458 82.2048C39.7079 82.6026 35.0405 82.4952 30.4258 81.885" stroke="white" stroke-width="0.45" stroke-linecap="round" stroke-linejoin="round"/>
<path id="Vector_31" d="M70.1919 79C68.2143 80.5696 65.8179 81.5212 63.3021 81.7348C60.7863 81.9484 58.2635 81.4144 56.0499 80.2C54.4484 83.2024 52.6683 86.1058 50.7195 88.8952C50.0755 89.866 49.1177 90.586 48.0063 90.9352C41.9921 92.782 35.8094 94.027 29.5491 94.6516" stroke="white" stroke-width="0.45" stroke-linecap="round" stroke-linejoin="round"/>
<path id="Vector_32" d="M64.6053 81.577C66.7491 85.0084 69.0267 87.0784 70.2945 86.4904C74.2167 84.6706 65.0901 64.9288 61.1055 66.7672C60.2163 67.1782 60.0111 68.7964 60.3855 71.0428" stroke="white" stroke-width="0.45" stroke-linecap="round" stroke-linejoin="round"/>
<path id="Vector_33" d="M100.482 40.8789C100.596 44.3901 101.03 57.0789 101.03 58.3899C99.0233 58.6977 83.1881 62.5053 82.2875 62.6649" stroke="white" stroke-width="0.45" stroke-linecap="round" stroke-linejoin="round"/>
<path id="Vector_34" d="M88.7407 76.537C112.785 68.077 112.258 68.4766 112.741 61.876C113.047 57.6694 112.547 45.6076 112.251 40.8652" stroke="white" stroke-width="0.45" stroke-linecap="round" stroke-linejoin="round"/>
<path id="Vector_35" d="M76.3472 34.8125C78.08 37.8677 84.9872 49.2911 85.6046 50.4425C84.9446 50.9327 81.9224 54.2051 79.4246 56.5535" stroke="white" stroke-width="0.45" stroke-linecap="round" stroke-linejoin="round"/>
<path id="Vector_36" d="M94.5199 59.8141C99.2281 52.5289 98.3143 50.7175 96.8599 47.6839C94.9759 43.7635 88.7653 32.6581 86.4625 28.9189" stroke="white" stroke-width="0.45" stroke-linecap="round" stroke-linejoin="round"/>
<path id="Vector_37" d="M78.9346 9.03613C76.9054 12.6727 74.785 21.0181 74.6146 24.8035C75.2188 25.7719 75.8002 26.7295 76.3588 27.6763C77.9746 26.2517 79.8016 25.0863 81.7744 24.2215C81.784 23.1679 82.0924 18.3115 78.9346 9.03613Z" stroke="white" stroke-width="0.45" stroke-linecap="round" stroke-linejoin="round"/>
<path id="Vector_38" d="M25.8734 32.1614C26.4917 30.7156 27.5638 29.5104 28.9277 28.7279C30.2916 27.9454 31.8732 27.6281 33.4334 27.824L63.884 31.7456C65.2034 31.9148 66.458 32.4157 67.5308 33.2014C68.6042 33.9871 69.4604 35.032 70.0202 36.2384L107.425 116.977" stroke="white" stroke-width="0.45" stroke-linecap="round" stroke-linejoin="round"/>
<path id="Vector_39" d="M32.1607 35.7356C32.5807 36.6476 32.4343 37.6166 31.8301 37.9016C31.2259 38.1866 30.3823 37.6736 29.9605 36.7616C29.5387 35.8496 29.6845 34.8758 30.2911 34.5956C30.8977 34.3154 31.7407 34.8236 32.1607 35.7356Z" stroke="white" stroke-width="0.45" stroke-linecap="round" stroke-linejoin="round"/>
<path id="Vector_40" d="M13.1659 40.5928L16.2097 47.182" stroke="white" stroke-width="0.45" stroke-linecap="round" stroke-linejoin="round"/>
<path id="Vector_41" d="M17.9767 42.3604L11.3989 45.4156" stroke="white" stroke-width="0.45" stroke-linecap="round" stroke-linejoin="round"/>
<path id="Vector_42" d="M100.641 45.4502C104.491 46.7144 108.432 46.5902 112.487 45.4502" stroke="white" stroke-width="0.45" stroke-linecap="round" stroke-linejoin="round"/>
<path id="Vector_43" d="M78.6809 38.7897C82.6367 38.0353 86.1983 35.9059 88.7351 32.7783" stroke="white" stroke-width="0.45" stroke-linecap="round" stroke-linejoin="round"/>
<path id="Vector_44" d="M56.7726 8.28375L48.8946 11.5904L55.8948 6.68775L54.0822 3.39315C54.0228 3.28614 53.9386 3.19492 53.8366 3.12715C53.7346 3.05938 53.6179 3.01702 53.4963 3.00363C53.3746 2.99023 53.2514 3.00619 53.1372 3.05016C53.023 3.09412 52.9209 3.16483 52.8396 3.25635L43.3656 13.802C43.2612 13.9204 43.1959 14.0682 43.1786 14.2251C43.1613 14.3821 43.1928 14.5406 43.2688 14.6789C43.3449 14.8173 43.4617 14.9289 43.6035 14.9984C43.7453 15.0679 43.9051 15.092 44.061 15.0674L58.0494 12.7076C58.1697 12.6879 58.2834 12.6399 58.3812 12.5673C58.4791 12.4947 58.558 12.3997 58.6116 12.2903C58.6652 12.1809 58.6918 12.0603 58.6892 11.9385C58.6866 11.8167 58.6548 11.6973 58.5966 11.5904L56.7726 8.28375Z" stroke="white" stroke-width="0.45" stroke-linecap="round" stroke-linejoin="round"/>
<path id="Vector_45" d="M104.654 96.4663C110.149 99.4189 111.301 90.9937 116.796 93.9463" stroke="white" stroke-width="0.45" stroke-linecap="round" stroke-linejoin="round"/>
<path id="Vector_46" d="M25.6842 81.1784C23.4965 80.666 21.4008 79.8206 19.4706 78.6704C18.3078 78.032 17.8716 78.674 19.0032 79.6736C20.0511 80.5622 21.1898 81.3386 22.4004 81.9884" stroke="white" stroke-width="0.45" stroke-linecap="round" stroke-linejoin="round"/>
<path id="Vector_47" d="M21.3596 81.3939C20.1262 80.9997 18.9192 80.5275 17.7458 79.9803C16.5734 79.3617 16.2308 80.1603 17.4266 81.0747C18.8776 82.0635 20.4021 82.9407 21.9866 83.6973" stroke="white" stroke-width="0.45" stroke-linecap="round" stroke-linejoin="round"/>
<path id="Vector_48" d="M20.2567 82.8328C19.3621 82.6252 18.4793 82.3702 17.6119 82.069C16.3861 81.6094 16.1311 82.465 17.4181 83.1976C18.7795 83.905 20.1981 84.496 21.6588 84.9646" stroke="white" stroke-width="0.45" stroke-linecap="round" stroke-linejoin="round"/>
<path id="Vector_49" d="M31.635 89.6032C31.3158 89.7058 25.7178 88.1674 22.4232 86.89C21.1032 86.377 19.7232 85.8616 18.4332 85.2256C17.1348 84.5848 17.2116 83.944 18.4674 84.2338C18.9228 84.3388 19.4592 84.4048 20.337 84.5188" stroke="white" stroke-width="0.45" stroke-linecap="round" stroke-linejoin="round"/>
<path id="Vector_50" d="M27.8153 88.6577C27.6557 91.9523 28.3061 94.5947 29.3207 94.6769C31.8593 94.8827 32.8607 82.3019 30.3353 81.8633C28.4959 81.4529 26.8185 80.5085 25.5131 79.1495C23.0129 76.4165 22.2293 77.0063 24.6011 80.8253" stroke="white" stroke-width="0.45" stroke-linecap="round" stroke-linejoin="round"/>
<path id="Vector_51" d="M55.7919 100.456C54.7191 100.94 53.8108 101.727 53.1784 102.719C52.5462 103.712 52.2173 104.868 52.2323 106.045C52.2473 107.221 52.6054 108.368 53.2628 109.345C53.9202 110.321 54.8482 111.084 55.933 111.541C57.0178 111.997 58.2123 112.127 59.37 111.914C60.5277 111.702 61.5981 111.156 62.4501 110.344C63.3015 109.532 63.8979 108.489 64.1655 107.342C64.4337 106.196 64.3605 104.997 63.9567 103.892C63.6699 103.112 63.2259 102.399 62.6523 101.798C62.0787 101.197 61.3875 100.721 60.6213 100.399C59.8555 100.076 59.0315 99.9151 58.2006 99.9253C57.3698 99.9349 56.5499 100.116 55.7919 100.456Z" stroke="white" stroke-width="0.45" stroke-linecap="round" stroke-linejoin="round"/>
<path id="Vector_52" d="M84.5898 29.0442C85.6044 28.7136 86.3202 28.6578 86.4936 28.953C86.9736 29.7714 83.4894 32.073 82.6722 32.574C81.5922 33.234 76.9302 35.8236 76.347 34.8126C76.089 34.3656 77.1564 33.2394 78.9006 32.0196" stroke="white" stroke-width="0.45" stroke-linecap="round" stroke-linejoin="round"/>
<path id="Vector_53" d="M81.7741 24.2217C79.8025 25.077 77.9785 26.2392 76.3699 27.6651C77.6353 29.8083 78.9577 32.0451 79.9729 34.0251C81.9529 33.1178 83.8009 31.9472 85.4677 30.5451L81.7741 24.2217Z" stroke="white" stroke-width="0.45" stroke-linecap="round" stroke-linejoin="round"/>
<path id="Vector_54" d="M112.771 18.7842C109.956 21.2124 104.848 29.3184 103.902 32.2482C104.073 33.6618 104.209 34.665 104.301 35.52C106.4 35.8005 108.53 35.7582 110.617 35.3946L110.594 34.4598C113.034 26.4912 113.125 23.0706 112.771 18.7842Z" stroke="white" stroke-width="0.45" stroke-linecap="round" stroke-linejoin="round"/>
<path id="Vector_55" d="M110.617 35.3936C108.53 35.7572 106.4 35.7995 104.301 35.519C104.512 37.6902 104.546 39.875 104.403 42.0518C106.534 42.2299 108.679 42.111 110.777 41.6984C110.619 35.3318 110.648 36.4712 110.617 35.3936Z" stroke="white" stroke-width="0.45" stroke-linecap="round" stroke-linejoin="round"/>
<path id="Vector_56" d="M98.7594 28.9642C98.5734 29.1073 98.349 29.1921 98.115 29.2078C97.881 29.2236 97.647 29.1694 97.4436 29.0524C97.2402 28.9353 97.0758 28.7605 96.972 28.5502C96.8676 28.3398 96.8286 28.1033 96.8586 27.8706C96.8892 27.6378 96.9876 27.4192 97.1418 27.2425C97.2966 27.0658 97.5 26.9389 97.7268 26.8778C97.953 26.8167 98.193 26.8242 98.4156 26.8993C98.6376 26.9744 98.8326 27.1138 98.976 27.2998C99.1662 27.5498 99.2508 27.8649 99.21 28.1766C99.1692 28.4882 99.0072 28.7713 98.7594 28.9642Z" stroke="white" stroke-width="0.45" stroke-linecap="round" stroke-linejoin="round"/>
<path id="Vector_57" d="M62.4721 57.9102C62.4193 58.2793 62.2471 58.6209 61.9813 58.8824C61.7155 59.144 61.3711 59.3111 61.0015 59.358C61.3651 59.5322 61.6549 59.8301 61.8187 60.1986C61.9825 60.5664 62.0101 60.9816 61.8967 61.368C61.7827 61.755 61.5349 62.0886 61.1977 62.3094C60.8599 62.5296 60.4555 62.6232 60.0553 62.5728C60.1957 62.7516 60.2983 62.9568 60.3571 63.1764C60.4159 63.3954 60.4297 63.6246 60.3973 63.8496C60.3667 64.0704 60.2929 64.2828 60.1801 64.4754C60.0673 64.6674 59.9175 64.836 59.7396 64.9704C59.5618 65.1048 59.3592 65.2026 59.1434 65.259C58.9276 65.3148 58.7029 65.328 58.4821 65.2974C58.3205 65.2746 58.163 65.229 58.0147 65.1606C58.0753 65.3874 58.0908 65.6232 58.0603 65.856C58.0183 66.1686 57.8897 66.4632 57.6891 66.7068C57.4885 66.9498 57.2238 67.1322 56.9249 67.233C56.6261 67.3338 56.305 67.3488 55.998 67.2768C55.691 67.2048 55.4102 67.0482 55.1875 66.825C55.1894 66.8748 55.1855 66.9246 55.1761 66.9732C55.1122 67.4184 54.8752 67.8204 54.5165 68.091C54.1578 68.3622 53.7065 68.481 53.2609 68.421C52.9298 68.3772 52.6197 68.2344 52.3717 68.0106C51.6079 66.5742 51.6967 65.2506 51.8917 65.058C53.7517 63.2364 52.1641 61.5234 51.2869 62.8236C50.9233 63.3636 50.6437 63.5514 50.4535 62.9568C49.7965 60.903 46.9243 58.167 46.1455 63.7584C45.947 64.8486 45.9547 65.9664 46.1683 67.0536C45.9445 66.87 45.7715 66.6318 45.6658 66.3624C45.56 66.093 45.525 65.8008 45.5641 65.514C45.5733 65.4444 45.5885 65.376 45.6097 65.3088C45.3035 65.463 44.957 65.5188 44.6179 65.4684C44.1739 65.4024 43.7735 65.1648 43.5027 64.8066C43.232 64.4484 43.1126 63.9984 43.1701 63.5532C43.2079 63.2964 43.3012 63.0504 43.4437 62.8332C43.3039 62.8446 43.1635 62.8446 43.0237 62.8332C42.6826 62.787 42.3637 62.6376 42.1095 62.4054C41.8554 62.1732 41.6781 61.8684 41.6013 61.533C41.5246 61.1976 41.5519 60.8466 41.6797 60.5268C41.8076 60.207 42.0299 59.934 42.3169 59.7438C41.9217 59.6662 41.5669 59.4507 41.3158 59.1359C41.0647 58.8209 40.9337 58.4271 40.946 58.0245C40.9583 57.6219 41.1132 57.2368 41.3831 56.9379C41.653 56.6389 42.0203 56.4455 42.4195 56.3922C42.0571 56.2184 41.7682 55.9216 41.6041 55.5546C41.4401 55.1877 41.4117 54.7745 41.5239 54.3885C41.6362 54.0026 41.8817 53.669 42.217 53.4472C42.5522 53.2254 42.9552 53.1298 43.3543 53.1774C43.1431 52.9122 43.0163 52.5897 42.9902 52.2516C42.964 51.9136 43.0398 51.5755 43.2077 51.281C43.3756 50.9864 43.628 50.7489 43.9322 50.5992C44.2364 50.4494 44.5784 50.3943 44.9143 50.4408C45.0726 50.4621 45.2265 50.5083 45.3703 50.5776C45.3026 50.3485 45.2832 50.1078 45.3133 49.8708C45.3428 49.6495 45.4159 49.4361 45.5283 49.2432C45.6408 49.0503 45.7904 48.8817 45.9686 48.747C46.1467 48.6123 46.3498 48.5144 46.5661 48.4587C46.7824 48.4031 47.0075 48.391 47.2285 48.423C47.5852 48.4754 47.9164 48.6389 48.1747 48.8904C48.1946 48.501 48.3479 48.1304 48.6089 47.8407C48.8699 47.5511 49.2226 47.3601 49.6079 47.2999C49.9931 47.2397 50.3873 47.3139 50.7242 47.5102C51.0611 47.7065 51.3202 48.0126 51.4579 48.3774C52.0645 46.503 54.9043 47.0166 54.8779 48.9246C55.1114 48.6356 55.4332 48.4308 55.7941 48.3419C56.1549 48.2528 56.5349 48.2844 56.8762 48.4317C57.2173 48.5791 57.5009 48.8341 57.6835 49.1577C57.8662 49.4814 57.9378 49.856 57.8875 50.2242C57.8789 50.2977 57.8637 50.3702 57.8419 50.4408C58.1449 50.2893 58.4869 50.2337 58.8223 50.2812C59.2681 50.345 59.6705 50.5823 59.9421 50.9415C60.2137 51.3006 60.3319 51.7526 60.2719 52.1988C60.2389 52.459 60.1411 52.7067 59.9869 52.9188C60.1237 52.9065 60.2611 52.9101 60.3973 52.9296C60.8413 52.9958 61.2415 53.2336 61.5127 53.5918C61.7833 53.95 61.9027 54.4001 61.8451 54.8454C61.8121 55.0854 61.7275 55.3155 61.5979 55.5201C61.4683 55.7247 61.2955 55.8989 61.0927 56.031C61.5217 56.1037 61.9057 56.3405 62.1631 56.6912C62.4205 57.042 62.5315 57.4792 62.4721 57.9102Z" stroke="white" stroke-width="0.45" stroke-linecap="round" stroke-linejoin="round"/>
<path id="Vector_58" d="M15.902 74.7256L18.5012 80.3116" stroke="white" stroke-width="0.45" stroke-linecap="round" stroke-linejoin="round"/>
<path id="Vector_59" d="M21.3633 86.457L26.6079 97.7208" stroke="white" stroke-width="0.45" stroke-linecap="round" stroke-linejoin="round"/>
<path id="Vector_60" d="M18.9341 73.3125L22.0349 79.9701" stroke="white" stroke-width="0.45" stroke-linecap="round" stroke-linejoin="round"/>
<path id="Vector_61" d="M25.7865 88.042L28.2717 93.3772" stroke="white" stroke-width="0.45" stroke-linecap="round" stroke-linejoin="round"/>
<path id="Vector_62" d="M28.6595 94.1865L29.6399 96.3075" stroke="white" stroke-width="0.45" stroke-linecap="round" stroke-linejoin="round"/>
<path id="Vector_63" d="M104.46 39.7041C103.457 39.7731 100.08 40.1415 100.519 41.0373C100.978 41.9691 105.439 42.1341 106.569 42.1311C111.081 42.1197 114.334 40.8789 110.73 40.0347" stroke="white" stroke-width="0.45" stroke-linecap="round" stroke-linejoin="round"/>
<path id="Vector_64" d="M56.0513 80.1952C56.5021 79.3018 56.9063 78.3856 57.2621 77.4502V80.7904" stroke="white" stroke-width="0.45" stroke-linecap="round" stroke-linejoin="round"/>
</g>
</g>
</svg>
