<svg xmlns="http://www.w3.org/2000/svg" width="11.758" height="12.856" viewBox="0 0 11.758 12.856"><defs><style>.a{fill:#7ccdff;}.b{fill:#4191fb;}.c{fill:#c7e2ff;}.d{fill:#fff;}</style></defs><g transform="translate(-67.584 -27.989)"><path class="a" d="M202.731,72h-9.707V59.9h6.932l2.775,2.761Z" transform="translate(-123.772 -31.49)"/><path class="b" d="M183.4,30.994l.034,8.933a.371.371,0,0,1-.372.372h-8.636a.371.371,0,0,1-.372-.372V28.906a.371.371,0,0,1,.372-.372l6.56-.014-.517-.531h-6.024a.872.872,0,0,0-.874.874V39.972a.872.872,0,0,0,.874.874h8.6a.872.872,0,0,0,.874-.874V31.525l-.517-.531Z" transform="translate(-104.575 0)"/><path class="c" d="M692.4,30.578a.948.948,0,0,0,.948.948h2.5L692.4,27.989v2.589Z" transform="translate(-616.504 0)"/><path class="b" d="M74.1,243.011H68.8a1.211,1.211,0,0,1-1.212-1.212V241a1.211,1.211,0,0,1,1.212-1.212h5.3A1.211,1.211,0,0,1,75.31,241v.8A1.211,1.211,0,0,1,74.1,243.011Z" transform="translate(0 -208.981)"/><path class="d" d="M117.931,287.573h1.945v.511h-.653v1.559h-.64v-1.559h-.651Zm2.092,0h.706l.368.638.356-.638h.7l-.644,1,.706,1.069h-.719l-.408-.665-.408.665h-.715l.715-1.08-.651-.992Zm2.246,0h1.945v.511h-.653v1.559h-.64v-1.559h-.653Z" transform="translate(-49.678 -256.133)"/><path class="b" d="M320.595,618.467h-5.85a.377.377,0,0,1-.377-.377v-.07a.377.377,0,0,1,.377-.377h5.85a.377.377,0,0,1,.377.377v.07A.377.377,0,0,1,320.595,618.467Z" transform="translate(-243.503 -581.814)"/><path class="b" d="M318.2,749.026h-3.451a.377.377,0,0,1-.377-.377v-.07a.377.377,0,0,1,.377-.377H318.2a.377.377,0,0,1,.377.377v.07A.377.377,0,0,1,318.2,749.026Z" transform="translate(-243.503 -710.638)"/></g></svg>