<svg width="25" height="25" viewBox="0 0 25 25" fill="none" xmlns="http://www.w3.org/2000/svg">
<g id="uil:wallet">
<path id="Vector" d="M19.3218 7.75H18.3218V6.75C18.3218 5.95435 18.0057 5.19129 17.4431 4.62868C16.8805 4.06607 16.1174 3.75 15.3218 3.75H5.32178C4.52613 3.75 3.76307 4.06607 3.20046 4.62868C2.63785 5.19129 2.32178 5.95435 2.32178 6.75V18.75C2.32178 19.5456 2.63785 20.3087 3.20046 20.8713C3.76307 21.4339 4.52613 21.75 5.32178 21.75H19.3218C20.1174 21.75 20.8805 21.4339 21.4431 20.8713C22.0057 20.3087 22.3218 19.5456 22.3218 18.75V10.75C22.3218 9.95435 22.0057 9.19129 21.4431 8.62868C20.8805 8.06607 20.1174 7.75 19.3218 7.75ZM5.32178 5.75H15.3218C15.587 5.75 15.8413 5.85536 16.0289 6.04289C16.2164 6.23043 16.3218 6.48478 16.3218 6.75V7.75H5.32178C5.05656 7.75 4.80221 7.64464 4.61467 7.45711C4.42713 7.26957 4.32178 7.01522 4.32178 6.75C4.32178 6.48478 4.42713 6.23043 4.61467 6.04289C4.80221 5.85536 5.05656 5.75 5.32178 5.75ZM20.3218 15.75H19.3218C19.0566 15.75 18.8022 15.6446 18.6147 15.4571C18.4271 15.2696 18.3218 15.0152 18.3218 14.75C18.3218 14.4848 18.4271 14.2304 18.6147 14.0429C18.8022 13.8554 19.0566 13.75 19.3218 13.75H20.3218V15.75ZM20.3218 11.75H19.3218C18.5261 11.75 17.7631 12.0661 17.2005 12.6287C16.6378 13.1913 16.3218 13.9544 16.3218 14.75C16.3218 15.5456 16.6378 16.3087 17.2005 16.8713C17.7631 17.4339 18.5261 17.75 19.3218 17.75H20.3218V18.75C20.3218 19.0152 20.2164 19.2696 20.0289 19.4571C19.8413 19.6446 19.587 19.75 19.3218 19.75H5.32178C5.05656 19.75 4.80221 19.6446 4.61467 19.4571C4.42713 19.2696 4.32178 19.0152 4.32178 18.75V9.58C4.64304 9.69302 4.98121 9.75051 5.32178 9.75H19.3218C19.587 9.75 19.8413 9.85536 20.0289 10.0429C20.2164 10.2304 20.3218 10.4848 20.3218 10.75V11.75Z" fill="black"/>
</g>
</svg>
