<svg width="120" height="120" viewBox="0 0 120 120" fill="none" xmlns="http://www.w3.org/2000/svg">
<g id="03">
<g id="Subtract">
<path fill-rule="evenodd" clip-rule="evenodd" d="M56.25 95.625C75.9251 95.625 91.875 79.6751 91.875 60C91.875 40.3249 75.9251 24.375 56.25 24.375C36.5749 24.375 20.625 40.3249 20.625 60C20.625 79.6751 36.5749 95.625 56.25 95.625ZM56.25 77.8125C66.0876 77.8125 74.0625 69.8376 74.0625 60C74.0625 50.1624 66.0876 42.1875 56.25 42.1875C46.4124 42.1875 38.4375 50.1624 38.4375 60C38.4375 69.8376 46.4124 77.8125 56.25 77.8125Z" fill="url(#paint0_linear_176_12913)"/>
<path d="M91.375 60C91.375 79.399 75.649 95.125 56.25 95.125C36.851 95.125 21.125 79.399 21.125 60C21.125 40.601 36.851 24.875 56.25 24.875C75.649 24.875 91.375 40.601 91.375 60ZM56.25 78.3125C66.3637 78.3125 74.5625 70.1137 74.5625 60C74.5625 49.8863 66.3637 41.6875 56.25 41.6875C46.1363 41.6875 37.9375 49.8863 37.9375 60C37.9375 70.1137 46.1363 78.3125 56.25 78.3125Z" stroke="white" stroke-opacity="0.1"/>
</g>
<path id="Vector 1" d="M68.4375 103.125H57.1875C54.5987 103.125 52.5 101.026 52.5 98.4375V21.5625C52.5 18.9737 54.5987 16.875 57.1875 16.875H58.1211C71.2709 16.875 83.2235 24.5127 88.7481 36.4458L101.276 63.5059C102.139 65.3698 100.778 67.5 98.7236 67.5H92.8125V84.375C92.8125 87.4816 90.2941 90 87.1875 90H75.9375C74.3842 90 73.125 91.2592 73.125 92.8125V98.4375C73.125 101.026 71.0263 103.125 68.4375 103.125Z" fill="#E1FF01"/>
<circle id="Ellipse 2" cx="56.25" cy="60" r="10.3125" fill="url(#paint1_linear_176_12913)"/>
<circle id="Ellipse 4" cx="85.3125" cy="49.6875" r="2.8125" fill="black"/>
<g id="Union">
<path d="M24.9356 45.4688C23.853 43.5937 21.1467 43.5938 20.0642 45.4688L15.1928 53.9062C14.1102 55.7812 15.4634 58.125 17.6285 58.125H27.3712C29.5363 58.125 30.8895 55.7812 29.8069 53.9062L24.9356 45.4688Z" fill="url(#paint2_linear_176_12913)"/>
<path d="M24.9356 74.5312C23.853 76.4062 21.1467 76.4062 20.0642 74.5312L15.1928 66.0937C14.1102 64.2187 15.4634 61.875 17.6285 61.875H27.3712C29.5363 61.875 30.8895 64.2187 29.8069 66.0937L24.9356 74.5312Z" fill="url(#paint3_linear_176_12913)"/>
</g>
<path id="Subtract_2" d="M61.875 60C61.875 63.1066 59.3566 65.625 56.25 65.625C55.334 65.625 54.4692 65.4061 53.705 65.0177C52.4176 64.3634 53.1842 62.8125 54.6283 62.8125H55.3125C55.8303 62.8125 56.25 62.3928 56.25 61.875C56.25 61.3572 55.8303 60.9375 55.3125 60.9375H51.6446C51.101 60.9375 50.625 60.5436 50.625 60C50.625 56.8934 53.1434 54.375 56.25 54.375C57.166 54.375 58.0308 54.5939 58.795 54.9823C60.0824 55.6366 59.3158 57.1875 57.8717 57.1875H57.1875C56.6697 57.1875 56.25 57.6072 56.25 58.125C56.25 58.6428 56.6697 59.0625 57.1875 59.0625H60.8554C61.399 59.0625 61.875 59.4564 61.875 60Z" fill="url(#paint4_linear_176_12913)"/>
<path id="Ellipse 36" d="M64.6875 33.75C64.6875 35.2418 65.2801 36.6726 66.335 37.7275C67.3899 38.7824 68.8207 39.375 70.3125 39.375C71.8043 39.375 73.2351 38.7824 74.29 37.7275C75.3449 36.6726 75.9375 35.2418 75.9375 33.75" stroke="url(#paint5_linear_176_12913)" stroke-width="1.875" stroke-linecap="round"/>
<path id="Ellipse 37" d="M70.3125 31.875C70.3125 30.3832 69.7199 28.9524 68.665 27.8975C67.6101 26.8426 66.1793 26.25 64.6875 26.25C63.1957 26.25 61.7649 26.8426 60.71 27.8975C59.6551 28.9524 59.0625 30.3832 59.0625 31.875" stroke="url(#paint6_linear_176_12913)" stroke-width="1.875" stroke-linecap="round"/>
<g id="Union_2">
<path d="M60.7031 90.8203C60.7031 91.7911 59.9161 92.5781 58.9453 92.5781C57.9745 92.5781 57.1875 91.7911 57.1875 90.8203C57.1875 89.8495 57.9745 89.0625 58.9453 89.0625C59.9161 89.0625 60.7031 89.8495 60.7031 90.8203Z" fill="url(#paint7_linear_176_12913)"/>
<path d="M60.7031 96.6797C60.7031 97.6505 59.9161 98.4375 58.9453 98.4375C57.9745 98.4375 57.1875 97.6505 57.1875 96.6797C57.1875 95.7089 57.9745 94.9219 58.9453 94.9219C59.9161 94.9219 60.7031 95.7089 60.7031 96.6797Z" fill="url(#paint8_linear_176_12913)"/>
<path d="M64.8047 98.4375C65.7755 98.4375 66.5625 97.6505 66.5625 96.6797C66.5625 95.7089 65.7755 94.9219 64.8047 94.9219C63.8339 94.9219 63.0469 95.7089 63.0469 96.6797C63.0469 97.6505 63.8339 98.4375 64.8047 98.4375Z" fill="url(#paint9_linear_176_12913)"/>
</g>
</g>
<defs>
<linearGradient id="paint0_linear_176_12913" x1="73.5938" y1="60" x2="20.625" y2="60" gradientUnits="userSpaceOnUse">
<stop stop-color="#EDFF8B" stop-opacity="0.5"/>
<stop offset="1" stop-color="white" stop-opacity="0.2"/>
</linearGradient>
<linearGradient id="paint1_linear_176_12913" x1="72.5781" y1="54.8438" x2="53.2226" y2="71.4773" gradientUnits="userSpaceOnUse">
<stop stop-color="#E1FF01"/>
<stop offset="1" stop-color="#626F00"/>
</linearGradient>
<linearGradient id="paint2_linear_176_12913" x1="34.9234" y1="60" x2="12.8897" y2="60" gradientUnits="userSpaceOnUse">
<stop stop-color="#E1FF01"/>
<stop offset="1" stop-color="#626F00"/>
</linearGradient>
<linearGradient id="paint3_linear_176_12913" x1="34.9234" y1="60" x2="12.8897" y2="60" gradientUnits="userSpaceOnUse">
<stop stop-color="#E1FF01"/>
<stop offset="1" stop-color="#626F00"/>
</linearGradient>
<linearGradient id="paint4_linear_176_12913" x1="65.1563" y1="57.1875" x2="54.5987" y2="66.2603" gradientUnits="userSpaceOnUse">
<stop stop-color="#E1FF01"/>
<stop offset="1"/>
</linearGradient>
<linearGradient id="paint5_linear_176_12913" x1="70.3125" y1="39.375" x2="70.3125" y2="33.75" gradientUnits="userSpaceOnUse">
<stop stop-color="#B4C727"/>
<stop offset="1" stop-color="#626F00"/>
</linearGradient>
<linearGradient id="paint6_linear_176_12913" x1="64.6875" y1="31.875" x2="64.6875" y2="26.25" gradientUnits="userSpaceOnUse">
<stop stop-color="#626F00"/>
<stop offset="1" stop-color="#B4C727"/>
</linearGradient>
<linearGradient id="paint7_linear_176_12913" x1="69.2969" y1="91.4063" x2="60.4989" y2="98.967" gradientUnits="userSpaceOnUse">
<stop stop-color="#E1FF01"/>
<stop offset="1"/>
</linearGradient>
<linearGradient id="paint8_linear_176_12913" x1="69.2969" y1="91.4063" x2="60.4989" y2="98.967" gradientUnits="userSpaceOnUse">
<stop stop-color="#E1FF01"/>
<stop offset="1"/>
</linearGradient>
<linearGradient id="paint9_linear_176_12913" x1="69.2969" y1="91.4063" x2="60.4989" y2="98.967" gradientUnits="userSpaceOnUse">
<stop stop-color="#E1FF01"/>
<stop offset="1"/>
</linearGradient>
</defs>
</svg>
