<svg width="120" height="120" viewBox="0 0 120 120" fill="none" xmlns="http://www.w3.org/2000/svg">
<g id="04">
<g id="Group 1000005110">
<path id="Subtract" d="M36.5807 85.7656C29.4267 72.5489 31.4346 55.6864 42.6046 44.5165C53.7746 33.3465 70.6371 31.3385 83.8537 38.4925C82.2858 35.5959 80.2778 32.8745 77.8298 30.4264C64.2117 16.8084 42.1326 16.8084 28.5145 30.4264C14.8965 44.0444 14.8965 66.1236 28.5145 79.7416C30.9626 82.1897 33.6841 84.1977 36.5807 85.7656Z" fill="#E1FF01"/>
<path id="Subtract_2" d="M36.5808 85.7652C49.7974 92.9192 66.6599 90.9113 77.8299 79.7413C88.9999 68.5713 91.0079 51.7088 83.8538 38.4922C86.7504 40.0601 89.4719 42.0681 91.92 44.5161C105.538 58.1341 105.538 80.2133 91.92 93.8313C78.3019 107.449 56.2228 107.449 42.6047 93.8313C40.1567 91.3833 38.1487 88.6618 36.5808 85.7652Z" fill="#E1FF01"/>
<g id="Subtract_3">
<path d="M77.83 44.5165C68.1375 34.824 54.1589 32.03 41.9954 36.1345C40.3377 36.6939 38.7425 34.9331 39.824 33.5579C40.6775 32.4729 41.6044 31.4268 42.6048 30.4264C56.2228 16.8084 78.302 16.8084 91.92 30.4264C98.3532 36.8596 101.747 45.181 102.102 53.6067C102.183 55.5183 99.5144 55.7528 98.6836 54.0292C97.0263 50.5909 94.7717 47.3681 91.92 44.5165C90.9196 43.516 89.8735 42.5891 88.7885 41.7357C87.4134 40.6541 85.6523 42.2489 86.2117 43.9065C87.2738 47.0537 87.874 50.3224 88.0124 53.6068C88.0929 55.5185 85.4243 55.7528 84.5936 54.0292C82.9362 50.5909 80.6817 47.3682 77.83 44.5165Z" fill="url(#paint0_linear_176_12937)"/>
<path d="M78.1618 44.1847C68.3384 34.3613 54.1713 31.5306 41.8453 35.69C41.2121 35.9037 40.5937 35.6751 40.2368 35.264C39.8904 34.8652 39.8119 34.3323 40.1928 33.848C41.0348 32.7776 41.9494 31.7454 42.9366 30.7582C56.3714 17.3234 78.1535 17.3234 91.5883 30.7582C97.9351 37.105 101.283 45.3137 101.634 53.6264C101.649 53.9872 101.537 54.2331 101.38 54.3976C101.216 54.5687 100.973 54.6835 100.684 54.7146C100.1 54.7777 99.4267 54.4903 99.1063 53.8255C97.4263 50.3403 95.1413 47.0741 92.2518 44.1847C91.2382 43.1711 90.1782 42.2318 89.0786 41.3669C88.1878 40.6662 87.1527 40.8444 86.4671 41.4396C85.7937 42.0241 85.4215 43.0321 85.7672 44.0566C86.8149 47.1612 87.407 50.386 87.5436 53.6266C87.5588 53.9873 87.4466 54.2332 87.2896 54.3977C87.1263 54.5688 86.8834 54.6835 86.5944 54.7147C86.0101 54.7778 85.3367 54.4903 85.0162 53.8255C83.3363 50.3403 81.0512 47.0742 78.1618 44.1847Z" stroke="white" stroke-opacity="0.1" stroke-width="0.938413"/>
</g>
<g id="Subtract_4">
<path d="M35.8412 70.2295C35.0104 68.506 32.3419 68.7402 32.4224 70.6519C32.5608 73.9364 33.161 77.205 34.223 80.3521C34.7824 82.0098 33.0214 83.6046 31.6463 82.523C30.5612 81.6696 29.5152 80.7427 28.5148 79.7422C25.6631 76.8906 23.4085 73.6679 21.7512 70.2295C20.9204 68.506 18.2518 68.7404 18.3324 70.652C18.6874 79.0777 22.0816 87.3991 28.5148 93.8323C42.1328 107.45 64.212 107.45 77.83 93.8323C78.8304 92.8319 79.7573 91.7858 80.6108 90.7008C81.6923 89.3257 80.0971 87.5648 78.4394 88.1242C66.2759 92.2287 52.2973 89.4347 42.6048 79.7423C39.7531 76.8906 37.4986 73.6679 35.8412 70.2295Z" fill="url(#paint1_linear_176_12937)"/>
<path d="M32.8912 70.6321C32.876 70.2714 32.9882 70.0255 33.1452 69.861C33.3085 69.6899 33.5514 69.5752 33.8404 69.544C34.4247 69.481 35.0981 69.7684 35.4186 70.4333C37.0985 73.9184 39.3836 77.1846 42.273 80.074C52.0964 89.8974 66.2635 92.7281 78.5895 88.5687C79.2227 88.3551 79.8411 88.5836 80.1981 88.9947C80.5444 89.3935 80.6229 89.9264 80.242 90.4107C79.4 91.4812 78.4854 92.5133 77.4982 93.5005C64.0634 106.935 42.2813 106.935 28.8465 93.5005C22.4997 87.1537 19.1515 78.945 18.8011 70.6323C18.7859 70.2715 18.8982 70.0256 19.0552 69.8611C19.2184 69.69 19.4613 69.5753 19.7504 69.5441C20.3347 69.481 21.0081 69.7685 21.3285 70.4332C23.0085 73.9184 25.2935 77.1846 28.183 80.074C29.1966 81.0876 30.2566 82.0269 31.3562 82.8918C32.247 83.5924 33.2821 83.4143 33.9677 82.8191C34.6411 82.2345 35.0133 81.2265 34.6676 80.2021C33.6199 77.0975 33.0277 73.8727 32.8912 70.6321Z" stroke="white" stroke-opacity="0.1" stroke-width="0.938413"/>
</g>
<circle id="Ellipse 2" cx="60.5297" cy="62.4408" r="11.4369" fill="url(#paint2_linear_176_12937)"/>
<g id="Union">
<path d="M94.8403 63.321C94.8403 64.2928 94.0526 65.0806 93.0808 65.0806C92.1091 65.0806 91.3213 64.2928 91.3213 63.321C91.3213 62.3493 92.1091 61.5615 93.0808 61.5615C94.0526 61.5615 94.8403 62.3493 94.8403 63.321Z" fill="url(#paint3_linear_176_12937)"/>
<path d="M94.8403 68.5996C94.8403 69.5714 94.0526 70.3591 93.0808 70.3591C92.1091 70.3591 91.3213 69.5714 91.3213 68.5996C91.3213 67.6279 92.1091 66.8401 93.0808 66.8401C94.0526 66.8401 94.8403 67.6279 94.8403 68.5996Z" fill="url(#paint4_linear_176_12937)"/>
<path d="M93.0808 75.6377C94.0526 75.6377 94.8403 74.8499 94.8403 73.8782C94.8403 72.9064 94.0526 72.1187 93.0808 72.1187C92.1091 72.1187 91.3213 72.9064 91.3213 73.8782C91.3213 74.8499 92.1091 75.6377 93.0808 75.6377Z" fill="url(#paint5_linear_176_12937)"/>
</g>
<g id="Union_2">
<path d="M25.3391 60.6819C25.3391 59.7101 26.1269 58.9224 27.0986 58.9224C28.0704 58.9224 28.8582 59.7101 28.8582 60.6819C28.8582 61.6537 28.0704 62.4414 27.0986 62.4414C26.1269 62.4414 25.3391 61.6537 25.3391 60.6819Z" fill="url(#paint6_linear_176_12937)"/>
<path d="M25.3391 55.4033C25.3391 54.4316 26.1269 53.6438 27.0986 53.6438C28.0704 53.6438 28.8582 54.4316 28.8582 55.4033C28.8582 56.3751 28.0704 57.1629 27.0986 57.1629C26.1269 57.1629 25.3391 56.3751 25.3391 55.4033Z" fill="url(#paint7_linear_176_12937)"/>
<path d="M27.0986 48.3652C26.1269 48.3652 25.3391 49.153 25.3391 50.1248C25.3391 51.0965 26.1269 51.8843 27.0986 51.8843C28.0704 51.8843 28.8582 51.0965 28.8582 50.1248C28.8582 49.153 28.0704 48.3652 27.0986 48.3652Z" fill="url(#paint8_linear_176_12937)"/>
</g>
<path id="Polygon 4" d="M96.3721 12.6719C97.1773 11.2643 99.1903 11.2643 99.9955 12.6719L103.619 19.0062C104.424 20.4138 103.418 22.1734 101.807 22.1734H94.5604C92.95 22.1734 91.9435 20.4138 92.7487 19.0062L96.3721 12.6719Z" fill="url(#paint9_linear_176_12937)"/>
<path id="Polygon 5" d="M21.4326 107.329C20.6274 108.737 18.6144 108.737 17.8092 107.329L14.1858 100.995C13.3806 99.5871 14.3871 97.8276 15.9975 97.8276L23.2443 97.8276C24.8547 97.8276 25.8612 99.5871 25.056 100.995L21.4326 107.329Z" fill="url(#paint10_linear_176_12937)"/>
</g>
</g>
<defs>
<linearGradient id="paint0_linear_176_12937" x1="86.0338" y1="37.7026" x2="39.4707" y2="37.7026" gradientUnits="userSpaceOnUse">
<stop stop-color="#EDFF8B" stop-opacity="0.5"/>
<stop offset="1" stop-color="white" stop-opacity="0.2"/>
</linearGradient>
<linearGradient id="paint1_linear_176_12937" x1="64.8937" y1="86.5561" x2="18.3306" y2="86.5561" gradientUnits="userSpaceOnUse">
<stop stop-color="#EDFF8B" stop-opacity="0.5"/>
<stop offset="1" stop-color="white" stop-opacity="0.2"/>
</linearGradient>
<linearGradient id="paint2_linear_176_12937" x1="79.0111" y1="62.4408" x2="46.2336" y2="62.4408" gradientUnits="userSpaceOnUse">
<stop stop-color="#E1FF01"/>
<stop offset="1" stop-color="#626F00"/>
</linearGradient>
<linearGradient id="paint3_linear_176_12937" x1="95.8667" y1="65.0806" x2="90.3787" y2="66.2596" gradientUnits="userSpaceOnUse">
<stop stop-color="#E1FF01"/>
<stop offset="1"/>
</linearGradient>
<linearGradient id="paint4_linear_176_12937" x1="95.8667" y1="65.0806" x2="90.3787" y2="66.2596" gradientUnits="userSpaceOnUse">
<stop stop-color="#E1FF01"/>
<stop offset="1"/>
</linearGradient>
<linearGradient id="paint5_linear_176_12937" x1="95.8667" y1="65.0806" x2="90.3787" y2="66.2596" gradientUnits="userSpaceOnUse">
<stop stop-color="#E1FF01"/>
<stop offset="1"/>
</linearGradient>
<linearGradient id="paint6_linear_176_12937" x1="29.8845" y1="51.8843" x2="24.3965" y2="53.0634" gradientUnits="userSpaceOnUse">
<stop stop-color="#E1FF01"/>
<stop offset="1"/>
</linearGradient>
<linearGradient id="paint7_linear_176_12937" x1="29.8845" y1="51.8843" x2="24.3965" y2="53.0634" gradientUnits="userSpaceOnUse">
<stop stop-color="#E1FF01"/>
<stop offset="1"/>
</linearGradient>
<linearGradient id="paint8_linear_176_12937" x1="29.8845" y1="51.8843" x2="24.3965" y2="53.0634" gradientUnits="userSpaceOnUse">
<stop stop-color="#E1FF01"/>
<stop offset="1"/>
</linearGradient>
<linearGradient id="paint9_linear_176_12937" x1="107.424" y1="16.8948" x2="91.0357" y2="16.8948" gradientUnits="userSpaceOnUse">
<stop stop-color="#E1FF01"/>
<stop offset="1" stop-color="#626F00"/>
</linearGradient>
<linearGradient id="paint10_linear_176_12937" x1="10.3802" y1="103.106" x2="26.769" y2="103.106" gradientUnits="userSpaceOnUse">
<stop stop-color="#E1FF01"/>
<stop offset="1" stop-color="#626F00"/>
</linearGradient>
</defs>
</svg>
