<svg width="120" height="120" viewBox="0 0 120 120" fill="none" xmlns="http://www.w3.org/2000/svg">
<g id="social-media">
<g id="Group">
<path id="Vector" d="M98.766 29.6217C99.0103 29.5699 99.2338 29.4467 99.408 29.2677C99.3875 29.3671 99.3615 29.4652 99.33 29.5617C99.282 29.7237 99.462 29.7717 99.522 29.6697C99.7342 29.3547 99.8179 28.9704 99.756 28.5957C99.7528 28.5603 99.7396 28.5265 99.7179 28.4984C99.6962 28.4702 99.6669 28.4489 99.6334 28.4369C99.6 28.4249 99.5638 28.4228 99.5292 28.4307C99.4945 28.4386 99.4629 28.4563 99.438 28.4817C99.186 28.7877 99.138 29.2197 98.712 29.3517C98.6782 29.3609 98.6493 29.3825 98.6309 29.4123C98.6125 29.442 98.6061 29.4776 98.6129 29.5119C98.6198 29.5462 98.6394 29.5766 98.6678 29.5969C98.6962 29.6173 98.7313 29.6262 98.766 29.6217ZM97.584 27.5997C97.6174 27.6212 97.6561 27.6333 97.6959 27.6348C97.7356 27.6362 97.7751 27.6269 97.81 27.6079C97.845 27.5889 97.8742 27.5609 97.8946 27.5267C97.915 27.4925 97.9258 27.4535 97.926 27.4137C97.926 27.3657 97.926 27.3117 97.638 26.8797C97.578 26.7897 97.506 26.6217 97.35 26.7057C97.194 26.7897 97.302 26.9457 97.386 27.1557C97.554 27.5997 97.554 27.5997 97.584 27.5997ZM97.488 26.5017C97.782 26.5017 97.986 26.5017 98.022 26.7477C98.0267 26.7843 98.0458 26.8175 98.0751 26.84C98.1044 26.8625 98.1414 26.8725 98.178 26.8677C98.2146 26.8629 98.2478 26.8438 98.2703 26.8145C98.2928 26.7853 98.3027 26.7483 98.298 26.7117C98.2505 26.5173 98.136 26.3458 97.9748 26.2273C97.8135 26.1088 97.6157 26.0509 97.416 26.0637C97.3685 26.0834 97.3291 26.1186 97.3042 26.1635C97.2792 26.2084 97.2702 26.2605 97.2785 26.3112C97.2868 26.3619 97.3121 26.4083 97.3501 26.4429C97.3881 26.4775 97.4367 26.4982 97.488 26.5017ZM24.102 44.7897C22.419 45.6038 20.5669 46.007 18.6978 45.9663C16.8287 45.9257 14.9959 45.4422 13.35 44.5557C13.3197 44.5374 13.2835 44.5318 13.2491 44.5403C13.2148 44.5487 13.1853 44.5704 13.167 44.6007C13.1487 44.6309 13.1431 44.6672 13.1516 44.7015C13.16 44.7358 13.1817 44.7654 13.212 44.7837C16.5 46.9257 21.33 47.0457 24.192 44.9457C24.2126 44.9338 24.2277 44.9141 24.2339 44.891C24.2401 44.868 24.2369 44.8434 24.225 44.8227C24.213 44.802 24.1934 44.7869 24.1703 44.7807C24.1472 44.7745 24.1226 44.7777 24.102 44.7897ZM23.658 26.9997C24 27.1377 24.564 26.9997 24.414 26.6817C24.3138 26.439 24.2433 26.1852 24.204 25.9257C24.204 25.8891 24.1894 25.854 24.1635 25.8281C24.1377 25.8022 24.1026 25.7877 24.066 25.7877C24.0294 25.7877 23.9943 25.8022 23.9684 25.8281C23.9425 25.854 23.928 25.8891 23.928 25.9257C23.9244 26.1796 23.9485 26.4331 24 26.6817C23.9181 26.7282 23.8234 26.7472 23.73 26.7357C23.7126 26.731 23.6945 26.7297 23.6767 26.732C23.6589 26.7342 23.6417 26.74 23.6261 26.7489C23.6105 26.7578 23.5968 26.7697 23.5858 26.7839C23.5748 26.7981 23.5667 26.8143 23.562 26.8317C23.5572 26.849 23.556 26.8671 23.5582 26.8849C23.5605 26.9028 23.5663 26.92 23.5752 26.9356C23.5841 26.9512 23.596 26.9649 23.6102 26.9759C23.6244 26.9869 23.6406 26.995 23.658 26.9997ZM22.968 25.6857C23.0609 25.4698 23.1371 25.2472 23.196 25.0197C23.2013 24.9988 23.2025 24.977 23.1993 24.9557C23.1961 24.9344 23.1888 24.9139 23.1776 24.8955C23.1664 24.877 23.1517 24.861 23.1342 24.8483C23.1168 24.8357 23.097 24.8266 23.076 24.8217C22.896 24.7677 22.866 24.9597 22.776 25.1937C22.7243 25.3101 22.6821 25.4305 22.65 25.5537C22.6498 25.5906 22.6606 25.6268 22.681 25.6575C22.7014 25.6883 22.7305 25.7123 22.7647 25.7264C22.7988 25.7406 22.8363 25.7443 22.8725 25.737C22.9087 25.7298 22.9419 25.7119 22.968 25.6857ZM24.966 26.2497C25.0001 26.2647 25.0381 26.2687 25.0747 26.2612C25.1112 26.2537 25.1445 26.235 25.17 26.2077C25.262 25.9915 25.3382 25.7689 25.398 25.5417C25.4043 25.5212 25.4063 25.4996 25.4039 25.4783C25.4015 25.457 25.3948 25.4364 25.3841 25.4179C25.3734 25.3993 25.359 25.3831 25.3418 25.3703C25.3245 25.3576 25.3049 25.3485 25.284 25.3437C25.098 25.2897 25.062 25.5057 24.984 25.7097C24.906 25.9137 24.756 26.1657 24.966 26.2497ZM22.086 27.4797C22.3013 27.5875 22.5481 27.6152 22.782 27.5577C22.932 27.4917 22.83 27.2637 22.686 27.3117C22.5274 27.3008 22.3754 27.2446 22.248 27.1497C22.1668 27.0964 22.0969 27.0277 22.0423 26.9474C21.9878 26.8671 21.9496 26.7768 21.93 26.6817C21.888 26.4297 21.492 26.5257 21.552 26.7777C21.5811 26.9278 21.6444 27.0693 21.737 27.191C21.8296 27.3128 21.949 27.4115 22.086 27.4797ZM61.26 77.8737C61.5556 79.4401 61.756 81.023 61.86 82.6137C61.86 82.6694 61.8821 82.7228 61.9215 82.7622C61.9608 82.8016 62.0143 82.8237 62.07 82.8237C62.1256 82.8237 62.1791 82.8016 62.2184 82.7622C62.2578 82.7228 62.28 82.6694 62.28 82.6137C62.1623 80.9966 61.9155 79.3915 61.542 77.8137C61.5266 77.785 61.5024 77.762 61.4729 77.7483C61.4434 77.7345 61.4102 77.7307 61.3784 77.7375C61.3465 77.7443 61.3178 77.7612 61.2964 77.7858C61.275 77.8104 61.2622 77.8412 61.26 77.8737ZM62.4 95.4417C62.4 95.4003 62.3835 95.3606 62.3543 95.3314C62.325 95.3021 62.2853 95.2857 62.244 95.2857C62.2026 95.2857 62.1629 95.3021 62.1336 95.3314C62.1044 95.3606 62.088 95.4003 62.088 95.4417C62.028 99.5517 61.956 109.374 61.992 110.442C62.0002 110.489 62.0248 110.532 62.0616 110.563C62.0984 110.594 62.1449 110.611 62.193 110.611C62.241 110.611 62.2875 110.594 62.3243 110.563C62.3611 110.532 62.3857 110.489 62.394 110.442C62.478 108.504 62.4 96.4017 62.4 95.4417ZM78.504 54.1737C78.5103 54.1905 78.5219 54.2048 78.5371 54.2145C78.5522 54.2242 78.57 54.2289 78.588 54.2277C80.172 53.4096 81.5982 52.3166 82.8 50.9997C82.8168 50.9819 82.8262 50.9582 82.8262 50.9337C82.8262 50.9091 82.8168 50.8855 82.8 50.8677C81.426 49.8957 77.5439 48.2817 77.5379 48.7377C77.5075 50.5949 77.8355 52.4406 78.504 54.1737ZM34.332 62.8797C34.8181 62.8998 35.2983 62.767 35.7051 62.5001C36.1119 62.2332 36.4248 61.8456 36.6 61.3917C36.762 60.8817 36.702 60.7917 36.21 57.8217C36.5687 58.1094 36.9455 58.374 37.338 58.6137C37.4614 58.6613 37.5982 58.6614 37.7217 58.6139C37.8452 58.5664 37.9467 58.4747 38.0065 58.3567C38.0663 58.2386 38.0801 58.1025 38.0452 57.9749C38.0104 57.8472 37.9294 57.737 37.818 57.6657C36.8142 57.1436 36.0433 56.2634 35.658 55.1997C35.604 55.0137 34.902 54.9537 34.638 55.4037C34.638 55.4577 35.556 60.5577 35.568 60.6117C35.6071 60.7652 35.6071 60.9261 35.568 61.0797C35.4788 61.2724 35.3424 61.4394 35.1714 61.5653C35.0005 61.6912 34.8004 61.7718 34.59 61.7997C34.4222 61.8328 34.2495 61.8323 34.0819 61.7981C33.9143 61.7639 33.7552 61.6967 33.6138 61.6004C33.4724 61.5042 33.3516 61.3808 33.2583 61.2374C33.1651 61.094 33.1013 60.9335 33.0707 60.7652C33.0401 60.5969 33.0432 60.4242 33.0799 60.2572C33.1166 60.0901 33.1862 59.932 33.2846 59.7921C33.383 59.6522 33.5082 59.5333 33.653 59.4422C33.7978 59.3511 33.9592 59.2898 34.128 59.2617C34.2688 59.237 34.3941 59.1574 34.4762 59.0404C34.5583 58.9234 34.5906 58.7785 34.566 58.6377C34.5413 58.4969 34.4617 58.3716 34.3447 58.2895C34.2276 58.2073 34.0828 58.175 33.942 58.1997C33.5257 58.2692 33.1351 58.4472 32.8096 58.7158C32.4841 58.9845 32.2352 59.3342 32.088 59.7297C31.9528 60.0873 31.9078 60.4726 31.9569 60.8517C32.0061 61.2308 32.1478 61.592 32.3696 61.9034C32.5914 62.2147 32.8864 62.4666 33.2287 62.6369C33.5709 62.8072 33.9498 62.8906 34.332 62.8797Z" fill="white"/>
<g id="Vector_2">
<path d="M64.5643 92.7373C64.6768 92.8498 64.74 93.0024 64.74 93.1615C64.74 93.3207 64.6768 93.4733 64.5643 93.5858C64.4518 93.6983 64.2992 93.7615 64.14 93.7615C63.9809 93.7615 63.8283 93.6983 63.7158 93.5858C63.6033 93.4733 63.54 93.3207 63.54 93.1615C63.54 93.0024 63.6033 92.8498 63.7158 92.7373C63.8283 92.6247 63.9809 92.5615 64.14 92.5615C64.2992 92.5615 64.4518 92.6247 64.5643 92.7373Z" fill="#E1FF01"/>
<path d="M65.0088 99.0393C64.9185 99.0694 64.8228 99.0804 64.728 99.0715C64.6332 99.0804 64.5376 99.0694 64.4473 99.0393C64.357 99.0091 64.274 98.9604 64.2036 98.8963C64.1332 98.8322 64.0769 98.7541 64.0384 98.667C63.9999 98.5799 63.98 98.4857 63.98 98.3905C63.98 98.2953 63.9999 98.2011 64.0384 98.114C64.0769 98.027 64.1332 97.9488 64.2036 97.8847C64.274 97.8206 64.357 97.7719 64.4473 97.7418C64.5376 97.7116 64.6332 97.7006 64.728 97.7095C64.8228 97.7006 64.9185 97.7116 65.0088 97.7418C65.0991 97.7719 65.1821 97.8206 65.2525 97.8847C65.3229 97.9488 65.3792 98.027 65.4177 98.114C65.4562 98.2011 65.476 98.2953 65.476 98.3905C65.476 98.4857 65.4562 98.5799 65.4177 98.667C65.3792 98.7541 65.3229 98.8322 65.2525 98.8963C65.1821 98.9604 65.0991 99.0091 65.0088 99.0393Z" fill="#E1FF01"/>
<path d="M64.4765 104.145C64.5869 104.023 64.7386 103.947 64.902 103.932C65.0655 103.947 65.2172 104.023 65.3276 104.145C65.438 104.266 65.4992 104.424 65.4992 104.589C65.4992 104.753 65.438 104.911 65.3276 105.032C65.2172 105.154 65.0655 105.23 64.902 105.246C64.7386 105.23 64.5869 105.154 64.4765 105.032C64.3661 104.911 64.3049 104.753 64.3049 104.589C64.3049 104.424 64.3661 104.266 64.4765 104.145Z" fill="#E1FF01"/>
</g>
<path id="Vector_3" d="M40.98 58.7212C40.917 57.5088 40.4924 56.3431 39.761 55.3743C39.0295 54.4054 38.0247 53.6778 36.876 53.2852C31.698 51.5332 26.934 57.5992 30 62.2012C30.7233 63.2786 31.7764 64.0925 33.0014 64.5207C34.2264 64.949 35.5572 64.9685 36.7943 64.5765C38.0313 64.1844 39.1079 63.4018 39.8626 62.3461C40.6173 61.2904 41.0093 60.0185 40.98 58.7212ZM31.38 54.8812C35.058 51.4972 40.458 54.2812 40.602 58.7272C40.5884 59.8597 40.2617 60.9664 39.6581 61.9247C39.0545 62.8831 38.1975 63.6557 37.182 64.1572C33.834 65.6152 29.79 63.1012 29.508 59.5612C29.4339 58.6908 29.5628 57.8152 29.8846 57.0031C30.2063 56.191 30.712 55.4647 31.362 54.8812H31.38ZM74.4 54.0592C74.9211 54.857 75.6264 55.5178 76.4563 55.986C77.2863 56.4543 78.2166 56.7162 79.169 56.7497C80.1213 56.7832 81.0678 56.5873 81.9286 56.1785C82.7894 55.7697 83.5393 55.1601 84.1152 54.4009C84.6911 53.6417 85.0761 52.7552 85.2378 51.8161C85.3995 50.8769 85.333 49.9127 85.0441 49.0047C84.7552 48.0966 84.2523 47.2712 83.5777 46.5982C82.9032 45.9251 82.0767 45.424 81.168 45.1372C75.78 43.4692 71.448 49.7452 74.4 54.0592ZM75.78 46.7452C79.53 43.2892 84.858 46.2832 84.996 50.5912C84.984 51.721 84.6606 52.8257 84.0615 53.7836C83.4623 54.7416 82.6106 55.5159 81.6 56.0212C78.258 57.4792 74.208 54.9712 73.92 51.4252C73.8475 50.5528 73.9795 49.6755 74.3055 48.8631C74.6315 48.0506 75.1425 47.3254 75.798 46.7452H75.78ZM37.398 25.6552C32.964 16.2952 21.6 12.3052 12.432 18.5452C0.551986 26.6632 3.35999 43.7992 16.716 48.4072C29.76 53.0392 43.998 39.5992 37.398 25.6552ZM29.04 47.1952C27.9512 47.7283 26.8032 48.1311 25.62 48.3952C25.698 47.6512 25.794 45.7312 25.83 44.8312C26.394 45.7312 27.414 46.6312 28.68 46.4512C29.784 46.2772 30.762 45.2512 31.68 43.4512C32.5788 41.4841 33.0842 39.3602 33.168 37.1992C33.2658 36.949 33.3284 36.6865 33.354 36.4192C33.6589 35.7166 34.0138 35.0369 34.416 34.3852C34.632 34.1969 34.8199 33.9787 34.974 33.7372C35.1417 33.2721 35.179 32.77 35.082 32.2852C35.0632 31.799 34.8838 31.3327 34.572 30.9592C34.818 30.4612 35.502 28.1872 35.616 27.7432C35.6258 27.6956 35.6177 27.6461 35.5934 27.604C35.5691 27.562 35.5301 27.5304 35.484 27.5152C34.2811 27.3318 33.0643 27.2555 31.848 27.2872C31.806 27.2092 29.646 33.3772 29.448 33.8872C29.4388 33.9151 29.4355 33.9446 29.4382 33.9739C29.4408 34.0032 29.4494 34.0317 29.4635 34.0575C29.4775 34.0833 29.4967 34.106 29.5198 34.1242C29.543 34.1424 29.5696 34.1556 29.598 34.1632C30.1943 34.2557 30.7952 34.3158 31.398 34.3432C31.398 34.6012 31.284 35.3152 31.242 35.5432C31.0709 35.7604 30.9315 36.0008 30.828 36.2572C30.083 36.9051 29.5587 37.7692 29.328 38.7292C28.266 34.0672 27.528 32.0632 23.328 29.7292C23.118 29.6152 22.866 29.5312 22.638 29.3812C25.542 30.0772 25.866 30.4072 25.974 30.2632C29.262 25.6312 27.732 20.3332 24.36 18.2032C21.204 15.9232 18.09 18.0772 16.956 21.6832C16.116 24.5212 17.556 27.0052 18.3 28.0372C17.616 28.1032 17.382 28.1812 16.836 28.2412C12.216 28.7392 8.47199 34.2772 6.75599 38.6032C1.63799 26.8612 12.786 13.4932 25.746 16.5892C40.56 20.6512 43.254 40.3192 29.04 47.1952ZM10.686 44.1952C11.142 43.4872 12.282 41.5192 12.546 41.0572C15.882 43.6252 22.146 43.9612 25.434 41.7712C25.434 41.8732 25.284 47.6572 25.284 48.4792C22.6852 48.9548 20.0112 48.815 17.4761 48.0711C14.9411 47.3272 12.6156 45.9997 10.686 44.1952ZM29.508 40.0672C29.4972 39.88 29.4751 39.6937 29.442 39.5092C29.496 39.3412 29.532 39.1912 29.586 38.9932C29.976 39.6412 31.266 40.7932 31.8 40.8592C31.8269 40.8613 31.8537 40.8543 31.8761 40.8393C31.8985 40.8243 31.9152 40.8022 31.9235 40.7765C31.9318 40.7509 31.9313 40.7232 31.9219 40.6979C31.9126 40.6726 31.895 40.6512 31.872 40.6372C30.9837 40.085 30.2701 39.2924 29.814 38.3512C29.9522 37.9748 30.1552 37.6255 30.414 37.3192C30.8843 38.0574 31.5457 38.6545 32.328 39.0472C32.3418 39.0507 32.3561 39.0515 32.3702 39.0495C32.3843 39.0475 32.3979 39.0427 32.4101 39.0355C32.4224 39.0283 32.4331 39.0187 32.4417 39.0073C32.4502 38.9959 32.4564 38.9829 32.46 38.9692C32.4635 38.9554 32.4643 38.941 32.4623 38.9269C32.4603 38.9128 32.4556 38.8993 32.4483 38.887C32.4411 38.8748 32.4315 38.864 32.4201 38.8555C32.4087 38.8469 32.3958 38.8407 32.382 38.8372C31.6802 38.3548 31.1025 37.7134 30.696 36.9652C30.774 36.8692 30.858 36.7732 30.942 36.6832C31.4239 37.1574 32.0662 37.4337 32.742 37.4572C32.6359 39.2555 32.2659 41.0285 31.644 42.7192C31.1523 43.9078 30.3828 44.9613 29.4 45.7912C30.2268 44.1861 30.4155 42.3276 29.928 40.5892C29.916 40.548 29.8905 40.5121 29.8557 40.4871C29.821 40.4621 29.7788 40.4494 29.736 40.4512C29.226 40.4512 29.94 42.5392 26.346 44.8492C26.1603 44.5834 25.9939 44.3047 25.848 44.0152C25.884 41.9752 25.8 39.9412 25.716 37.9732C25.716 37.9366 25.7014 37.9015 25.6756 37.8756C25.6497 37.8497 25.6146 37.8352 25.578 37.8352C25.5414 37.8352 25.5063 37.8497 25.4804 37.8756C25.4545 37.9015 25.44 37.9366 25.44 37.9732C25.476 39.0172 25.44 40.0492 25.44 41.2852C23.424 42.5512 21.114 42.9892 18.162 42.6592C16.1983 42.5557 14.3064 41.8869 12.714 40.7332C12.924 40.3492 13.8 38.6692 14.046 38.2192C14.0578 38.1987 14.064 38.1754 14.0637 38.1517C14.0635 38.128 14.0569 38.1049 14.0446 38.0846C14.0324 38.0644 14.0149 38.0478 13.994 38.0366C13.9731 38.0255 13.9496 38.0201 13.926 38.0212C13.782 38.0212 13.926 37.9852 12.726 40.0432C10.8333 39.3018 9.30479 37.8508 8.46598 35.9992C9.43714 34.1453 10.7106 32.4662 12.234 31.0312C13.0165 32.1176 14.0094 33.0356 15.1537 33.7307C16.2981 34.4258 17.5704 34.8838 18.8952 35.0775C20.2201 35.2711 21.5703 35.1965 22.8657 34.858C24.1611 34.5196 25.3752 33.9241 26.436 33.1072C26.4563 33.0855 26.4683 33.0573 26.4699 33.0276C26.4715 32.9979 26.4625 32.9686 26.4445 32.9449C26.4265 32.9212 26.4008 32.9046 26.3718 32.8981C26.3428 32.8915 26.3124 32.8955 26.286 32.9092C25.4153 33.5075 24.469 33.9877 23.472 34.3372C21.5053 34.9601 19.3923 34.9476 17.4331 34.3013C15.4739 33.6551 13.7681 32.408 12.558 30.7372C13.1326 30.2709 13.7563 29.8685 14.418 29.5372C16.692 34.6552 22.302 35.0212 25.014 31.3372C26.418 32.4292 26.85 32.5672 27.972 35.2792C25.398 37.5232 23.052 38.6392 20.808 38.6152C18.9433 38.6282 17.1 38.2175 15.4173 37.414C13.7345 36.6106 12.2562 35.4354 11.094 33.9772C10.998 33.8452 10.782 33.9772 10.878 34.1212C12.678 36.8632 16.092 38.6632 20.268 39.0592C23.094 39.3352 26.094 37.7212 28.11 35.6692C28.422 36.7012 28.8 38.2192 28.842 38.3992C28.656 38.9992 26.646 40.8652 26.328 40.9372C26.142 40.9792 26.238 41.2672 26.406 41.1952C27.373 40.6356 28.2441 39.9245 28.986 39.0892C29.052 39.4012 29.172 39.9592 29.19 40.0972C29.208 40.2352 29.52 40.2592 29.508 40.0672ZM33.108 31.0192C33.0336 30.9982 32.9553 30.9958 32.8798 31.0121C32.8042 31.0283 32.7339 31.0628 32.6747 31.1125C32.6156 31.1622 32.5694 31.2256 32.5404 31.2971C32.5113 31.3687 32.5002 31.4463 32.508 31.5232C31.866 31.6612 31.908 32.1232 32.28 32.4232C32.6482 32.6556 33.0288 32.8679 33.42 33.0592C33.282 33.3892 33.174 33.6592 33.03 33.9772C32.43 33.9772 30.564 33.8632 29.916 33.8092C30.156 33.0592 31.422 29.5732 32.118 27.6892C32.718 27.7192 34.596 27.7672 35.202 27.8632C35.058 28.4632 34.446 30.2092 34.272 30.7552C34.1793 30.694 34.0753 30.6523 33.9661 30.6325C33.8569 30.6127 33.7448 30.6152 33.6366 30.6399C33.5284 30.6645 33.4263 30.7108 33.3365 30.776C33.2467 30.8412 33.171 30.9239 33.114 31.0192H33.108ZM33.372 34.2652C33.474 33.9412 33.6 33.6292 33.768 33.2212C33.7947 33.2259 33.8222 33.2218 33.8465 33.2096C33.8707 33.1974 33.8903 33.1777 33.9025 33.1534C33.9146 33.1291 33.9186 33.1016 33.9138 33.0749C33.909 33.0482 33.8958 33.0237 33.876 33.0052C33.726 32.8672 32.334 32.1292 32.388 31.9852C32.442 31.8412 32.79 31.9432 32.988 32.0572C33.3785 32.218 33.7794 32.3523 34.188 32.4592C34.2142 32.462 34.2407 32.4561 34.2632 32.4424C34.2858 32.4287 34.3032 32.408 34.3128 32.3834C34.3223 32.3588 34.3235 32.3317 34.3162 32.3063C34.3088 32.281 34.2933 32.2588 34.272 32.2432C33.8034 32.0731 33.3465 31.8727 32.904 31.6432C32.814 31.5592 32.772 31.3312 32.904 31.3372C33.3448 31.4422 33.7555 31.6475 34.104 31.9372C34.1178 31.9502 34.134 31.9603 34.1517 31.9671C34.1694 31.9738 34.1883 31.977 34.2072 31.9764C34.2262 31.9759 34.2448 31.9716 34.2621 31.9638C34.2794 31.956 34.295 31.945 34.308 31.9312C34.321 31.9174 34.3311 31.9012 34.3379 31.8834C34.3446 31.8657 34.3478 31.8469 34.3472 31.8279C34.3467 31.809 34.3424 31.7903 34.3346 31.773C34.3269 31.7558 34.3158 31.7402 34.302 31.7272C34.0766 31.5492 33.8379 31.3887 33.588 31.2472C33.288 31.0732 33.504 30.8572 33.804 30.8992C34.206 30.9592 34.722 31.4992 34.668 32.6092C34.718 32.9073 34.6792 33.2136 34.5565 33.4899C34.4338 33.7662 34.2327 34.0003 33.978 34.1632C33.5913 34.7767 33.2639 35.4256 33 36.1012C32.7361 36.1694 32.4583 36.1611 32.199 36.0772C31.9397 35.9932 31.7097 35.8371 31.536 35.6272C31.578 35.4172 31.704 34.6972 31.74 34.4272C33.078 34.4692 33.312 34.4632 33.378 34.2652H33.372ZM29.694 41.5312C29.9006 43.0621 29.6479 44.62 28.968 46.0072C28.5296 46.1328 28.063 46.1188 27.633 45.9672C27.2029 45.8156 26.8307 45.5339 26.568 45.1612C28.0301 44.3882 29.1465 43.0918 29.694 41.5312ZM18.654 28.5772C18.6647 28.5898 18.6786 28.5993 18.6943 28.6045C18.71 28.6097 18.7269 28.6105 18.743 28.6068C18.7591 28.6031 18.7739 28.595 18.7857 28.5834C18.7975 28.5718 18.8059 28.5572 18.81 28.5412C19.716 24.9772 19.692 25.1992 19.608 25.1512C18.6 24.5992 18.918 23.5252 19.326 23.3992C19.53 23.3332 19.8 23.4652 20.07 23.7652C20.2463 23.9309 20.3801 24.1367 20.46 24.3652C21.06 26.0452 24.384 23.8312 25.824 22.7692C25.9239 22.6861 26.0421 22.6279 26.1688 22.5993C26.2956 22.5708 26.4273 22.5727 26.5532 22.6049C26.6791 22.6371 26.7956 22.6987 26.893 22.7846C26.9905 22.8705 27.0662 22.9783 27.114 23.0992C27.252 23.3632 27 23.5852 26.85 23.2972C26.538 22.7692 25.992 23.0632 26.004 23.2072C26.124 24.6952 25.848 26.8072 24.69 27.8392C23.532 28.8712 22.188 28.3372 22.068 28.4392C21.948 28.5412 22.014 28.6372 22.014 28.7512C21.9603 28.8785 21.9365 29.0164 21.9444 29.1544C21.9522 29.2924 21.9915 29.4267 22.0592 29.5471C22.127 29.6676 22.2214 29.7709 22.3352 29.8493C22.4491 29.9276 22.5793 29.9789 22.716 29.9992C23.2063 30.1845 23.6734 30.4261 24.108 30.7192C21.972 34.0192 17.304 33.5332 15.516 29.0872C16.5155 28.7459 17.5573 28.544 18.612 28.4872L18.654 28.5772ZM8.26798 36.3772C8.65564 37.3036 9.23436 38.1378 9.96635 38.8253C10.6983 39.5128 11.5671 40.0382 12.516 40.3672C12.444 40.4812 10.77 43.2172 10.374 43.8892C8.91715 42.4895 7.73305 40.8314 6.88199 38.9992C7.47599 37.9312 7.79998 37.2832 8.26798 36.3832V36.3772ZM113.136 25.7452C109.758 14.9452 97.584 9.98316 88.128 15.7312C77.472 22.1992 76.836 36.5992 87 43.8712C100.356 53.3992 117.78 40.2472 113.136 25.7452ZM94.896 42.1132C96.882 44.7472 98.874 44.9512 100.206 44.6452C102.69 44.0812 104.868 41.2912 105.504 37.8532C105.513 37.8126 105.505 37.7702 105.482 37.7353C105.46 37.7004 105.425 37.6759 105.384 37.6672C105.343 37.6584 105.301 37.6661 105.266 37.6886C105.231 37.7111 105.207 37.7466 105.198 37.7872C104.916 39.2552 104.3 40.6388 103.398 41.8312C99.87 46.4272 96.198 44.1832 93.384 39.0952C92.4693 37.6364 91.956 35.9619 91.896 34.2412C93.324 33.5692 93.294 33.5332 93.462 33.6772C95.13 35.1112 98.16 38.5312 98.58 38.9932C98.5875 39.033 98.6087 39.069 98.6399 39.0949C98.6711 39.1208 98.7104 39.135 98.751 39.135C98.7915 39.135 98.8308 39.1208 98.8621 39.0949C98.8933 39.069 98.9145 39.033 98.922 38.9932C99.594 36.2812 100.122 33.4672 102.12 31.5292C102.862 31.3584 103.613 31.2322 104.37 31.1512C107.028 34.5112 106.65 38.9932 106.638 43.2472C104.856 44.6078 102.809 45.5803 100.629 46.1022C98.4483 46.624 96.1828 46.6836 93.978 46.2772C94.1077 44.8561 94.4161 43.457 94.896 42.1132ZM104.88 31.0972C105.204 31.0972 105.174 30.5692 104.88 30.6112C103.628 30.7156 102.398 31.0069 101.232 31.4752C101.07 31.5412 100.884 31.5772 100.944 31.7392C101.004 31.9012 101.136 31.7812 101.586 31.6672C99.822 33.5332 99.156 36.1612 98.694 38.5252C98.364 38.1232 97.548 37.1932 97.338 36.9532C99.186 32.8792 99.084 32.7532 100.17 31.9312C100.59 31.5952 102.3 30.3592 103.716 29.4712C104.472 28.9912 105.012 28.6552 106.272 30.4012C107.442 32.0272 107.472 32.0512 106.722 35.6212C106.497 33.9772 105.847 32.4202 104.838 31.1032L104.88 31.0972ZM91.68 27.5632C91.788 27.5632 91.842 27.6472 91.926 27.7732C93.906 30.7732 93.756 30.4312 93.756 30.4912C93.756 30.7792 94.146 31.2112 94.536 31.5772C94.218 31.6972 93.624 31.9372 93.27 32.0812C93.27 30.9772 92.49 30.9772 92.28 31.4392C91.908 30.8932 91.08 29.8132 90.912 29.6032C90.8665 29.5385 90.8049 29.4869 90.7334 29.4532C90.6618 29.4195 90.5828 29.4051 90.504 29.4112C90.222 29.0512 89.586 28.2112 89.34 27.8452C89.4 27.8332 91.488 27.5992 91.674 27.5632H91.68ZM95.76 33.2512C95.67 33.9832 94.524 33.1672 94.968 32.7592C95.05 32.8981 95.1643 33.0153 95.301 33.1009C95.4378 33.1865 95.5932 33.2381 95.754 33.2512H95.76ZM95.694 32.8732C95.448 32.8312 94.95 32.2732 95.094 32.1472C95.238 32.0212 95.856 32.7772 95.844 32.8672C95.7936 32.8841 95.7395 32.8862 95.688 32.8732H95.694ZM97.068 36.6832C96.546 36.1312 94.176 33.6832 94.116 33.6352C94.0289 33.5052 93.9166 33.3941 93.7857 33.3086C93.6548 33.223 93.5079 33.1647 93.354 33.1372C93.2752 32.9329 93.2444 32.7132 93.264 32.4952L94.812 31.8352C94.956 31.9612 94.812 31.8352 94.74 32.1112C94.7056 32.2399 94.7206 32.3769 94.782 32.4952C94.182 32.9392 94.782 33.9712 95.574 33.8932C95.8093 34.0544 96.0127 34.2578 96.174 34.4932C96.3514 35.1056 96.6033 35.694 96.924 36.2452C97.122 36.5992 97.11 36.5572 97.062 36.6832H97.068ZM96.558 34.5412C96.558 34.3492 97.248 33.6292 97.356 33.5392C97.6775 33.6326 97.9907 33.7531 98.292 33.8992C98.118 34.2952 97.56 35.5612 97.284 36.2032C96.9829 35.6761 96.7375 35.1191 96.552 34.5412H96.558ZM96.312 34.1572C96.196 34.0043 96.0586 33.8689 95.904 33.7552C95.9779 33.6753 96.0334 33.5802 96.0666 33.4765C96.0998 33.3728 96.1098 33.2631 96.096 33.1552C96.1304 33.1322 96.1595 33.1021 96.1812 33.0669C96.203 33.0317 96.2169 32.9922 96.222 32.9512C96.27 32.6692 95.952 32.4352 95.742 32.2372C95.1205 31.7495 94.5676 31.1804 94.098 30.5452C94.5748 30.784 95.0305 31.063 95.46 31.3792C96.18 31.9132 97.104 32.4172 97.032 33.3052C96.7671 33.5688 96.5243 33.8538 96.306 34.1572H96.312ZM90.6 29.7712C91.2099 30.46 91.7693 31.1919 92.274 31.9612C92.2914 31.9879 92.3164 32.0089 92.3458 32.0215C92.3751 32.0341 92.4075 32.0378 92.439 32.032C92.4704 32.0263 92.4994 32.0113 92.5224 31.9891C92.5453 31.9669 92.5612 31.9384 92.568 31.9072C92.568 31.7392 92.646 31.4392 92.802 31.5052C93.132 31.9552 92.802 32.6572 93.024 33.2152C91.416 33.9232 92.73 33.7432 91.74 32.6152C90.822 31.6492 90.462 30.0772 90.6 29.7712ZM96.786 29.1712C97.0051 28.3862 97.0051 27.5562 96.786 26.7712C96.6969 26.4214 96.6427 26.0636 96.624 25.7032C96.9843 25.7416 97.3484 25.7254 97.704 25.6552C98.754 25.4812 99.294 24.9172 99.552 25.0912C99.72 25.2052 99.75 25.5592 99.642 26.1232C99.6396 26.1415 99.6429 26.16 99.6514 26.1764C99.66 26.1928 99.6733 26.2061 99.6897 26.2146C99.7061 26.2231 99.7247 26.2264 99.743 26.224C99.7613 26.2216 99.7784 26.2136 99.792 26.2012C100.02 26.0141 100.307 25.9122 100.602 25.9132C101.4 25.9792 101.37 27.1132 100.602 27.5992C100.585 27.6123 100.574 27.6308 100.57 27.6515C100.566 27.6722 100.569 27.6937 100.579 27.7123C100.589 27.7309 100.605 27.7454 100.625 27.7532C100.644 27.761 100.666 27.7617 100.686 27.7552C100.974 27.6562 101.283 27.6346 101.582 27.6925C101.881 27.7504 102.16 27.8858 102.39 28.0852C102.516 28.5875 102.686 29.0775 102.9 29.5492C102.066 30.1192 100.95 30.8992 100.152 31.5172C99.432 30.0052 98.538 31.0792 97.92 29.8672C97.296 28.8292 96.9 29.1892 96.756 29.1532L96.786 29.1712ZM106.842 36.3712C107.274 35.0536 107.523 33.6827 107.58 32.2972C107.495 31.6302 107.225 31.0004 106.8 30.4792C105.096 28.0192 104.4 28.4272 103.086 29.3152C102.966 28.9492 102.702 28.1872 102.654 27.9832C102.732 27.9052 102.936 27.7072 102.996 27.6652C103.218 27.3537 103.39 27.0096 103.506 26.6452C103.66 26.1361 103.722 25.604 103.692 25.0732C103.722 24.57 103.642 24.0663 103.458 23.5972C103.076 22.93 102.473 22.4177 101.753 22.1492C101.033 21.8806 100.241 21.8728 99.516 22.1272C98.394 21.7552 96.948 21.3712 96.402 21.6052C95.9678 21.7099 95.5787 21.951 95.2917 22.2932C95.0047 22.6354 94.835 23.0605 94.8074 23.5063C94.7799 23.9521 94.896 24.3949 95.1387 24.7698C95.3815 25.1447 95.738 25.4319 96.156 25.5892C96.1378 26.0524 96.1904 26.5158 96.312 26.9632C96.5154 27.5929 96.5321 28.2681 96.36 28.9072C96.252 29.3872 96.408 29.6032 96.96 29.5072C97.608 29.5552 97.254 30.7072 98.724 30.9232C99.078 30.9832 99.36 31.0372 99.726 31.7152C99.1139 32.2044 98.6539 32.8579 98.4 33.5992C98.0737 33.4068 97.7277 33.2499 97.368 33.1312C97.3283 32.832 97.224 32.545 97.0624 32.2902C96.9007 32.0353 96.6856 31.8186 96.432 31.6552C95.8729 31.1883 95.2701 30.7764 94.632 30.4252C94.506 30.3592 94.242 30.1552 94.032 30.1972C91.944 27.0172 92.16 27.1552 91.506 27.1552C90.6612 27.1876 89.8215 27.3001 88.998 27.4912C88.9684 27.5023 88.9417 27.5199 88.9199 27.5428C88.8981 27.5656 88.8817 27.5931 88.872 27.6232C88.836 27.7672 88.872 27.6832 89.712 28.8832C90.492 29.9752 90.21 29.4412 90.258 30.0292C90.3644 31.1628 90.8264 32.2338 91.578 33.0892C91.721 33.3091 91.7787 33.5737 91.74 33.8332L91.662 33.8692C91.458 33.9712 91.716 36.0172 91.86 36.4972C92.5192 38.3829 93.4686 40.1542 94.674 41.7472C94.0833 43.1652 93.7208 44.6678 93.6 46.1992C88.242 44.9992 83.664 41.3572 81.6 36.6292C79.536 31.9012 80.064 26.3572 83.196 21.1792C91.866 8.45316 110.88 13.5652 113.136 28.4332C113.964 34.0792 111.492 39.4372 107.052 42.9532C107.113 40.76 107.028 38.5652 106.8 36.3832L106.842 36.3712ZM104.478 48.5512C104.53 49.5136 104.697 50.4664 104.976 51.3892C104.995 51.4464 105.036 51.4937 105.09 51.5207C105.144 51.5477 105.207 51.5522 105.264 51.5332C105.72 51.4012 105.048 50.7712 104.85 48.5332C104.832 48.2992 104.46 48.3112 104.478 48.5512ZM106.314 55.7212C106.302 55.671 106.271 55.6277 106.227 55.6007C106.183 55.5737 106.13 55.5652 106.08 55.5772C106.03 55.5891 105.987 55.6205 105.96 55.6643C105.933 55.7082 105.924 55.761 105.936 55.8112C106.704 59.7112 106.602 60.0892 106.992 60.0112C107.382 59.9332 107.106 59.5612 106.314 55.7212ZM107.724 64.9972C107.394 65.0872 107.832 65.1352 108.126 68.7772C108.126 69.1072 108.666 69.0892 108.63 68.7772C108.479 67.5458 108.24 66.3267 107.916 65.1292C107.914 65.1069 107.908 65.0853 107.896 65.066C107.885 65.0467 107.87 65.0301 107.851 65.0174C107.833 65.0048 107.812 64.9964 107.79 64.9929C107.768 64.9894 107.745 64.9908 107.724 64.9972ZM92.496 55.0732C93.1367 53.1722 93.6715 51.2373 94.098 49.2772C94.107 49.232 94.0984 49.1852 94.074 49.1462C94.0496 49.1072 94.0111 49.079 93.9666 49.0675C93.922 49.056 93.8747 49.062 93.8345 49.0842C93.7942 49.1065 93.7639 49.1433 93.75 49.1872C93.27 51.1132 92.634 52.9792 92.04 54.9352C92.03 54.9929 92.0414 55.0523 92.0722 55.1022C92.1029 55.152 92.1509 55.1889 92.2069 55.2059C92.263 55.2229 92.3234 55.2187 92.3766 55.1943C92.4298 55.1698 92.4723 55.1268 92.496 55.0732ZM90.06 62.9992C90.396 62.9992 90.336 62.5912 91.29 59.0212C91.3027 58.9782 91.2979 58.9319 91.2765 58.8925C91.2551 58.8532 91.2189 58.8239 91.176 58.8112C91.133 58.7984 91.0868 58.8033 91.0474 58.8247C91.008 58.846 90.9787 58.8822 90.966 58.9252C90.78 59.5252 89.964 62.0512 89.814 62.6872C89.8049 62.7244 89.8043 62.7632 89.8125 62.8006C89.8206 62.838 89.8371 62.8731 89.8608 62.9032C89.8846 62.9333 89.9148 62.9575 89.9493 62.9742C89.9838 62.9908 90.0217 62.9994 90.06 62.9992ZM87.336 70.7992C87.546 70.7992 87.534 70.6432 87.708 69.9472C87.942 68.9992 88.308 67.5472 88.452 67.1392C88.542 66.8992 88.176 66.7912 88.086 67.0192C87.6814 68.1945 87.3626 69.3977 87.132 70.6192C87.1366 70.6695 87.1602 70.7163 87.1982 70.7497C87.2361 70.7832 87.2854 70.8009 87.336 70.7992ZM85.356 75.9052C84.8031 76.9762 84.3763 78.1078 84.084 79.2772C84.0681 79.3376 84.0768 79.4019 84.1083 79.456C84.1398 79.51 84.1915 79.5492 84.252 79.5652C84.3125 79.5811 84.3768 79.5723 84.4308 79.5408C84.4848 79.5093 84.5241 79.4576 84.54 79.3972C85.542 75.9952 85.866 75.9652 85.572 75.7972C85.5508 75.7888 85.5281 75.7849 85.5053 75.7859C85.4825 75.7869 85.4602 75.7927 85.4398 75.8029C85.4194 75.8131 85.4014 75.8274 85.387 75.8451C85.3725 75.8627 85.362 75.8832 85.356 75.9052ZM79.086 58.4632C79.146 58.9312 79.362 60.8632 79.434 61.3972C79.4383 61.4303 79.4491 61.4622 79.4658 61.4911C79.4825 61.52 79.5047 61.5454 79.5311 61.5657C79.5576 61.586 79.5878 61.6009 79.62 61.6096C79.6523 61.6183 79.6859 61.6205 79.719 61.6162C79.7521 61.6118 79.784 61.601 79.8129 61.5844C79.8418 61.5677 79.8672 61.5455 79.8875 61.519C79.9078 61.4926 79.9228 61.4623 79.9314 61.4301C79.9401 61.3979 79.9423 61.3643 79.938 61.3312C79.86 60.8152 79.524 58.8772 79.452 58.4152C79.416 58.1992 79.056 58.2412 79.086 58.4632ZM80.028 67.0492C80.094 67.4272 80.34 69.0592 80.418 69.4912C80.478 69.8152 80.958 69.6952 80.898 69.3772C80.754 68.5792 80.562 67.7752 80.412 66.9772C80.364 66.7072 79.986 66.8032 80.028 67.0492ZM81 75.3952C81.0268 76.4023 81.1351 77.4056 81.324 78.3952C81.396 78.7252 81.888 78.5932 81.828 78.2692C81.6229 77.3158 81.4667 76.3525 81.36 75.3832C81.306 75.1612 80.958 75.1552 81 75.3952ZM65.4 25.4632C65.286 25.2472 64.968 25.4272 65.07 25.6432C67.02 29.6452 66.87 29.6812 67.152 29.6812C67.1985 29.6807 67.2441 29.6686 67.2847 29.6458C67.3252 29.623 67.3593 29.5903 67.3839 29.5508C67.4084 29.5113 67.4226 29.4662 67.425 29.4198C67.4275 29.3734 67.4182 29.327 67.398 29.2852C66.738 27.9952 66.042 26.7412 65.4 25.4632ZM69.12 33.2872C69.03 33.0832 68.724 33.2452 68.814 33.4492C69.414 34.7872 69.912 36.1612 70.524 37.5052C70.656 37.8052 71.094 37.5652 70.962 37.2712C70.368 35.8912 69.666 34.5052 69.12 33.2872ZM74.4 45.5092C74.4363 45.5111 74.4726 45.5042 74.5056 45.4888C74.5386 45.4735 74.5673 45.4503 74.5893 45.4213C74.6112 45.3922 74.6256 45.3582 74.6313 45.3223C74.6371 45.2864 74.6338 45.2496 74.622 45.2152C74.412 44.6152 73.374 42.4132 73.11 41.8192C73.002 41.5732 72.642 41.7652 72.744 42.0112C74.172 45.2872 74.148 45.5092 74.4 45.5092ZM85.332 43.3312C85.11 43.7092 84.09 45.0952 83.814 45.4492C83.7935 45.4756 83.7784 45.5057 83.7696 45.538C83.7608 45.5702 83.7584 45.6038 83.7626 45.637C83.7667 45.6701 83.7774 45.7021 83.7939 45.7312C83.8105 45.7602 83.8326 45.7857 83.859 45.8062C83.8854 45.8266 83.9156 45.8417 83.9478 45.8506C83.98 45.8594 84.0136 45.8618 84.0468 45.8576C84.08 45.8534 84.112 45.8428 84.141 45.8262C84.17 45.8097 84.1955 45.7876 84.216 45.7612C84.7326 45.0406 85.2016 44.287 85.62 43.5052C85.6431 43.467 85.65 43.4212 85.6393 43.3779C85.6286 43.3345 85.6012 43.2972 85.563 43.2742C85.5248 43.2511 85.479 43.2441 85.4357 43.2548C85.3924 43.2655 85.3551 43.293 85.332 43.3312ZM74.85 20.6992C75.096 20.6992 75.228 20.3272 74.97 20.2132C74.424 19.9672 72.126 19.2052 71.556 19.0132C71.322 18.9232 71.202 19.2832 71.436 19.3732C72.042 19.5892 74.652 20.6992 74.85 20.6992ZM76.932 21.5992C78.009 22.1851 79.1403 22.6654 80.31 23.0332C80.3771 23.0447 80.4462 23.0311 80.5038 22.9948C80.5615 22.9585 80.6037 22.9021 80.6223 22.8366C80.641 22.7711 80.6347 22.7009 80.6047 22.6397C80.5747 22.5786 80.5232 22.5306 80.46 22.5052C79.3117 22.1934 78.1949 21.7756 77.124 21.2572C76.896 21.1552 76.704 21.5032 76.932 21.5992ZM48.294 21.2392C50.694 19.6252 51.414 19.9912 51.294 19.5652C51.2871 19.5406 51.2754 19.5177 51.2595 19.4977C51.2437 19.4777 51.224 19.4611 51.2017 19.4488C51.1793 19.4366 51.1548 19.4288 51.1294 19.4261C51.104 19.4235 51.0784 19.4258 51.054 19.4332C49.9707 19.7181 48.9398 20.1738 48 20.7832C47.724 20.9992 48 21.4312 48.294 21.2392ZM42.84 23.2612C42.654 23.4112 42.804 23.6572 43.014 23.6572C43.086 23.6572 43.098 23.6572 43.758 23.3272C44.418 22.9972 45.174 22.6432 45.456 22.5592C45.5033 22.5405 45.542 22.5048 45.5644 22.4591C45.5868 22.4134 45.5913 22.361 45.577 22.3121C45.5628 22.2633 45.5307 22.2215 45.4872 22.1951C45.4437 22.1686 45.3919 22.1594 45.342 22.1692C44.4737 22.4489 43.6355 22.8148 42.84 23.2612Z" fill="white"/>
<path id="Vector_4" d="M40.5241 24.3956C40.2121 24.5696 38.4901 25.4756 38.3041 25.5956C38.2658 25.6222 38.2366 25.66 38.2205 25.7037C38.2043 25.7475 38.202 25.7951 38.2138 25.8402C38.2255 25.8853 38.2508 25.9258 38.2863 25.9561C38.3218 25.9863 38.3657 26.005 38.4121 26.0096C39.2092 25.633 39.9826 25.2083 40.7281 24.7376C40.7618 24.7057 40.7836 24.6633 40.79 24.6174C40.7964 24.5714 40.7869 24.5247 40.7631 24.4848C40.7394 24.445 40.7027 24.4144 40.6593 24.3982C40.6158 24.382 40.5681 24.3811 40.5241 24.3956ZM35.4001 14.8076C36.2053 14.813 37.0033 14.6553 37.746 14.3439C38.4887 14.0326 39.1606 13.5741 39.7213 12.996C40.2819 12.418 40.7197 11.7324 41.0082 10.9806C41.2968 10.2288 41.4301 9.4263 41.4001 8.62158C41.2201 3.26358 34.2781 0.707579 30.7681 5.26758C27.6001 9.23358 30.6481 14.8076 35.4001 14.8076ZM31.8001 4.79958C35.4781 1.40958 40.8781 4.19958 41.0161 8.64558C41.005 9.77401 40.6797 10.877 40.0767 11.8309C39.4736 12.7847 38.6167 13.5516 37.6021 14.0456C34.2481 15.5096 30.2101 12.9956 29.9221 9.45558C29.8529 8.58705 29.9866 7.71433 30.3125 6.9063C30.6384 6.09828 31.1477 5.37706 31.8001 4.79958ZM48.7441 9.72558C49.8061 9.83958 50.8741 9.85158 51.9361 9.89958C51.9838 9.89958 52.0296 9.88062 52.0633 9.84686C52.0971 9.8131 52.1161 9.76732 52.1161 9.71958C52.1161 9.67184 52.0971 9.62606 52.0633 9.5923C52.0296 9.55854 51.9838 9.53958 51.9361 9.53958C50.8201 9.43758 50.1361 9.29958 48.7441 9.20958C48.4261 9.19158 48.4201 9.68958 48.7441 9.72558ZM42.4561 9.08958C42.9421 9.14358 44.9401 9.28158 45.4561 9.34758C45.7261 9.38958 45.8341 8.98158 45.5521 8.93358C44.5365 8.77415 43.513 8.66999 42.4861 8.62158C42.4553 8.61961 42.4245 8.62371 42.3954 8.63365C42.3662 8.64359 42.3393 8.65917 42.3162 8.67951C42.2931 8.69985 42.2742 8.72454 42.2606 8.75217C42.247 8.77981 42.239 8.80985 42.2371 8.84058C42.2351 8.87131 42.2392 8.90213 42.2491 8.93127C42.2591 8.96041 42.2747 8.98731 42.295 9.01044C42.3153 9.03356 42.34 9.05245 42.3677 9.06603C42.3953 9.07961 42.4253 9.08761 42.4561 9.08958ZM18.6001 53.4836C18.7741 52.3796 18.8161 51.2816 18.9481 50.1836C18.9781 49.9796 18.6421 49.9316 18.6121 50.1416C18.4441 51.2216 18.1861 52.3076 18.0601 53.4056C18.0607 53.4715 18.0848 53.5351 18.1282 53.5847C18.1716 53.6344 18.2313 53.6669 18.2966 53.6763C18.3619 53.6857 18.4283 53.6715 18.484 53.6361C18.5397 53.6008 18.5808 53.5467 18.6001 53.4836ZM17.9521 56.4536C17.3521 59.7476 17.2141 60.1496 17.6461 60.1496C17.9701 60.1496 17.9101 59.9336 18.3181 56.5016C18.3481 56.2796 18.0001 56.2316 17.9521 56.4536ZM28.9861 61.9376C28.0741 62.4176 26.9401 62.9756 26.5861 63.1856C26.5369 63.2147 26.4987 63.2592 26.4776 63.3123C26.4565 63.3654 26.4536 63.424 26.4694 63.479C26.4852 63.5339 26.5188 63.582 26.5649 63.6158C26.6109 63.6495 26.6669 63.6671 26.7241 63.6656C27.5607 63.2506 28.374 62.7899 29.1601 62.2856C29.1967 62.2576 29.2225 62.2178 29.233 62.1728C29.2434 62.1279 29.2378 62.0808 29.2172 62.0395C29.1966 61.9983 29.1622 61.9655 29.12 61.9469C29.0778 61.9283 29.0304 61.925 28.9861 61.9376ZM25.4761 63.7856C24.821 64.0926 24.1822 64.433 23.5621 64.8056C23.3701 64.9796 23.5981 65.2676 23.8261 65.1596C24.0541 65.0516 25.3321 64.2596 25.6261 64.1216C25.9201 63.9836 25.6981 63.6896 25.4761 63.7856ZM49.6381 68.7836C49.8541 68.9216 50.0581 68.5916 49.8481 68.4476C49.3921 68.1476 47.6581 66.8636 47.1781 66.6116C47.116 66.5816 47.045 66.5755 46.9787 66.5943C46.9124 66.6131 46.8552 66.6555 46.8181 66.7136C46.5721 67.0976 47.4001 67.3136 49.6381 68.7836ZM41.3281 63.2396C41.6281 63.4496 41.9281 63.6476 42.2341 63.8396C44.2801 65.1956 44.1841 65.2376 44.3101 65.2376C44.3515 65.237 44.3919 65.2242 44.4261 65.2007C44.4602 65.1772 44.4867 65.1441 44.5021 65.1056C44.5175 65.0671 44.5212 65.0249 44.5126 64.9843C44.5041 64.9437 44.4837 64.9066 44.4541 64.8776C43.5432 64.1279 42.5917 63.4288 41.6041 62.7836C41.3161 62.6096 41.0521 63.0536 41.3281 63.2396ZM100.41 83.1236C99.4261 83.2616 98.4121 83.3636 97.4101 83.5916C97.3484 83.6106 97.2956 83.651 97.2612 83.7056C97.2269 83.7602 97.2131 83.8252 97.2225 83.889C97.232 83.9529 97.2639 84.0112 97.3126 84.0535C97.3613 84.0958 97.4236 84.1192 97.4881 84.1196C97.7221 84.1196 99.2161 83.7176 100.488 83.5196C100.8 83.4956 100.68 83.0756 100.41 83.1236ZM95.1061 84.0956C94.0981 84.2456 92.9881 84.3356 91.8961 84.5216C91.5901 84.5756 91.6741 85.0196 91.9741 85.0196C92.2741 85.0196 94.4221 84.5876 95.1841 84.4676C95.4301 84.4256 95.3461 84.0596 95.1061 84.0956ZM109.662 74.7896C109.662 74.7896 109.344 73.3376 109.26 72.9176C109.25 72.8706 109.221 72.8297 109.181 72.8038C109.14 72.778 109.091 72.7692 109.044 72.7796C108.997 72.7899 108.956 72.8185 108.93 72.859C108.904 72.8995 108.896 72.9486 108.906 72.9956L109.188 74.7056C108.235 74.5848 107.267 74.6681 106.348 74.9497C105.43 75.2314 104.582 75.705 103.86 76.3393C103.138 76.9736 102.56 77.754 102.163 78.6288C101.765 79.5036 101.559 80.4528 101.556 81.4136C101.916 90.4556 114.894 90.2756 115.074 81.4136C115.086 79.8516 114.552 78.3344 113.564 77.1248C112.575 75.9151 111.195 75.0891 109.662 74.7896ZM111.21 84.2516C110.262 86.9456 106.686 86.4656 106.686 83.2496V81.3056C106.581 81.319 106.475 81.3099 106.374 81.2789C106.273 81.248 106.179 81.1958 106.1 81.126C106.021 81.0562 105.957 80.9703 105.914 80.874C105.87 80.7777 105.848 80.6732 105.848 80.5676C105.848 80.4619 105.87 80.3575 105.914 80.2612C105.957 80.1649 106.021 80.079 106.1 80.0091C106.179 79.9393 106.273 79.8872 106.374 79.8562C106.475 79.8253 106.581 79.8162 106.686 79.8296C106.686 79.2296 106.686 78.6296 106.728 77.9756C106.73 77.8787 106.752 77.7831 106.791 77.6945C106.83 77.6059 106.887 77.5258 106.957 77.4589C107.027 77.3921 107.11 77.3397 107.2 77.3048C107.291 77.2699 107.387 77.2532 107.484 77.2556C107.68 77.2618 107.866 77.3455 108.001 77.4882C108.136 77.631 108.209 77.8213 108.204 78.0176C108.204 78.6476 108.204 79.2476 108.168 79.8176H109.434C109.531 79.8152 109.627 79.8322 109.717 79.8676C109.808 79.903 109.89 79.9561 109.959 80.0238C110.028 80.0914 110.084 80.1723 110.121 80.2615C110.159 80.3508 110.178 80.4467 110.178 80.5436C110.18 80.641 110.162 80.7378 110.126 80.8283C110.09 80.9188 110.036 81.0014 109.968 81.0711C109.9 81.1408 109.819 81.1964 109.729 81.2346C109.64 81.2728 109.543 81.2928 109.446 81.2936H108.15C108.15 83.4836 108.09 83.8496 108.39 84.2216C108.816 84.7616 109.464 84.5816 109.8 83.7536C109.866 83.5666 110.004 83.4135 110.183 83.328C110.362 83.2425 110.567 83.2315 110.754 83.2976C110.941 83.3636 111.094 83.5012 111.18 83.6801C111.265 83.8591 111.276 84.0646 111.21 84.2516ZM61.4461 6.26358C60.218 6.25722 59.0008 6.49432 57.8649 6.96118C56.729 7.42803 55.6969 8.11538 54.8282 8.98349C53.9596 9.85161 53.2715 10.8833 52.804 12.0189C52.3364 13.1545 52.0985 14.3715 52.1041 15.5996C52.3501 27.9596 70.5421 27.9656 70.7821 15.5996C70.7884 14.3718 70.5513 13.1549 70.0844 12.0193C69.6174 10.8838 68.93 9.85204 68.0618 8.98385C67.1936 8.11565 66.1619 7.42821 65.0263 6.96128C63.8907 6.49436 62.6739 6.25722 61.4461 6.26358ZM64.1401 10.9796C64.0482 11.1519 63.8923 11.2812 63.706 11.3395C63.5196 11.3979 63.3178 11.3807 63.1441 11.2916C62.8346 11.1214 62.4751 11.0654 62.1285 11.1334C61.782 11.2014 61.4703 11.3891 61.2481 11.6636C60.5581 12.3836 60.5881 14.8316 60.5881 14.9636L62.3881 14.6876C62.5822 14.6581 62.7801 14.707 62.9382 14.8235C63.0963 14.9399 63.2016 15.1144 63.2311 15.3086C63.2605 15.5027 63.2116 15.7006 63.0952 15.8587C62.9787 16.0168 62.8042 16.1221 62.6101 16.1516L60.5941 16.4576C60.5941 17.8856 60.6601 19.2656 60.7081 20.6576C60.6995 20.8441 60.6211 21.0207 60.4885 21.1521C60.3558 21.2835 60.1786 21.3603 59.9919 21.3671C59.8053 21.3739 59.6229 21.3102 59.4811 21.1888C59.3392 21.0674 59.2482 20.897 59.2261 20.7116C59.1601 18.7436 59.1121 16.7456 59.0881 14.6096C59.0881 13.4096 59.0881 11.8436 60.1561 10.6616C61.8301 8.83158 64.8001 9.74958 64.1401 10.9796Z" fill="white"/>
<g id="Vector_5">
<path d="M58.6633 62.483C58.7207 62.4976 58.7699 62.5345 58.8002 62.5854C59.0458 62.9789 59.4221 63.2734 59.8632 63.4171C60.3043 63.5609 60.7818 63.5447 61.2122 63.3714C61.2484 63.3555 61.2893 63.3539 61.3267 63.367C61.364 63.3801 61.395 63.4069 61.4133 63.442C61.4316 63.4771 61.4359 63.5178 61.4252 63.556C61.4146 63.5941 61.39 63.6268 61.3562 63.6474C60.8509 63.9026 60.2681 63.9585 59.7234 63.804C59.1788 63.6495 58.7122 63.2959 58.4162 62.8134C58.3859 62.7625 58.3772 62.7016 58.3918 62.6442C58.4064 62.5868 58.4432 62.5376 58.4942 62.5074C58.5451 62.4771 58.6059 62.4684 58.6633 62.483Z" fill="#E1FF01"/>
<path d="M62.6222 60.7314C62.6462 60.5214 62.9582 60.7134 63.0002 60.3654C62.9019 60.1563 62.7833 59.9573 62.6462 59.7714C62.4364 59.4947 62.2592 59.1947 62.1182 58.8774C62.1078 58.84 62.1128 58.8 62.1319 58.7663C62.151 58.7325 62.1828 58.7077 62.2202 58.6974C62.2576 58.687 62.2975 58.692 62.3313 58.7111C62.365 58.7302 62.3898 58.762 62.4002 58.7994C62.6747 59.2093 62.9816 59.5966 63.3182 59.9574C63.3768 60.0463 63.4108 60.1493 63.4164 60.2558C63.4221 60.3622 63.3994 60.4682 63.3505 60.5629C63.3016 60.6576 63.2284 60.7376 63.1383 60.7946C63.0483 60.8517 62.9447 60.8837 62.8382 60.8874C62.7182 60.8874 62.6222 60.8454 62.6222 60.7314Z" fill="#E1FF01"/>
<path d="M59.6927 55.8C59.7545 55.8394 59.7983 55.9018 59.8142 55.9734C59.8622 56.2254 60.1142 57.2454 60.1142 57.3954C60.1142 57.4813 60.08 57.5637 60.0193 57.6245C59.9585 57.6852 59.8761 57.7194 59.7902 57.7194C59.3402 57.7194 59.4422 57.2334 59.2742 56.0934C59.2583 56.0218 59.2714 55.9468 59.3108 55.8849C59.3502 55.823 59.4126 55.7793 59.4842 55.7634C59.5558 55.7475 59.6308 55.7607 59.6927 55.8Z" fill="#E1FF01"/>
<path d="M64.4289 55.8623C64.4815 55.9033 64.5174 55.9619 64.5302 56.0274C64.5902 56.5794 64.6862 57.1674 64.6982 57.2394C64.7069 57.3189 64.6837 57.3987 64.6336 57.4612C64.5836 57.5236 64.5107 57.5636 64.4312 57.5724C64.3516 57.5811 64.2718 57.5579 64.2094 57.5078C64.1469 57.4578 64.1069 57.3849 64.0982 57.3054C64.0682 57.2214 63.9842 56.1474 63.9842 56.0574C63.9896 55.9909 64.019 55.9287 64.0668 55.8822C64.1145 55.8357 64.1775 55.8081 64.2441 55.8044C64.3107 55.8008 64.3763 55.8213 64.4289 55.8623Z" fill="#E1FF01"/>
<path d="M59.3262 55.0358C59.1089 55.1901 58.9492 55.4123 58.8722 55.6674C58.8539 55.7342 58.8098 55.791 58.7496 55.8254C58.6894 55.8597 58.618 55.8687 58.5512 55.8504C58.4843 55.8321 58.4275 55.788 58.3932 55.7278C58.3589 55.6676 58.3499 55.5962 58.3682 55.5294C58.7222 54.4074 60.3362 54.2334 60.2762 54.6654C60.2674 54.7115 60.2415 54.7526 60.2036 54.7804C60.1658 54.8083 60.1188 54.8207 60.0722 54.8154C59.8059 54.804 59.5435 54.8816 59.3262 55.0358Z" fill="#E1FF01"/>
<path d="M63.9759 54.7688C63.7948 54.6463 63.5784 54.5867 63.3602 54.5994C63.3249 54.6012 63.2902 54.5905 63.262 54.5692C63.2339 54.548 63.2142 54.5175 63.2063 54.4831C63.1984 54.4487 63.2029 54.4126 63.219 54.3812C63.235 54.3498 63.2617 54.3251 63.2942 54.3114C63.5947 54.2519 63.9065 54.2983 64.1766 54.4427C64.4468 54.587 64.6586 54.8205 64.7762 55.1034C64.8482 55.3554 64.4702 55.5114 64.3622 55.2774C64.2927 55.07 64.157 54.8913 63.9759 54.7688Z" fill="#E1FF01"/>
</g>
<path id="Vector_6" d="M89.868 86.9993C92.322 79.8713 92.202 80.2913 92.16 80.2313C92.118 80.1713 84.3599 80.0273 80.0519 80.1113C78.3339 77.5354 76.0886 75.3536 73.4646 73.7101C70.8405 72.0665 67.8974 70.9987 64.8299 70.5773C64.3635 70.0657 63.7201 69.7505 63.0299 69.6953L62.2799 69.4373C62.2501 68.8517 62.2501 68.265 62.2799 67.6793C63.9637 67.038 65.3393 65.7783 66.1259 64.1573C67.0079 62.1773 66.5699 59.6453 66.0539 53.2073C67.2899 53.5913 67.3199 52.3193 66.5699 51.3233C66.6037 51.1105 66.593 50.8929 66.5385 50.6844C66.4841 50.4759 66.3869 50.2809 66.2533 50.1118C66.1197 49.9426 65.9525 49.803 65.7623 49.7018C65.572 49.6005 65.3629 49.5397 65.1479 49.5233C65.2633 49.3463 65.33 49.142 65.3411 48.931C65.3522 48.72 65.3073 48.5098 65.2111 48.3217C65.1149 48.1335 64.9708 47.9741 64.7932 47.8596C64.6157 47.745 64.411 47.6794 64.1999 47.6693C64.0749 47.3947 63.8672 47.1661 63.6057 47.0154C63.3443 46.8648 63.0422 46.7997 62.7419 46.8293C62.6995 46.6275 62.6039 46.4407 62.4651 46.2882C62.3262 46.1357 62.1492 46.023 61.9522 45.9618C61.7552 45.9007 61.5455 45.8932 61.3447 45.9402C61.1439 45.9873 60.9593 46.0871 60.8099 46.2293C60.6839 46.0373 60.3719 45.5633 60.2099 45.3833C60.3381 45.2571 60.4264 45.0959 60.4637 44.9199C60.501 44.7439 60.4858 44.5608 60.4199 44.3933C60.7139 44.3013 60.9709 44.1178 61.1533 43.8696C61.3357 43.6214 61.4341 43.3214 61.4341 43.0133C61.4341 42.7053 61.3357 42.4053 61.1533 42.1571C60.9709 41.9088 60.7139 41.7253 60.4199 41.6333C60.8939 39.9053 59.2739 38.8433 57.8039 39.5333C57.7245 39.3351 57.588 39.1649 57.4118 39.0442C57.2356 38.9235 57.0275 38.8578 56.8139 38.8553C58.014 37.3433 56.3039 36.2873 54.6779 36.8033C54.571 36.529 54.3914 36.2891 54.1584 36.1092C53.9253 35.9293 53.6477 35.8164 53.3553 35.7824C53.0628 35.7485 52.7667 35.7949 52.4987 35.9166C52.2306 36.0383 52.0008 36.2308 51.834 36.4733C51.4402 36.37 51.0217 36.4252 50.6683 36.6271C50.3148 36.8291 50.0548 37.1617 49.9439 37.5533C49.692 37.494 49.4301 37.4912 49.177 37.5451C48.9238 37.5991 48.6858 37.7084 48.4799 37.8653C48.3426 37.628 48.1236 37.4488 47.8637 37.3612C47.6038 37.2737 47.3209 37.2838 47.068 37.3897C46.815 37.4955 46.6093 37.69 46.4893 37.9365C46.3693 38.1831 46.3432 38.4649 46.4159 38.7293C46.2499 38.7757 46.1027 38.873 45.995 39.0076C45.8873 39.1422 45.8247 39.3072 45.8159 39.4793C45.75 39.4682 45.6824 39.4712 45.6176 39.4882C45.5529 39.5051 45.4924 39.5355 45.4403 39.5774C45.3881 39.6194 45.3455 39.6719 45.3151 39.7315C45.2847 39.7911 45.2673 39.8565 45.264 39.9233C45.1077 39.8837 44.9433 39.8905 44.7908 39.943C44.6384 39.9955 44.5046 40.0913 44.4059 40.2187C44.3071 40.3461 44.2477 40.4996 44.2349 40.6603C44.2222 40.821 44.2566 40.9819 44.3339 41.1233C44.1385 41.1672 43.9603 41.2677 43.8216 41.4123C43.6829 41.5568 43.5898 41.739 43.554 41.9361C43.5181 42.1332 43.5411 42.3364 43.6201 42.5205C43.699 42.7047 43.8305 42.8614 43.9979 42.9713C43.0499 43.2473 42.4379 44.1713 42.7979 45.0113C41.7179 45.6653 41.2739 46.9913 42.0359 47.9153C41.8988 48.2967 41.9048 48.7149 42.0526 49.0923C42.2005 49.4697 42.4802 49.7806 42.8399 49.9673C42.683 50.1602 42.5833 50.3932 42.5519 50.6399C42.5205 50.8865 42.5589 51.1371 42.6625 51.3631C42.7661 51.5891 42.931 51.7816 43.1384 51.9188C43.3457 52.056 43.5874 52.1324 43.8359 52.1393C43.8543 52.3567 43.9284 52.5656 44.0512 52.7459C44.174 52.9261 44.3413 53.0716 44.5369 53.1682C44.7325 53.2648 44.9497 53.3092 45.1675 53.2971C45.3853 53.285 45.5962 53.2169 45.78 53.0993C45.8777 53.2553 46.019 53.3792 46.1864 53.4557C46.3538 53.5322 46.5399 53.558 46.7218 53.53C46.9037 53.5019 47.0734 53.4211 47.2099 53.2977C47.3464 53.1742 47.4438 53.0135 47.4899 52.8353C47.7836 52.9458 48.0988 52.987 48.411 52.9558C48.7232 52.9245 49.024 52.8217 49.29 52.6553C49.044 54.1493 47.91 54.2573 48.264 55.8233C48.0549 56.0984 47.9392 56.433 47.9338 56.7784C47.9284 57.1238 48.0336 57.4619 48.2339 57.7433C48.1659 57.888 48.1274 58.0448 48.1208 58.2046C48.1143 58.3644 48.1396 58.5238 48.1955 58.6736C48.2514 58.8234 48.3367 58.9605 48.4463 59.0769C48.556 59.1933 48.6878 59.2866 48.834 59.3513C48.7778 59.4615 48.7512 59.5844 48.7568 59.708C48.7624 59.8316 48.8001 59.9515 48.866 60.0562C48.9319 60.1608 49.0239 60.2465 49.1329 60.305C49.242 60.3634 49.3643 60.3924 49.4879 60.3893C49.6059 60.8305 49.8324 61.2351 50.1468 61.5662C50.4612 61.8974 50.8535 62.1446 51.288 62.2853C51.348 69.8273 51.6239 68.9213 50.9039 69.7973C50.2408 70.1457 49.6974 70.6849 49.3439 71.3453C38.8199 74.9993 34.5719 83.3453 33.1799 94.5473C32.3759 94.4213 32.3399 94.3913 32.3099 94.4933C31.9861 95.7541 31.8725 97.0596 31.9739 98.3573C31.9739 98.4353 31.9739 98.4293 32.9339 98.6633C33.2039 103.289 35.7059 108.305 40.7339 109.187C40.6679 110.159 40.5899 115.727 40.7339 116.987C40.7403 117.017 40.7566 117.043 40.7801 117.062C40.8036 117.081 40.8328 117.091 40.863 117.091C40.8931 117.091 40.9223 117.081 40.9458 117.062C40.9693 117.043 40.9856 117.017 40.9919 116.987C40.9919 116.315 41.0759 110.279 41.1299 109.277C44.184 109.577 45.9719 108.299 48.3779 105.677C52.1579 101.477 54.2999 96.9473 56.5319 92.1953C56.924 91.4282 57.2395 90.6243 57.4739 89.7953C57.826 89.9377 58.2142 89.965 58.5827 89.8734C58.9513 89.7818 59.2815 89.576 59.5259 89.2853C60.3854 89.5628 61.2983 89.6327 62.1899 89.4893C62.3408 89.4613 62.4842 89.4026 62.6113 89.3167C62.7383 89.2308 62.8464 89.1197 62.9286 88.9902C63.0108 88.8607 63.0654 88.7156 63.089 88.5641C63.1127 88.4125 63.1048 88.2577 63.0659 88.1093C63.834 88.0733 64.3139 87.3773 63.5459 86.7953C63.3015 86.6074 63.0427 86.4389 62.7719 86.2913C63.408 86.2493 65.0879 86.0633 65.6339 85.6913C66.1799 85.3193 66.1619 84.3893 65.4059 84.2873C65.0879 84.2453 60.4139 84.4373 59.3519 84.5873C58.3011 84.6987 57.306 85.1159 56.4899 85.7873C55.2899 86.7773 46.8059 93.8273 43.7759 96.3713C42.0179 96.0533 35.4299 94.9253 33.6779 94.6493C35.1299 82.5473 40.062 75.3113 49.1819 71.9033C48.624 74.1833 51.3239 76.5233 52.1819 77.2193C53.5919 78.3773 55.8959 79.6193 57.8699 79.0793C59.1239 78.7433 60.0599 77.7773 60.6599 76.1993C63.3239 78.5093 64.5779 78.2513 64.9979 78.0353C66.6119 77.1893 66.5459 73.0733 65.2019 71.0933C68.0816 71.5392 70.8383 72.5745 73.2995 74.1345C75.7607 75.6945 77.8736 77.7455 79.5059 80.1593C76.7519 80.2193 76.9199 80.2193 76.896 80.2913C76.2453 82.0466 75.6133 83.8087 74.9999 85.5773C74.7599 84.0833 74.3999 82.0493 74.2439 81.4613C74.2306 81.4293 74.2061 81.4031 74.175 81.3876C74.1439 81.3722 74.1082 81.3685 74.0746 81.3773C74.041 81.386 74.0117 81.4067 73.9921 81.4353C73.9725 81.464 73.9639 81.4988 73.9679 81.5333C74.1419 82.2653 74.5019 85.0433 74.6999 86.4473C72.2639 93.4973 70.3559 99.8513 70.4039 99.9173C70.4519 99.9833 76.4039 99.9833 77.1719 99.9713C77.7719 104.987 78.228 115.445 78.2099 116.687C78.2099 116.722 78.2239 116.756 78.2486 116.781C78.2734 116.805 78.3069 116.819 78.342 116.819C78.377 116.819 78.4105 116.805 78.4353 116.781C78.46 116.756 78.4739 116.722 78.4739 116.687C78.5819 114.479 78.4739 107.843 78.3719 106.409C79.7909 106.174 81.0912 105.473 82.0679 104.417C82.7999 103.667 83.8679 101.447 84.6059 99.6593C85.7699 99.5813 85.8059 99.5993 85.8059 99.5213C86.4899 97.9313 87.1679 96.0593 87.7379 94.2353C90.5699 93.8093 92.0039 89.8373 90.8579 88.0373C90.6009 87.6284 90.2642 87.2754 89.868 86.9993ZM40.9499 99.7553C41.334 99.6893 40.9079 99.1553 55.3919 87.2513C57.7919 85.2893 57.9779 85.1033 60.8879 84.9053C61.9679 84.8333 64.7699 84.7313 65.0879 84.7253C65.3339 84.7253 65.5499 84.7253 65.5319 84.9473C65.5319 85.3313 64.9319 85.4453 64.5179 85.5473C63.276 85.8479 62.0037 86.0049 60.7259 86.0153C60.6878 86.0153 60.6511 86.0305 60.6241 86.0575C60.5971 86.0845 60.5819 86.1212 60.5819 86.1593C60.5819 86.1975 60.5971 86.2342 60.6241 86.2612C60.6511 86.2882 60.6878 86.3033 60.7259 86.3033H61.9739C62.3565 86.4887 62.722 86.7075 63.0659 86.9573C63.2099 87.0593 63.4679 87.1553 63.4859 87.2933C63.5819 88.0913 61.5659 87.3533 60.8579 87.0113C60.8333 86.9986 60.8046 86.9962 60.7781 87.0046C60.7517 87.0131 60.7297 87.0317 60.7169 87.0563C60.7042 87.081 60.7018 87.1097 60.7102 87.1362C60.7187 87.1626 60.7373 87.1846 60.7619 87.1973C61.2719 87.5153 63.0359 88.1333 62.6279 88.7333C62.1059 89.4893 60.7379 89.1653 59.8319 88.9853C60.0212 88.8323 60.2488 88.7341 60.49 88.7013C60.7311 88.6685 60.9767 88.7024 61.1999 88.7993C61.2304 88.807 61.2627 88.8035 61.2908 88.7895C61.319 88.7755 61.3412 88.7519 61.3535 88.7229C61.3658 88.694 61.3674 88.6616 61.3579 88.6316C61.3485 88.6016 61.3286 88.576 61.3019 88.5593C60.9334 88.4042 60.5257 88.3677 60.1354 88.4548C59.7451 88.5419 59.3916 88.7483 59.1239 89.0453C58.4099 89.7293 57.5219 89.5673 56.8319 88.8713C56.8073 88.8495 56.7757 88.8372 56.7427 88.8367C56.7098 88.8362 56.6778 88.8474 56.6524 88.8684C56.6271 88.8894 56.6101 88.9188 56.6045 88.9512C56.5989 88.9837 56.6051 89.0171 56.6219 89.0453C56.7599 89.2573 56.9396 89.439 57.1499 89.5793C56.081 92.2085 54.8794 94.7818 53.5499 97.2893C51.1499 101.789 48.7139 104.969 45.9779 107.285C43.0139 109.835 38.6579 108.899 36.1559 105.983C34.6559 104.249 33.7139 101.819 33.3659 98.7833C34.6139 98.9993 39.5999 99.7133 40.9499 99.7553ZM51.3539 49.7033C50.8363 50.067 50.436 50.5736 50.2019 51.1613C49.9677 50.9546 49.7866 50.6947 49.6739 50.4033C49.5611 50.112 49.52 49.7979 49.5539 49.4873C50.0879 47.0873 52.5539 44.9873 54.5999 44.3693C55.8599 43.8593 59.0639 44.4293 60.0959 45.9713C59.7593 45.9408 59.4233 46.0371 59.1539 46.2413C58.9925 46.0314 58.7857 45.8606 58.5491 45.7418C58.3124 45.623 58.0519 45.5592 57.7871 45.5551C57.5223 45.5511 57.26 45.6069 57.0198 45.7185C56.7796 45.83 56.5677 45.9944 56.3999 46.1993C56.0717 46.295 55.7753 46.4774 55.5419 46.7273C55.3211 46.6091 55.0706 46.5581 54.8211 46.5804C54.5716 46.6028 54.3342 46.6977 54.1379 46.8533C53.929 46.91 53.7453 47.0358 53.6168 47.21C53.4882 47.3843 53.4224 47.5969 53.4299 47.8133C53.1666 47.7873 52.9007 47.8168 52.6494 47.9001C52.3982 47.9833 52.1673 48.1184 51.9716 48.2966C51.7759 48.4748 51.6198 48.692 51.5134 48.9344C51.407 49.1767 51.3527 49.4387 51.3539 49.7033ZM62.6999 74.6333C59.8979 77.5373 51.4799 74.1533 50.9339 71.4533C50.8907 71.1631 50.9166 70.8668 51.0094 70.5885C51.1021 70.3101 51.2593 70.0576 51.4679 69.8513C51.528 69.7913 51.57 69.7253 51.63 69.6653C51.637 69.648 51.637 69.6287 51.63 69.6113L51.7439 69.4673C51.8939 69.1853 51.7079 63.2153 51.6779 62.3573C51.9038 62.3603 52.1247 62.2917 52.3091 62.1612C52.4934 62.0308 52.6316 61.8453 52.7039 61.6313C52.8317 61.7009 52.9773 61.7311 53.1222 61.7181C53.2671 61.7052 53.405 61.6498 53.5184 61.5587C53.6319 61.4677 53.716 61.3451 53.76 61.2064C53.804 61.0678 53.8061 60.9192 53.7659 60.7793L55.2419 59.1953C55.2399 59.3923 55.2943 59.5858 55.3987 59.7528C55.503 59.9199 55.653 60.0536 55.831 60.1381C56.0089 60.2227 56.2073 60.2545 56.4027 60.2299C56.5982 60.2053 56.7825 60.1253 56.9339 59.9993C57.089 59.8866 57.2173 59.7411 57.3096 59.573C57.4019 59.405 57.456 59.2187 57.4679 59.0273C57.4703 59.0067 57.4654 58.9859 57.4541 58.9684C57.4428 58.9509 57.4258 58.9379 57.4061 58.9316C57.3863 58.9252 57.3649 58.9259 57.3455 58.9335C57.3262 58.9411 57.3101 58.9552 57.2999 58.9733C57.2002 59.1228 57.0527 59.2339 56.8815 59.2884C56.7103 59.3429 56.5257 59.3376 56.3579 59.2733C56.4167 59.0246 56.4051 58.7644 56.3246 58.5217C56.2441 58.2791 56.0978 58.0637 55.9019 57.8993C55.0019 55.0193 55.0859 53.8793 56.6999 52.7993C57.8999 51.8933 62.0999 49.8773 64.9259 52.4513C65.1202 52.6769 65.3515 52.8676 65.6099 53.0153C66.3419 62.9813 66.8099 63.1133 64.0739 66.0053C63.2358 66.8552 62.1198 67.3749 60.9299 67.4693C60.7199 67.4693 60.6959 67.7753 60.9299 67.7993C61.2345 67.8412 61.5434 67.8412 61.8479 67.7993C61.8479 69.8333 61.7579 69.6773 62.3399 69.8813C64.3259 70.7993 64.1519 73.1153 62.6999 74.6333ZM80.3459 105.125C79.7157 105.475 79.0418 105.739 78.342 105.911C78.252 104.903 77.886 101.711 77.646 99.9113C79.8299 99.8633 82.0259 99.7733 84.1199 99.6413C83.2439 101.825 81.9179 104.357 80.3459 105.125ZM84.312 85.3253C82.992 85.2893 82.992 83.6573 84.312 83.6213C85.632 83.5853 85.632 85.3193 84.312 85.3553V85.3253ZM78.966 82.2353C78.6858 82.4027 78.459 82.6461 78.312 82.9373C78.132 83.2793 72.9779 97.3013 72.7319 98.0993C72.7192 98.1423 72.6899 98.1785 72.6506 98.1998C72.6112 98.2212 72.5649 98.2261 72.5219 98.2133C72.479 98.2006 72.4428 98.1713 72.4215 98.132C72.4001 98.0926 72.3952 98.0463 72.4079 98.0033C72.7139 96.8693 77.1599 84.1373 77.2079 84.0593C78.2699 81.4073 78.684 81.4493 80.712 81.3833C81.642 81.3533 88.41 81.3233 89.3879 81.4853C89.604 81.5213 89.5559 81.8273 89.3879 81.8453C88.854 81.9113 79.3859 82.0553 78.966 82.2653V82.2353ZM87.9179 93.6353C88.1459 92.8673 88.3559 92.1173 88.5179 91.4033C88.785 91.5113 89.0625 91.5918 89.3459 91.6433C89.377 91.6505 89.4096 91.645 89.4366 91.6282C89.4636 91.6113 89.4828 91.5844 89.4899 91.5533C89.4971 91.5223 89.4917 91.4897 89.4748 91.4627C89.4579 91.4357 89.431 91.4165 89.3999 91.4093C88.7459 91.1535 88.1379 90.7928 87.5999 90.3413C87.2339 89.9273 87.0659 89.6213 87.492 89.3213C88.308 89.9633 89.3699 90.5213 89.7599 90.8033C89.7848 90.8156 89.8131 90.8189 89.8401 90.8127C89.867 90.8065 89.8911 90.7911 89.908 90.7692C89.925 90.7473 89.9338 90.7202 89.9331 90.6926C89.9323 90.6649 89.922 90.6383 89.9039 90.6173C89.4659 90.2213 87.984 89.2253 87.21 88.4513C87.1977 88.3289 87.2234 88.2058 87.2835 88.0984C87.3436 87.9911 87.4352 87.9049 87.546 87.8513C88.2421 88.4585 89.0026 88.9877 89.8139 89.4293C89.8404 89.4454 89.872 89.4506 89.9022 89.4439C89.9324 89.4372 89.9588 89.4191 89.976 89.3933C90.0659 89.2793 89.976 89.2373 89.376 88.7393C88.926 88.3673 88.2959 87.8453 87.8339 87.3893C87.1799 86.7893 88.4339 86.8973 89.5799 87.3893C89.979 87.6173 90.3042 87.955 90.5169 88.3624C90.7296 88.7697 90.8209 89.2296 90.78 89.6873C90.69 91.4213 89.6219 93.2213 87.9179 93.6953V93.6353ZM38.7479 7.22934C38.507 7.26449 38.2613 7.21577 38.0519 7.09134C37.9138 6.73987 37.6796 6.43428 37.3763 6.20939C37.0729 5.9845 36.7124 5.84935 36.3359 5.81934C35.4179 5.87934 35.2379 7.17534 34.5359 7.27134C34.1159 7.33134 33.5999 6.89934 32.9999 5.99934C32.9926 5.98412 32.9811 5.97129 32.9667 5.96231C32.9524 5.95333 32.9359 5.94857 32.9189 5.94857C32.902 5.94857 32.8855 5.95333 32.8711 5.96231C32.8568 5.97129 32.8453 5.98412 32.8379 5.99934C32.7718 6.22456 32.752 6.46087 32.7798 6.69396C32.8077 6.92704 32.8826 7.15205 32.9999 7.35534C32.9027 7.35086 32.8107 7.31019 32.7419 7.24134C32.5379 7.04334 32.4359 7.77534 32.9279 8.27934C32.7769 8.27129 32.6295 8.23033 32.4959 8.15934C32.1959 7.92534 32.3219 9.16134 33.3059 9.72534C33.0276 9.70773 32.7557 9.6344 32.5063 9.50969C32.2568 9.38497 32.035 9.21142 31.8539 8.99934C31.8421 8.98297 31.8252 8.97104 31.8058 8.96548C31.7864 8.95991 31.7657 8.96102 31.747 8.96863C31.7283 8.97625 31.7127 8.98992 31.7027 9.00746C31.6928 9.025 31.689 9.04538 31.6919 9.06534C31.7986 9.95549 32.21 10.7813 32.8564 11.4025C33.5028 12.0237 34.3443 12.4021 35.2379 12.4733C37.2239 12.4733 38.4779 10.3373 38.0159 8.69934C38.1331 8.66249 38.2588 8.66249 38.3759 8.69934C38.3933 8.71233 38.4147 8.71865 38.4363 8.71711C38.4579 8.71557 38.4783 8.70629 38.4936 8.69098C38.5089 8.67566 38.5182 8.65533 38.5197 8.63372C38.5213 8.61211 38.5149 8.59067 38.5019 8.57334C38.4406 8.47548 38.3996 8.36624 38.3815 8.25216C38.3634 8.13809 38.3685 8.02153 38.3965 7.90948C38.4245 7.79742 38.4749 7.69218 38.5445 7.60005C38.6142 7.50792 38.7018 7.43081 38.8019 7.37334C38.8115 7.36118 38.8177 7.34678 38.8201 7.33151C38.8225 7.31624 38.8209 7.30062 38.8154 7.28616C38.81 7.27169 38.8009 7.25886 38.7891 7.24891C38.7773 7.23896 38.7631 7.23222 38.7479 7.22934ZM36.8999 7.69134C36.7811 7.67807 36.6714 7.62147 36.5916 7.53237C36.5119 7.44326 36.4679 7.3279 36.4679 7.20834C36.4679 7.08878 36.5119 6.97341 36.5916 6.8843C36.6714 6.7952 36.7811 6.7386 36.8999 6.72534C37.0188 6.7386 37.1285 6.7952 37.2082 6.8843C37.288 6.97341 37.332 7.08878 37.332 7.20834C37.332 7.3279 37.288 7.44326 37.2082 7.53237C37.1285 7.62147 37.0188 7.67807 36.8999 7.69134ZM20.7419 67.5173C18.787 67.4083 16.8261 67.5068 14.8919 67.8113C14.8718 67.8142 14.8534 67.8244 14.8402 67.8398C14.8269 67.8553 14.8197 67.875 14.8199 67.8953C14.815 68.9399 14.9564 69.98 15.2399 70.9853C15.2457 71.0018 15.2562 71.0163 15.27 71.0269C15.2839 71.0376 15.3005 71.044 15.3179 71.0453C17.0541 71.1832 18.8001 71.135 20.5259 70.9013C20.8679 70.8533 21.1139 67.5413 20.7419 67.5173ZM19.1279 69.4793C19.0883 69.6749 18.9918 69.8543 18.8506 69.9953C18.7094 70.1362 18.5297 70.2324 18.3341 70.2717C18.1385 70.3111 17.9357 70.2918 17.751 70.2164C17.5663 70.141 17.4079 70.0128 17.2957 69.8478C17.1835 69.6828 17.1225 69.4884 17.1203 69.2889C17.1181 69.0894 17.1747 68.8937 17.2832 68.7263C17.3917 68.5588 17.5472 68.4271 17.7302 68.3476C17.9132 68.2681 18.1155 68.2444 18.3119 68.2793C18.4451 68.303 18.5721 68.3531 18.6856 68.4267C18.7991 68.5002 18.8967 68.5956 18.9727 68.7075C19.0487 68.8193 19.1016 68.9452 19.1283 69.0777C19.155 69.2103 19.1548 69.3468 19.1279 69.4793ZM19.4759 66.8273C19.5807 66.8466 19.6883 66.8451 19.7925 66.8229C19.8967 66.8006 19.9955 66.758 20.0833 66.6976C20.171 66.6371 20.246 66.56 20.3039 66.4705C20.3619 66.3811 20.4016 66.2811 20.4209 66.1763C20.4403 66.0715 20.4387 65.964 20.4165 65.8598C20.3942 65.7556 20.3516 65.6568 20.2912 65.569C20.2307 65.4813 20.1536 65.4063 20.0641 65.3483C19.9747 65.2904 19.8747 65.2506 19.7699 65.2313C19.5583 65.1924 19.3398 65.239 19.1626 65.3611C18.9854 65.4832 18.8639 65.6707 18.8249 65.8823C18.786 66.094 18.8326 66.3124 18.9547 66.4897C19.0768 66.6669 19.2643 66.7884 19.4759 66.8273Z" fill="#E1FF01"/>
<path id="Vector_7" d="M22.6439 64.8468C19.6439 60.5028 12.8159 62.0388 11.9879 67.1448C11.8203 68.0001 11.8471 68.882 12.0664 69.7255C12.2856 70.569 12.6916 71.3524 13.2545 72.0178C13.8173 72.6832 14.5225 73.2135 15.318 73.5696C16.1134 73.9256 16.9787 74.0983 17.8499 74.0748C22.8419 74.0748 25.1999 68.5668 22.6439 64.8468ZM21.3839 71.4468C21.3803 71.464 21.3714 71.4796 21.3585 71.4914C21.3456 71.5032 21.3293 71.5107 21.3119 71.5128C19.0827 71.8118 16.8282 71.8742 14.5859 71.6988C14.568 71.6963 14.5512 71.6888 14.5374 71.6771C14.5236 71.6654 14.5134 71.6501 14.5079 71.6328C13.912 69.4247 13.8014 67.1137 14.1839 64.8588C14.1866 64.8397 14.1959 64.8221 14.2101 64.809C14.2243 64.7958 14.2426 64.788 14.2619 64.7868C16.6757 64.5097 19.1147 64.5359 21.5219 64.8648C21.5398 64.8682 21.5562 64.8768 21.5691 64.8897C21.5819 64.9025 21.5906 64.919 21.5939 64.9368C21.9697 67.1004 21.8983 69.318 21.3839 71.4528V71.4468Z" fill="white"/>
</g>
</g>
</svg>
