<svg width="120" height="120" viewBox="0 0 120 120" fill="none" xmlns="http://www.w3.org/2000/svg">
<g id="Logged-In-1--Streamline-Milano">
<g id="Logged-In-1--Streamline-Milano.svg">
<path id="Vector" fill-rule="evenodd" clip-rule="evenodd" d="M32.9551 106.148C31.4045 105.801 28.2108 102.601 28.2108 102.601C25.6419 73.493 23.2871 21.8954 27.0883 8.46079C28.2455 4.36446 73.0911 4.27189 81.8739 6.45891C83.7138 6.91599 86.815 10.1213 86.8207 10.1618C86.8265 10.2023 88.163 28.0977 88.2093 28.8036C88.2556 28.7284 88.3019 28.6532 88.354 28.5837C88.368 28.5642 88.3887 28.5504 88.4121 28.5451C88.4356 28.5398 88.4602 28.5432 88.4813 28.5548C88.7632 28.7417 88.9892 29.0017 89.135 29.307C89.569 30.2095 89.135 31.1642 88.5218 31.9569C88.7085 31.8744 88.9021 31.8086 89.1003 31.7601C89.5429 31.3408 90.0903 31.0486 90.6849 30.9142C91.2795 30.7798 91.8994 30.8082 92.4792 30.9964C94.7068 31.6386 95.9218 33.1777 96.0606 34.1381C96.1995 35.0985 96.8475 35.1448 97.2178 35.2952C98.1319 35.6424 100.44 34.9192 101.522 36.2152C102.17 36.9905 102.217 38.5295 101.436 39.8487C100.655 41.1678 102.708 41.4108 103.443 42.163C104.178 42.9151 104.531 45.2236 103.374 46.2535C102.217 47.2834 101.43 47.295 100.481 47.8909C99.5321 48.4868 99.9024 49.4415 100.07 50.7838C100.103 50.9418 100.099 51.1052 100.059 51.2615C100.019 51.4178 99.9444 51.5631 99.8402 51.6862C99.736 51.8094 99.6051 51.9073 99.4575 51.9724C99.3099 52.0376 99.1495 52.0684 98.9882 52.0624C99.6189 53.1328 102.101 59.584 102.651 60.961V61.0246C102.301 61.7082 101.897 62.3623 101.441 62.9802C103.831 65.5061 105.235 68.805 105.399 72.278C105.723 78.2662 99.509 82.1138 99.509 82.1138L99.3585 83.2709C99.5436 83.7171 99.5997 84.2062 99.5205 84.6827C99.4854 84.7459 99.4333 84.798 99.3701 84.8331C99.5032 85.5042 100.527 90.5379 100.527 91.238C101.499 93.0142 112.411 113.027 110.693 114.15C109.073 115.191 103.38 115.596 102.546 113.785C102.049 112.686 107.349 112.564 107.626 111.228C100.377 107.82 94.6778 101.826 90.8476 94.9872C90.7956 96.4336 90.1128 103.249 89.9451 103.706C89.6673 104.47 89.4475 104.615 88.9268 104.811C85.2296 106.217 73.0043 107.444 68.8212 107.768C68.8212 110.534 68.8212 110.412 68.7575 110.447C67.9165 110.876 67.0088 111.16 66.0729 111.286C66.0035 111.286 63.2726 109.909 60.1425 108.231C50.9836 108.509 41.142 108.115 32.9493 106.345C32.9232 106.344 32.8985 106.333 32.8806 106.314C32.8627 106.295 32.8531 106.269 32.8539 106.243C32.8546 106.217 32.8657 106.193 32.8847 106.175C32.9037 106.157 32.929 106.147 32.9551 106.148ZM107.488 111.534C107.019 111.906 106.477 112.172 105.896 112.316C105.707 112.604 105.5 112.88 105.277 113.143C106.013 113.587 106.676 114.142 107.245 114.786C107.864 114.743 108.479 114.65 109.084 114.508C109.396 113.601 109.83 112.741 110.375 111.951C110.21 112.115 110.013 112.243 109.796 112.327C109.376 112.434 108.934 112.416 108.524 112.275C108.114 112.134 107.753 111.877 107.488 111.534ZM99.3354 84.7926C97.8774 85.672 89.7888 88.293 87.9258 88.293C89.2763 91.9014 91.0805 95.3232 93.295 98.476C96.3656 102.965 100.341 106.763 104.965 109.625C106.903 110.782 107.603 111.025 107.702 111.118C107.686 111.254 107.627 111.382 107.534 111.482C107.934 111.858 108.427 112.12 108.963 112.24C109.214 112.285 109.473 112.272 109.719 112.202C109.964 112.132 110.191 112.006 110.38 111.835C108.5 105.922 100.4 91.2842 100.4 91.1743C100.446 90.561 99.4511 85.3943 99.3354 84.7926ZM69.3187 25.7429C68.3492 26.3223 67.2797 26.7148 66.1655 26.9001C66.1655 27.5192 66.2349 106.125 66.125 111.031C66.9735 110.919 67.797 110.665 68.5608 110.279C68.5608 109.232 69.0642 64.1952 69.0873 61.5164C68.7228 61.4354 67.1433 61.0015 67.2532 60.6023C67.3053 60.4229 67.7045 60.3303 67.907 60.2956C68.1169 60.2795 68.3278 60.2795 68.5377 60.2956C68.1732 60.0063 67.0449 59.1385 67.3053 58.7334C67.5657 58.3284 68.3294 58.8492 68.6765 59.069C68.5145 58.8087 68.1442 58.1896 68.3583 57.9697C68.5724 57.7499 68.8964 57.9987 69.1162 58.1954C69.1567 52.5774 69.3419 27.3224 69.3187 25.7429ZM39.2327 21.6119C39.2327 40.1611 39.522 75.9404 40.6733 94.6342C40.8527 94.8656 42.8893 97.4461 50.1736 102.156C55.3065 105.4 60.6101 108.367 66.0614 111.043C66.1539 106.136 66.0266 27.7274 66.0209 26.9464C63.4404 25.8181 41.9636 22.0805 39.2327 21.6119ZM86.6761 10.1618C59.5755 4.37603 29.8886 10.6478 29.8886 10.6478C26.5155 69.1536 32.7815 104.956 33.0014 106.113C33.58 106.061 41.2172 108.462 59.6565 107.849C57.157 106.495 54.97 105.24 53.0607 104.088C47.2944 103.877 41.5502 103.258 35.8711 102.237C30.2184 77.9943 33.1692 14.8309 33.1692 14.8309C38.2386 13.537 43.4436 12.8495 48.6751 12.7828C48.7966 13.4713 50.0463 15.1839 50.0463 15.1839C54.1947 16.4972 68.4972 15.4963 68.4972 15.4963C69.122 15.0739 69.4576 12.6613 69.4576 12.6613C73.7355 12.2344 78.0555 12.6271 82.1863 13.8184C83.9221 17.718 84.3618 24.58 84.8941 33.0504C84.8304 33.0851 83.5865 33.5422 83.7369 34.7861C83.789 35.2837 84.3155 35.5672 84.7841 35.7523L84.8304 35.6597C84.3097 35.4052 83.9568 35.0812 83.8931 34.7803C83.6212 33.3975 86.5893 32.3734 87.9027 32.304C88.054 32.2098 88.215 32.1322 88.3829 32.0726C87.9326 32.0106 87.4993 31.8588 87.1087 31.6262C86.7181 31.3936 86.3782 31.085 86.1091 30.7187C85.8302 30.2744 85.7213 29.7442 85.8024 29.226C85.8053 29.2086 85.8147 29.1929 85.8286 29.1822C85.8426 29.1714 85.8601 29.1664 85.8777 29.1681C86.8092 29.1045 87.5035 29.8682 87.9548 30.6782C88.0358 30.8228 87.9548 30.7592 87.9548 30.3484C87.9292 30.0192 87.9625 29.6881 88.0531 29.3706C87.9316 28.416 86.6703 10.1618 86.6703 10.1618H86.6761ZM68.8559 107.363C79.1199 106.541 88.5275 104.91 89.2681 104.181C89.4345 103.985 89.5586 103.756 89.6326 103.51C89.7946 103.07 90.5179 95.8261 90.6046 94.4144C89.5194 92.4569 88.602 90.4111 87.8622 88.2988C87.8159 88.2988 87.7465 88.2988 87.7291 88.2525C87.5737 87.7086 87.4939 87.146 87.4919 86.5804L87.3125 85.753L86.572 86.0944C86.1862 86.4171 85.7082 86.6095 85.2065 86.6441C85.2065 86.9276 84.6279 100.53 84.6279 100.53C79.518 102.163 74.2447 103.232 68.9022 103.718L68.8559 107.363ZM68.9427 97.5618C70.3253 97.719 71.7176 97.7751 73.1084 97.7296C71.3727 94.2581 68.9022 87.5698 70.2155 83.8437C71.4421 80.4243 75.7583 77.3695 78.9405 75.6511C78.8479 72.1796 78.7843 68.5751 78.6512 65.0804C75.3192 64.6528 72.1332 63.4521 69.3477 61.5743C69.3419 61.9214 69.2262 65.2887 68.9369 97.556L68.9427 97.5618ZM84.3386 85.7183C82.8343 83.485 79.9299 77.2132 79.5364 75.4254C77.2854 76.6149 75.1952 78.0867 73.3167 79.8053C70.0883 82.8717 69.4808 85.2034 70.3718 89.5659C70.9974 92.3839 71.9387 95.1225 73.1779 97.7296C75.1307 97.671 77.0782 97.4952 79.0099 97.2031C77.8875 87.6913 77.9222 88.2062 78.0032 88.1715C78.9174 87.726 84.7089 85.5737 84.3329 85.7125L84.3386 85.7183ZM79.2703 87.7723C78.8537 87.9459 78.4487 88.1194 78.1131 88.2814C78.1594 88.6749 79.0099 95.5368 79.0678 97.1915H79.1199C79.2934 91.0123 79.4786 95.5426 79.2703 87.7723ZM99.237 83.2594L87.544 86.5804C87.5679 87.1257 87.6593 87.666 87.8159 88.1889C89.4186 88.2872 98.8899 85.134 99.4337 84.6075C99.6131 84.4397 99.399 83.5544 99.2428 83.2536L99.237 83.2594ZM81.4747 74.3608C80.7991 74.5357 80.1655 74.8446 79.6117 75.2692C79.872 76.7214 82.8864 83.1437 84.2866 85.4059C84.5114 85.8386 84.8248 86.2191 85.2065 86.5225C85.2759 86.5225 85.6404 86.6151 86.5083 86.0365C86.1612 84.3008 81.4342 74.7716 81.4747 74.3551V74.3608ZM97.0963 71.6126C97.0963 71.6126 101.794 69.0148 102.627 68.2337C102.627 68.2337 105.908 74.0947 101.922 76.814C97.9352 79.5333 97.0789 71.6068 97.0789 71.6068L97.0963 71.6126ZM81.5267 74.3203C81.683 74.1641 82.2268 73.6839 82.6145 73.3368L89.5574 69.5644C89.5728 69.5568 89.5844 69.5433 89.5899 69.527C89.5953 69.5107 89.594 69.493 89.5863 69.4776C89.5787 69.4623 89.5652 69.4506 89.5489 69.4452C89.5327 69.4398 89.5149 69.441 89.4996 69.4487C87.2602 70.3183 85.1 71.3791 83.0426 72.6193C83.0426 71.3985 83.1121 69.3446 83.1526 68.8181L82.7823 68.7544C82.7823 69.1131 82.6492 72.6656 82.626 72.9723L81.4689 74.2972L81.5267 74.3203ZM89.1408 45.5882C87.624 45.9597 86.2102 46.6676 85.004 47.6595C82.2731 50.0374 80.954 54.3247 80.3175 57.8887C82.2384 59.5897 85.8314 61.3197 89.8467 61.8983C91.2558 58.8969 92.2523 55.7187 92.809 52.4501C92.8067 52.4448 92.8058 52.439 92.8063 52.4333C92.8067 52.4275 92.8086 52.422 92.8118 52.4172C92.815 52.4124 92.8193 52.4084 92.8243 52.4057C92.8294 52.4029 92.8351 52.4015 92.8408 52.4015C92.8466 52.4015 92.8523 52.4029 92.8574 52.4057C92.8624 52.4084 92.8667 52.4124 92.8699 52.4172C92.873 52.422 92.8749 52.4275 92.8754 52.4333C92.8759 52.439 92.875 52.4448 92.8727 52.4501C92.3545 55.7526 91.3809 58.9673 89.9798 62.0024L89.8988 62.0429C89.1929 61.9446 88.5218 61.8173 87.8853 61.6668C86.4034 63.3546 84.4029 64.5024 82.1979 64.93C81.9954 65.9194 81.5441 68.0891 82.574 68.4015C84.4484 68.7805 86.365 68.907 88.273 68.7776C94.2786 68.4941 99.8156 66.2723 102.57 60.9089C102.57 60.9089 99.0461 52.3517 98.9072 51.9988C97.7501 52.0451 97.9063 51.1251 96.2747 50.6565C95.0655 50.3093 94.1513 50.1126 93.4686 48.7125C92.7859 47.3123 92.7107 47.4975 91.2064 47.3239C89.9856 47.214 89.1755 46.5081 89.1235 45.5824L89.1408 45.5882ZM80.2365 58.0392C77.1863 58.5754 74.169 59.2844 71.1991 60.1625C71.0256 60.2204 71.1991 59.8327 70.8636 58.7855C70.79 58.5079 70.6643 58.2468 70.4933 58.016C70.2387 57.9003 70.175 58.0681 70.204 58.3458L70.3255 59.7402C70.327 59.757 70.3227 59.7739 70.3135 59.7881C70.3042 59.8022 70.2904 59.8129 70.2743 59.8182C70.2583 59.8236 70.2409 59.8233 70.225 59.8176C70.209 59.8118 70.1955 59.8008 70.1866 59.7865C69.8194 59.1579 69.3479 58.5963 68.7922 58.1259C68.7112 58.0739 68.5319 57.9929 68.4682 58.0623C68.3178 58.2185 68.8675 59.0864 69.0468 59.3005C69.1567 59.3988 69.0468 59.5087 68.9427 59.422C68.8385 59.3352 67.6119 58.5483 67.421 58.8087C67.3458 58.9128 67.5772 59.1905 67.664 59.2889C68.0195 59.6612 68.4067 60.0019 68.8212 60.3072C68.8306 60.3208 68.8357 60.3369 68.8357 60.3535C68.8357 60.37 68.8306 60.3862 68.8212 60.3998C68.7749 60.527 68.5782 60.365 67.8839 60.4692C67.745 60.4692 67.3747 60.5849 67.3632 60.6601C67.3632 60.8684 69.041 61.2387 69.3245 61.4123C69.4055 61.4528 80.5952 69.3619 87.7291 61.6553C84.9892 61.0351 82.4267 59.7984 80.2365 58.0392ZM69.4518 25.6677C69.5155 27.5539 69.3708 55.8521 69.3535 58.3574C69.6533 58.6947 69.9188 59.061 70.1461 59.4509C70.0593 58.4037 69.9957 58.1144 70.1461 57.9408C70.2014 57.8811 70.2764 57.8435 70.3573 57.835C70.4382 57.8265 70.5194 57.8476 70.5858 57.8945C70.7898 58.1428 70.936 58.4333 71.014 58.745C71.1337 59.1588 71.2131 59.5831 71.2512 60.0121C73.5995 59.3105 75.9826 58.7311 78.3909 58.2764C77.5172 38.813 76.2675 21.5714 76.2675 21.5714C66.3738 19.7778 44.9085 20.4431 42.2818 20.5299C50.4166 21.4962 61.8319 23.7121 69.3997 25.4883C69.4518 25.5115 69.446 25.5346 69.4518 25.6677ZM85.4379 44.1301C85.4727 45.1079 85.5016 46.0915 85.5305 47.0809C85.9639 46.771 86.4226 46.4981 86.9017 46.2651C86.9017 46.1494 86.705 44.5872 86.6645 44.2864C86.249 44.3333 85.8284 44.2797 85.4379 44.1301ZM84.9577 35.7003C84.6115 36.281 84.3559 36.9112 84.1998 37.5691C84.146 37.8762 84.0293 38.1688 83.8571 38.4287C83.6848 38.6885 83.4607 38.91 83.1988 39.0791C83.0021 39.2701 83.1988 39.9181 83.7774 40.0107C83.7968 40.0135 83.8146 40.0232 83.8273 40.0381C83.8401 40.053 83.847 40.072 83.8468 40.0917C83.7692 41.2491 84.0697 42.4004 84.7031 43.3722C84.9441 43.6672 85.257 43.8952 85.6117 44.034C85.9664 44.1729 86.351 44.2179 86.7282 44.1648C86.7359 44.1631 86.7439 44.1631 86.7517 44.1649C86.7594 44.1667 86.7666 44.1703 86.7727 44.1753C86.7789 44.1803 86.7838 44.1867 86.7871 44.1939C86.7904 44.2011 86.792 44.209 86.7918 44.2169C86.8207 44.4657 86.9712 46.0684 86.9827 46.2304C87.6756 45.8941 88.4005 45.6286 89.1466 45.4377C89.145 45.172 89.2023 44.9092 89.3144 44.6682C89.893 43.4069 89.0483 43.0656 89.4417 42.001C89.8351 40.9364 89.8467 41.2546 90.5989 40.9364C91.351 40.6182 91.999 40.0049 91.0964 39.3569C90.1938 38.7089 90.5815 39.9354 88.7243 39.9354C86.867 39.9354 87.7175 36.4293 87.7175 36.4293C86.7691 36.3108 85.8409 36.0656 84.9577 35.7003ZM89.1235 31.8006C88.406 32.1073 88.3655 32.1131 87.9085 32.2982C89.7541 34.2596 91.6172 38.6626 91.6172 38.6626C91.8023 35.544 89.9277 32.8074 89.1235 31.8006ZM88.0705 31.2221C87.6307 30.331 86.9133 29.2722 85.9008 29.3012C85.7214 30.7071 86.9422 31.6155 88.4003 31.9916C88.2638 31.7412 88.1533 31.4775 88.0705 31.2047V31.2221ZM88.4581 31.9221C89.2045 30.8344 89.4822 29.5615 88.4581 28.792C88.2475 29.1457 88.1149 29.5403 88.069 29.9494C88.0231 30.3585 88.065 30.7726 88.192 31.1642C88.2498 31.3378 88.4292 31.8469 88.4581 31.9048V31.9221ZM69.2898 25.6156C68.989 25.471 52.7598 21.8433 42.0214 20.5762C41.0392 20.7079 40.0942 21.0387 39.2443 21.5482C40.4882 21.7565 65.2166 25.9801 66.1424 26.8306C67.2191 26.5011 68.271 26.0951 69.2898 25.6156Z" fill="white"/>
<path id="Vector_2" fill-rule="evenodd" clip-rule="evenodd" d="M63.7336 68.7294C63.7336 66.7974 63.7336 66.7674 63.8116 66.5334C63.8909 66.3507 64.0304 66.2008 64.2069 66.1086C64.3834 66.0164 64.5862 65.9876 64.7814 66.0269C64.9766 66.0662 65.1525 66.1713 65.2795 66.3246C65.4066 66.478 65.4772 66.6702 65.4796 66.8694C65.4796 67.6494 65.5276 71.5734 65.5276 72.1134C65.5276 72.3521 65.4327 72.581 65.264 72.7498C65.0952 72.9185 64.8663 73.0134 64.6276 73.0134C64.3889 73.0134 64.16 72.9185 63.9912 72.7498C63.8224 72.581 63.7276 72.3521 63.7276 72.1134V69.6834C62.931 69.6561 62.1605 69.393 61.5136 68.9274C61.3276 68.7474 61.2976 68.5794 61.4176 68.4654C61.8076 68.0994 63.1576 68.5674 63.7336 68.7294ZM63.8956 69.6834C63.8956 72.2454 63.8596 72.1734 63.9496 72.3894C64.0161 72.5443 64.1337 72.6718 64.2827 72.7506C64.4318 72.8295 64.6034 72.8549 64.7689 72.8226C64.9344 72.7904 65.0839 72.7024 65.1925 72.5733C65.301 72.4443 65.3621 72.282 65.3656 72.1134C65.3656 71.5734 65.4136 67.6494 65.4136 66.8694C65.4104 66.6635 65.326 66.4673 65.1788 66.3234C65.0315 66.1796 64.8334 66.0998 64.6276 66.1014C64.527 66.1021 64.4276 66.1228 64.335 66.1622C64.2425 66.2016 64.1586 66.2589 64.0884 66.3309C64.0181 66.4028 63.9627 66.488 63.9255 66.5815C63.8883 66.6749 63.87 66.7748 63.8716 66.8754V68.7714H64.0276C64.2976 68.7714 64.3396 68.5554 64.3156 68.6154C64.395 68.5576 64.4863 68.5184 64.5829 68.5007C64.6795 68.4831 64.7789 68.4874 64.8736 68.5134C64.9428 68.5281 65.0063 68.5625 65.0563 68.6126C65.1064 68.6626 65.1409 68.7261 65.1556 68.7954C65.1759 68.9155 65.1591 69.039 65.1076 69.1494C64.9576 69.5274 64.3156 69.6714 63.8956 69.6834ZM64.3996 68.6874C64.3665 68.751 64.3165 68.8042 64.2551 68.8413C64.1937 68.8783 64.1233 68.8977 64.0516 68.8974C63.7816 68.8974 61.8856 68.2974 61.5496 68.5974C61.3876 68.7474 62.7496 69.5994 64.0936 69.4914C64.3876 69.4914 64.8736 69.3534 65.0056 69.1134C65.0461 69.0252 65.0626 68.9279 65.0536 68.8314C65.0416 68.6694 64.7416 68.5194 64.3996 68.6874Z" fill="white"/>
<path id="Vector_3" fill-rule="evenodd" clip-rule="evenodd" d="M64.4 70.6191C64.13 70.1031 64.958 70.0191 64.712 70.6191C64.7599 70.8569 64.794 71.0973 64.814 71.3391C64.814 71.3391 64.214 71.3031 64.214 71.2911C64.214 71.2791 64.4 70.6071 64.4 70.6191ZM58.316 72.1011C58.316 71.5011 58.364 70.7451 58.364 70.8111C58.3616 70.8056 58.3606 70.7996 58.3611 70.7937C58.3616 70.7877 58.3636 70.782 58.3668 70.777C58.3701 70.772 58.3746 70.7679 58.3798 70.765C58.3851 70.7622 58.391 70.7607 58.397 70.7607C58.4029 70.7607 58.4088 70.7622 58.4141 70.765C58.4193 70.7679 58.4238 70.772 58.4271 70.777C58.4304 70.782 58.4323 70.7877 58.4328 70.7937C58.4333 70.7996 58.4324 70.8056 58.43 70.8111C58.43 70.9371 58.478 71.3151 58.478 72.1671C58.868 71.6991 59.252 71.3091 59.192 71.3691C59.1983 71.3648 59.2057 71.3627 59.2133 71.363C59.2209 71.3632 59.2282 71.3659 59.2342 71.3705C59.2402 71.3752 59.2445 71.3816 59.2466 71.3889C59.2488 71.3962 59.2485 71.4039 59.246 71.4111C59.174 71.4951 59.066 71.7051 58.538 72.3591C58.9112 72.4884 59.2777 72.6366 59.636 72.8031C59.6424 72.8059 59.6479 72.8105 59.6517 72.8164C59.6555 72.8222 59.6576 72.8291 59.6576 72.8361C59.6576 72.8431 59.6555 72.8499 59.6517 72.8558C59.6479 72.8617 59.6424 72.8663 59.636 72.8691C59.162 72.7491 58.844 72.6351 58.604 72.5511C58.934 73.0971 59.3 73.7991 59.264 73.7511C59.2663 73.7546 59.268 73.7586 59.2688 73.7628C59.2696 73.767 59.2696 73.7713 59.2688 73.7754C59.2679 73.7796 59.2663 73.7836 59.2639 73.7871C59.2616 73.7907 59.2585 73.7937 59.255 73.7961C59.2514 73.7984 59.2474 73.8001 59.2433 73.8009C59.2391 73.8017 59.2348 73.8017 59.2306 73.8009C59.2264 73.8001 59.2224 73.7984 59.2189 73.796C59.2154 73.7937 59.2123 73.7906 59.21 73.7871C59.21 73.7871 58.898 73.3611 58.496 72.7071C58.496 73.3551 58.448 74.0511 58.448 73.9971C58.4452 74.0035 58.4405 74.009 58.4347 74.0128C58.4288 74.0166 58.422 74.0187 58.415 74.0187C58.408 74.0187 58.4011 74.0166 58.3952 74.0128C58.3894 74.009 58.3848 74.0035 58.382 73.9971C58.382 73.8711 58.334 73.4931 58.334 72.6411C57.95 73.1031 57.53 73.5471 57.584 73.4811C57.582 73.4864 57.5789 73.4913 57.5747 73.4952C57.5706 73.4991 57.5656 73.5019 57.5601 73.5035C57.5547 73.5051 57.5489 73.5054 57.5433 73.5043C57.5377 73.5032 57.5325 73.5009 57.528 73.4974C57.5235 73.4939 57.5199 73.4894 57.5175 73.4842C57.5151 73.479 57.5139 73.4734 57.5141 73.4677C57.5143 73.462 57.5158 73.4565 57.5186 73.4515C57.5213 73.4465 57.5252 73.4423 57.53 73.4391C57.626 73.3251 57.668 73.1991 58.274 72.4491C57.626 72.2091 57.272 72.0351 57.284 72.0411C57.296 72.0471 57.284 71.9631 57.284 71.9811C57.284 71.9991 57.548 72.0471 57.884 72.1491L58.202 72.2571C57.854 71.6571 57.506 71.0091 57.542 71.0571C57.5372 71.0499 57.5355 71.0412 57.5371 71.0327C57.5388 71.0243 57.5438 71.0169 57.551 71.0121C57.5581 71.0073 57.5669 71.0056 57.5753 71.0073C57.5838 71.0089 57.5912 71.0139 57.596 71.0211C57.668 71.1291 57.902 71.3991 58.316 72.1011ZM54.764 70.9011C54.764 70.3011 54.812 69.5451 54.812 69.6051C54.8148 69.5987 54.8194 69.5932 54.8252 69.5893C54.8311 69.5855 54.838 69.5835 54.845 69.5835C54.852 69.5835 54.8588 69.5855 54.8647 69.5893C54.8705 69.5932 54.8752 69.5987 54.878 69.6051C54.878 69.7371 54.926 70.1151 54.926 70.9671C55.292 70.5231 55.7 70.1091 55.64 70.1691C55.6419 70.1637 55.645 70.1589 55.6492 70.155C55.6533 70.1511 55.6583 70.1482 55.6638 70.1466C55.6693 70.1451 55.675 70.1448 55.6806 70.1459C55.6862 70.1469 55.6915 70.1493 55.696 70.1528C55.7004 70.1563 55.704 70.1608 55.7065 70.166C55.7089 70.1711 55.71 70.1768 55.7098 70.1824C55.7096 70.1881 55.7081 70.1937 55.7053 70.1987C55.7026 70.2036 55.6987 70.2079 55.694 70.2111C55.4 70.6431 55.19 70.9071 54.986 71.1591C55.3619 71.2865 55.7305 71.4347 56.09 71.6031C56.126 71.6031 56.09 71.6811 56.09 71.6631C55.741 71.5763 55.3966 71.4722 55.058 71.3511C55.418 71.9511 55.754 72.5991 55.724 72.5511C55.7207 72.556 55.7162 72.5601 55.711 72.5629C55.7058 72.5657 55.6999 72.5672 55.694 72.5672C55.688 72.5672 55.6822 72.5657 55.6769 72.5629C55.6717 72.5601 55.6672 72.556 55.664 72.5511C55.568 72.3951 55.49 72.3291 54.95 71.4711C54.95 72.1191 54.902 72.8211 54.902 72.7671C54.8992 72.7735 54.8945 72.779 54.8887 72.7828C54.8828 72.7866 54.876 72.7887 54.869 72.7887C54.862 72.7887 54.8551 72.7866 54.8492 72.7828C54.8434 72.779 54.8388 72.7735 54.836 72.7671C54.836 72.6411 54.788 72.2631 54.788 71.4111C54.362 71.9271 53.978 72.3111 54.038 72.2511C54.0317 72.2553 54.0242 72.2575 54.0166 72.2572C54.009 72.2569 54.0017 72.2543 53.9958 72.2496C53.9898 72.245 53.9854 72.2385 53.9833 72.2313C53.9812 72.224 53.9814 72.2162 53.984 72.2091C54.08 72.0891 54.122 71.9691 54.734 71.2131C54.134 70.9971 53.684 70.7811 53.744 70.8111C53.7375 70.8083 53.7321 70.8037 53.7282 70.7978C53.7244 70.7919 53.7224 70.7851 53.7224 70.7781C53.7224 70.7711 53.7244 70.7642 53.7282 70.7584C53.7321 70.7525 53.7375 70.7479 53.744 70.7451C53.81 70.7451 54.248 70.8711 54.662 71.0211C54.296 70.4211 53.972 69.7851 54.002 69.8211C54.032 69.8571 54.038 69.7551 54.056 69.8211C54.074 69.8871 54.326 70.1991 54.764 70.9131V70.9011ZM51.212 69.7011C51.212 69.1011 51.26 68.3451 51.26 68.4051C51.26 68.3631 51.332 68.3631 51.332 68.4051C51.332 68.5731 51.368 68.7891 51.38 69.7611C51.656 69.4251 52.142 68.9031 52.094 68.9631C52.094 68.9631 52.172 68.9631 52.142 69.0051C51.9227 69.3332 51.6864 69.6497 51.434 69.9531C51.8102 70.0821 52.1788 70.2324 52.538 70.4031C52.58 70.4031 52.538 70.4751 52.538 70.4631C52.118 70.3551 51.812 70.2591 51.512 70.1511C51.86 70.7511 52.208 71.3931 52.172 71.3511C52.1744 71.3588 52.1741 71.3671 52.1712 71.3746C52.1684 71.3822 52.163 71.3885 52.1561 71.3927C52.1492 71.3968 52.1411 71.3985 52.1331 71.3975C52.1251 71.3965 52.1176 71.3928 52.112 71.3871C52.112 71.3871 51.812 70.9731 51.404 70.3071C51.404 70.9551 51.35 71.6571 51.35 71.5971C51.3524 71.6026 51.3533 71.6085 51.3528 71.6145C51.3523 71.6205 51.3504 71.6262 51.3471 71.6312C51.3438 71.6362 51.3393 71.6403 51.3341 71.6431C51.3288 71.646 51.3229 71.6475 51.317 71.6475C51.311 71.6475 51.3051 71.646 51.2998 71.6431C51.2946 71.6403 51.2901 71.6362 51.2868 71.6312C51.2836 71.6262 51.2816 71.6205 51.2811 71.6145C51.2806 71.6085 51.2816 71.6026 51.284 71.5971C51.284 71.3871 51.242 71.1771 51.236 70.2411C50.876 70.6791 50.438 71.1471 50.486 71.0871C50.486 71.1171 50.408 71.0871 50.438 71.0451C50.668 70.7 50.9164 70.3676 51.182 70.0491C50.618 69.8451 50.138 69.6231 50.192 69.6471C50.1855 69.6443 50.1801 69.6397 50.1762 69.6338C50.1724 69.6279 50.1704 69.6211 50.1704 69.6141C50.1704 69.6071 50.1724 69.6002 50.1762 69.5944C50.1801 69.5885 50.1855 69.5839 50.192 69.5811C50.426 69.6411 50.846 69.7611 51.104 69.8571C50.72 69.2091 50.42 68.6211 50.444 68.6571C50.468 68.6931 50.48 68.5851 50.504 68.6211C50.528 68.6571 50.78 68.9991 51.2 69.7251L51.212 69.7011ZM47.666 68.5011C47.666 67.8351 47.714 67.1511 47.714 67.2111C47.7116 67.2056 47.7106 67.1996 47.7111 67.1937C47.7116 67.1877 47.7136 67.182 47.7168 67.177C47.7201 67.172 47.7246 67.1679 47.7298 67.165C47.7351 67.1622 47.741 67.1607 47.747 67.1607C47.7529 67.1607 47.7588 67.1622 47.7641 67.165C47.7693 67.1679 47.7738 67.172 47.7771 67.177C47.7804 67.182 47.7823 67.1877 47.7828 67.1937C47.7833 67.1996 47.7824 67.2056 47.78 67.2111C47.78 67.3731 47.822 67.5951 47.828 68.5671C48.194 68.1231 48.602 67.7091 48.542 67.7691C48.5475 67.7627 48.5554 67.7588 48.5638 67.7583C48.568 67.758 48.5722 67.7585 48.5762 67.7599C48.5801 67.7612 48.5838 67.7633 48.587 67.7661C48.5901 67.7688 48.5927 67.7722 48.5945 67.7759C48.5964 67.7797 48.5975 67.7838 48.5978 67.788C48.5981 67.7921 48.5975 67.7963 48.5962 67.8003C48.5948 67.8043 48.5927 67.8079 48.59 67.8111C48.344 68.1771 48.104 68.4831 47.882 68.7591C48.596 69.0111 49.004 69.2151 48.986 69.2031C48.9924 69.2059 48.9979 69.2105 49.0017 69.2164C49.0055 69.2222 49.0076 69.2291 49.0076 69.2361C49.0076 69.2431 49.0055 69.2499 49.0017 69.2558C48.9979 69.2617 48.9924 69.2663 48.986 69.2691C48.6383 69.1822 48.2958 69.076 47.96 68.9511C48.26 69.4551 48.656 70.2051 48.62 70.1511C48.62 70.1871 48.584 70.2231 48.56 70.1871C48.536 70.1511 48.362 69.9291 47.852 69.1071C47.852 69.7071 47.804 70.4571 47.804 70.3971C47.8012 70.4035 47.7965 70.409 47.7907 70.4128C47.7848 70.4166 47.778 70.4187 47.771 70.4187C47.764 70.4187 47.7571 70.4166 47.7512 70.4128C47.7454 70.409 47.7408 70.4035 47.738 70.3971C47.738 70.1871 47.69 69.9711 47.684 69.0411C47.4482 69.3335 47.1979 69.6138 46.934 69.8811C46.934 69.9171 46.856 69.8811 46.886 69.8391C46.916 69.7971 47 69.5991 47.6 68.8671C47 68.6451 46.55 68.4351 46.61 68.4591C46.568 68.4591 46.61 68.3811 46.61 68.3991C47.084 68.5191 47.42 68.6391 47.528 68.6751C47.15 68.0751 46.838 67.4391 46.862 67.4751C46.886 67.5111 46.898 67.4031 46.922 67.4391C47.06 67.6311 47.21 67.7991 47.666 68.5311V68.5011ZM44.114 67.3011C44.114 66.7011 44.162 65.9451 44.162 66.0051C44.1648 65.9987 44.1694 65.9932 44.1752 65.9893C44.1811 65.9855 44.188 65.9835 44.195 65.9835C44.202 65.9835 44.2088 65.9855 44.2147 65.9893C44.2205 65.9932 44.2252 65.9987 44.228 66.0051C44.228 66.0051 44.276 66.5451 44.276 67.3671C44.684 66.8751 45.008 66.5511 44.99 66.5691C44.9963 66.5648 45.0037 66.5627 45.0113 66.563C45.0189 66.5632 45.0262 66.5659 45.0322 66.5705C45.0382 66.5752 45.0425 66.5816 45.0446 66.5889C45.0468 66.5962 45.0465 66.6039 45.044 66.6111C45.044 66.6111 44.816 66.9651 44.336 67.5591C45.038 67.8111 45.494 68.0331 45.434 68.0031C45.476 68.0031 45.434 68.0811 45.434 68.0631C45.0845 67.9781 44.74 67.874 44.402 67.7511C44.732 68.2971 45.098 68.9991 45.062 68.9511C45.062 68.9871 45.026 69.0231 45.008 68.9511C44.99 68.8791 44.822 68.7291 44.294 67.8711C44.294 68.4711 44.246 69.2271 44.246 69.1671C44.2432 69.1735 44.2385 69.179 44.2327 69.1828C44.2268 69.1866 44.22 69.1887 44.213 69.1887C44.206 69.1887 44.1991 69.1866 44.1932 69.1828C44.1874 69.179 44.1828 69.1735 44.18 69.1671C44.18 69.0411 44.132 68.6631 44.132 67.8111C43.742 68.2731 43.346 68.6871 43.382 68.6511C43.38 68.6564 43.3769 68.6613 43.3727 68.6652C43.3686 68.6691 43.3636 68.6719 43.3581 68.6735C43.3527 68.6751 43.3469 68.6754 43.3413 68.6743C43.3357 68.6732 43.3305 68.6708 43.326 68.6674C43.3215 68.6639 43.3179 68.6594 43.3155 68.6542C43.3131 68.649 43.3119 68.6434 43.3121 68.6377C43.3123 68.632 43.3138 68.6265 43.3166 68.6215C43.3193 68.6165 43.3232 68.6123 43.328 68.6091C43.604 68.2011 43.814 67.9431 44.072 67.6131C43.556 67.4271 43.022 67.1871 43.082 67.2111C43.074 67.2111 43.0664 67.2079 43.0607 67.2023C43.0551 67.1967 43.052 67.189 43.052 67.1811C43.052 67.1731 43.0551 67.1655 43.0607 67.1599C43.0664 67.1542 43.074 67.1511 43.082 67.1511C43.31 67.2051 43.742 67.3311 44 67.4271C43.604 66.7671 43.31 66.1911 43.34 66.2271C43.3376 66.2235 43.336 66.2196 43.3351 66.2154C43.3343 66.2112 43.3343 66.2069 43.3351 66.2027C43.336 66.1985 43.3376 66.1946 43.34 66.191C43.3424 66.1875 43.3454 66.1844 43.349 66.1821C43.3525 66.1797 43.3565 66.1781 43.3607 66.1772C43.3648 66.1764 43.3691 66.1764 43.3733 66.1773C43.3775 66.1781 43.3815 66.1797 43.385 66.1821C43.3886 66.1845 43.3916 66.1875 43.394 66.1911C43.466 66.3651 43.688 66.6531 44.114 67.3431V67.3011ZM42.602 58.2891C42.4745 58.1368 42.4047 57.9446 42.4047 57.7461C42.4047 57.5475 42.4745 57.3553 42.602 57.2031C43.088 56.7351 44.192 57.3411 43.61 58.4631C43.8121 58.6615 43.966 58.9038 44.0596 59.1712C44.1533 59.4385 44.1842 59.7239 44.15 60.0051C44.15 60.0051 42.584 60.3591 41.96 59.4651C42.0103 59.0037 42.2411 58.581 42.602 58.2891ZM85.562 40.6071C85.862 40.8171 86.348 40.6611 86.426 40.0791C86.426 40.0371 86.378 40.0131 86.366 40.0791C86.3219 40.1575 86.2738 40.2336 86.222 40.3071C86.1563 40.4099 86.0608 40.4903 85.9482 40.5375C85.8356 40.5846 85.7114 40.5964 85.592 40.5711C85.55 40.5291 85.52 40.5891 85.562 40.6071Z" fill="white"/>
<path id="Vector_4" fill-rule="evenodd" clip-rule="evenodd" d="M41.4319 55.3438C41.5339 60.4678 41.4679 60.1438 41.5279 60.1438C47.1919 62.3578 56.7259 65.0758 62.6419 66.6418L62.7439 66.5638C62.7439 66.0058 62.7439 61.9258 62.5219 61.4158C62.4019 61.1098 59.0119 60.1318 58.3219 59.9398C57.0859 59.5858 41.5159 55.2778 41.4319 55.3438ZM41.5039 55.3858C41.5039 55.6858 41.5999 59.9158 41.5939 60.0838C46.9399 62.1298 56.7019 64.9258 62.5939 66.4798C62.5939 65.9518 62.5939 61.9978 62.3839 61.5058C61.5199 60.8398 46.0759 56.6578 41.5039 55.3858ZM41.5459 64.2298C41.5759 65.5078 41.6359 68.9038 41.6119 68.9878C41.5879 69.0718 44.6119 70.4638 49.8979 72.2038C54.0019 73.5538 58.4719 74.8078 62.6419 75.8878L62.7439 75.8158C62.7739 75.2518 62.9479 71.2918 62.7439 70.7818C62.4379 70.0438 41.5999 64.1998 41.5459 64.2298ZM41.6179 64.2718C41.6179 64.5718 41.7139 68.8138 41.7079 68.9758C46.3519 71.2558 57.2719 74.3278 62.5879 75.7018C62.5879 75.1918 62.7739 71.3338 62.5879 70.8478C61.7119 70.0978 42.6559 64.5658 41.5999 64.2718H41.6179ZM54.8899 45.0478C55.999 45.4734 57.064 46.0059 58.0699 46.6378C56.5999 48.9238 54.4039 50.3998 51.9559 50.3998C53.5999 49.6618 54.5059 46.7998 54.8899 45.0478ZM48.1999 44.8078C50.2769 44.0746 52.5494 44.1193 54.5959 44.9338C54.2659 46.4158 53.6299 48.4078 52.5919 49.5178C51.6619 50.5138 50.6779 50.4718 49.8319 49.4098C48.9859 48.3478 48.4159 46.2778 48.1999 44.8078ZM47.8939 44.9338C48.1459 46.5838 48.7579 49.0558 50.0479 50.1058C48.1622 49.4386 46.605 48.0725 45.6979 46.2898C46.3567 45.7318 47.0947 45.2748 47.8879 44.9338H47.8939ZM55.3519 41.9338L59.6659 42.2518C59.4575 43.7509 58.9515 45.1931 58.1779 46.4938C57.1746 45.795 56.0958 45.2114 54.9619 44.7538C55.149 43.8148 55.2772 42.8649 55.3459 41.9098L55.3519 41.9338ZM44.3419 40.8718L47.6479 41.2198C47.6316 42.3551 47.6978 43.4901 47.8459 44.6158C47.0159 44.9784 46.25 45.4728 45.5779 46.0798C44.7599 44.466 44.3363 42.6811 44.3419 40.8718ZM47.9419 41.2498L55.0339 41.8858C54.9605 42.8047 54.8323 43.7183 54.6499 44.6218C52.5685 43.7842 50.2521 43.7393 48.1399 44.4958C48.002 43.4195 47.9398 42.3349 47.9539 41.2498H47.9419ZM59.2399 36.8338C59.7606 38.5032 59.9141 40.2655 59.6899 41.9998L55.3999 41.5858C55.472 40.507 55.472 39.4246 55.3999 38.3458C56.7308 37.9821 58.0183 37.4752 59.2399 36.8338ZM48.1999 37.9918C50.3944 38.8744 52.8167 39.0176 55.0999 38.3998C55.1658 39.4488 55.1658 40.5009 55.0999 41.5498L47.9899 40.9498C48.0041 39.9607 48.0742 38.9731 48.1999 37.9918ZM45.3679 35.9458C46.0951 36.7503 46.9712 37.4064 47.9479 37.8778C47.7929 38.8872 47.7007 39.9051 47.6719 40.9258C46.9159 40.8658 44.6719 40.7098 44.3599 40.6918C44.3593 39.0585 44.6963 37.4427 45.3499 35.9458H45.3679ZM48.2479 37.6798C48.4232 36.4509 48.7289 35.2441 49.1599 34.0798C51.2899 28.5418 54.6139 31.0078 55.0999 38.0878C52.8257 38.695 50.4162 38.5519 48.2299 37.6798H48.2479ZM45.4459 35.7718C48.6739 28.7998 56.7319 29.3338 59.1919 36.6778C57.9516 37.2441 56.6623 37.696 55.3399 38.0278C55.2462 36.7301 55.0108 35.4464 54.6379 34.1998C52.8379 28.5778 49.1779 30.4258 47.9779 37.5538C47.0265 37.12 46.1624 36.5161 45.4279 35.7718H45.4459ZM85.5859 38.1598V37.8598C85.5923 37.8216 85.5832 37.7825 85.5607 37.751C85.5382 37.7195 85.5041 37.6982 85.4659 37.6918C85.4277 37.6855 85.3885 37.6945 85.357 37.717C85.3255 37.7396 85.3043 37.7737 85.2979 37.8118V38.1358C85.2947 38.174 85.3068 38.2119 85.3316 38.2412C85.3563 38.2704 85.3917 38.2887 85.4299 38.2918C85.4681 38.295 85.506 38.2829 85.5352 38.2581C85.5645 38.2334 85.5827 38.198 85.5859 38.1598Z" fill="#E1FF01"/>
<path id="Vector_5" d="M8.09338 109.766L11.08 109.466" stroke="white" stroke-width="0.564931" stroke-linecap="round" stroke-linejoin="round"/>
<path id="Vector_6" d="M16.3677 108.923L19.355 108.623" stroke="white" stroke-width="0.564931" stroke-linecap="round" stroke-linejoin="round"/>
<path id="Vector_7" d="M13.1509 103.563L13.4514 106.551" stroke="white" stroke-width="0.564931" stroke-linecap="round" stroke-linejoin="round"/>
<path id="Vector_8" d="M13.9951 111.839L14.2949 114.825" stroke="white" stroke-width="0.564931" stroke-linecap="round" stroke-linejoin="round"/>
<path id="Vector_9" d="M9.33667 105.622L11.6657 107.508" stroke="white" stroke-width="0.564931" stroke-linecap="round" stroke-linejoin="round"/>
<path id="Vector_10" d="M15.7819 110.866L18.1116 112.767" stroke="white" stroke-width="0.564931" stroke-linecap="round" stroke-linejoin="round"/>
<path id="Vector_11" d="M17.2973 104.807L15.4104 107.136" stroke="white" stroke-width="0.564931" stroke-linecap="round" stroke-linejoin="round"/>
<path id="Vector_12" d="M12.0508 111.252L10.1504 113.582" stroke="white" stroke-width="0.564931" stroke-linecap="round" stroke-linejoin="round"/>
<path id="Vector_13" d="M107.364 18.3938C107.099 18.6469 106.766 18.816 106.406 18.8797C106.045 18.9433 105.674 18.8987 105.339 18.7515C105.004 18.6042 104.72 18.3609 104.524 18.0523C104.327 17.7438 104.226 17.3838 104.234 17.018C104.242 16.6522 104.358 16.2969 104.568 15.9972C104.778 15.6974 105.072 15.4665 105.413 15.3339C105.754 15.2012 106.127 15.1727 106.484 15.2518C106.841 15.3309 107.167 15.5143 107.42 15.7786C107.758 16.1334 107.942 16.6078 107.931 17.0979C107.921 17.5879 107.717 18.0539 107.364 18.3938Z" stroke="white" stroke-width="0.564931" stroke-linecap="round" stroke-linejoin="round"/>
</g>
</g>
</svg>
