<svg xmlns="http://www.w3.org/2000/svg" width="21.42" height="23.421" viewBox="0 0 21.42 23.421"><defs><style>.a{fill:#7ccdff;}.b{fill:#4191fb;}.c{fill:#c7e2ff;}.d{fill:#fff;}</style></defs><g transform="translate(0 0)"><path class="a" d="M210.707,81.936H193.024V59.9h12.628l5.055,5.031Z" transform="translate(-189.986 -59.131)"/><path class="b" d="M191.475,33.462l.062,16.274a.676.676,0,0,1-.678.678H175.127a.676.676,0,0,1-.678-.678V29.659a.676.676,0,0,1,.678-.678l11.95-.025-.942-.967H175.16a1.589,1.589,0,0,0-1.591,1.591V49.819a1.589,1.589,0,0,0,1.591,1.591h15.666a1.589,1.589,0,0,0,1.591-1.591V34.43l-.942-.967Z" transform="translate(-171.001 -27.989)"/><path class="c" d="M692.4,32.706a1.727,1.727,0,0,0,1.728,1.728h4.559L692.4,27.989v4.717Z" transform="translate(-677.262 -27.989)"/><path class="b" d="M79.451,245.661h-9.66a2.207,2.207,0,0,1-2.207-2.207v-1.459a2.207,2.207,0,0,1,2.207-2.207h9.66a2.207,2.207,0,0,1,2.207,2.207v1.459A2.207,2.207,0,0,1,79.451,245.661Z" transform="translate(-67.584 -234.657)"/><path class="d" d="M117.931,287.573h3.542v.93h-1.19v2.84h-1.166V288.5h-1.186Zm3.811,0h1.286l.67,1.162.649-1.162h1.269l-1.174,1.827,1.286,1.947h-1.31l-.744-1.211-.744,1.211h-1.3l1.3-1.968-1.186-1.806Zm4.092,0h3.543v.93h-1.191v2.84h-1.166V288.5h-1.19Z" transform="translate(-116.712 -281.285)"/><path class="b" d="M325.711,619.143H315.055a.687.687,0,0,1-.686-.686v-.128a.687.687,0,0,1,.686-.686h10.656a.687.687,0,0,1,.686.686v.128A.687.687,0,0,1,325.711,619.143Z" transform="translate(-308.391 -603.361)"/><path class="b" d="M321.342,749.7h-6.287a.687.687,0,0,1-.686-.686v-.128a.687.687,0,0,1,.686-.686h6.287a.687.687,0,0,1,.686.686v.128A.687.687,0,0,1,321.342,749.7Z" transform="translate(-308.391 -730.758)"/></g></svg>