<svg xmlns="http://www.w3.org/2000/svg" width="25.42" height="22.596" viewBox="0 0 25.42 22.596"><defs><style>.a{fill:#2d5b3a;}.b{fill:#387a47;}.c{fill:#4fa16b;}.d{fill:#357541;}.e{fill:#63c187;}.f{fill:#fff;}</style></defs><g transform="translate(-81.92 -184.32)"><path class="a" d="M266.24,512h9.533v5.649H266.24Z" transform="translate(-177.965 -316.382)"/><path class="b" d="M275.773,353.809h9.533v5.649h-9.533Zm-9.533-5.649h9.533v5.649H266.24Z" transform="translate(-177.965 -158.191)"/><path class="c" d="M542.72,348.16h9.533v5.649H542.72Z" transform="translate(-444.912 -158.191)"/><path class="a" d="M266.24,675.84h19.065v4.237a1.412,1.412,0,0,1-1.412,1.412H267.652a1.412,1.412,0,0,1-1.412-1.412Z" transform="translate(-177.965 -474.573)"/><path class="c" d="M267.652,184.32h8.12v5.649H266.24v-4.237A1.412,1.412,0,0,1,267.652,184.32Z" transform="translate(-177.965 0)"/><path class="d" d="M81.92,327.68m1.412,0h9.886a1.248,1.248,0,0,1,1.412,1.412v9.886a1.248,1.248,0,0,1-1.412,1.412H83.332a1.248,1.248,0,0,1-1.412-1.412v-9.886A1.248,1.248,0,0,1,83.332,327.68Z" transform="translate(0 -138.417)"/><path class="e" d="M542.72,184.32h8.12a1.412,1.412,0,0,1,1.412,1.412v4.237H542.72Z" transform="translate(-444.912 0)"/><path class="f" d="M173.826,410.89l2.2,3.45-2.217,3.522h1.578l1.518-2.44h.05l1.53,2.44h1.659l-2.256-3.522,2.295-3.45h-1.635l-1.469,2.509h-.063l-1.477-2.509Z" transform="translate(-88.725 -218.758)"/></g></svg>