<svg t="1711609629918" class="icon" viewBox="0 0 1024 1024" version="1.1" xmlns="http://www.w3.org/2000/svg" p-id="1089" width="200" height="200"><path d="M924.9151291 282.00388467a74.57758769 74.57758769 0 0 0-21.73237558-57.27325694L770.74927138 92.29714473A74.69411573 74.69411573 0 0 0 710.62109141 62H249.58011289a75.21848877 75.21848877 0 0 0-74.9271709 75.1602252v413.6725582h-29.13186972a46.61099209 46.61099209 0 0 0-46.61099297 46.61099209v167.44999043a46.61099209 46.61099209 0 0 0 46.61099297 46.61099209h29.13186972v82.61798467h0.52437393a74.81064287 74.81064287 0 0 0 74.40279697 67.17809268H850.33754141a74.81064287 74.81064287 0 0 0 74.81064287-74.81064288v-600.11652745a16.54690253 16.54690253 0 0 0-0.23305517-4.36978036z m-74.63585127 605.12720888H249.58011289v-74.98543447h476.77218838a46.61099209 46.61099209 0 0 0 46.61099297-46.61099209V598.08467656a46.61099209 46.61099209 0 0 0-46.61099297-46.61099208H249.58011289V137.3350168h383.9580501v142.39658144a74.81064287 74.81064287 0 0 0 74.81064287 74.1697418h142.1052627zM323.98290898 771.06972237l62.22567481-174.3833751h32.452904l62.22567481 174.3833751h-43.98912422l-7.92386895-25.98562794h-52.4373662l-8.38997842 25.98562794z m174.20858438 0V596.68634727h42.06642099v174.3833751z m352.08778447-491.92076162H708.17401426V136.7523793h1.28180215L850.27927783 277.57583984z" p-id="1090"></path><path d="M403.68770615 662.87395654l-15.38162753 46.61099209h29.83103525z m93.22198507-375.62633526a98.0578749 98.0578749 0 0 1 20.10099023 2.09749395 97.41697383 97.41697383 0 1 0-115.47873369 115.4787337 97.47523828 97.47523828 0 0 1 95.31947987-117.51796406z m20.10099023 2.09749395a97.47523828 97.47523828 0 0 1-115.47873369 115.4787337 97.41697383 97.41697383 0 1 0 115.47873369-115.4787337z" p-id="1091"></path></svg>