<svg t="1711503820677" class="icon" viewBox="0 0 1026 1024" version="1.1" xmlns="http://www.w3.org/2000/svg" p-id="1621" width="200" height="200"><path d="M272.37196074 62.00549756a209.91580049 209.91580049 0 0 0 1e-8 419.83160098H417.71366299a64.27421895 64.27421895 0 0 0 64.12427842-64.37417872V271.92129805A209.61592031 209.61592031 0 0 0 272.37196074 62.00549756zM417.71366299 542.16290146H272.42194063a209.91580049 209.91580049 0 1 0 209.46598066 209.91580049v-145.64158154a64.17425918 64.17425918 0 0 0-64.12427842-64.22423906z m335.21554073 0H607.63748222a64.17425918 64.17425918 0 0 0-64.12427929 64.22423907V751.7288419a209.51596055 209.51596055 0 1 0 209.51596054-209.91580049zM607.63748222 481.83709854h145.34170137a209.91580049 209.91580049 0 1 0-209.46598067-209.91580049v145.49164189A64.32419883 64.32419883 0 0 0 607.63748222 481.83709854z m0-209.91580049a145.39168213 145.39168213 0 1 1 145.39168125 145.64158154h-145.44166113z" p-id="1622"></path></svg>