<svg width="48" height="49" viewBox="0 0 48 49" fill="none" xmlns="http://www.w3.org/2000/svg">
<path d="M45 23.9457C45 35.96 35.6025 45.7108 24 45.7108C12.3975 45.7108 3 35.96 3 23.9457C3 11.9205 12.3975 2.18066 24 2.18066C35.6025 2.18066 45 11.9205 45 23.9457Z" fill="black"/>
<path d="M33.8432 18.9576C33.7286 19.0244 31.0006 20.4352 31.0006 23.5633C31.1292 27.1306 34.4432 28.3817 34.5 28.3817C34.4432 28.4485 33.9997 30.0859 32.686 31.8023C31.6435 33.2808 30.4863 34.7715 28.7292 34.7715C27.0577 34.7715 26.4577 33.7861 24.5292 33.7861C22.458 33.7861 21.872 34.7715 20.2863 34.7715C18.5292 34.7715 17.2863 33.2009 16.1869 31.7363C14.7586 29.8194 13.5447 26.8111 13.5018 23.9227C13.4729 22.3921 13.7878 20.8875 14.5872 19.6096C15.7155 17.8255 17.7298 16.6143 19.9295 16.5744C21.6149 16.5214 23.1149 17.6527 24.1435 17.6527C25.1292 17.6527 26.972 16.5744 29.0571 16.5744C29.9571 16.5753 32.3571 16.8279 33.8432 18.9576ZM24.0009 16.2688C23.7009 14.871 24.5292 13.4733 25.3006 12.5816C26.2863 11.5034 27.8431 10.7715 29.1857 10.7715C29.2714 12.1693 28.7282 13.5401 27.7574 14.5385C26.8863 15.6168 25.3863 16.4286 24.0009 16.2688Z" fill="white"/>
</svg>
