<?xml version="1.0" standalone="no"?><!DOCTYPE svg PUBLIC "-//W3C//DTD SVG 1.1//EN" "http://www.w3.org/Graphics/SVG/1.1/DTD/svg11.dtd">
<svg t="1712044939976" class="icon" viewBox="0 0 1024 1024" version="1.1" xmlns="http://www.w3.org/2000/svg" p-id="1411"
     width="200" height="200"><path d="M463.4 544.18823545h97.25294092L512.05294092 425.17647089z" p-id="1412"></path><path d="M512 62A450 450 0 1 0 962 512 450.37058818 450.37058818 0 0 0 512 62zM276.51764727 720.48235273l-50.98235274 45a382.28823545 382.28823545 0 0 1 434.11764639-606.01764726l49.5 21.1764709-129.75882363 116.47058818-45.74117637-50.24117637 45.74117637-41.24117636a314.15294092 314.15294092 0 0 0-302.98235274 515.2235291z m398.27647002-57.75882362h-75.81176456l-30.01764726-70.5176464H453.76470547l-30.01764639 70.51764639H347.88235273l126.74117638-305.25882363h74.11764725zM512 893.75882364h-6.77647089a381.6 381.6 0 0 1-144-30.75882364l-44.25882364-18.74117637 112.5-123.7764709 50.24117724 45.74117637-45 49.5a314.31176455 314.31176455 0 0 0 313.51764639-511.51764639l50.98235361-45A382.55294092 382.55294092 0 0 1 512 893.75882364z" p-id="1413"></path></svg>
