<svg t="1711503581269" class="icon" viewBox="0 0 1102 1024" version="1.1" xmlns="http://www.w3.org/2000/svg" p-id="1491" width="200" height="200"><path d="M480.034595 67.438015a98.028455 98.028455 0 0 1 187.179265 3.797065 86.155942 86.155942 0 0 1-56.20726 104.927348 32.087874 32.087874 0 0 0-22.461511 26.258577v78.775731h-30.055642V194.987314c0-7.433691-15.027821-15.027821-22.461512-18.717926a92.199158 92.199158 0 0 1-55.99334-108.831373zM127.549299 648.656373A127.174941 127.174941 0 0 1 0 532.337829 125.730986 125.730986 0 0 1 127.549299 408.585595z m847.387272 0V408.692555a121.987401 121.987401 0 0 1 127.549299 116.318543 125.570547 125.570547 0 0 1-127.549299 123.645275z m-63.64095-326.226719v408.799514c0 37.435853-7.433691 44.976503-52.517154 48.773569h-165.092111c-3.797065 0-3.797065 0-11.230756 3.797065v56.207259h60.004324c22.461512 0 37.435853 11.230756 37.435853 33.745747v116.318544c0 22.461512-15.027821 33.745747-37.435853 33.745747H356.282361a33.638788 33.638788 0 0 1-37.435853-37.435853v-112.307559c0-26.258577 11.230756-33.745747 37.435853-37.435853h52.517154l3.797065-3.797065v-56.635097H228.840021c-30.055642 0-41.286398-11.230756-41.286398-37.435853V318.632589c0-30.055642 11.230756-37.435853 44.976504-37.435853h629.991926c41.286398-3.743585 48.773568 3.743585 48.773568 41.232918zM453.776018 524.904139a63.58747 63.58747 0 0 0-67.438015-60.004325 62.517874 62.517874 0 0 0-63.74791 60.004325v3.797065a65.673182 65.673182 0 1 0 131.239405-3.797065z m-63.80139 375.053767v63.747909h326.226719v-63.747909z m393.771694-371.310182a63.266592 63.266592 0 0 0-63.74791-63.74791h-3.797065a63.480511 63.480511 0 0 0-67.438015 60.004325 66.582339 66.582339 0 0 0 67.438015 63.747909 61.287839 61.287839 0 0 0 67.544975-60.004324z" p-id="1492"></path></svg>