<svg xmlns="http://www.w3.org/2000/svg" width="26.975" height="24.287" viewBox="0 0 26.975 24.287"><defs><style>.a{}.b{clip-path:url(#a);}.c{}</style><clipPath id="a"><rect class="a" width="26.975" height="24.287"/></clipPath></defs><g class="b"><path class="c" d="M381.641,140.012a.887.887,0,0,0-.891.891.908.908,0,0,0,.906.891.9.9,0,0,1,.891.891v9.908a.887.887,0,0,1-.891.891h-.906a.887.887,0,0,0-.891.891v1.409l-2.056-2.042a.9.9,0,0,0-.647-.259h-4.5a.887.887,0,0,0-.891.891.9.9,0,0,0,.891.891h4.127l3.308,3.336a.907.907,0,0,0,.63.273.991.991,0,0,0,.345-.072.911.911,0,0,0,.561-.834l.014-2.7h.014a2.7,2.7,0,0,0,2.689-2.7v-9.892a2.691,2.691,0,0,0-2.7-2.66" transform="translate(-357.368 -134.591)"/><path class="c" d="M21.569,14.394V2.7a2.71,2.71,0,0,0-2.7-2.7H2.7A2.709,2.709,0,0,0,0,2.7V14.379a2.71,2.71,0,0,0,2.7,2.7h.014l-.014,4.5a.9.9,0,0,0,1.553.6l4.774-5.1h9.836a2.7,2.7,0,0,0,2.7-2.689M13.981,9.274H11.637v2.343a1,1,0,1,1-2.008,0V9.293H7.286a1,1,0,1,1,0-2.008H9.629V4.942a1,1,0,0,1,2.008,0V7.285H13.98a.99.99,0,0,1,1,.988,1,1,0,0,1-1,1" transform="translate(0 0)"/></g></svg>
