<svg width="14" height="14" viewBox="0 0 14 14" fill="none" xmlns="http://www.w3.org/2000/svg">
<g id="Frame">
<path id="Vector" d="M7 9.625C7.69597 9.62428 8.36323 9.34748 8.85536 8.85536C9.34748 8.36323 9.62428 7.69597 9.625 7V3.5C9.625 2.80381 9.34844 2.13613 8.85616 1.64384C8.36387 1.15156 7.69619 0.875 7 0.875C6.30381 0.875 5.63613 1.15156 5.14384 1.64384C4.65156 2.13613 4.375 2.80381 4.375 3.5V7C4.37572 7.69597 4.65252 8.36323 5.14464 8.85536C5.63677 9.34748 6.30403 9.62428 7 9.625ZM5.25 3.5C5.25 3.03587 5.43437 2.59075 5.76256 2.26256C6.09075 1.93437 6.53587 1.75 7 1.75C7.46413 1.75 7.90925 1.93437 8.23744 2.26256C8.56563 2.59075 8.75 3.03587 8.75 3.5V7C8.75 7.46413 8.56563 7.90925 8.23744 8.23744C7.90925 8.56563 7.46413 8.75 7 8.75C6.53587 8.75 6.09075 8.56563 5.76256 8.23744C5.43437 7.90925 5.25 7.46413 5.25 7V3.5ZM7.4375 11.3531V13.125C7.4375 13.241 7.39141 13.3523 7.30936 13.4344C7.22731 13.5164 7.11603 13.5625 7 13.5625C6.88397 13.5625 6.77269 13.5164 6.69064 13.4344C6.60859 13.3523 6.5625 13.241 6.5625 13.125V11.3531C5.48387 11.2434 4.48425 10.7375 3.75695 9.93347C3.02964 9.1294 2.62633 8.0842 2.625 7C2.625 6.88397 2.67109 6.77269 2.75314 6.69064C2.83519 6.60859 2.94647 6.5625 3.0625 6.5625C3.17853 6.5625 3.28981 6.60859 3.37186 6.69064C3.45391 6.77269 3.5 6.88397 3.5 7C3.5 7.92826 3.86875 8.8185 4.52513 9.47487C5.1815 10.1313 6.07174 10.5 7 10.5C7.92826 10.5 8.8185 10.1313 9.47487 9.47487C10.1313 8.8185 10.5 7.92826 10.5 7C10.5 6.88397 10.5461 6.77269 10.6281 6.69064C10.7102 6.60859 10.8215 6.5625 10.9375 6.5625C11.0535 6.5625 11.1648 6.60859 11.2469 6.69064C11.3289 6.77269 11.375 6.88397 11.375 7C11.3737 8.0842 10.9704 9.1294 10.2431 9.93347C9.51575 10.7375 8.51613 11.2434 7.4375 11.3531Z" fill="white" fill-opacity="0.5"/>
</g>
</svg>
