<svg t="1711960607091" class="icon" viewBox="0 0 1081 1024" version="1.1" xmlns="http://www.w3.org/2000/svg" p-id="1149" width="200" height="200"><path d="M986.65457363 211.92860586a25.27241572 25.27241572 0 0 1 25.27241572 25.27241484v49.97620196a25.27241572 25.27241572 0 0 1-25.27241571 25.27241572h-99.95240304v549.67503867a104.37507597 104.37507597 0 0 1-104.62780107 99.8260418H297.03353398a105.57551602 105.57551602 0 0 1-109.8086458-94.7715583V312.32327627H87.27248428a25.27241572 25.27241572 0 0 1-25.27241485-25.27241572v-49.97620196a25.27241572 25.27241572 0 0 1 25.27241484-25.27241484z m-199.90480693 99.95240302h-499.76201777v546.95825421l1.01089687 0.6949916a17.05888037 17.05888037 0 0 0 6.31810371 1.89543076h482.38723213a18.95431201 18.95431201 0 0 0 8.97170713-2.08497392l1.01089688-0.69499161V311.75464677zM461.93604541 436.78992324a25.27241572 25.27241572 0 0 1 25.27241572 25.27241572v249.88100889a25.27241572 25.27241572 0 0 1-25.27241572 25.27241572h-50.22892617a25.27241572 25.27241572 0 0 1-25.27241484-25.27241572V462.06233896a25.27241572 25.27241572 0 0 1 25.27241484-25.27241571h49.97620195z m199.90480781 0a25.27241572 25.27241572 0 0 1 25.27241485 25.27241572v249.88100889a25.27241572 25.27241572 0 0 1-25.27241484 25.27241572h-49.97620196a25.27241572 25.27241572 0 0 1-25.27241572-25.27241572V462.06233896a25.27241572 25.27241572 0 0 1 25.27241572-25.27241571h49.97620196z m1e-8-374.78992324a25.27241572 25.27241572 0 0 1 25.27241484 25.27241573v49.97620195a25.27241572 25.27241572 0 0 1-25.27241484 25.27241572H411.70711924a25.27241572 25.27241572 0 0 1-25.27241484-25.27241572V87.27241573a25.27241572 25.27241572 0 0 1 25.27241484-25.27241573h249.88100977z" p-id="1150"></path></svg>