<svg t="1712111003056" class="icon" viewBox="0 0 1024 1024" version="1.1" xmlns="http://www.w3.org/2000/svg" p-id="1338" width="200" height="200"><path d="M512 1023.999a520.2 520.2 0 0 1-52.349-2.643 513.328 513.328 0 0 1-50.837-7.758c-16.5-3.376-33-7.62-49.067-12.617a510.382 510.382 0 0 1-47.04-17.217 511.976 511.976 0 0 1-44.756-21.56 514.112 514.112 0 0 1-42.215-25.646 516.077 516.077 0 0 1-39.415-29.474c-12.584-10.385-24.817-21.5-36.359-33.045s-22.66-23.776-33.045-36.359a515.654 515.654 0 0 1-29.476-39.416 513.362 513.362 0 0 1-25.646-42.214 511.965 511.965 0 0 1-21.56-44.756 510.303 510.303 0 0 1-17.217-47.04 509.466 509.466 0 0 1-12.617-49.067 513.267 513.267 0 0 1-7.758-50.838 519.678 519.678 0 0 1 0-104.7 513.28 513.28 0 0 1 7.757-50.835c3.376-16.5 7.62-33 12.617-49.067a510.382 510.382 0 0 1 17.217-47.04 511.965 511.965 0 0 1 21.56-44.756 513.866 513.866 0 0 1 25.646-42.214 516.01 516.01 0 0 1 29.474-39.415c10.386-12.585 21.5-24.818 33.045-36.359s23.774-22.659 36.359-33.045a515.944 515.944 0 0 1 39.415-29.474 513.212 513.212 0 0 1 42.215-25.646 511.965 511.965 0 0 1 44.756-21.56 510.303 510.303 0 0 1 47.04-17.217c16.063-5 32.572-9.241 49.067-12.616a513.283 513.283 0 0 1 50.837-7.759 519.68 519.68 0 0 1 104.7 0 513.283 513.283 0 0 1 50.838 7.753c16.5 3.375 33 7.62 49.067 12.616a510.197 510.197 0 0 1 47.04 17.217 511.623 511.623 0 0 1 44.757 21.567 513.866 513.866 0 0 1 42.214 25.646 516.224 516.224 0 0 1 39.416 29.474c12.585 10.386 24.818 21.5 36.359 33.045s22.659 23.774 33.045 36.359a515.944 515.944 0 0 1 29.474 39.415 513.362 513.362 0 0 1 25.646 42.214 511.965 511.965 0 0 1 21.56 44.756 510.488 510.488 0 0 1 17.217 47.04c5 16.063 9.241 32.572 12.617 49.067a513.286 513.286 0 0 1 7.759 50.837 519.678 519.678 0 0 1 0 104.7 513.273 513.273 0 0 1-7.759 50.837c-3.376 16.5-7.62 33-12.617 49.067a510.197 510.197 0 0 1-17.217 47.04 511.965 511.965 0 0 1-21.56 44.756 514.203 514.203 0 0 1-25.646 42.214 516.158 516.158 0 0 1-29.474 39.416c-10.385 12.584-21.5 24.817-33.045 36.359s-23.775 22.66-36.359 33.045a515.83 515.83 0 0 1-39.416 29.474 514.094 514.094 0 0 1-42.214 25.646 511.976 511.976 0 0 1-44.756 21.56 510.382 510.382 0 0 1-47.04 17.217 509.466 509.466 0 0 1-49.067 12.617 513.324 513.324 0 0 1-50.837 7.758 520.2 520.2 0 0 1-52.35 2.641z m182.121-340.64a349.633 349.633 0 0 0 15.076 11.844 386.033 386.033 0 0 1-61.567 29.786 450.494 450.494 0 0 0 39.015 63.845 592.375 592.375 0 0 0 182.3-92.829c1.846-19.46 2.865-38.979 3.028-58.014 0.161-18.823-0.511-37.7-2-56.119a607.052 607.052 0 0 0-6.852-54.288 596.848 596.848 0 0 0-11.541-52.519 602.86 602.86 0 0 0-16.061-50.815 625.08 625.08 0 0 0-20.413-49.173c-7.425-15.94-15.7-31.953-24.6-47.6-8.774-15.427-18.4-30.93-28.613-46.081a589.151 589.151 0 0 0-148.539-46.397c-6.362 11.494-13.826 26.905-19.015 39.261a548.777 548.777 0 0 0-164.612 0 421.185 421.185 0 0 0-19.26-39.261 587.254 587.254 0 0 0-148.643 46.491c-85.917 129.016-120.841 264.609-106.767 414.515a593.626 593.626 0 0 0 182.181 92.768 450.19 450.19 0 0 0 39.014-63.845 385.941 385.941 0 0 1-61.445-29.722 284.476 284.476 0 0 0 15.077-11.846c58.953 27.409 120.4 41.307 182.65 41.307s123.339-13.899 181.587-41.308z m-62.521-70.83a57.545 57.545 0 0 1-25.121-5.781 63.132 63.132 0 0 1-10.993-6.774 68.3 68.3 0 0 1-9.593-8.959 73.186 73.186 0 0 1-7.925-10.843 76.938 76.938 0 0 1-5.991-12.424 80.294 80.294 0 0 1-5.113-28.385 81.433 81.433 0 0 1 5.027-28.395 76.869 76.869 0 0 1 5.916-12.434 72.462 72.462 0 0 1 7.857-10.854 67.364 67.364 0 0 1 9.553-8.971 62.48 62.48 0 0 1 11-6.784 58.716 58.716 0 0 1 49.2-0.765 63.939 63.939 0 0 1 19.823 13.786 70.676 70.676 0 0 1 8.925 11.143 74.507 74.507 0 0 1 6.709 13.03 77.47 77.47 0 0 1 4.167 14.548 80.348 80.348 0 0 1 1.3 15.7 81.353 81.353 0 0 1-5.027 28.385 76.763 76.763 0 0 1-5.916 12.424 72.322 72.322 0 0 1-7.857 10.843 67.308 67.308 0 0 1-9.553 8.96 62.47 62.47 0 0 1-11 6.774 58.3 58.3 0 0 1-25.388 5.776z m-239.195 0h-0.03a57.479 57.479 0 0 1-25.1-5.781 63.109 63.109 0 0 1-10.988-6.774 68.3 68.3 0 0 1-9.589-8.959 73.185 73.185 0 0 1-7.923-10.843 76.958 76.958 0 0 1-5.99-12.424 80.3 80.3 0 0 1-5.113-28.385 81.43 81.43 0 0 1 5.027-28.395 76.873 76.873 0 0 1 5.916-12.434 72.47 72.47 0 0 1 7.857-10.854 67.379 67.379 0 0 1 9.553-8.971 62.485 62.485 0 0 1 11-6.784 58.716 58.716 0 0 1 49.2-0.765 63.94 63.94 0 0 1 19.823 13.787 70.673 70.673 0 0 1 8.925 11.143 74.534 74.534 0 0 1 6.709 13.03 77.481 77.481 0 0 1 4.166 14.548 80.351 80.351 0 0 1 1.3 15.7 81.2 81.2 0 0 1-5.014 28.385 76.675 76.675 0 0 1-5.915 12.424 72.3 72.3 0 0 1-7.859 10.843 67.3 67.3 0 0 1-9.557 8.96 62.5 62.5 0 0 1-11.008 6.774 58.321 58.321 0 0 1-25.39 5.775z" p-id="1339"></path></svg>