<svg xmlns="http://www.w3.org/2000/svg" width="12.818" height="13.253" viewBox="0 0 12.818 13.253"><defs><style>.a{fill:#e8e8e8;}.b{fill:#b2b2b2;}.c{fill:#0d47a1;}.d{fill:#fff;}</style></defs><g transform="translate(-44.032 -27.648)"><path class="a" d="M503.863,190.322h-5.792a.407.407,0,0,1-.407-.407v-8.26a.407.407,0,0,1,.407-.407h5.792a.407.407,0,0,1,.407.407v8.26A.407.407,0,0,1,503.863,190.322Z" transform="translate(-447.419 -151.496)"/><path class="b" d="M502.208,302.893h-4.137a.407.407,0,0,1,0-.813h4.137a.407.407,0,0,1,.407.407A.416.416,0,0,1,502.208,302.893Zm0,1.655h-4.137a.407.407,0,0,1,0-.813h4.137a.407.407,0,0,1,0,.813Zm0,1.641h-4.137a.407.407,0,0,1,0-.813h4.137a.407.407,0,0,1,0,.813Zm0,1.655h-4.137a.407.407,0,0,1,0-.813h4.137a.407.407,0,0,1,0,.813Z" transform="translate(-447.419 -270.673)"/><path class="c" d="M51.745,40.9l-7.713-1.473V29.121l7.713-1.473Z"/><path class="d" d="M124.3,332.729h-.982l-.645-3.24a2.538,2.538,0,0,1-.056-.561H122.6a4.33,4.33,0,0,1-.07.561l-.673,3.24h-1.024l-1.024-5.049h.968l.547,3.366a4.665,4.665,0,0,1,.056.575h.014a3.134,3.134,0,0,1,.084-.589l.7-3.352h.94l.645,3.394a3.883,3.883,0,0,1,.056.547h.014c.014-.182.028-.365.056-.561l.547-3.366h.884Z" transform="translate(-74.738 -295.923)"/></g></svg>