<svg t="1711959746401" class="icon" viewBox="0 0 1051 1024" version="1.1" xmlns="http://www.w3.org/2000/svg" p-id="1119" width="200" height="200"><path d="M959.91035117 857.51757529a26.12060596 26.12060596 0 0 1 26.12060684 26.12060596v52.24121279a26.12060596 26.12060596 0 0 1-26.12060684 26.12060596H541.63237695a26.12060596 26.12060596 0 0 1-26.12060684-26.12060596v-52.24121279a26.12060596 26.12060596 0 0 1 26.12060684-26.12060596zM632.88036143 69.72009013a26.12060596 26.12060596 0 0 1 36.97516933 0l258.82618447 258.82618536a26.12060596 26.12060596 0 0 1 0 36.97516933l-563.04417919 563.0441792a26.12060596 26.12060596 0 0 1-20.89648477 7.54595332l-237.17510508-21.59303466a26.12060596 26.12060596 0 0 1-23.68268262-23.62463789l-21.53498906-237.2911963a26.12060596 26.12060596 0 0 1 7.54595332-20.83843916z m18.45856142 129.44211592l-481.78007051 481.78007051 12.36375352 135.59496943 135.59496943 12.30570792L635.49242158 510.86810674l-145.6949373-145.69493643 73.95033867-73.95033867 145.69493731 145.69493643 89.85488554-89.85488555-147.84263086-147.84263086z" p-id="1120"></path></svg>