<svg width="48" height="49" viewBox="0 0 48 49" fill="none" xmlns="http://www.w3.org/2000/svg">
<ellipse cx="24" cy="24.2061" rx="21" ry="21" fill="url(#paint0_linear_827_23109)"/>
<mask id="mask0_827_23109" style="mask-type:alpha" maskUnits="userSpaceOnUse" x="3" y="3" width="42" height="43">
<ellipse cx="24" cy="24.6279" rx="21" ry="21" fill="url(#paint1_linear_827_23109)"/>
</mask>
<g mask="url(#mask0_827_23109)">
<path d="M31.8205 32.5483L32.7534 26.6211H26.9178V22.7765C26.9178 21.1545 27.7315 19.5726 30.3452 19.5726H33V14.5265C33 14.5265 30.5917 14.126 28.2904 14.126C23.4822 14.126 20.3425 16.9654 20.3425 22.1036V26.6211H15V32.5483H20.3425V46.8777C21.415 47.0419 22.5123 47.126 23.6301 47.126C24.7479 47.126 25.8452 47.0419 26.9178 46.8777V32.5483H31.8205Z" fill="white"/>
</g>
<defs>
<linearGradient id="paint0_linear_827_23109" x1="24" y1="3.20605" x2="24" y2="45.0815" gradientUnits="userSpaceOnUse">
<stop stop-color="#18ACFE"/>
<stop offset="1" stop-color="#0163E0"/>
</linearGradient>
<linearGradient id="paint1_linear_827_23109" x1="24" y1="3.62793" x2="24" y2="45.5034" gradientUnits="userSpaceOnUse">
<stop stop-color="#18ACFE"/>
<stop offset="1" stop-color="#0163E0"/>
</linearGradient>
</defs>
</svg>
