<svg width="48" height="48" viewBox="0 0 48 48" fill="none" xmlns="http://www.w3.org/2000/svg">
<path d="M43.2021 23.228C43.2021 21.6494 43.0714 20.4974 42.7885 19.3027H24.394V26.428H35.1911C34.9735 28.1987 33.798 30.8654 31.1857 32.6573L31.1491 32.8959L36.9651 37.3114L37.3681 37.3508C41.0687 34.0014 43.2021 29.0734 43.2021 23.228Z" fill="#4285F4"/>
<path d="M24.3928 42.0005C29.6825 42.0005 34.1232 40.2938 37.3668 37.3498L31.1845 32.6563C29.5301 33.787 27.3097 34.5763 24.3928 34.5763C19.2119 34.5763 14.8146 31.227 13.2471 26.5977L13.0174 26.6168L6.96983 31.2035L6.89074 31.419C10.1125 37.691 16.7301 42.0005 24.3928 42.0005Z" fill="#34A853"/>
<path d="M13.2483 26.5984C12.8347 25.4037 12.5953 24.1236 12.5953 22.801C12.5953 21.4783 12.8347 20.1983 13.2265 19.0037L13.2156 18.7492L7.09221 14.0889L6.89186 14.1823C5.56403 16.785 4.80212 19.7077 4.80212 22.801C4.80212 25.8944 5.56403 28.817 6.89186 31.4197L13.2483 26.5984Z" fill="#FBBC05"/>
<path d="M24.3929 11.0246C28.0717 11.0246 30.5533 12.5819 31.9683 13.8833L37.4976 8.5926C34.1018 5.49927 29.6826 3.60059 24.3929 3.60059C16.7302 3.60059 10.1125 7.9099 6.89074 14.1819L13.2254 19.0033C14.8147 14.3739 19.2119 11.0246 24.3929 11.0246Z" fill="#EB4335"/>
</svg>
