<svg width="1728" height="1012" viewBox="0 0 1728 1012" fill="none" xmlns="http://www.w3.org/2000/svg">
<g clip-path="url(#clip0_143_7612)">
<rect width="1728" height="1012" fill="black"/>
<mask id="mask0_143_7612" style="mask-type:alpha" maskUnits="userSpaceOnUse" x="561" y="603" width="606" height="607">
<circle cx="864" cy="906.918" r="303" fill="url(#paint0_radial_143_7612)"/>
</mask>
<g mask="url(#mask0_143_7612)">
<path d="M618.801 560.918V1280.92" stroke="#E0FF31" stroke-opacity="0.2" stroke-width="1.44" stroke-miterlimit="10"/>
<path d="M700.534 560.918V1280.92" stroke="#E0FF31" stroke-opacity="0.2" stroke-width="1.44" stroke-miterlimit="10"/>
<path d="M782.267 560.918V1280.92" stroke="#E0FF31" stroke-opacity="0.2" stroke-width="1.44" stroke-miterlimit="10"/>
<path d="M864 560.918V1280.92" stroke="#E0FF31" stroke-opacity="0.2" stroke-width="1.44" stroke-miterlimit="10"/>
<path d="M945.733 560.918V1280.92" stroke="#E0FF31" stroke-opacity="0.2" stroke-width="1.44" stroke-miterlimit="10"/>
<path d="M1027.47 560.918V1280.92" stroke="#E0FF31" stroke-opacity="0.2" stroke-width="1.44" stroke-miterlimit="10"/>
<path d="M1109.2 560.918V1280.92" stroke="#E0FF31" stroke-opacity="0.2" stroke-width="1.44" stroke-miterlimit="10"/>
<path d="M1404 675.719H324" stroke="#E0FF31" stroke-opacity="0.2" stroke-width="1.44" stroke-miterlimit="10"/>
<path d="M1404 757.453H324" stroke="#E0FF31" stroke-opacity="0.2" stroke-width="1.44" stroke-miterlimit="10"/>
<path d="M1404 839.185H324" stroke="#E0FF31" stroke-opacity="0.2" stroke-width="1.44" stroke-miterlimit="10"/>
<path d="M1404 920.919H324" stroke="#E0FF31" stroke-opacity="0.2" stroke-width="1.44" stroke-miterlimit="10"/>
<path d="M1404 1002.65H324" stroke="#E0FF31" stroke-opacity="0.2" stroke-width="1.44" stroke-miterlimit="10"/>
</g>
<path d="M1331.08 442.495C1331.08 442.495 1336.17 444.54 1339.93 442.833" stroke="#101521" stroke-width="0.88714" stroke-miterlimit="10" stroke-linecap="round"/>
<path d="M1310.07 464.065C1310.07 464.065 1317.51 461.006 1321.83 467.007" stroke="#101521" stroke-width="0.88714" stroke-miterlimit="10" stroke-linecap="round"/>
<path d="M1387.87 424.907C1387.87 424.907 1405.28 440.454 1410.21 421.953C1410.21 421.953 1407.65 438.429 1393.4 436.54L1387.87 424.907Z" fill="#101521" stroke="#101521" stroke-width="0.88714" stroke-miterlimit="10"/>
<path d="M1400.51 402.634C1400.51 402.634 1391.43 416.864 1364.28 410.799L1373.1 416.162C1373.3 416.162 1395.53 421.233 1400.51 402.634Z" fill="#101521" stroke="#101521" stroke-width="0.88714" stroke-miterlimit="10"/>
<path d="M1317.09 427.534C1317.09 427.534 1319.45 434.694 1325.47 436.204C1326.98 436.583 1309.06 438.652 1311.31 434.812C1315.03 428.481 1316.55 428.922 1317.09 427.534Z" fill="#101521" stroke="#101521" stroke-width="0.88714" stroke-miterlimit="10"/>
<path d="M1459.55 621.161C1457.44 615.035 1451.2 612.956 1445.24 617.546C1437.69 623.357 1430.71 635.31 1444.86 637.733C1456.37 639.702 1461.67 627.288 1459.55 621.161Z" fill="#75E8F5"/>
<path d="M470.178 281.435C477.108 283.803 484.564 269.553 480.03 264.427C475.494 259.3 472.621 272.695 467.525 271.439C462.429 270.183 462.374 278.769 470.178 281.435Z" fill="#FF69CD"/>
<path d="M361.279 442.472C359.905 440.362 357.358 440.166 355.542 442.457C353.243 445.358 351.738 450.521 357.302 450.102C361.823 449.761 362.654 444.583 361.279 442.472Z" fill="#F8FF21"/>
<path d="M1263.25 371.012C1265.72 370.502 1263.32 364.843 1265.46 363.265C1267.6 361.687 1272.01 363.237 1273.72 359.239C1275.44 355.241 1265.02 347.932 1258.85 354.492C1252.68 361.054 1260.13 371.654 1263.25 371.012Z" fill="#75E8F5"/>
<path d="M305.965 410.365C306.663 420.743 315.449 426.588 326.616 421.99C335.006 418.535 332.056 408.878 341.067 409.65C350.078 410.421 352.671 398.773 335.69 390.883C318.705 382.993 305.268 399.986 305.965 410.365Z" fill="white" fill-opacity="0.3"/>
<path d="M1396.44 364.416C1393.28 367.795 1394.05 372.424 1398.93 374.657C1405.12 377.483 1414.99 377.901 1411.8 368.16C1409.2 360.245 1399.6 361.038 1396.44 364.416Z" fill="white" fill-opacity="0.3"/>
<path d="M1428.3 512.481C1426.5 512.667 1425.54 514.232 1426.41 516.147C1427.51 518.571 1430.32 521.232 1431.88 517.534C1433.15 514.53 1430.11 512.296 1428.3 512.481Z" fill="white" fill-opacity="0.3"/>
</g>
<defs>
<radialGradient id="paint0_radial_143_7612" cx="0" cy="0" r="1" gradientUnits="userSpaceOnUse" gradientTransform="translate(864 906.918) rotate(90) scale(303)">
<stop stop-color="#D9D9D9"/>
<stop offset="1" stop-color="#D9D9D9" stop-opacity="0"/>
</radialGradient>
<linearGradient id="paint1_linear_143_7612" x1="1372.26" y1="479.748" x2="1372.26" y2="591.096" gradientUnits="userSpaceOnUse">
<stop stop-color="#00C057"/>
<stop offset="1"/>
</linearGradient>
<linearGradient id="paint2_linear_143_7612" x1="1372.26" y1="479.748" x2="1372.26" y2="591.096" gradientUnits="userSpaceOnUse">
<stop stop-color="#101521"/>
<stop offset="0.83751" stop-color="#101521" stop-opacity="0"/>
</linearGradient>
<linearGradient id="paint3_linear_143_7612" x1="1350.6" y1="485.59" x2="1350.6" y2="580.207" gradientUnits="userSpaceOnUse">
<stop stop-color="#F8FF21"/>
<stop offset="1"/>
</linearGradient>
<linearGradient id="paint4_linear_143_7612" x1="1350.6" y1="485.59" x2="1350.6" y2="580.207" gradientUnits="userSpaceOnUse">
<stop stop-color="#101521"/>
<stop offset="0.83751" stop-color="#101521" stop-opacity="0"/>
</linearGradient>
<linearGradient id="paint5_linear_143_7612" x1="1364.51" y1="482.688" x2="1364.51" y2="585.817" gradientUnits="userSpaceOnUse">
<stop stop-color="#FF69CD"/>
<stop offset="1"/>
</linearGradient>
<linearGradient id="paint6_linear_143_7612" x1="1364.51" y1="482.688" x2="1364.51" y2="585.817" gradientUnits="userSpaceOnUse">
<stop stop-color="#101521"/>
<stop offset="0.83751" stop-color="#101521" stop-opacity="0"/>
</linearGradient>
<clipPath id="clip0_143_7612">
<rect width="1728" height="1012" fill="white"/>
</clipPath>
</defs>
</svg>
