<svg t="1711503843754" class="icon" viewBox="0 0 1069 1024" version="1.1" xmlns="http://www.w3.org/2000/svg" p-id="2044" width="200" height="200"><path d="M989.89639385 438.93059698l-137.26014609-125.74354044a118.62598184 118.62598184 0 0 0-12.75229336-13.5431332L615.23600205 93.87727227a123.56873086 123.56873086 0 0 0-165.73038135 0L224.90709541 299.64392334c-2.76793945 2.52080244-5.33816894 4.94274903-7.80954434 7.80954346L73.51068623 438.93059698a34.59924492 34.59924492 0 0 0 25.2080209 60.30154072h69.64333682v339.51744491a125.94125039 125.94125039 0 0 0 128.51147988 123.22273799h470.00602442a125.89182334 125.89182334 0 0 0 128.51148076-123.22273798V499.2321377h69.54448183a34.59924492 34.59924492 0 0 0 25.25744795-60.30154073m-427.49838106 271.50521485a27.53111338 27.53111338 0 0 1-55.06222675 0V538.32928379a27.53111338 27.53111338 0 0 1 55.06222675-1e-8z" p-id="2045"></path></svg>