<svg t="1725351532059" class="icon" viewBox="0 0 1024 1024" version="1.1" xmlns="http://www.w3.org/2000/svg" p-id="1739" width="200" height="200"><path d="M1014.922378 191.515676c0 69.465946-105.582703 129.964973-261.56281 161.432216 155.980108 31.467243 261.535135 91.96627 261.535135 161.432216 0 69.465946-105.555027 129.992649-261.535135 161.459892 155.980108 31.467243 261.535135 91.96627 261.535135 161.432216 0 101.901838-227.13427 184.51373-507.350487 184.51373C227.300324 1021.785946 0.138378 939.174054 0.138378 837.272216c0-69.465946 105.582703-129.964973 261.562811-161.432216-155.980108-31.494919-261.535135-91.993946-261.535135-161.459892s105.555027-129.964973 261.535135-161.432216C105.721081 321.480649 0.166054 260.981622 0.166054 191.515676 0.138378 89.613838 227.272649 7.001946 507.488865 7.001946c280.243892 0 507.405838 82.611892 507.405838 184.51373z" p-id="1740"></path></svg>
