<svg width="24" height="25" viewBox="0 0 24 25" fill="none" xmlns="http://www.w3.org/2000/svg">
<g id="lucide:bot">
<g id="Group 1000005171">
<g id="Memes-Comment-Reply--Streamline-Core.png">
<path id="Vector 842" d="M9.43753 18.2817C10.0938 19.063 11.3438 19.563 12.6563 19.4067" stroke="#E1FF01" stroke-width="1.5" stroke-linecap="round"/>
</g>
<path id="Vector 839" d="M3.4639 12.6934H6.96878" stroke="#E1FF01" stroke-width="1.5" stroke-linecap="round"/>
<path id="Vector 840" d="M13.118 12.6934H15.0186" stroke="#E1FF01" stroke-width="1.5" stroke-linecap="round"/>
<path id="Rectangle 751" d="M7.20963 11.911C7.20963 11.8313 7.27428 11.7666 7.35404 11.7666H12.6087C12.6884 11.7666 12.7531 11.8313 12.7531 11.911V15.3768C12.7531 15.4566 12.6884 15.5213 12.6087 15.5213H7.35404C7.27428 15.5213 7.20963 15.4566 7.20963 15.3768V11.911Z" stroke="#E1FF01" stroke-width="1.5" stroke-linecap="round"/>
<g id="Rectangle 752">
<mask id="path-5-inside-1_1893_1977" fill="white">
<rect x="15.1801" y="11.0166" width="7.04348" height="5.25466" rx="0.89441"/>
</mask>
<rect x="15.1801" y="11.0166" width="7.04348" height="5.25466" rx="0.89441" stroke="#E1FF01" stroke-width="3" stroke-linecap="round" mask="url(#path-5-inside-1_1893_1977)"/>
</g>
<path id="Vector 841" d="M20.5465 15.8256C20.5465 18.1734 18.59 22.0864 12.7764 22.0864C6.96269 22.0864 4.39127 18.8442 4.39127 15.0988C4.39127 13.052 4.39127 7.48034 4.39127 4.64383C4.39127 4.41884 4.65152 4.29463 4.82721 4.43518L9.06932 7.82887C9.1169 7.86693 9.17601 7.88767 9.23694 7.88767H16.0308C16.0951 7.88767 16.1572 7.86462 16.2059 7.82271L20.1032 4.46806C20.2771 4.31834 20.5465 4.44192 20.5465 4.67142V11.2815" stroke="#E1FF01" stroke-width="1.8" stroke-linecap="round"/>
</g>
</g>
</svg>
