<svg xmlns="http://www.w3.org/2000/svg" width="11.751" height="12.905" viewBox="0 0 11.751 12.905"><defs><style>.a{fill:#fff;}</style></defs><path class="a" d="M146.329,114.92l.441-.238,1.7.951v-2.343l-.34-.17-1.7-.985v1.936l-.374.2-1.426-.815-1.7.951v1.97l1.7.951,1.7-.951Zm5.2-.645-.34-.2v-1.936l-2.038,1.155v2.343l1.7-.951.441.238v1.46l1.7.951,1.7-.951v-1.97l-1.7-.951Zm0-6.113v1.562l1.8.985v1.766l.17.1,1.189.679v-3.362Zm-1.019,8.932-1.7.917-1.7-.917-.272.17-1.121.611,3.09,1.7,3.09-1.7-1.121-.611Zm-6.215-4.619v-1.766l1.8-.985v-1.562l-3.158,1.732v3.362l1.189-.679Zm2.479-.917,2.038,1.155.34-.2,1.7-.951-1.7-.951v-.238l1.358-.781v-1.936l-1.7-.985-1.7.985v1.936l1.358.781v.238Z" transform="translate(-142.933 -106.667)"/></svg>