<svg xmlns="http://www.w3.org/2000/svg" width="16.759" height="15.162" viewBox="0 0 16.759 15.162"><defs><style>.a{fill:#d2d5db;}.b{clip-path:url(#a);}.c{clip-path:url(#b);}</style><clipPath id="a"><rect class="a" width="16.759" height="15.162"/></clipPath><clipPath id="b"><rect class="a" width="16.756" height="15.162"/></clipPath></defs><g class="b"><path class="a" d="M265.849,310.581a.771.771,0,1,0,.771-.771.771.771,0,0,0-.771.771" transform="translate(-259.626 -302.558)"/><path class="a" d="M121.97,310.581a.771.771,0,1,0,.771-.771.77.77,0,0,0-.771.771" transform="translate(-119.115 -302.558)"/><path class="a" d="M409.731,310.578a.77.77,0,1,0,.385-.667.77.77,0,0,0-.385.667" transform="translate(-400.141 -302.556)"/></g><g transform="translate(0.003)"><g class="c"><path class="a" d="M63.013,61.958s-.02.013-.058.053l.006,0,.034-.03.018-.019m-11.52-7.78-.006,0a.422.422,0,0,0-.034.03l-.019.019s.02-.012.058-.052m2.756-2.907-.006,0c-.011.01-.023.019-.034.03l-.019.019s.021-.012.058-.052" transform="translate(-50.234 -50.071)"/><path class="a" d="M16.669,1.158a1.518,1.518,0,0,0-1.338-1c-.137-.011-.277,0-.414,0H4.287a1.524,1.524,0,0,0-.568.1A1.477,1.477,0,0,0,2.757,1.6c-.006.442,0,.884,0,1.326v.128H1.639a1.944,1.944,0,0,0-.58.062A1.484,1.484,0,0,0,0,4.537C0,5,0,5.463,0,5.926v5.685a1.977,1.977,0,0,0,.064.638,1.511,1.511,0,0,0,.921.942,1.649,1.649,0,0,0,.6.088H3.235c.315.429.63.858.939,1.29l.312.437a.562.562,0,0,0,.969,0c.384-.537.771-1.071,1.167-1.6l.083-.112,1.674-.016c.478,0,.957,0,1.435,0h2.649a1.647,1.647,0,0,0,.74-.175,1.468,1.468,0,0,0,.782-1.325V10.372h.73c.178,0,.356,0,.534,0a1.5,1.5,0,0,0,1.323-.783,1.587,1.587,0,0,0,.169-.724V1.678a1.512,1.512,0,0,0-.072-.52M12.744,12.072l-.014.009-.021.019.015-.016c-.023.014-.046.028-.07.04a1,1,0,0,1-.108.03c-.15.01-.3,0-.449,0H8.789c-.427,0-.853,0-1.279.009l-1.02.01H6.428a.613.613,0,0,0-.485.278l0,0-.029.038-.285.381q-.331.442-.655.889-.341-.473-.686-.943L4,12.435q-.025-.034-.051-.065a.567.567,0,0,0-.133-.123l-.008-.006-.005,0a.507.507,0,0,0-.139-.061l-.029-.007a.556.556,0,0,0-.12-.013H1.695c-.085,0-.172,0-.257,0a1.073,1.073,0,0,1-.105-.029c-.026-.013-.051-.028-.075-.043a.394.394,0,0,1-.034-.03l-.033-.035q-.022-.036-.043-.073c-.008-.025-.015-.05-.021-.076,0-.07,0-.141,0-.211V5.375c0-.287,0-.574,0-.861a.418.418,0,0,1,0-.044c.006-.026.013-.051.021-.076s.028-.049.042-.073L1.2,4.3s.014-.024.037-.04l.014-.009.021-.02-.015.016c.023-.014.046-.028.07-.04a1.067,1.067,0,0,1,.105-.029c.107-.006.217,0,.324,0h9.412c.437,0,.874,0,1.311,0l.064,0a1.061,1.061,0,0,1,.106.029c.026.013.051.028.075.043s.024.02.034.03l.033.035c.015.024.029.049.043.074s.015.05.021.075c0,.07,0,.141,0,.211V10.96c0,.287,0,.574,0,.861,0,.015,0,.029,0,.044s-.013.051-.021.076-.028.049-.042.073l-.016.017c.005,0-.013.023-.037.04M15.5,9.165l-.014.009-.021.019.015-.016c-.023.014-.046.028-.07.04a1.038,1.038,0,0,1-.111.031c-.213.016-.433,0-.645,0h-.668V4.679a1.756,1.756,0,0,0-.179-.861,1.518,1.518,0,0,0-1.343-.761H3.879V1.775c0-.071,0-.142,0-.212.006-.025.013-.05.021-.075s.028-.049.042-.073L3.96,1.4s.014-.024.037-.04l.014-.009.021-.02-.015.016c.023-.014.046-.028.07-.04a1.084,1.084,0,0,1,.105-.029c.107-.007.217,0,.324,0h9.412c.437,0,.874,0,1.311,0,.021,0,.043,0,.064,0a1.011,1.011,0,0,1,.106.029c.026.013.051.028.075.043s.024.02.034.03l.033.035c.015.024.029.048.043.073s.015.05.021.075c0,.07,0,.141,0,.211v6.28c0,.287,0,.574,0,.861a.421.421,0,0,1,0,.044c-.006.026-.013.051-.021.076s-.028.049-.042.073l-.016.017c.005,0-.013.024-.037.04" transform="translate(-0.003 -0.145)"/></g></g><g class="b"><path class="a" d="M661.4,383.665s-.02.013-.058.053l.006,0a.39.39,0,0,0,.034-.03.211.211,0,0,0,.018-.019" transform="translate(-645.865 -374.685)"/></g></svg>
