<?xml version="1.0" standalone="no"?><!DOCTYPE svg PUBLIC "-//W3C//DTD SVG 1.1//EN" "http://www.w3.org/Graphics/SVG/1.1/DTD/svg11.dtd">
<svg t="1712560713977" class="icon" viewBox="0 0 1024 1024" version="1.1" xmlns="http://www.w3.org/2000/svg" p-id="1744"
     width="200" height="200"><path d="M174.52955058 137.01970039h600.0000003V511.96059864h75.01970039V62H99.50985019v900h412.37194658v-75.01970039H174.52955058z" p-id="1745"></path><path d="M249.47044912 211.96059893h449.96059864v75.01970039h-449.96059864z m0 149.72419248h375.01970098v75.01970039H249.47044912z m0 149.72419247h224.98029932v75.0197004H249.47044912z m487.47044883 34.67297023L549.47044883 649.15524072v206.22537422l187.47044912 103.07328574 187.47045-103.07328574V649.31284443z m112.52955146 265.01182031l-112.52955146 61.85973251-112.52955058-61.85973251V693.52088223l112.52955058-61.85973164 112.52955146 61.85973164z" p-id="1746"></path><path d="M699.50985049 752.93774668a37.5098502 37.5098502 0 1 0 37.50985019-37.50985108 37.5098502 37.5098502 0 0 0-37.50985019 37.50985108z" p-id="1747"></path></svg>
