<svg xmlns="http://www.w3.org/2000/svg" width="12.818" height="12.523" viewBox="0 0 12.818 12.523"><defs><style>.a{fill:#dc2e1b;}.b{fill:#fff;}</style></defs><g transform="translate(-63.305 -74.67)"><path class="a" d="M70.05,74.67h.826v1.311c1.557.009,3.115-.016,4.67.007a.5.5,0,0,1,.563.564c.025,2.72-.006,5.442.014,8.163a1.714,1.714,0,0,1-.14.881,1.313,1.313,0,0,1-.738.146c-1.456-.007-2.912,0-4.37,0v1.456H69.97c-2.22-.4-4.443-.775-6.663-1.165q0-5.1,0-10.19C65.553,75.449,67.8,75.053,70.05,74.67Z" transform="translate(0)"/><path class="b" d="M110.51,428.97v-1.78h.534a1.789,1.789,0,0,1,.4.027.432.432,0,0,1,.237.174.585.585,0,0,1,.1.347.619.619,0,0,1-.055.275.479.479,0,0,1-.14.176.464.464,0,0,1-.173.084,1.754,1.754,0,0,1-.345.026h-.216v.671Zm.333-1.479V428h.182a.8.8,0,0,0,.263-.028.222.222,0,0,0,.1-.087.254.254,0,0,0,.038-.138.241.241,0,0,0-.053-.16.226.226,0,0,0-.134-.079,1.48,1.48,0,0,0-.239-.012Zm1.2-.3h.608a1.1,1.1,0,0,1,.314.034.547.547,0,0,1,.248.164.791.791,0,0,1,.157.288,1.415,1.415,0,0,1,.054.421,1.254,1.254,0,0,1-.051.379.8.8,0,0,1-.177.315.569.569,0,0,1-.234.142.933.933,0,0,1-.295.038h-.626Zm.333.3v1.179h.248a.85.85,0,0,0,.2-.017.3.3,0,0,0,.134-.074.385.385,0,0,0,.087-.172,1.259,1.259,0,0,0,.034-.326,1.139,1.139,0,0,0-.034-.317.411.411,0,0,0-.094-.172.309.309,0,0,0-.154-.084,1.394,1.394,0,0,0-.273-.017Zm1.333,1.479v-1.78h1.129v.3h-.8v.421h.688v.3h-.688v.758Z" transform="translate(-46.53 -347.477)"/><path class="b" d="M640.428,385.188a.319.319,0,0,0-.045-.04,1.277,1.277,0,0,0-.47-.188l-.083-.018a1.315,1.315,0,0,0,.453.243A.253.253,0,0,0,640.428,385.188Zm-1.523-2.684c.035-.122.059-.341.008-.385h0a1.451,1.451,0,0,0-.124.705A1.3,1.3,0,0,0,638.905,382.5Zm.009,2.049a3.032,3.032,0,0,1-.379-.752,7.743,7.743,0,0,1-.645.78A9.064,9.064,0,0,1,638.914,384.553Z" transform="translate(-566.365 -303.052)"/><path class="b" d="M589.051,196.82V202c.135-.038.227-.058.227-.058.081-.084.072-.076.168-.18a10.848,10.848,0,0,0,.858-1.052c0-.034-.1-1.3.307-1.472a.267.267,0,0,1,.167-.012.3.3,0,0,1,.179.121.842.842,0,0,1,.014.649,2.413,2.413,0,0,1-.3.725,2.444,2.444,0,0,0,.6,1.213,4.437,4.437,0,0,1,.639.094c.3.072.478.171.544.3a.321.321,0,0,1,0,.276.3.3,0,0,1-.174.2.436.436,0,0,1-.259,0,2.757,2.757,0,0,1-.973-.6,12.956,12.956,0,0,0-1.538-.011q-.265.285-.459.456V205.7h4.806V196.82Z" transform="translate(-518.224 -120.403)"/></g></svg>