<svg t="1711503876408" class="icon" viewBox="0 0 1024 1024" version="1.1" xmlns="http://www.w3.org/2000/svg" p-id="2328" width="200" height="200"><path d="M434.33 62a114.63157881 114.63157881 0 0 1 94.73684239 52.10526357 128.55789492 128.55789492 0 0 1 14.68421014 111.74210508h161.62105255a79.67368388 79.67368388 0 0 1 77.44736865 81.75789492v170.52631524a112.78421016 112.78421016 0 0 1 132.63157881 42.6315788 128.36842119 128.36842119 0 0 1 0 146.27368477 112.78421016 112.78421016 0 0 1-132.63157881 42.63157881v170.52631524a84.12631612 84.12631612 0 0 1-22.5947373 57.93157969 75.41052627 75.41052627 0 0 1-54.71052627 23.87368388H544.08263135a126.85263135 126.85263135 0 0 0-40.45263135-139.73684239 111.41052627 111.41052627 0 0 0-138.36315761 1e-8A126.85263135 126.85263135 0 0 0 324.76684239 962H163.14578984a75.41052627 75.41052627 0 0 1-54.80526357-24.01578984 84.12631612 84.12631612 0 0 1-22.59473643-57.93157881v-169.81578896a112.64210508 112.64210508 0 0 0 131.92105255-42.63157882 128.17894747 128.17894747 0 0 0 0-145.75263222 112.64210508 112.64210508 0 0 0-131.92105255-42.63157882V308.31578984a79.67368388 79.67368388 0 0 1 77.44736778-81.75789492h161.57368477a128.36842119 128.36842119 0 0 1 14.7315788-111.78947373A114.39473643 114.39473643 0 0 1 434.66157881 62.99473643z m0 0" p-id="2329"></path></svg>