<svg xmlns="http://www.w3.org/2000/svg" width="25" height="24" viewBox="0 0 25 24" fill="none">
  <path d="M12.1379 17L13.6979 13.58L17.1379 12L13.6979 10.44L12.1379 7L10.5679 10.44L7.13794 12L10.5679 13.58L12.1379 17ZM8.30794 2.76C9.52302 2.25995 10.824 2.00179 12.1379 2C13.4479 2 14.7479 2.26 15.9679 2.76C17.1779 3.26 18.2779 4 19.2079 4.93C20.1379 5.86 20.8779 6.96 21.3779 8.17C21.8779 9.39 22.1379 10.69 22.1379 12C22.1379 14.65 21.0879 17.2 19.2079 19.07C18.2806 20 17.1786 20.7376 15.9653 21.2404C14.752 21.7432 13.4513 22.0014 12.1379 22C10.824 21.9982 9.52302 21.7401 8.30794 21.24C7.09601 20.7363 5.99508 19.9989 5.06794 19.07C4.13796 18.1426 3.40038 17.0406 2.89756 15.8273C2.39473 14.614 2.13659 13.3134 2.13794 12C2.13794 9.35 3.18794 6.8 5.06794 4.93C5.99794 4 7.09794 3.26 8.30794 2.76ZM6.47794 17.66C7.97794 19.16 10.0179 20 12.1379 20C14.2579 20 16.2979 19.16 17.7979 17.66C19.2979 16.16 20.1379 14.12 20.1379 12C20.1379 9.88 19.2979 7.84 17.7979 6.34C17.0544 5.59733 16.1719 5.00841 15.2007 4.60691C14.2296 4.2054 13.1888 3.99917 12.1379 4C10.0179 4 7.97794 4.84 6.47794 6.34C5.73527 7.0835 5.14636 7.96604 4.74485 8.9372C4.34335 9.90836 4.13712 10.9491 4.13794 12C4.13794 14.12 4.97794 16.16 6.47794 17.66Z" fill="black"/>
</svg>