<svg xmlns="http://www.w3.org/2000/svg" width="25" height="24" viewBox="0 0 25 24" fill="none">
  <path d="M21.1379 11.9999C21.1408 13.7866 20.6094 15.5334 19.6119 17.0159C18.7894 18.2429 17.6771 19.2483 16.3735 19.9432C15.0699 20.638 13.6152 21.001 12.1379 20.9999C10.6607 21.001 9.20597 20.638 7.90238 19.9432C6.59879 19.2483 5.48652 18.2429 4.66394 17.0159C3.88067 15.8483 3.38184 14.5134 3.20745 13.1183C3.03305 11.7232 3.18793 10.3066 3.65969 8.98215C4.13144 7.65768 4.90694 6.46216 5.92401 5.49142C6.94108 4.52068 8.17144 3.80173 9.51645 3.39221C10.8615 2.98268 12.2837 2.89396 13.6692 3.13317C15.0547 3.37238 16.3648 3.93286 17.4946 4.76969C18.6245 5.60651 19.5425 6.69639 20.1752 7.95197C20.8079 9.20755 21.1376 10.5939 21.1379 11.9999Z" stroke="black" stroke-width="2"/>
  <path d="M13.1379 9C13.1379 9.26522 13.0326 9.51957 12.845 9.70711C12.6575 9.89464 12.4032 10 12.1379 10V12C12.9336 12 13.6967 11.6839 14.2593 11.1213C14.8219 10.5587 15.1379 9.79565 15.1379 9H13.1379ZM12.1379 10C11.8727 10 11.6184 9.89464 11.4308 9.70711C11.2433 9.51957 11.1379 9.26522 11.1379 9H9.13794C9.13794 9.79565 9.45401 10.5587 10.0166 11.1213C10.5792 11.6839 11.3423 12 12.1379 12V10ZM11.1379 9C11.1379 8.73478 11.2433 8.48043 11.4308 8.29289C11.6184 8.10536 11.8727 8 12.1379 8V6C11.3423 6 10.5792 6.31607 10.0166 6.87868C9.45401 7.44129 9.13794 8.20435 9.13794 9H11.1379ZM12.1379 8C12.4032 8 12.6575 8.10536 12.845 8.29289C13.0326 8.48043 13.1379 8.73478 13.1379 9H15.1379C15.1379 8.20435 14.8219 7.44129 14.2593 6.87868C13.6967 6.31607 12.9336 6 12.1379 6V8ZM5.30394 17.856L4.34494 17.571L4.18994 18.094L4.54494 18.507L5.30394 17.856ZM18.9719 17.856L19.7319 18.507L20.0859 18.094L19.9309 17.571L18.9719 17.856ZM9.13794 16H15.1379V14H9.13794V16ZM9.13794 14C8.061 13.9997 7.01272 14.3471 6.14912 14.9905C5.28551 15.6339 4.65273 16.539 4.34494 17.571L6.26194 18.141C6.44691 17.5221 6.82673 16.9793 7.34491 16.5936C7.86309 16.2078 8.49194 15.9997 9.13794 16V14ZM12.1379 20C10.9834 20.0013 9.84238 19.7521 8.79355 19.2695C7.74472 18.787 6.81308 18.0826 6.06294 17.205L4.54494 18.507C5.48283 19.6035 6.64733 20.4836 7.95817 21.0866C9.26902 21.6897 10.695 22.0013 12.1379 22V20ZM15.1379 16C16.4949 16 17.6439 16.902 18.0139 18.142L19.9309 17.571C19.6232 16.5391 18.9896 15.6342 18.1262 14.9908C17.2628 14.3474 16.2147 13.9999 15.1379 14V16ZM18.2129 17.205C17.4628 18.0826 16.5312 18.787 15.4823 19.2695C14.4335 19.7521 13.2925 20.0013 12.1379 20V22C13.5808 22.0013 15.0069 21.6897 16.3177 21.0866C17.6286 20.4836 18.7941 19.6035 19.7319 18.507L18.2129 17.205Z" fill="black"/>
</svg>