<svg xmlns="http://www.w3.org/2000/svg" width="25" height="24" viewBox="0 0 25 24" fill="none">
  <g clip-path="url(#clip0_168_231)">
    <path d="M8.13794 10H5.13794V7H3.13794V10H0.137939V12H3.13794V15H5.13794V12H8.13794V10Z" fill="black"/>
    <path d="M21.5243 17.3917V18.7161H15.5243H9.52429V17.3917L9.52475 17.3803C9.52558 17.3638 9.52758 17.3326 9.53227 17.2888C9.54169 17.2009 9.56171 17.0646 9.60381 16.8962C9.68829 16.5583 9.85829 16.1041 10.1993 15.6495C10.8467 14.7863 12.2683 13.7161 15.5243 13.7161C18.7803 13.7161 20.2019 14.7863 20.8493 15.6495C21.1903 16.1041 21.3603 16.5583 21.4448 16.8962C21.4869 17.0646 21.5069 17.2009 21.5163 17.2888C21.521 17.3326 21.523 17.3638 21.5238 17.3803L21.5243 17.3917ZM17.603 5.49389C17.8777 5.90501 18.0243 6.38836 18.0243 6.88281C18.0243 7.54585 17.7609 8.18174 17.2921 8.65058C16.8232 9.11942 16.1873 9.38281 15.5243 9.38281C15.0298 9.38281 14.5465 9.23619 14.1354 8.96149C13.7242 8.68678 13.4038 8.29634 13.2146 7.83952C13.0254 7.38271 12.9759 6.88004 13.0723 6.39509C13.1688 5.91014 13.4069 5.46468 13.7565 5.11505C14.1062 4.76542 14.5516 4.52731 15.0366 4.43085C15.5215 4.33439 16.0242 4.3839 16.481 4.57312C16.9378 4.76233 17.3283 5.08276 17.603 5.49389Z" stroke="black" stroke-width="2"/>
  </g>
  <defs>
    <clipPath id="clip0_168_231">
      <rect width="24" height="24" fill="white" transform="translate(0.137939)"/>
    </clipPath>
  </defs>
</svg>