<?xml version="1.0" standalone="no"?><!DOCTYPE svg PUBLIC "-//W3C//DTD SVG 1.1//EN" "http://www.w3.org/Graphics/SVG/1.1/DTD/svg11.dtd">
<svg t="1712044911836" class="icon" viewBox="0 0 1030 1024" version="1.1" xmlns="http://www.w3.org/2000/svg" p-id="1269"
     width="201.171875" height="200"><path d="M809.44294766 804.02846592a41.04081123 41.04081123 0 0 1-25.32869209 8.14001309 44.25895547 44.25895547 0 0 1-28.96330342-77.80338193 7.07991856 7.07991856 0 0 1 1.81730566-1.36297969 7.07991856 7.07991856 0 0 0 1.81730479-1.36297882l0.79507089-0.90865282a271.27067519 271.27067519 0 0 0 47.06063526-40.70006632 299.8175124 299.8175124 0 0 0 37.86052676-51.11171103 254.76348516 254.76348516 0 0 0 25.32869209-58.79739814 239.01350625 239.01350625 0 0 0-25.32869209-188.62114483 307.38961758 307.38961758 0 0 0-85.9433959-92.2661042 44.33467676 44.33467676 0 0 1 25.32869209-80.52934043 40.7757876 40.7757876 0 0 1 27.14599775 9.95731875 394.27952695 394.27952695 0 0 1 62.43200948 54.74632149 363.4610581 363.4610581 0 0 1 49.74873222 67.84606406 351.26996836 351.26996836 0 0 1 32.56005322 78.25770878 314.50739678 314.50739678 0 0 1 11.77462354 85.94339679 318.02842529 318.02842529 0 0 1-11.77462354 86.85204785 347.93824219 347.93824219 0 0 1-33.01438007 78.71203564 376.59866045 376.59866045 0 0 1-113.58158027 123.0467124zM758.7855626 397.78501308a270.24844043 270.24844043 0 0 1 30.28842157 53.00473711 165.60194414 165.60194414 0 0 1 11.35815821 64.70364023 171.7353501 171.7353501 0 0 1-11.77462353 65.1579671 223.3771084 223.3771084 0 0 1-29.87195625 52.47468985 126.52988115 126.52988115 0 0 1-15.37137335 17.64300585 29.07688447 29.07688447 0 0 1-20.82329032 7.57210517 36.83829287 36.83829287 0 0 1-27.60032374-11.77462352 39.07206386 39.07206386 0 0 1-11.3581582-28.0546506 40.96508994 40.96508994 0 0 1 2.72595762-14.46272138h-0.90865284a118.76847276 118.76847276 0 0 1 10.86597159-18.93026338q6.3227083-9.04866592 12.22895039-18.55165781a102.9806332 102.9806332 0 0 0 9.95731875-21.73194229 93.51550107 93.51550107 0 0 0 4.08893643-29.41762939 90.22163555 90.22163555 0 0 0-4.08893643-28.50897656 114.79311739 114.79311739 0 0 0-9.95731875-22.1484085q-5.86838145-9.95731875-12.22895039-18.93026338a81.77873818 81.77873818 0 0 1-9.95731875-18.93026338 36.4596873 36.4596873 0 0 1-2.49879463-14.61416396 39.07206386 39.07206386 0 0 1 11.3581582-28.05464971 36.83829287 36.83829287 0 0 1 27.60032373-11.77462442 29.07688447 29.07688447 0 0 1 20.82329033 7.57210518 126.52988115 126.52988115 0 0 1 15.14421036 17.75658779z m-292.20754658 537.43017833q-46.15198242-41.64657979-97.71801944-86.85204873t-95.90071465-83.2931587q-51.56603789-43.42602393-103.1320749-85.9433959-9.95731875 0.90865283-19.9146375 0.90865284a155.83392862 155.83392862 0 0 1-17.188679 0.90865195h-15.37137422a54.74632148 54.74632148 0 0 1-39.79141348-14.91704737 48.04500849 48.04500849 0 0 1-15.37137421-35.74033681V402.32827637h0.75721112l-0.90865283-0.90865283a57.245117 57.245117 0 0 1 15.8257002-41.64657979 52.66399307 52.66399307 0 0 1 39.3370875-16.28002617h51.75534023q83.29315869-70.57202168 151.10136211-126.68132285 28.96330342-24.42004013 56.98009336-47.51496124t50.65738506-42.06304599q22.71631641-18.93026338 37.86052676-31.65140039t18.93026337-15.37137334a69.58764844 69.58764844 0 0 1 43.88035078-18.09733184 34.52880058 34.52880058 0 0 1 26.23734493 16.28002617 92.49326719 92.49326719 0 0 1 13.09974257 35.28601085 223.3771084 223.3771084 0 0 1 3.78605216 37.86052675v733.01766065a118.57917041 118.57917041 0 0 1-6.32270742 36.64899052 66.78596953 66.78596953 0 0 1-19.46031065 30.74274756 42.51737198 42.51737198 0 0 1-33.01438008 9.50299278 85.26190693 85.26190693 0 0 1-46.15198154-26.2373458z" p-id="1270"></path></svg>
