<svg width="12" height="13" viewBox="0 0 12 13" fill="none" xmlns="http://www.w3.org/2000/svg">
<g id="Frame 1000005874">
<g id="Group 1000005194">
<path id="Vector" d="M9.18482 10.4326L9.18221 10.4465L2.81893 10.4478L2.81633 10.4339L1.83325 5.73991L1.83933 5.74685L3.66355 7.70909C3.70258 7.75127 3.75148 7.7831 3.80584 7.80173C3.86021 7.82036 3.91835 7.8252 3.97505 7.81582C4.03175 7.80645 4.08523 7.78314 4.13071 7.748C4.17618 7.71286 4.21222 7.66698 4.2356 7.61448L6.00122 3.65527L7.76728 7.61578C7.79065 7.66828 7.82669 7.71416 7.87217 7.7493C7.91764 7.78444 7.97113 7.80775 8.02783 7.81713C8.08453 7.8265 8.14267 7.82166 8.19703 7.80303C8.2514 7.78441 8.30029 7.75257 8.33933 7.71039L10.1622 5.74685L10.1666 5.73991L9.18482 10.4326Z" fill="#E1FF01"/>
<circle id="Ellipse 528" cx="5.99992" cy="2.75382" r="0.416667" fill="#E1FF01"/>
<circle id="Ellipse 529" cx="1.41667" cy="4.83708" r="0.416667" fill="#E1FF01"/>
<circle id="Ellipse 530" cx="10.5834" cy="4.83708" r="0.416667" fill="#E1FF01"/>
</g>
</g>
</svg>
