<svg xmlns="http://www.w3.org/2000/svg" width="14.318" height="12.114" viewBox="0 0 14.318 12.114"><defs><style>.a{fill:#fff;}</style></defs><path class="a" d="M5.253,90.9H5.227c-3.256,0-5.015-.747-5.2-1.112v-2.51a5.951,5.951,0,0,0,1.041.4,14.864,14.864,0,0,0,4.153.53h.023c.319,0,.615-.022.922-.036a4.5,4.5,0,0,0,1.571,2.6,24.457,24.457,0,0,1-2.489.127ZM.039,84.054a12.508,12.508,0,0,0,5.193.954h.033c.434,0,.84-.045,1.259-.072a6.313,6.313,0,0,0-.481,2.386v.026a7.167,7.167,0,0,1-.814.006C1.974,87.349.216,86.594.034,86.22V84.054Zm0-3.221a5.793,5.793,0,0,0,1.041.425,13.989,13.989,0,0,0,4.153.562h.019a12.559,12.559,0,0,0,5.281-.979v1.553a5.1,5.1,0,0,0-3.469,1.652q-.911.1-1.83.115c-3.255,0-5.012-.789-5.195-1.178V80.833Zm0-.881c.208-.424,1.951-1.167,5.169-1.167h.026c3.132,0,4.967.709,5.278,1.141-.311.43-2.138,1.128-5.257,1.128H5.236C2,81.048.25,80.3.042,79.968V79.95h0Zm9.307,7.183,1.2-1.18,1.193,1.181-1.2,1.18L9.349,87.133Zm3.889-2.68a3.8,3.8,0,0,0-2.686-1.1h0a3.8,3.8,0,0,0-2.684,1.1,3.727,3.727,0,0,0-.048,5.271l.041.041a3.8,3.8,0,0,0,2.688,1.1h0a3.794,3.794,0,0,0,2.683-1.1,3.727,3.727,0,0,0,.047-5.272l-.04-.041Zm-2.7,4.786L8.413,87.133l2.132-2.1,2.126,2.106-2.132,2.1Z" transform="translate(-0.032 -78.784)"/></svg>