<svg width="21" height="20" viewBox="0 0 21 20" fill="none" xmlns="http://www.w3.org/2000/svg">
<g id="akar-icons:telegram-fill" clip-path="url(#clip0_1758_34311)">
<g id="Group">
<g id="Clip path group">
<mask id="mask0_1758_34311" style="mask-type:luminance" maskUnits="userSpaceOnUse" x="0" y="0" width="21" height="20">
<g id="akarIconsTelegramFill0">
<path id="Vector" d="M0.94873 0H20.9487V20H0.94873V0Z" fill="white"/>
</g>
</mask>
<g mask="url(#mask0_1758_34311)">
<g id="Group_2">
<path id="Vector_2" fill-rule="evenodd" clip-rule="evenodd" d="M20.9487 10C20.9487 15.5225 16.4712 20 10.9487 20C5.42623 20 0.94873 15.5225 0.94873 10C0.94873 4.4775 5.42623 0 10.9487 0C16.4712 0 20.9487 4.4775 20.9487 10ZM11.3071 7.3825C10.3348 7.78694 8.39095 8.62417 5.4754 9.89417C5.00206 10.0825 4.75401 10.2667 4.73123 10.4467C4.6929 10.7517 5.07456 10.8717 5.5929 11.0342L5.81206 11.1042C6.3229 11.27 7.00956 11.4642 7.36623 11.4717C7.69012 11.4783 8.05179 11.345 8.45123 11.0717C11.1746 9.23278 12.5804 8.30333 12.6687 8.28333C12.7312 8.26917 12.8179 8.25083 12.8762 8.30333C12.9346 8.355 12.9287 8.45333 12.9229 8.48C12.8846 8.64083 11.3896 10.0317 10.6146 10.7517C10.3729 10.9758 10.2021 11.135 10.1671 11.1717C10.0876 11.2522 10.0093 11.3297 9.93206 11.4042C9.45706 11.8608 9.10206 12.2042 9.95206 12.7642C10.3604 13.0333 10.6871 13.2558 11.0129 13.4775C11.3687 13.72 11.7237 13.9617 12.1837 14.2633C12.3004 14.3411 12.4129 14.4189 12.5212 14.4967C12.9354 14.7925 13.3079 15.0575 13.7679 15.0158C14.0346 14.9908 14.3112 14.74 14.4512 13.9908C14.7821 12.2192 15.4337 8.3825 15.5846 6.80083C15.5946 6.66952 15.589 6.53749 15.5679 6.4075C15.5563 6.30229 15.505 6.20546 15.4246 6.13667C15.3054 6.03917 15.1204 6.01833 15.0371 6.02C14.6612 6.02667 14.0846 6.2275 11.3071 7.3825Z" fill="black"/>
</g>
</g>
</g>
</g>
</g>
<defs>
<clipPath id="clip0_1758_34311">
<rect width="20" height="20" fill="white" transform="translate(0.94873)"/>
</clipPath>
</defs>
</svg>
