<svg xmlns="http://www.w3.org/2000/svg" width="14.039" height="14.06" viewBox="0 0 14.039 14.06"><defs><style>.a{fill:#fff;}</style></defs><path class="a" d="M2.909,1.24l1.217-.7,7.028,12.172-1.217.7Zm1.48,10.851a1.8,1.8,0,0,1-2.474,0,1.757,1.757,0,0,1,0-2.474L4.839,6.694l-.7-1.258L.924,8.619a3.156,3.156,0,0,0,4.463,4.463l2-2-.7-1.258ZM13.139.867a3.163,3.163,0,0,0-4.463,0l-1.989,2,.7,1.258L9.653,1.858a1.75,1.75,0,0,1,2.474,2.474l-2.9,2.924.7,1.258,3.191-3.191a3.163,3.163,0,0,0,0-4.463Z" transform="translate(0 0.054)"/></svg>