<svg width="56" height="56" viewBox="0 0 56 56" fill="none" xmlns="http://www.w3.org/2000/svg">
<g id="Frame">
<path id="Vector" d="M42.8148 18.7083H36.8888V14.2639C36.8888 11.9064 35.9523 9.64548 34.2853 7.9785C32.6184 6.31151 30.3574 5.375 27.9999 5.375C25.6425 5.375 23.3815 6.31151 21.7146 7.9785C20.0476 9.64548 19.1111 11.9064 19.1111 14.2639V18.7083H13.1851C12.3993 18.7083 11.6457 19.0205 11.09 19.5762C10.5343 20.1318 10.2222 20.8855 10.2222 21.6713V42.412C10.2222 43.1979 10.5343 43.9515 11.09 44.5072C11.6457 45.0628 12.3993 45.375 13.1851 45.375H42.8148C43.6006 45.375 44.3542 45.0628 44.9099 44.5072C45.4656 43.9515 45.7777 43.1979 45.7777 42.412V21.6713C45.7777 20.8855 45.4656 20.1318 44.9099 19.5762C44.3542 19.0205 43.6006 18.7083 42.8148 18.7083ZM22.074 14.2639C22.074 12.6922 22.6984 11.185 23.8097 10.0736C24.921 8.9623 26.4283 8.33796 27.9999 8.33796C29.5716 8.33796 31.0789 8.9623 32.1902 10.0736C33.3015 11.185 33.9259 12.6922 33.9259 14.2639V18.7083H22.074V14.2639ZM42.8148 42.412H13.1851V21.6713H42.8148V42.412ZM30.2222 32.0417C30.2222 32.4812 30.0918 32.9108 29.8477 33.2763C29.6035 33.6417 29.2564 33.9265 28.8504 34.0947C28.4443 34.2629 27.9975 34.3069 27.5664 34.2212C27.1353 34.1354 26.7394 33.9238 26.4286 33.613C26.1178 33.3022 25.9062 32.9063 25.8204 32.4752C25.7347 32.0441 25.7787 31.5973 25.9469 31.1913C26.1151 30.7852 26.3999 30.4381 26.7653 30.194C27.1308 29.9498 27.5604 29.8194 27.9999 29.8194C28.5893 29.8194 29.1545 30.0536 29.5713 30.4703C29.988 30.8871 30.2222 31.4523 30.2222 32.0417Z" fill="#E1FF01"/>
</g>
</svg>
