<svg width="24" height="25" viewBox="0 0 24 25" fill="none" xmlns="http://www.w3.org/2000/svg">
<path d="M18.2222 8.05556H17.3333V7.16667C17.3333 6.45942 17.0524 5.78115 16.5523 5.28105C16.0522 4.78095 15.3739 4.5 14.6666 4.5H5.77775C5.07051 4.5 4.39223 4.78095 3.89213 5.28105C3.39204 5.78115 3.11108 6.45942 3.11108 7.16667V17.8333C3.11108 18.5406 3.39204 19.2189 3.89213 19.719C4.39223 20.219 5.07051 20.5 5.77775 20.5H18.2222C18.9294 20.5 19.6077 20.219 20.1078 19.719C20.6079 19.2189 20.8889 18.5406 20.8889 17.8333V10.7222C20.8889 10.015 20.6079 9.3367 20.1078 8.8366C19.6077 8.33651 18.9294 8.05556 18.2222 8.05556ZM5.77775 6.27778H14.6666C14.9024 6.27778 15.1285 6.37143 15.2952 6.53813C15.4619 6.70483 15.5555 6.93092 15.5555 7.16667V8.05556H5.77775C5.542 8.05556 5.31591 7.9619 5.14921 7.79521C4.98251 7.62851 4.88886 7.40241 4.88886 7.16667C4.88886 6.93092 4.98251 6.70483 5.14921 6.53813C5.31591 6.37143 5.542 6.27778 5.77775 6.27778ZM19.1111 15.1667H18.2222C17.9864 15.1667 17.7604 15.073 17.5937 14.9063C17.427 14.7396 17.3333 14.5135 17.3333 14.2778C17.3333 14.042 17.427 13.8159 17.5937 13.6492C17.7604 13.4825 17.9864 13.3889 18.2222 13.3889H19.1111V15.1667ZM19.1111 11.6111H18.2222C17.515 11.6111 16.8367 11.8921 16.3366 12.3922C15.8365 12.8923 15.5555 13.5705 15.5555 14.2778C15.5555 14.985 15.8365 15.6633 16.3366 16.1634C16.8367 16.6635 17.515 16.9444 18.2222 16.9444H19.1111V17.8333C19.1111 18.0691 19.0174 18.2952 18.8507 18.4619C18.684 18.6286 18.4579 18.7222 18.2222 18.7222H5.77775C5.542 18.7222 5.31591 18.6286 5.14921 18.4619C4.98251 18.2952 4.88886 18.0691 4.88886 17.8333V9.68222C5.17443 9.78268 5.47503 9.83378 5.77775 9.83333H18.2222C18.4579 9.83333 18.684 9.92698 18.8507 10.0937C19.0174 10.2604 19.1111 10.4865 19.1111 10.7222V11.6111Z" fill="#E1FF01"/>
</svg>
