<svg xmlns="http://www.w3.org/2000/svg" width="33.084" height="19.812" viewBox="0 0 33.084 19.812"><defs><style>.a{fill:#066be9;}</style></defs><path class="a" d="M36.643,19.812H26.882a9.9,9.9,0,0,1-7-16.9,9.836,9.836,0,0,1,7-2.909h9.761a9.9,9.9,0,0,1,7,16.9,9.836,9.836,0,0,1-7,2.909M26.882,1.933a7.973,7.973,0,0,0,0,15.946h9.761a7.973,7.973,0,1,0,0-15.946Z" transform="translate(-15.199)"/><path class="a" d="M3.408,72.354c0,1.425-.763,2.58-1.7,2.58S0,73.779,0,72.354s.763-2.58,1.7-2.58,1.7,1.155,1.7,2.58" transform="translate(0 -62.471)"/><path class="a" d="M286.94,72.354c0,1.425-.763,2.58-1.7,2.58s-1.7-1.155-1.7-2.58.763-2.58,1.7-2.58,1.7,1.155,1.7,2.58" transform="translate(-253.856 -62.471)"/><path class="a" d="M117.542,117.051h-.913a1.516,1.516,0,0,1-1.516-1.516v-.913a1.516,1.516,0,0,1,1.516-1.516h.913a1.516,1.516,0,0,1,1.516,1.516v.913a1.516,1.516,0,0,1-1.516,1.516" transform="translate(-103.064 -101.267)"/><path class="a" d="M166.594,117.051h-.913a1.516,1.516,0,0,1-1.516-1.516v-.913a1.516,1.516,0,0,1,1.516-1.516h.913a1.516,1.516,0,0,1,1.516,1.516v.913a1.516,1.516,0,0,1-1.516,1.516" transform="translate(-146.982 -101.267)"/></svg>