<svg xmlns="http://www.w3.org/2000/svg" width="23.351" height="23.336" viewBox="0 0 23.351 23.336"><defs><style>.a{fill:#d24625;}.b{fill:#fff;}</style></defs><path class="a" d="M12.2,0h1.585V2.172c2.831.015,5.662-.031,8.509.015a.927.927,0,0,1,1.029,1.029c.044,5.348,0,10.7.026,16.047a3.237,3.237,0,0,1-.257,1.642,2.2,2.2,0,0,1-1.341.257h-7.96v2.172H12.13C8.092,22.592,4.046,21.9,0,21.174v-19C4.066,1.449,8.135.741,12.2,0Z"/><path class="b" d="M604.737,130.949v17.375h8.751V130.949Zm4.259,3.3a.692.692,0,0,0,.4.1.772.772,0,0,0,.383-.082.257.257,0,0,0,.142-.219.319.319,0,0,0-.206-.278c-.044-.021-.185-.069-.43-.144a3.823,3.823,0,0,1-.515-.185.486.486,0,0,1-.257-.445.515.515,0,0,1,.257-.458,1.181,1.181,0,0,1,1.194,0,.7.7,0,0,1,.257.533h-.347a.484.484,0,0,0-.17-.293.6.6,0,0,0-.365-.09.659.659,0,0,0-.317.059.237.237,0,0,0-.136.229.257.257,0,0,0,.154.224,2.807,2.807,0,0,0,.376.136,3.528,3.528,0,0,1,.579.216.533.533,0,0,1,.286.476.551.551,0,0,1-.232.468,1.354,1.354,0,0,1-1.287.013.754.754,0,0,1-.314-.625h.36a.515.515,0,0,0,.185.368Zm-2.767-.728a1.23,1.23,0,0,1,.257-.8.965.965,0,0,1,.806-.35,1,1,0,0,1,.641.2.811.811,0,0,1,.278.533h-.353a.515.515,0,0,0-.206-.319.664.664,0,0,0-.381-.1.6.6,0,0,0-.515.237.957.957,0,0,0-.162.592.978.978,0,0,0,.16.6.723.723,0,0,0,.919.111.672.672,0,0,0,.221-.376h.353a.973.973,0,0,1-.345.6.944.944,0,0,1-.613.2.988.988,0,0,1-.821-.345A1.248,1.248,0,0,1,606.23,133.523Zm5.382,1.1h-.435l-.772-2.2h.391l.6,1.8.6-1.8h.391Z" transform="translate(-590.95 -127.964)"/><path class="a" d="M645.489,365.98h6.895v2.515h-6.895Zm0,3.755h6.895v2.514h-6.895Zm0,3.755h6.895V376h-6.895Z" transform="translate(-630.773 -357.636)"/><path class="b" d="M115.262,349.512l-.075.288a2.126,2.126,0,0,1-.677,1.179,1.935,1.935,0,0,1-1.192.345,1.975,1.975,0,0,1-1.663-.679,4.062,4.062,0,0,1,.013-3.935,1.914,1.914,0,0,1,1.614-.718,2.059,2.059,0,0,1,1.186.3,1.544,1.544,0,0,1,.6.947l.077.286h2.059l-.069-.443a3.377,3.377,0,0,0-1.21-2.2,4.02,4.02,0,0,0-2.623-.834,3.943,3.943,0,0,0-3.271,1.431,5.728,5.728,0,0,0-.039,6.367,4,4,0,0,0,3.346,1.423,3.9,3.9,0,0,0,2.486-.834,3.992,3.992,0,0,0,1.413-2.463l.088-.458Z" transform="translate(-106.563 -336.198)"/></svg>