<svg xmlns="http://www.w3.org/2000/svg" width="23.351" height="24.144" viewBox="0 0 23.351 24.144"><defs><style>.a{fill:#e8e8e8;}.b{fill:#b2b2b2;}.c{fill:#0d47a1;}.d{fill:#fff;}</style></defs><g transform="translate(0 0)"><path class="a" d="M508.956,197.778H498.4a.741.741,0,0,1-.741-.741V181.989a.741.741,0,0,1,.741-.741h10.552a.741.741,0,0,1,.741.741v15.048A.741.741,0,0,1,508.956,197.778Z" transform="translate(-486.346 -177.415)"/><path class="b" d="M505.942,303.562H498.4a.741.741,0,0,1,0-1.482h7.537a.741.741,0,0,1,.741.741A.758.758,0,0,1,505.942,303.562Zm0,3.015H498.4a.741.741,0,0,1,0-1.482h7.537a.741.741,0,0,1,0,1.482Zm0,2.989H498.4a.741.741,0,0,1,0-1.482h7.537a.741.741,0,0,1,0,1.482Zm0,3.015H498.4a.741.741,0,0,1,0-1.482h7.537a.741.741,0,0,1,0,1.482Z" transform="translate(-486.346 -295.233)"/><path class="c" d="M58.084,51.792,44.032,49.109V30.331l14.052-2.683Z" transform="translate(-44.032 -27.648)"/><path class="d" d="M127.983,336.877H126.2l-1.175-5.9a4.624,4.624,0,0,1-.1-1.022h-.026a7.886,7.886,0,0,1-.128,1.022l-1.226,5.9h-1.865l-1.865-9.2h1.763l1,6.132a8.5,8.5,0,0,1,.1,1.048h.026a5.709,5.709,0,0,1,.153-1.073l1.277-6.106h1.712l1.175,6.183a7.074,7.074,0,0,1,.1,1h.026c.026-.332.051-.664.1-1.022l1-6.132h1.61Z" transform="translate(-117.917 -320.194)"/></g></svg>