<svg width="321" height="320" viewBox="0 0 321 320" fill="none" xmlns="http://www.w3.org/2000/svg">
<path d="M263.762 78.9905C264.413 78.8525 265.009 78.5239 265.474 78.0465C265.419 78.3115 265.35 78.5733 265.266 78.8305C265.138 79.2625 265.618 79.3905 265.778 79.1185C266.344 78.2785 266.567 77.2538 266.402 76.2545C266.393 76.1601 266.358 76.07 266.3 75.995C266.242 75.92 266.164 75.8631 266.075 75.8311C265.986 75.7991 265.889 75.7934 265.797 75.8145C265.704 75.8357 265.62 75.8829 265.554 75.9505C264.882 76.7665 264.754 77.9185 263.618 78.2705C263.528 78.295 263.45 78.3528 263.401 78.4321C263.352 78.5114 263.335 78.6063 263.354 78.6977C263.372 78.7891 263.424 78.8702 263.5 78.9245C263.576 78.9789 263.669 79.0025 263.762 78.9905ZM260.61 73.5985C260.699 73.6559 260.802 73.6882 260.908 73.692C261.014 73.6959 261.119 73.6712 261.212 73.6205C261.306 73.5698 261.384 73.495 261.438 73.4038C261.492 73.3127 261.521 73.2086 261.522 73.1025C261.522 72.9745 261.522 72.8305 260.754 71.6785C260.594 71.4385 260.402 70.9905 259.986 71.2145C259.57 71.4385 259.858 71.8545 260.082 72.4145C260.53 73.5985 260.53 73.5985 260.61 73.5985ZM260.354 70.6705C261.138 70.6705 261.682 70.6705 261.778 71.3265C261.79 71.4241 261.841 71.5126 261.919 71.5727C261.997 71.6327 262.096 71.6592 262.194 71.6465C262.291 71.6338 262.38 71.5828 262.44 71.5048C262.5 71.4268 262.526 71.3281 262.514 71.2305C262.387 70.7121 262.082 70.2549 261.652 69.9389C261.222 69.6229 260.694 69.4684 260.162 69.5025C260.035 69.5551 259.93 69.6489 259.864 69.7687C259.797 69.8885 259.773 70.0273 259.795 70.1625C259.817 70.2978 259.885 70.4215 259.986 70.5137C260.087 70.6059 260.217 70.6612 260.354 70.6705ZM64.6576 119.438C60.1697 121.609 55.2308 122.685 50.2466 122.576C45.2623 122.468 40.3749 121.179 35.9856 118.815C35.905 118.766 35.8083 118.751 35.7168 118.773C35.6253 118.796 35.5464 118.854 35.4976 118.934C35.4488 119.015 35.4341 119.112 35.4566 119.203C35.4791 119.295 35.537 119.374 35.6176 119.422C44.3856 125.134 57.2656 125.455 64.8976 119.855C64.9528 119.823 64.9931 119.77 65.0096 119.709C65.0261 119.647 65.0175 119.582 64.9856 119.527C64.9538 119.471 64.9014 119.431 64.8399 119.415C64.7784 119.398 64.7128 119.407 64.6576 119.438ZM63.4736 71.9985C64.3856 72.3665 65.8896 71.9985 65.4896 71.1505C65.2226 70.5035 65.0346 69.8266 64.9296 69.1345C64.9296 69.0369 64.8909 68.9433 64.8219 68.8743C64.7528 68.8053 64.6592 68.7665 64.5616 68.7665C64.464 68.7665 64.3704 68.8053 64.3014 68.8743C64.2324 68.9433 64.1936 69.0369 64.1936 69.1345C64.184 69.8115 64.2484 70.4875 64.3856 71.1505C64.1674 71.2747 63.9149 71.3251 63.6656 71.2945C63.6194 71.2819 63.5712 71.2785 63.5236 71.2846C63.4761 71.2906 63.4302 71.3059 63.3886 71.3297C63.347 71.3535 63.3105 71.3852 63.2812 71.4231C63.2518 71.461 63.2302 71.5043 63.2176 71.5505C63.205 71.5967 63.2017 71.645 63.2077 71.6925C63.2137 71.74 63.2291 71.7859 63.2529 71.8275C63.2766 71.8691 63.3084 71.9056 63.3462 71.935C63.3841 71.9643 63.4274 71.9859 63.4736 71.9985ZM61.6336 68.4945C61.8814 67.9189 62.0847 67.3252 62.2416 66.7185C62.2559 66.6628 62.259 66.6048 62.2505 66.5479C62.2421 66.491 62.2224 66.4364 62.1926 66.3872C62.1628 66.338 62.1235 66.2953 62.077 66.2615C62.0304 66.2278 61.9776 66.2036 61.9216 66.1905C61.4416 66.0465 61.3616 66.5585 61.1216 67.1825C60.9838 67.4929 60.8715 67.8139 60.7856 68.1425C60.7851 68.241 60.8139 68.3374 60.8684 68.4194C60.9229 68.5014 61.0005 68.5654 61.0915 68.6032C61.1824 68.6409 61.2825 68.6507 61.3791 68.6314C61.4757 68.612 61.5643 68.5644 61.6336 68.4945ZM66.9616 69.9985C67.0527 70.0385 67.154 70.0492 67.2515 70.0292C67.3489 70.0091 67.4378 69.9592 67.5056 69.8865C67.751 69.31 67.9542 68.7164 68.1136 68.1105C68.1305 68.0559 68.1359 67.9983 68.1295 67.9415C68.1232 67.8847 68.1052 67.8298 68.0766 67.7803C68.0481 67.7307 68.0097 67.6876 67.9637 67.6536C67.9178 67.6195 67.8653 67.5954 67.8096 67.5825C67.3136 67.4385 67.2176 68.0145 67.0096 68.5585C66.8016 69.1025 66.4016 69.7745 66.9616 69.9985ZM59.2816 73.2785C59.856 73.5661 60.5139 73.6398 61.1376 73.4865C61.5376 73.3105 61.2656 72.7025 60.8816 72.8305C60.4589 72.8015 60.0535 72.6516 59.7136 72.3985C59.4971 72.2565 59.3108 72.0732 59.1653 71.859C59.0198 71.6448 58.9179 71.4041 58.8656 71.1505C58.7536 70.4785 57.6976 70.7345 57.8576 71.4065C57.9353 71.8069 58.1042 72.1841 58.3511 72.5087C58.5981 72.8334 58.9165 73.0968 59.2816 73.2785ZM163.746 207.662C164.534 211.84 165.068 216.061 165.346 220.303C165.346 220.451 165.405 220.593 165.51 220.698C165.615 220.803 165.757 220.862 165.906 220.862C166.054 220.862 166.197 220.803 166.302 220.698C166.407 220.593 166.466 220.451 166.466 220.303C166.152 215.99 165.494 211.71 164.498 207.503C164.457 207.426 164.392 207.365 164.313 207.328C164.235 207.291 164.146 207.281 164.061 207.299C163.976 207.317 163.9 207.363 163.843 207.428C163.786 207.494 163.752 207.576 163.746 207.662ZM166.786 254.511C166.786 254.4 166.742 254.294 166.664 254.216C166.586 254.138 166.48 254.094 166.37 254.094C166.259 254.094 166.153 254.138 166.075 254.216C165.997 254.294 165.954 254.4 165.954 254.511C165.794 265.471 165.602 291.662 165.698 294.51C165.72 294.637 165.785 294.751 165.883 294.834C165.981 294.916 166.105 294.962 166.234 294.962C166.362 294.962 166.486 294.916 166.584 294.834C166.682 294.751 166.748 294.637 166.77 294.51C166.994 289.342 166.786 257.071 166.786 254.511ZM209.73 144.463C209.747 144.507 209.778 144.545 209.818 144.571C209.858 144.597 209.906 144.61 209.954 144.606C214.178 142.425 217.981 139.51 221.186 135.998C221.231 135.951 221.256 135.888 221.256 135.822C221.256 135.757 221.231 135.694 221.186 135.646C217.522 133.054 207.17 128.751 207.154 129.967C207.072 134.919 207.947 139.841 209.73 144.463ZM91.9376 167.679C93.234 167.732 94.5145 167.378 95.5993 166.666C96.6841 165.955 97.5186 164.921 97.9856 163.71C98.4176 162.35 98.2576 162.111 96.9456 154.191C97.9023 154.958 98.907 155.663 99.9536 156.303C100.283 156.429 100.648 156.43 100.977 156.303C101.306 156.176 101.577 155.932 101.736 155.617C101.896 155.302 101.933 154.939 101.84 154.599C101.747 154.259 101.531 153.965 101.234 153.774C98.5571 152.382 96.5013 150.035 95.4736 147.198C95.3296 146.702 93.4576 146.542 92.7536 147.742C92.7536 147.886 95.2016 161.486 95.2336 161.63C95.3379 162.04 95.3379 162.469 95.2336 162.879C94.9959 163.392 94.6322 163.838 94.1762 164.173C93.7203 164.509 93.1869 164.724 92.6256 164.799C92.1782 164.887 91.7176 164.886 91.2707 164.794C90.8238 164.703 90.3995 164.524 90.0225 164.267C89.6455 164.01 89.3233 163.681 89.0747 163.299C88.826 162.917 88.6559 162.489 88.5742 162.04C88.4926 161.591 88.5009 161.131 88.5989 160.685C88.6968 160.24 88.8823 159.818 89.1447 159.445C89.4071 159.072 89.741 158.755 90.1271 158.512C90.5132 158.269 90.9437 158.105 91.3936 158.03C91.7692 157.965 92.1032 157.752 92.3223 157.44C92.5413 157.128 92.6274 156.742 92.5616 156.367C92.4959 155.991 92.2836 155.657 91.9715 155.438C91.6595 155.219 91.2732 155.133 90.8976 155.199C89.7876 155.384 88.746 155.859 87.878 156.575C87.01 157.291 86.3462 158.224 85.9536 159.278C85.5933 160.232 85.4733 161.26 85.6043 162.271C85.7352 163.282 86.1131 164.245 86.7046 165.075C87.2961 165.905 88.0829 166.577 88.9956 167.031C89.9082 167.485 90.9187 167.708 91.9376 167.679Z" fill="white"/>
<path d="M172.557 247.3C172.857 247.6 173.026 248.007 173.026 248.431C173.026 248.855 172.857 249.262 172.557 249.562C172.257 249.862 171.85 250.031 171.426 250.031C171.002 250.031 170.595 249.862 170.295 249.562C169.994 249.262 169.826 248.855 169.826 248.431C169.826 248.007 169.994 247.6 170.295 247.3C170.595 247 171.002 246.831 171.426 246.831C171.85 246.831 172.257 247 172.557 247.3Z" fill="#E1FF01"/>
<path d="M173.743 264.105C173.502 264.186 173.247 264.215 172.994 264.191C172.741 264.215 172.486 264.186 172.245 264.105C172.004 264.025 171.783 263.895 171.595 263.724C171.408 263.553 171.258 263.345 171.155 263.112C171.052 262.88 170.999 262.629 170.999 262.375C170.999 262.121 171.052 261.87 171.155 261.638C171.258 261.406 171.408 261.197 171.595 261.026C171.783 260.855 172.004 260.726 172.245 260.645C172.486 260.565 172.741 260.535 172.994 260.559C173.247 260.535 173.502 260.565 173.743 260.645C173.983 260.726 174.205 260.855 174.393 261.026C174.58 261.197 174.73 261.406 174.833 261.638C174.936 261.87 174.989 262.121 174.989 262.375C174.989 262.629 174.936 262.88 174.833 263.112C174.73 263.345 174.58 263.553 174.393 263.724C174.205 263.895 173.983 264.025 173.743 264.105Z" fill="#E1FF01"/>
<path d="M172.323 277.719C172.618 277.395 173.022 277.193 173.458 277.151C173.894 277.193 174.298 277.395 174.593 277.719C174.887 278.043 175.05 278.465 175.05 278.903C175.05 279.341 174.887 279.763 174.593 280.087C174.298 280.411 173.894 280.613 173.458 280.655C173.022 280.613 172.618 280.411 172.323 280.087C172.029 279.763 171.866 279.341 171.866 278.903C171.866 278.465 172.029 278.043 172.323 277.719Z" fill="#E1FF01"/>
<path d="M109.666 156.589C109.498 153.356 108.366 150.248 106.415 147.664C104.465 145.08 101.785 143.14 98.7218 142.093C84.9138 137.421 72.2098 153.597 80.3858 165.869C82.3146 168.742 85.123 170.913 88.3896 172.055C91.6563 173.197 95.2051 173.249 98.5039 172.203C101.803 171.158 104.674 169.071 106.686 166.256C108.699 163.441 109.744 160.049 109.666 156.589ZM84.0658 146.349C93.8738 137.325 108.274 144.749 108.658 156.605C108.622 159.625 107.75 162.576 106.141 165.132C104.531 167.688 102.246 169.748 99.5378 171.085C90.6098 174.973 79.8258 168.269 79.0738 158.829C78.8763 156.508 79.2201 154.173 80.078 152.008C80.9358 149.842 82.2845 147.905 84.0178 146.349H84.0658ZM198.786 144.157C200.176 146.285 202.056 148.047 204.269 149.295C206.483 150.544 208.964 151.242 211.503 151.332C214.043 151.421 216.567 150.899 218.862 149.809C221.157 148.719 223.157 147.093 224.693 145.068C226.229 143.044 227.256 140.68 227.687 138.175C228.118 135.671 227.941 133.1 227.17 130.678C226.4 128.257 225.059 126.056 223.26 124.261C221.461 122.466 219.257 121.13 216.834 120.365C202.466 115.917 190.914 132.653 198.786 144.157ZM202.466 124.653C212.466 115.437 226.674 123.421 227.042 134.909C227.01 137.922 226.147 140.868 224.55 143.422C222.952 145.977 220.681 148.042 217.986 149.389C209.074 153.277 198.274 146.589 197.506 137.133C197.312 134.807 197.664 132.467 198.534 130.301C199.403 128.134 200.766 126.201 202.514 124.653H202.466ZM100.114 68.4131C88.2898 43.4531 57.9858 32.8131 33.5378 49.4531C1.85779 71.1011 9.34579 116.797 44.9618 129.085C79.7458 141.437 117.714 105.597 100.114 68.4131ZM77.8258 125.853C74.9223 127.275 71.8611 128.349 68.7058 129.053C68.9138 127.069 69.1698 121.949 69.2658 119.549C70.7698 121.949 73.4898 124.349 76.8658 123.869C79.8098 123.405 82.4178 120.669 84.8658 115.869C87.2625 110.624 88.6105 104.96 88.8338 99.1971C89.0945 98.5301 89.2614 97.8301 89.3298 97.1171C90.1429 95.2437 91.0893 93.4311 92.1618 91.6931C92.7378 91.1911 93.2388 90.6092 93.6498 89.9651C94.0969 88.7248 94.1965 87.3859 93.9378 86.0931C93.8876 84.7966 93.4093 83.5531 92.5778 82.5571C93.2338 81.2291 95.0578 75.1651 95.3618 73.9811C95.3879 73.8542 95.3665 73.7222 95.3016 73.6101C95.2367 73.498 95.1328 73.4136 95.0098 73.3731C91.8021 72.884 88.5574 72.6806 85.3138 72.7651C85.2018 72.5571 79.4418 89.0051 78.9138 90.3651C78.8894 90.4397 78.8805 90.5184 78.8876 90.5965C78.8947 90.6746 78.9177 90.7504 78.9551 90.8194C78.9926 90.8883 79.0437 90.9488 79.1054 90.9972C79.167 91.0457 79.238 91.081 79.3138 91.1011C80.9039 91.3478 82.5063 91.508 84.1138 91.5811C84.1138 92.2691 83.8098 94.1731 83.6978 94.7811C83.2416 95.3604 82.8699 96.0014 82.5938 96.6851C80.6073 98.4129 79.209 100.717 78.5938 103.277C75.7618 90.8451 73.7938 85.5011 62.5938 79.2771C62.0338 78.9731 61.3618 78.7491 60.7538 78.3491C68.4978 80.2051 69.3618 81.0851 69.6498 80.7011C78.4178 68.3491 74.3378 54.2211 65.3458 48.5411C56.9298 42.4611 48.6258 48.2051 45.6018 57.8211C43.3618 65.3891 47.2018 72.0131 49.1858 74.7651C47.3618 74.9411 46.7378 75.1491 45.2818 75.3091C32.9618 76.6371 22.9778 91.4051 18.4018 102.941C4.75379 71.6291 34.4818 35.9811 69.0418 44.2371C108.546 55.0691 115.73 107.517 77.8258 125.853ZM28.8818 117.853C30.0978 115.965 33.1378 110.717 33.8418 109.485C42.7378 116.333 59.4418 117.229 68.2098 111.389C68.2098 111.661 67.8098 127.085 67.8098 129.277C60.8797 130.545 53.7489 130.173 46.9889 128.189C40.2288 126.205 34.0274 122.665 28.8818 117.853ZM79.0738 106.845C79.0449 106.346 78.9861 105.849 78.8978 105.357C79.0418 104.909 79.1378 104.509 79.2818 103.981C80.3218 105.709 83.7618 108.781 85.1858 108.957C85.2575 108.963 85.3289 108.944 85.3887 108.904C85.4485 108.864 85.493 108.805 85.5152 108.737C85.5374 108.668 85.5359 108.595 85.5109 108.527C85.486 108.46 85.4391 108.403 85.3778 108.365C83.009 106.893 81.1061 104.779 79.8898 102.269C80.2583 101.265 80.7998 100.334 81.4898 99.5171C82.7439 101.486 84.5077 103.078 86.5938 104.125C86.6306 104.135 86.6688 104.137 86.7064 104.131C86.744 104.126 86.7802 104.113 86.8129 104.094C86.8456 104.075 86.8741 104.049 86.8969 104.019C86.9197 103.988 86.9363 103.954 86.9458 103.917C86.9552 103.88 86.9574 103.842 86.952 103.804C86.9467 103.767 86.934 103.731 86.9147 103.698C86.8954 103.665 86.8698 103.637 86.8395 103.614C86.8091 103.591 86.7746 103.575 86.7378 103.565C84.8665 102.279 83.3259 100.568 82.2418 98.5731C82.4498 98.3171 82.6738 98.0611 82.8978 97.8211C84.1829 99.0859 85.8958 99.8224 87.6978 99.8851C87.4148 104.681 86.4282 109.409 84.7698 113.917C83.4586 117.087 81.4066 119.896 78.7858 122.109C80.9907 117.829 81.4937 112.873 80.1938 108.237C80.1617 108.127 80.0939 108.032 80.0012 107.965C79.9084 107.898 79.796 107.865 79.6818 107.869C78.3218 107.869 80.2258 113.437 70.6418 119.597C70.1467 118.888 69.7029 118.145 69.3138 117.373C69.4098 111.933 69.1858 106.509 68.9618 101.261C68.9618 101.164 68.923 101.07 68.854 101.001C68.785 100.932 68.6914 100.893 68.5938 100.893C68.4962 100.893 68.4026 100.932 68.3336 101.001C68.2646 101.07 68.2258 101.164 68.2258 101.261C68.3218 104.045 68.2258 106.797 68.2258 110.093C62.8498 113.469 56.6898 114.637 48.8178 113.757C43.5813 113.481 38.5361 111.698 34.2898 108.621C34.8498 107.597 37.1858 103.117 37.8418 101.917C37.8734 101.862 37.8898 101.8 37.8891 101.737C37.8885 101.674 37.8709 101.612 37.8382 101.558C37.8055 101.504 37.7588 101.46 37.7032 101.43C37.6475 101.401 37.5848 101.386 37.5218 101.389C37.1378 101.389 37.5218 101.293 34.3218 106.781C29.2746 104.804 25.1986 100.935 22.9618 95.9971C25.5515 91.0534 28.9474 86.576 33.0098 82.7491C35.0965 85.6462 37.7443 88.0943 40.7958 89.948C43.8473 91.8016 47.2403 93.0229 50.7731 93.5393C54.306 94.0557 57.9066 93.8567 61.361 92.9541C64.8154 92.0515 68.0531 90.4637 70.8818 88.2851C70.936 88.2273 70.9681 88.1521 70.9722 88.0729C70.9764 87.9937 70.9524 87.9156 70.9045 87.8524C70.8566 87.7892 70.7879 87.7449 70.7106 87.7275C70.6332 87.7101 70.5522 87.7206 70.4818 87.7571C68.1598 89.3527 65.6365 90.6332 62.9778 91.5651C57.7332 93.2263 52.0985 93.1929 46.874 91.4696C41.6495 89.7463 37.1007 86.4207 33.8738 81.9651C35.4061 80.7217 37.0693 79.6487 38.8338 78.7651C44.8978 92.4131 59.8578 93.3891 67.0898 83.5651C70.8338 86.4771 71.9858 86.8451 74.9778 94.0771C68.1138 100.061 61.8578 103.037 55.8738 102.973C50.9013 103.008 45.9859 101.913 41.4985 99.7701C37.0111 97.6276 33.0691 94.4937 29.9698 90.6051C29.7138 90.2531 29.1378 90.6051 29.3938 90.9891C34.1938 98.3011 43.2978 103.101 54.4338 104.157C61.9698 104.893 69.9698 100.589 75.3458 95.1171C76.1778 97.8691 77.1858 101.917 77.2978 102.397C76.8018 103.997 71.4418 108.973 70.5938 109.165C70.0978 109.277 70.3538 110.045 70.8018 109.853C73.3805 108.361 75.7034 106.465 77.6818 104.237C77.8578 105.069 78.1778 106.557 78.2258 106.925C78.2738 107.293 79.1058 107.357 79.0738 106.845ZM88.6738 82.7171C88.4755 82.6613 88.2666 82.6548 88.0652 82.6982C87.8638 82.7416 87.6761 82.8335 87.5184 82.966C87.3606 83.0985 87.2377 83.2675 87.1602 83.4584C87.0827 83.6493 87.053 83.8562 87.0738 84.0611C85.3618 84.4291 85.4738 85.6611 86.4658 86.4611C87.4478 87.0809 88.4626 87.647 89.5058 88.1571C89.1378 89.0371 88.8498 89.7571 88.4658 90.6051C86.8658 90.6051 81.8898 90.3011 80.1618 90.1571C80.8018 88.1571 84.1778 78.8611 86.0338 73.8371C87.6338 73.9171 92.6418 74.0451 94.2578 74.3011C93.8738 75.9011 92.2418 80.5571 91.7778 82.0131C91.5307 81.8501 91.2533 81.7389 90.9621 81.686C90.6709 81.6332 90.372 81.6398 90.0834 81.7056C89.7949 81.7714 89.5226 81.8949 89.2831 82.0688C89.0436 82.2426 88.8418 82.4632 88.6898 82.7171H88.6738ZM89.3778 91.3731C89.6498 90.5091 89.9858 89.6771 90.4338 88.5891C90.5051 88.6016 90.5785 88.5908 90.6431 88.5583C90.7077 88.5257 90.7601 88.4732 90.7924 88.4085C90.8248 88.3437 90.8354 88.2703 90.8227 88.1991C90.81 88.1278 90.7746 88.0626 90.7218 88.0131C90.3218 87.6451 86.6098 85.6771 86.7538 85.2931C86.8978 84.9091 87.8258 85.1811 88.3538 85.4851C89.3951 85.914 90.4642 86.2721 91.5538 86.5571C91.6238 86.5647 91.6943 86.549 91.7544 86.5125C91.8146 86.4759 91.861 86.4206 91.8865 86.355C91.9121 86.2894 91.9152 86.2172 91.8956 86.1496C91.8759 86.082 91.8345 86.0228 91.7778 85.9811C90.5283 85.5276 89.3097 84.9932 88.1298 84.3811C87.8898 84.1571 87.7778 83.5491 88.1298 83.5651C89.3053 83.8452 90.4004 84.3928 91.3298 85.1651C91.3666 85.1998 91.4098 85.2269 91.457 85.2448C91.5043 85.2628 91.5546 85.2713 91.6051 85.2698C91.6556 85.2683 91.7053 85.2569 91.7514 85.2362C91.7975 85.2155 91.8391 85.1859 91.8738 85.1491C91.9085 85.1123 91.9355 85.0691 91.9535 85.0219C91.9715 84.9746 91.9799 84.9243 91.9784 84.8738C91.977 84.8233 91.9655 84.7736 91.9448 84.7275C91.9241 84.6814 91.8946 84.6398 91.8578 84.6051C91.2567 84.1305 90.6201 83.7026 89.9538 83.3251C89.1538 82.8611 89.7298 82.2851 90.5298 82.3971C91.6018 82.5571 92.9778 83.9971 92.8338 86.9571C92.9671 87.7522 92.8637 88.5689 92.5366 89.3056C92.2094 90.0424 91.6729 90.6668 90.9938 91.1011C89.9627 92.7373 89.0895 94.4677 88.3858 96.2691C87.6822 96.4512 86.9413 96.429 86.2499 96.2051C85.5585 95.9813 84.9451 95.565 84.4818 95.0051C84.5938 94.4451 84.9298 92.5251 85.0258 91.8051C88.5938 91.9171 89.2178 91.9011 89.3938 91.3731H89.3778ZM79.5698 110.749C80.1207 114.832 79.4469 118.986 77.6338 122.685C76.4648 123.02 75.2206 122.983 74.0737 122.579C72.9268 122.174 71.9343 121.423 71.2338 120.429C75.1327 118.368 78.1098 114.911 79.5698 110.749ZM50.1298 76.2051C50.1583 76.2388 50.1955 76.264 50.2373 76.278C50.2792 76.2919 50.3241 76.294 50.3671 76.2841C50.4101 76.2742 50.4495 76.2526 50.481 76.2217C50.5126 76.1908 50.535 76.1519 50.5458 76.1091C52.9618 66.6051 52.8978 67.1971 52.6738 67.0691C49.9858 65.5971 50.8338 62.7331 51.9218 62.3971C52.4658 62.2211 53.1858 62.5731 53.9058 63.3731C54.376 63.8151 54.7327 64.364 54.9458 64.9731C56.5458 69.4531 65.4098 63.5491 69.2498 60.7171C69.5162 60.4956 69.8314 60.3404 70.1694 60.2642C70.5075 60.1881 70.8587 60.1932 71.1944 60.279C71.5301 60.3649 71.8407 60.5291 72.1006 60.7583C72.3605 60.9874 72.5625 61.2749 72.6898 61.5971C73.0578 62.3011 72.3858 62.8931 71.9858 62.1251C71.1538 60.7171 69.6978 61.5011 69.7298 61.8851C70.0498 65.8531 69.3138 71.4851 66.2258 74.2371C63.1378 76.9891 59.5538 75.5651 59.2338 75.8371C58.9138 76.1091 59.0898 76.3651 59.0898 76.6691C58.9467 77.0087 58.8832 77.3765 58.9041 77.7444C58.925 78.1123 59.0298 78.4706 59.2105 78.7917C59.3911 79.1129 59.6429 79.3885 59.9464 79.5974C60.25 79.8063 60.5973 79.9431 60.9618 79.9971C62.2693 80.4912 63.515 81.1355 64.6738 81.9171C58.9778 90.7171 46.5298 89.4211 41.7618 77.5651C44.4272 76.6551 47.2054 76.1167 50.0178 75.9651L50.1298 76.2051ZM22.4338 97.0051C23.4675 99.4755 25.0108 101.7 26.9628 103.534C28.9147 105.367 31.2315 106.768 33.7618 107.645C33.5698 107.949 29.1058 115.245 28.0498 117.037C24.1649 113.305 21.0073 108.883 18.7378 103.997C20.3218 101.149 21.1858 99.4211 22.4338 97.0211V97.0051ZM302.082 68.6531C293.074 39.8531 260.61 26.6211 235.394 41.9491C206.978 59.1971 205.282 97.5971 232.386 116.989C268.002 142.397 314.466 107.325 302.082 68.6531ZM253.442 112.301C258.738 119.325 264.05 119.869 267.602 119.053C274.226 117.549 280.034 110.109 281.73 100.941C281.753 100.833 281.733 100.72 281.673 100.627C281.612 100.534 281.518 100.468 281.41 100.445C281.302 100.422 281.189 100.442 281.096 100.502C281.003 100.562 280.937 100.657 280.914 100.765C280.161 104.68 278.518 108.369 276.114 111.549C266.706 123.805 256.914 117.821 249.41 104.253C246.971 100.363 245.602 95.8979 245.442 91.3091C249.25 89.5171 249.17 89.4211 249.618 89.8051C254.066 93.6291 262.146 102.749 263.266 103.981C263.286 104.087 263.342 104.183 263.426 104.252C263.509 104.322 263.614 104.359 263.722 104.359C263.83 104.359 263.935 104.322 264.018 104.252C264.101 104.183 264.158 104.087 264.178 103.981C265.97 96.7491 267.378 89.2451 272.706 84.0771C274.684 83.6218 276.687 83.2852 278.706 83.0691C285.794 92.0291 284.786 103.981 284.754 115.325C280.002 118.953 274.543 121.547 268.729 122.939C262.915 124.33 256.873 124.489 250.994 123.405C251.34 119.616 252.162 115.885 253.442 112.301ZM280.066 82.9251C280.93 82.9251 280.85 81.5171 280.066 81.6291C276.726 81.9077 273.447 82.6843 270.338 83.9331C269.906 84.1091 269.41 84.2051 269.57 84.6371C269.73 85.0691 270.082 84.7491 271.282 84.4451C266.578 89.4211 264.802 96.4291 263.57 102.733C262.69 101.661 260.514 99.1811 259.954 98.5411C264.882 87.6771 264.61 87.3411 267.506 85.1491C268.626 84.2531 273.186 80.9571 276.962 78.5891C278.978 77.3091 280.418 76.4131 283.778 81.0691C286.898 85.4051 286.978 85.4691 284.978 94.9891C284.377 90.6053 282.645 86.4533 279.954 82.9411L280.066 82.9251ZM244.866 73.5011C245.154 73.5011 245.298 73.7251 245.522 74.0611C250.802 82.0611 250.402 81.1491 250.402 81.3091C250.402 82.0771 251.442 83.2291 252.482 84.2051C251.634 84.5251 250.05 85.1651 249.106 85.5491C249.106 82.6051 247.026 82.6051 246.466 83.8371C245.474 82.3811 243.266 79.5011 242.818 78.9411C242.696 78.7688 242.532 78.631 242.342 78.5412C242.151 78.4515 241.94 78.4128 241.73 78.4291C240.978 77.4691 239.282 75.2291 238.626 74.2531C238.786 74.2211 244.354 73.5971 244.85 73.5011H244.866ZM255.746 88.6691C255.506 90.6211 252.45 88.4451 253.634 87.3571C253.853 87.7276 254.157 88.0401 254.522 88.2684C254.887 88.4967 255.301 88.6342 255.73 88.6691H255.746ZM255.57 87.6611C254.914 87.5491 253.586 86.0611 253.97 85.7251C254.354 85.3891 256.002 87.4051 255.97 87.6451C255.836 87.6904 255.691 87.6959 255.554 87.6611H255.57ZM259.234 97.8211C257.842 96.3491 251.522 89.8211 251.362 89.6931C251.13 89.3466 250.83 89.0504 250.481 88.8222C250.132 88.5941 249.74 88.4386 249.33 88.3651C249.12 87.8204 249.037 87.2346 249.09 86.6531L253.218 84.8931C253.602 85.2291 253.218 84.8931 253.026 85.6291C252.934 85.9725 252.974 86.3377 253.138 86.6531C251.538 87.8371 253.138 90.5891 255.25 90.3811C255.877 90.8111 256.42 91.3536 256.85 91.9811C257.323 93.6143 257.995 95.1834 258.85 96.6531C259.378 97.5971 259.346 97.4851 259.218 97.8211H259.234ZM257.874 92.1091C257.874 91.5971 259.714 89.6771 260.002 89.4371C260.859 89.6864 261.694 90.0075 262.498 90.3971C262.034 91.4531 260.546 94.8291 259.81 96.5411C259.007 95.1357 258.353 93.6503 257.858 92.1091H257.874ZM257.218 91.0851C256.909 90.6774 256.542 90.3163 256.13 90.0131C256.327 89.8001 256.475 89.5464 256.564 89.27C256.652 88.9935 256.679 88.701 256.642 88.4131C256.734 88.3519 256.811 88.2716 256.869 88.1777C256.927 88.0839 256.964 87.9786 256.978 87.8691C257.106 87.1171 256.258 86.4931 255.698 85.9651C254.041 84.6646 252.566 83.147 251.314 81.4531C252.585 82.09 253.8 82.834 254.946 83.6771C256.866 85.1011 259.33 86.4451 259.138 88.8131C258.431 89.5163 257.784 90.2762 257.202 91.0851H257.218ZM241.986 79.3891C243.612 81.226 245.104 83.1778 246.45 85.2291C246.496 85.3005 246.563 85.3565 246.641 85.3901C246.719 85.4237 246.806 85.4335 246.89 85.4181C246.974 85.4027 247.051 85.3629 247.112 85.3036C247.173 85.2444 247.216 85.1684 247.234 85.0851C247.234 84.6371 247.442 83.8371 247.858 84.0131C248.738 85.2131 247.858 87.0851 248.45 88.5731C244.162 90.4611 247.666 89.9811 245.026 86.9731C242.578 84.3971 241.618 80.2051 241.986 79.3891ZM258.482 77.7891C259.066 75.6958 259.066 73.4824 258.482 71.3891C258.244 70.4563 258.1 69.5024 258.05 68.5411C259.011 68.6437 259.982 68.6005 260.93 68.4131C263.73 67.9491 265.17 66.4451 265.858 66.9091C266.306 67.2131 266.386 68.1571 266.098 69.6611C266.091 69.7099 266.1 69.7595 266.123 69.8031C266.146 69.8467 266.181 69.8823 266.225 69.905C266.269 69.9277 266.318 69.9364 266.367 69.93C266.416 69.9236 266.462 69.9023 266.498 69.8691C267.107 69.3702 267.87 69.0987 268.658 69.1011C270.786 69.2771 270.706 72.3011 268.658 73.5971C268.614 73.6321 268.583 73.6816 268.572 73.7367C268.561 73.7919 268.569 73.8493 268.596 73.8988C268.622 73.9484 268.666 73.987 268.718 74.0079C268.77 74.0288 268.828 74.0306 268.882 74.0131C269.65 73.7492 270.474 73.6917 271.271 73.8461C272.069 74.0005 272.812 74.3616 273.426 74.8931C273.761 76.2327 274.216 77.5393 274.786 78.7971C272.562 80.3171 269.586 82.3971 267.458 84.0451C265.538 80.0131 263.154 82.8771 261.506 79.6451C259.842 76.8771 258.786 77.8371 258.402 77.7411L258.482 77.7891ZM285.298 96.9891C286.451 93.4757 287.113 89.8198 287.266 86.1251C287.039 84.3466 286.318 82.6672 285.186 81.2771C280.642 74.7171 278.786 75.8051 275.282 78.1731C274.962 77.1971 274.258 75.1651 274.13 74.6211C274.338 74.4131 274.882 73.8851 275.042 73.7731C275.634 72.9425 276.092 72.0249 276.402 71.0531C276.811 69.6956 276.979 68.2767 276.898 66.8611C276.978 65.5194 276.765 64.1762 276.274 62.9251C275.256 61.1461 273.647 59.7799 271.727 59.0638C269.806 58.3476 267.696 58.3269 265.762 59.0051C262.77 58.0131 258.914 56.9891 257.458 57.6131C256.3 57.8923 255.262 58.5353 254.497 59.4478C253.732 60.3603 253.279 61.4941 253.206 62.6828C253.132 63.8715 253.442 65.0524 254.089 66.0521C254.736 67.0518 255.687 67.8176 256.802 68.2371C256.753 69.4725 256.894 70.708 257.218 71.9011C257.76 73.5805 257.805 75.381 257.346 77.0851C257.058 78.3651 257.474 78.9411 258.946 78.6851C260.674 78.8131 259.73 81.8851 263.65 82.4611C264.594 82.6211 265.346 82.7651 266.322 84.5731C264.69 85.8777 263.463 87.6204 262.786 89.5971C261.916 89.084 260.993 88.6657 260.034 88.3491C259.928 87.5514 259.65 86.7861 259.219 86.1065C258.788 85.4269 258.214 84.8491 257.538 84.4131C256.047 83.1681 254.439 82.0697 252.738 81.1331C252.402 80.9571 251.698 80.4131 251.138 80.5251C245.57 72.0451 246.146 72.4131 244.402 72.4131C242.149 72.4995 239.91 72.7996 237.714 73.3091C237.635 73.3387 237.564 73.3858 237.506 73.4467C237.447 73.5077 237.404 73.5809 237.378 73.6611C237.282 74.0451 237.378 73.8211 239.618 77.0211C241.698 79.9331 240.946 78.5091 241.074 80.0771C241.357 83.1002 242.59 85.9563 244.594 88.2371C244.975 88.8235 245.129 89.5292 245.026 90.2211L244.818 90.3171C244.274 90.5891 244.962 96.0451 245.346 97.3251C247.104 102.354 249.635 107.077 252.85 111.325C251.275 115.107 250.308 119.113 249.986 123.197C235.698 119.997 223.49 110.285 217.986 97.6771C212.482 85.0691 213.89 70.2851 222.242 56.4771C245.362 22.5411 296.066 36.1731 302.082 75.8211C304.29 90.8771 297.698 105.165 285.858 114.541C286.019 108.693 285.795 102.84 285.186 97.0211L285.298 96.9891ZM278.994 129.469C279.133 132.036 279.579 134.576 280.322 137.037C280.373 137.19 280.482 137.316 280.626 137.388C280.77 137.46 280.937 137.472 281.09 137.421C282.306 137.069 280.514 135.389 279.986 129.421C279.938 128.797 278.946 128.829 278.994 129.469ZM283.89 148.589C283.858 148.455 283.774 148.34 283.657 148.268C283.54 148.196 283.399 148.173 283.266 148.205C283.132 148.237 283.017 148.321 282.945 148.438C282.873 148.555 282.85 148.695 282.882 148.829C284.93 159.229 284.658 160.237 285.698 160.029C286.738 159.821 286.002 158.829 283.89 148.589ZM287.65 173.325C286.77 173.565 287.938 173.693 288.722 183.405C288.722 184.285 290.162 184.237 290.066 183.405C289.663 180.121 289.026 176.871 288.162 173.677C288.157 173.618 288.139 173.56 288.109 173.509C288.08 173.457 288.039 173.413 287.99 173.379C287.941 173.345 287.885 173.323 287.826 173.314C287.767 173.304 287.707 173.308 287.65 173.325ZM247.042 146.861C248.75 141.792 250.176 136.632 251.314 131.405C251.338 131.285 251.315 131.16 251.25 131.056C251.185 130.952 251.082 130.877 250.963 130.846C250.845 130.815 250.718 130.831 250.611 130.891C250.504 130.95 250.423 131.048 250.386 131.165C249.106 136.301 247.41 141.277 245.826 146.493C245.799 146.647 245.83 146.805 245.912 146.938C245.994 147.071 246.121 147.17 246.271 147.215C246.421 147.26 246.581 147.249 246.723 147.184C246.865 147.119 246.979 147.004 247.042 146.861ZM240.546 167.997C241.442 167.997 241.282 166.909 243.826 157.389C243.86 157.275 243.847 157.151 243.79 157.046C243.733 156.941 243.636 156.863 243.522 156.829C243.407 156.795 243.284 156.808 243.179 156.865C243.074 156.922 242.996 157.019 242.962 157.133C242.466 158.733 240.29 165.469 239.89 167.165C239.865 167.264 239.864 167.368 239.886 167.468C239.907 167.567 239.952 167.661 240.015 167.741C240.078 167.821 240.159 167.886 240.251 167.93C240.343 167.975 240.444 167.998 240.546 167.997ZM233.282 188.797C233.842 188.797 233.81 188.381 234.274 186.525C234.898 183.997 235.874 180.125 236.258 179.037C236.498 178.397 235.522 178.109 235.282 178.717C234.203 181.851 233.353 185.06 232.738 188.317C232.75 188.451 232.813 188.576 232.914 188.665C233.015 188.755 233.147 188.802 233.282 188.797ZM228.002 202.413C226.528 205.269 225.389 208.287 224.61 211.405C224.567 211.566 224.591 211.738 224.675 211.882C224.759 212.026 224.897 212.131 225.058 212.173C225.219 212.216 225.391 212.192 225.535 212.108C225.679 212.024 225.783 211.886 225.826 211.725C228.498 202.653 229.362 202.573 228.578 202.125C228.521 202.103 228.461 202.092 228.4 202.095C228.339 202.098 228.28 202.113 228.225 202.14C228.171 202.167 228.123 202.206 228.084 202.253C228.046 202.3 228.018 202.354 228.002 202.413ZM211.282 155.901C211.442 157.149 212.018 162.301 212.21 163.725C212.221 163.813 212.25 163.898 212.295 163.976C212.339 164.053 212.398 164.12 212.469 164.175C212.539 164.229 212.62 164.269 212.706 164.292C212.792 164.315 212.882 164.321 212.97 164.309C213.058 164.298 213.143 164.269 213.22 164.224C213.297 164.18 213.365 164.121 213.419 164.05C213.473 163.979 213.513 163.899 213.536 163.813C213.559 163.727 213.565 163.637 213.554 163.549C213.346 162.173 212.45 157.005 212.258 155.773C212.162 155.197 211.202 155.309 211.282 155.901ZM213.794 178.797C213.97 179.805 214.626 184.157 214.834 185.309C214.994 186.173 216.274 185.853 216.114 185.005C215.73 182.877 215.218 180.733 214.818 178.605C214.69 177.885 213.682 178.141 213.794 178.797ZM216.386 201.053C216.457 203.739 216.746 206.414 217.25 209.053C217.442 209.933 218.754 209.581 218.594 208.717C218.047 206.175 217.63 203.606 217.346 201.021C217.202 200.429 216.274 200.413 216.386 201.053ZM174.786 67.9011C174.482 67.3251 173.634 67.8051 173.906 68.3811C179.106 79.0531 178.706 79.1491 179.458 79.1491C179.582 79.148 179.704 79.1155 179.812 79.0547C179.92 78.994 180.011 78.9069 180.076 78.8015C180.142 78.6962 180.179 78.576 180.186 78.4521C180.193 78.3283 180.168 78.2048 180.114 78.0931C178.354 74.6531 176.498 71.3091 174.786 67.9011ZM184.706 88.7651C184.466 88.2211 183.65 88.6531 183.89 89.1971C185.49 92.7651 186.818 96.4291 188.45 100.013C188.802 100.813 189.97 100.173 189.618 99.3891C188.034 95.7091 186.162 92.0131 184.706 88.7651ZM198.786 121.357C198.883 121.362 198.979 121.344 199.067 121.303C199.155 121.262 199.232 121.2 199.291 121.123C199.349 121.045 199.388 120.955 199.403 120.859C199.418 120.763 199.409 120.665 199.378 120.573C198.818 118.973 196.05 113.101 195.346 111.517C195.058 110.861 194.098 111.373 194.37 112.029C198.178 120.765 198.114 121.357 198.786 121.357ZM227.938 115.549C227.346 116.557 224.626 120.253 223.89 121.197C223.835 121.268 223.795 121.348 223.771 121.434C223.748 121.52 223.742 121.61 223.753 121.698C223.764 121.786 223.792 121.872 223.836 121.949C223.88 122.027 223.939 122.094 224.01 122.149C224.08 122.204 224.161 122.244 224.247 122.268C224.333 122.291 224.422 122.297 224.511 122.286C224.599 122.275 224.684 122.247 224.762 122.203C224.839 122.158 224.907 122.099 224.962 122.029C226.34 120.107 227.59 118.098 228.706 116.013C228.767 115.911 228.786 115.789 228.757 115.674C228.729 115.558 228.656 115.459 228.554 115.397C228.452 115.336 228.33 115.317 228.214 115.346C228.099 115.374 227.999 115.447 227.938 115.549ZM199.986 55.1971C200.642 55.1971 200.994 54.2051 200.306 53.9011C198.85 53.2451 192.722 51.2131 191.202 50.7011C190.578 50.4611 190.258 51.4211 190.882 51.6611C192.498 52.2371 199.458 55.1971 199.986 55.1971ZM205.538 57.5971C208.41 59.1597 211.427 60.4403 214.546 61.4211C214.725 61.452 214.909 61.4155 215.063 61.3187C215.217 61.222 215.329 61.0717 215.379 60.8969C215.428 60.7222 215.412 60.5352 215.332 60.372C215.252 60.2088 215.114 60.081 214.946 60.0131C211.884 59.1818 208.906 58.0677 206.05 56.6851C205.442 56.4131 204.93 57.3411 205.538 57.5971ZM129.17 56.6371C135.57 52.3331 137.49 53.3091 137.17 52.1731C137.151 52.1077 137.12 52.0465 137.078 51.9933C137.036 51.94 136.983 51.8957 136.924 51.8629C136.864 51.8301 136.799 51.8096 136.731 51.8024C136.663 51.7952 136.595 51.8016 136.53 51.8211C133.641 52.5808 130.892 53.7961 128.386 55.4211C127.65 55.9971 128.386 57.1491 129.17 56.6371ZM114.626 62.0291C114.13 62.4291 114.53 63.0851 115.09 63.0851C115.282 63.0851 115.314 63.0851 117.074 62.2051C118.834 61.3251 120.85 60.3811 121.602 60.1571C121.728 60.1074 121.831 60.0122 121.891 59.8903C121.951 59.7684 121.963 59.6286 121.925 59.4983C121.887 59.368 121.801 59.2567 121.685 59.1862C121.569 59.1156 121.431 59.091 121.298 59.1171C118.982 59.8632 116.747 60.8387 114.626 62.0291Z" fill="white"/>
<path d="M108.45 65.0546C107.618 65.5186 103.026 67.9346 102.53 68.2546C102.428 68.3256 102.35 68.4263 102.307 68.5429C102.264 68.6596 102.258 68.7866 102.289 68.9069C102.32 69.0273 102.388 69.1351 102.483 69.2158C102.577 69.2966 102.694 69.3464 102.818 69.3586C104.944 68.3545 107.006 67.2217 108.994 65.9666C109.084 65.8816 109.142 65.7685 109.159 65.646C109.176 65.5234 109.151 65.3988 109.087 65.2925C109.024 65.1863 108.926 65.1048 108.81 65.0616C108.695 65.0183 108.567 65.0158 108.45 65.0546ZM94.7859 39.4866C96.9333 39.501 99.0613 39.0804 101.042 38.2502C103.022 37.42 104.814 36.1973 106.309 34.6558C107.804 33.1144 108.972 31.2861 109.741 29.2812C110.51 27.2764 110.866 25.1365 110.786 22.9906C110.306 8.70255 91.7939 1.88655 82.4339 14.0466C73.9859 24.6226 82.1139 39.4866 94.7859 39.4866ZM85.1859 12.7986C94.9939 3.75855 109.394 11.1986 109.762 23.0546C109.732 26.0637 108.865 29.0051 107.257 31.5487C105.649 34.0923 103.364 36.1374 100.658 37.4546C91.7139 41.3586 80.9459 34.6546 80.1779 25.2146C79.9935 22.8985 80.3499 20.5712 81.219 18.4165C82.0881 16.2618 83.4461 14.3385 85.1859 12.7986ZM130.37 25.9346C133.202 26.2386 136.05 26.2706 138.882 26.3986C139.009 26.3986 139.131 26.348 139.221 26.258C139.311 26.1679 139.362 26.0459 139.362 25.9186C139.362 25.7913 139.311 25.6692 139.221 25.5791C139.131 25.4891 139.009 25.4386 138.882 25.4386C135.906 25.1666 134.082 24.7986 130.37 24.5586C129.522 24.5106 129.506 25.8386 130.37 25.9346ZM113.602 24.2386C114.898 24.3826 120.226 24.7506 121.602 24.9266C122.322 25.0386 122.61 23.9506 121.858 23.8226C119.15 23.3974 116.42 23.1197 113.682 22.9906C113.6 22.9853 113.518 22.9962 113.44 23.0227C113.362 23.0493 113.291 23.0908 113.229 23.145C113.167 23.1993 113.117 23.2651 113.081 23.3388C113.045 23.4125 113.023 23.4926 113.018 23.5746C113.013 23.6565 113.024 23.7387 113.05 23.8164C113.077 23.8941 113.118 23.9658 113.172 24.0275C113.227 24.0892 113.292 24.1395 113.366 24.1757C113.44 24.212 113.52 24.2333 113.602 24.2386ZM49.9859 142.623C50.4499 139.679 50.5619 136.751 50.9139 133.823C50.9939 133.279 50.0979 133.151 50.0179 133.711C49.5699 136.591 48.8819 139.487 48.5459 142.415C48.5475 142.59 48.6119 142.76 48.7276 142.892C48.8433 143.025 49.0026 143.111 49.1767 143.136C49.3507 143.162 49.528 143.124 49.6764 143.029C49.8249 142.935 49.9346 142.791 49.9859 142.623ZM48.2579 150.543C46.6579 159.327 46.2899 160.399 47.4419 160.399C48.3059 160.399 48.1459 159.823 49.2339 150.671C49.3139 150.079 48.3859 149.951 48.2579 150.543ZM77.6819 165.167C75.2499 166.447 72.2259 167.935 71.2819 168.495C71.1508 168.572 71.049 168.691 70.9927 168.833C70.9365 168.974 70.9287 169.13 70.9708 169.277C71.0129 169.423 71.1025 169.552 71.2254 169.642C71.3483 169.732 71.4976 169.779 71.6499 169.775C73.881 168.668 76.0496 167.439 78.1459 166.095C78.2437 166.02 78.3125 165.914 78.3403 165.794C78.3681 165.674 78.3532 165.548 78.2982 165.438C78.2432 165.328 78.1516 165.241 78.0391 165.191C77.9265 165.142 77.8002 165.133 77.6819 165.167ZM68.3219 170.095C66.5751 170.913 64.8715 171.821 63.2179 172.815C62.7059 173.279 63.3139 174.047 63.9219 173.759C64.5299 173.471 67.9379 171.359 68.7219 170.991C69.5059 170.623 68.9139 169.839 68.3219 170.095ZM132.754 183.423C133.33 183.791 133.874 182.911 133.314 182.527C132.098 181.727 127.474 178.303 126.194 177.631C126.028 177.551 125.839 177.534 125.662 177.584C125.485 177.635 125.333 177.748 125.234 177.903C124.578 178.927 126.786 179.503 132.754 183.423ZM110.594 168.639C111.394 169.199 112.194 169.727 113.01 170.239C118.466 173.855 118.21 173.967 118.546 173.967C118.656 173.965 118.764 173.931 118.855 173.868C118.946 173.805 119.017 173.717 119.058 173.615C119.099 173.512 119.109 173.399 119.086 173.291C119.063 173.183 119.009 173.084 118.93 173.007C116.501 171.007 113.964 169.143 111.33 167.423C110.562 166.959 109.858 168.143 110.594 168.639ZM268.146 221.663C265.522 222.031 262.818 222.303 260.146 222.911C259.982 222.961 259.841 223.069 259.749 223.215C259.657 223.36 259.621 223.534 259.646 223.704C259.671 223.874 259.756 224.029 259.886 224.142C260.016 224.255 260.182 224.318 260.354 224.319C260.978 224.319 264.962 223.247 268.354 222.719C269.186 222.655 268.866 221.535 268.146 221.663ZM254.002 224.255C251.314 224.655 248.354 224.895 245.442 225.391C244.626 225.535 244.85 226.719 245.65 226.719C246.45 226.719 252.178 225.567 254.21 225.247C254.866 225.135 254.642 224.159 254.002 224.255ZM292.818 199.439C292.818 199.439 291.97 195.567 291.746 194.447C291.718 194.321 291.642 194.212 291.534 194.143C291.426 194.074 291.295 194.051 291.17 194.079C291.045 194.106 290.936 194.182 290.867 194.29C290.798 194.398 290.774 194.529 290.802 194.655L291.554 199.215C289.012 198.893 286.431 199.115 283.982 199.866C281.532 200.617 279.27 201.88 277.346 203.571C275.421 205.263 273.879 207.344 272.819 209.676C271.76 212.009 271.209 214.541 271.202 217.103C272.162 241.215 306.77 240.735 307.25 217.103C307.282 212.937 305.858 208.892 303.222 205.666C300.587 202.44 296.906 200.237 292.818 199.439ZM296.946 224.671C294.418 231.855 284.882 230.575 284.882 221.999V216.815C284.602 216.85 284.319 216.826 284.049 216.743C283.78 216.661 283.531 216.522 283.319 216.336C283.108 216.15 282.939 215.92 282.822 215.664C282.706 215.407 282.646 215.128 282.646 214.847C282.646 214.565 282.706 214.286 282.822 214.029C282.939 213.773 283.108 213.544 283.319 213.357C283.531 213.171 283.78 213.032 284.049 212.95C284.319 212.867 284.602 212.843 284.882 212.879C284.882 211.279 284.882 209.679 284.994 207.935C285 207.676 285.057 207.421 285.162 207.185C285.267 206.949 285.417 206.735 285.604 206.557C285.791 206.379 286.012 206.239 286.253 206.146C286.494 206.053 286.751 206.008 287.01 206.015C287.533 206.031 288.029 206.254 288.389 206.635C288.748 207.016 288.943 207.523 288.93 208.047C288.93 209.727 288.93 211.327 288.834 212.847H292.21C292.468 212.84 292.725 212.886 292.966 212.98C293.206 213.074 293.425 213.216 293.61 213.396C293.795 213.577 293.942 213.792 294.042 214.03C294.142 214.269 294.194 214.524 294.194 214.783C294.198 215.042 294.151 215.3 294.055 215.542C293.959 215.783 293.816 216.003 293.635 216.189C293.453 216.375 293.237 216.523 292.998 216.625C292.759 216.727 292.502 216.781 292.242 216.783H288.786C288.786 222.623 288.626 223.599 289.426 224.591C290.562 226.031 292.29 225.551 293.186 223.343C293.362 222.844 293.729 222.436 294.206 222.208C294.683 221.98 295.231 221.95 295.73 222.127C296.229 222.303 296.637 222.67 296.865 223.147C297.093 223.624 297.122 224.172 296.946 224.671ZM164.242 16.7026C160.967 16.6856 157.721 17.3179 154.692 18.5628C151.663 19.8078 148.911 21.6407 146.594 23.9557C144.278 26.2706 142.443 29.0218 141.196 32.05C139.949 35.0783 139.315 38.3237 139.33 41.5986C139.986 74.5586 188.498 74.5746 189.138 41.5986C189.155 38.3244 188.522 35.0794 187.277 32.0512C186.032 29.0231 184.199 26.2718 181.884 23.9566C179.569 21.6414 176.817 19.8082 173.789 18.5631C170.761 17.318 167.516 16.6856 164.242 16.7026ZM171.426 29.2786C171.181 29.738 170.765 30.0828 170.268 30.2384C169.771 30.3941 169.233 30.3481 168.77 30.1106C167.945 29.6568 166.986 29.5075 166.062 29.6889C165.138 29.8702 164.307 30.3706 163.714 31.1026C161.874 33.0226 161.954 39.5506 161.954 39.9026L166.754 39.1666C167.272 39.0881 167.799 39.2184 168.221 39.529C168.642 39.8395 168.923 40.3049 169.002 40.8226C169.08 41.3403 168.95 41.8679 168.639 42.2895C168.329 42.7111 167.864 42.9921 167.346 43.0706L161.97 43.8866C161.97 47.6946 162.146 51.3746 162.274 55.0866C162.251 55.584 162.042 56.0548 161.688 56.4053C161.335 56.7558 160.862 56.9604 160.364 56.9786C159.867 56.9967 159.38 56.827 159.002 56.5032C158.624 56.1793 158.381 55.7251 158.322 55.2306C158.146 49.9826 158.018 44.6546 157.954 38.9586C157.954 35.7586 157.954 31.5826 160.802 28.4306C165.266 23.5506 173.186 25.9986 171.426 29.2786Z" fill="white"/>
<path d="M156.821 166.621C156.974 166.66 157.106 166.758 157.186 166.894C157.841 167.943 158.845 168.729 160.021 169.112C161.197 169.495 162.471 169.452 163.618 168.99C163.715 168.948 163.824 168.943 163.924 168.978C164.023 169.013 164.106 169.085 164.155 169.178C164.203 169.272 164.215 169.381 164.187 169.482C164.158 169.584 164.092 169.671 164.002 169.726C162.655 170.407 161.101 170.556 159.648 170.144C158.196 169.732 156.952 168.789 156.162 167.502C156.082 167.366 156.058 167.204 156.097 167.051C156.136 166.898 156.235 166.767 156.37 166.686C156.506 166.605 156.668 166.582 156.821 166.621Z" fill="#E1FF01"/>
<path d="M167.378 161.95C167.442 161.39 168.274 161.902 168.386 160.974C168.124 160.416 167.808 159.886 167.442 159.39C166.883 158.652 166.41 157.852 166.034 157.006C166.007 156.906 166.02 156.8 166.071 156.71C166.122 156.62 166.207 156.554 166.306 156.526C166.406 156.498 166.513 156.512 166.603 156.563C166.693 156.614 166.759 156.698 166.786 156.798C167.518 157.891 168.337 158.924 169.234 159.886C169.391 160.123 169.481 160.398 169.496 160.682C169.512 160.966 169.451 161.248 169.321 161.501C169.19 161.753 168.995 161.967 168.755 162.119C168.515 162.271 168.238 162.356 167.954 162.366C167.634 162.366 167.378 162.254 167.378 161.95Z" fill="#E1FF01"/>
<path d="M159.566 148.8C159.731 148.905 159.848 149.071 159.89 149.262C160.018 149.934 160.69 152.654 160.69 153.054C160.69 153.283 160.599 153.503 160.437 153.665C160.275 153.827 160.056 153.918 159.826 153.918C158.626 153.918 158.898 152.622 158.45 149.582C158.408 149.391 158.443 149.191 158.548 149.026C158.653 148.861 158.819 148.744 159.01 148.702C159.201 148.66 159.401 148.695 159.566 148.8Z" fill="#E1FF01"/>
<path d="M172.196 148.966C172.337 149.075 172.432 149.231 172.466 149.406C172.626 150.878 172.882 152.446 172.914 152.638C172.938 152.85 172.876 153.063 172.742 153.229C172.609 153.396 172.415 153.503 172.202 153.526C171.99 153.549 171.777 153.487 171.611 153.354C171.444 153.22 171.338 153.026 171.314 152.814C171.234 152.59 171.01 149.726 171.01 149.486C171.025 149.309 171.103 149.143 171.231 149.019C171.358 148.895 171.526 148.821 171.704 148.812C171.881 148.802 172.056 148.857 172.196 148.966Z" fill="#E1FF01"/>
<path d="M158.589 146.762C158.01 147.173 157.584 147.766 157.378 148.446C157.33 148.624 157.212 148.776 157.051 148.867C156.891 148.959 156.701 148.983 156.522 148.934C156.344 148.885 156.193 148.768 156.101 148.607C156.01 148.447 155.986 148.256 156.034 148.078C156.978 145.086 161.282 144.622 161.122 145.774C161.099 145.897 161.03 146.007 160.929 146.081C160.828 146.155 160.703 146.188 160.578 146.174C159.868 146.144 159.169 146.35 158.589 146.762Z" fill="#E1FF01"/>
<path d="M170.988 146.05C170.505 145.723 169.928 145.564 169.346 145.598C169.252 145.603 169.16 145.574 169.085 145.518C169.01 145.461 168.957 145.38 168.936 145.288C168.915 145.196 168.927 145.1 168.97 145.016C169.013 144.933 169.084 144.867 169.17 144.83C169.972 144.671 170.803 144.795 171.524 145.18C172.244 145.565 172.809 146.188 173.122 146.942C173.314 147.614 172.306 148.03 172.018 147.406C171.833 146.853 171.471 146.377 170.988 146.05Z" fill="#E1FF01"/>
<path d="M240.034 231.998C246.578 212.99 246.258 214.11 246.146 213.95C246.034 213.79 225.346 213.406 213.858 213.63C209.276 206.761 203.289 200.942 196.291 196.56C189.294 192.177 181.446 189.329 173.266 188.206C172.022 186.841 170.306 186.001 168.466 185.854L166.466 185.166C166.386 183.604 166.386 182.039 166.466 180.478C170.956 178.767 174.624 175.408 176.722 171.086C179.074 165.806 177.906 159.054 176.53 141.886C179.826 142.91 179.906 139.518 177.906 136.862C177.996 136.294 177.967 135.714 177.822 135.158C177.677 134.602 177.418 134.082 177.061 133.631C176.705 133.18 176.259 132.807 175.752 132.537C175.244 132.267 174.687 132.105 174.114 132.062C174.421 131.59 174.599 131.045 174.629 130.482C174.658 129.919 174.539 129.359 174.282 128.857C174.026 128.355 173.641 127.93 173.168 127.625C172.694 127.319 172.148 127.144 171.586 127.118C171.252 126.385 170.698 125.776 170.001 125.374C169.304 124.972 168.498 124.799 167.698 124.878C167.584 124.339 167.329 123.841 166.959 123.434C166.589 123.028 166.117 122.727 165.592 122.564C165.066 122.401 164.507 122.381 163.972 122.507C163.436 122.632 162.944 122.898 162.546 123.278C162.21 122.766 161.378 121.502 160.946 121.022C161.287 120.685 161.523 120.255 161.622 119.786C161.722 119.316 161.681 118.828 161.506 118.382C162.29 118.136 162.975 117.647 163.461 116.985C163.948 116.323 164.21 115.523 164.21 114.702C164.21 113.88 163.948 113.08 163.461 112.418C162.975 111.756 162.29 111.267 161.506 111.022C162.77 106.414 158.45 103.582 154.53 105.422C154.318 104.893 153.954 104.439 153.484 104.117C153.014 103.795 152.459 103.62 151.89 103.614C155.09 99.5816 150.53 96.7656 146.194 98.1416C145.909 97.4101 145.43 96.7702 144.808 96.2906C144.187 95.8109 143.446 95.5096 142.666 95.4192C141.887 95.3287 141.097 95.4524 140.382 95.777C139.667 96.1016 139.055 96.6149 138.61 97.2616C137.56 96.9859 136.444 97.1331 135.501 97.6717C134.559 98.2103 133.865 99.0971 133.57 100.142C132.898 99.9833 132.199 99.9758 131.524 100.12C130.849 100.264 130.214 100.555 129.666 100.974C129.299 100.341 128.715 99.8627 128.022 99.6292C127.329 99.3958 126.575 99.4227 125.9 99.7051C125.226 99.9875 124.677 100.506 124.357 101.163C124.037 101.821 123.968 102.573 124.162 103.278C123.719 103.401 123.326 103.661 123.039 104.02C122.752 104.378 122.585 104.819 122.562 105.278C122.386 105.248 122.205 105.256 122.033 105.301C121.86 105.346 121.699 105.427 121.56 105.539C121.421 105.651 121.307 105.791 121.226 105.95C121.145 106.109 121.098 106.283 121.09 106.462C120.673 106.356 120.234 106.374 119.828 106.514C119.422 106.654 119.065 106.909 118.801 107.249C118.538 107.589 118.38 107.998 118.346 108.427C118.312 108.855 118.403 109.284 118.61 109.662C118.088 109.779 117.613 110.047 117.243 110.432C116.873 110.817 116.625 111.303 116.53 111.829C116.434 112.354 116.495 112.897 116.706 113.387C116.917 113.878 117.267 114.297 117.714 114.59C115.186 115.326 113.554 117.79 114.514 120.03C111.634 121.774 110.45 125.31 112.482 127.774C112.116 128.791 112.132 129.906 112.526 130.912C112.92 131.919 113.666 132.748 114.626 133.246C114.207 133.76 113.941 134.381 113.857 135.039C113.774 135.697 113.876 136.365 114.152 136.968C114.429 137.57 114.868 138.084 115.421 138.449C115.974 138.815 116.619 139.019 117.282 139.038C117.33 139.617 117.528 140.174 117.856 140.655C118.183 141.136 118.629 141.524 119.151 141.781C119.672 142.039 120.252 142.157 120.832 142.125C121.413 142.093 121.976 141.911 122.466 141.598C122.726 142.013 123.103 142.344 123.549 142.548C123.996 142.752 124.492 142.821 124.977 142.746C125.462 142.671 125.915 142.456 126.279 142.126C126.643 141.797 126.902 141.369 127.026 140.894C127.809 141.188 128.649 141.298 129.482 141.215C130.314 141.131 131.116 140.857 131.826 140.414C131.17 144.398 128.146 144.686 129.09 148.862C128.532 149.595 128.224 150.487 128.209 151.408C128.195 152.33 128.475 153.231 129.01 153.982C128.828 154.367 128.726 154.786 128.708 155.212C128.69 155.638 128.758 156.063 128.907 156.462C129.056 156.862 129.284 157.227 129.576 157.538C129.868 157.848 130.22 158.097 130.61 158.27C130.46 158.563 130.389 158.891 130.404 159.221C130.419 159.55 130.519 159.87 130.695 160.149C130.871 160.428 131.116 160.657 131.407 160.813C131.698 160.968 132.024 161.046 132.354 161.038C132.668 162.214 133.272 163.293 134.111 164.176C134.949 165.059 135.995 165.718 137.154 166.094C137.314 186.206 138.05 183.79 136.13 186.126C134.361 187.054 132.912 188.492 131.97 190.254C103.906 199.998 92.5776 222.254 88.8656 252.126C86.7216 251.79 86.6256 251.71 86.5456 251.982C85.6819 255.344 85.3792 258.825 85.6496 262.286C85.6496 262.494 85.6496 262.478 88.2096 263.102C88.9296 275.438 95.6016 288.814 109.01 291.166C108.834 293.758 108.626 308.606 109.01 311.966C109.027 312.044 109.07 312.115 109.133 312.165C109.195 312.215 109.273 312.243 109.354 312.243C109.434 312.243 109.512 312.215 109.575 312.165C109.637 312.115 109.681 312.044 109.698 311.966C109.698 310.174 109.922 294.078 110.066 291.406C118.21 292.206 122.978 288.798 129.394 281.806C139.474 270.606 145.186 258.526 151.138 245.854C152.183 243.808 153.024 241.664 153.65 239.454C154.589 239.833 155.623 239.906 156.606 239.662C157.589 239.417 158.47 238.869 159.122 238.094C161.413 238.833 163.848 239.02 166.226 238.638C166.628 238.563 167.01 238.406 167.349 238.177C167.688 237.948 167.976 237.652 168.195 237.306C168.414 236.961 168.56 236.574 168.623 236.17C168.686 235.766 168.665 235.353 168.562 234.958C170.61 234.862 171.89 233.006 169.842 231.454C169.19 230.953 168.5 230.503 167.778 230.11C169.474 229.998 173.954 229.502 175.41 228.51C176.866 227.518 176.818 225.038 174.802 224.766C173.954 224.654 161.49 225.166 158.658 225.566C155.855 225.863 153.202 226.975 151.026 228.766C147.826 231.406 125.202 250.206 117.122 256.99C112.434 256.142 94.8656 253.134 90.1936 252.398C94.0656 220.126 107.218 200.83 131.538 191.742C130.05 197.822 137.25 204.062 139.538 205.918C143.298 209.006 149.442 212.318 154.706 210.878C158.05 209.982 160.546 207.406 162.146 203.198C169.25 209.358 172.594 208.67 173.714 208.094C178.018 205.838 177.842 194.862 174.258 189.582C181.937 190.771 189.288 193.531 195.851 197.691C202.414 201.851 208.049 207.321 212.402 213.758C205.058 213.918 205.506 213.918 205.442 214.11C203.707 218.79 202.021 223.489 200.386 228.206C199.746 224.222 198.786 218.798 198.37 217.23C198.334 217.144 198.269 217.074 198.186 217.033C198.103 216.992 198.008 216.982 197.918 217.005C197.828 217.029 197.75 217.084 197.698 217.16C197.646 217.237 197.623 217.33 197.634 217.422C198.098 219.374 199.058 226.782 199.586 230.526C193.09 249.326 188.002 266.27 188.13 266.446C188.258 266.622 204.13 266.622 206.178 266.59C207.778 279.966 208.994 307.854 208.946 311.166C208.946 311.259 208.983 311.348 209.049 311.414C209.115 311.48 209.204 311.518 209.298 311.518C209.391 311.518 209.48 311.48 209.547 311.414C209.613 311.348 209.65 311.259 209.65 311.166C209.938 305.278 209.65 287.582 209.378 283.758C213.161 283.13 216.629 281.261 219.234 278.446C221.186 276.446 224.034 270.526 226.002 265.758C229.106 265.55 229.202 265.598 229.202 265.39C231.026 261.15 232.834 256.158 234.354 251.294C241.906 250.158 245.73 239.566 242.674 234.766C241.988 233.675 241.09 232.734 240.034 231.998ZM109.586 266.014C110.61 265.838 109.474 264.414 148.098 232.67C154.498 227.438 154.994 226.942 162.754 226.414C165.634 226.222 173.106 225.95 173.954 225.934C174.61 225.934 175.186 225.934 175.138 226.526C175.138 227.55 173.538 227.854 172.434 228.126C169.122 228.927 165.729 229.346 162.322 229.374C162.22 229.374 162.122 229.414 162.05 229.486C161.978 229.558 161.938 229.656 161.938 229.758C161.938 229.859 161.978 229.957 162.05 230.029C162.122 230.101 162.22 230.142 162.322 230.142H165.65C166.67 230.636 167.644 231.219 168.562 231.886C168.946 232.158 169.634 232.414 169.682 232.782C169.938 234.91 164.562 232.942 162.674 232.03C162.608 231.996 162.531 231.989 162.461 232.012C162.39 232.034 162.332 232.084 162.298 232.15C162.264 232.215 162.257 232.292 162.28 232.362C162.302 232.433 162.352 232.492 162.418 232.526C163.778 233.374 168.482 235.022 167.394 236.622C166.002 238.638 162.354 237.774 159.938 237.294C160.442 236.885 161.049 236.624 161.692 236.536C162.335 236.449 162.99 236.539 163.586 236.798C163.667 236.818 163.753 236.809 163.828 236.771C163.903 236.734 163.962 236.671 163.995 236.594C164.028 236.517 164.032 236.43 164.007 236.35C163.982 236.27 163.929 236.202 163.858 236.158C162.875 235.744 161.788 235.646 160.747 235.879C159.706 236.111 158.763 236.661 158.05 237.454C156.146 239.278 153.778 238.846 151.938 236.99C151.872 236.931 151.787 236.899 151.7 236.897C151.612 236.896 151.527 236.926 151.459 236.982C151.391 237.038 151.346 237.116 151.331 237.203C151.316 237.289 151.333 237.378 151.378 237.454C151.746 238.019 152.225 238.503 152.786 238.878C149.935 245.889 146.731 252.751 143.186 259.438C136.786 271.438 130.29 279.918 122.994 286.094C115.09 292.894 103.474 290.398 96.8016 282.622C92.8016 277.998 90.2896 271.518 89.3616 263.422C92.6896 263.998 105.986 265.902 109.586 266.014ZM137.33 132.542C135.949 133.511 134.882 134.862 134.258 136.43C133.633 135.878 133.15 135.185 132.849 134.408C132.549 133.631 132.439 132.794 132.53 131.966C133.954 125.566 140.53 119.966 145.986 118.318C149.346 116.958 157.89 118.478 160.642 122.59C159.744 122.508 158.848 122.765 158.13 123.31C157.699 122.75 157.148 122.294 156.517 121.977C155.885 121.661 155.191 121.49 154.485 121.48C153.778 121.469 153.079 121.618 152.439 121.915C151.798 122.213 151.233 122.651 150.786 123.198C149.91 123.453 149.12 123.939 148.498 124.606C147.909 124.29 147.241 124.154 146.575 124.214C145.91 124.274 145.277 124.527 144.754 124.942C144.196 125.093 143.706 125.428 143.364 125.893C143.021 126.358 142.845 126.924 142.866 127.502C142.163 127.432 141.454 127.511 140.784 127.733C140.114 127.955 139.498 128.315 138.977 128.79C138.455 129.265 138.038 129.845 137.755 130.491C137.471 131.137 137.326 131.836 137.33 132.542ZM167.586 199.022C160.114 206.766 137.666 197.742 136.21 190.542C136.094 189.768 136.163 188.978 136.411 188.235C136.658 187.493 137.077 186.82 137.634 186.27C137.794 186.11 137.906 185.934 138.066 185.774C138.084 185.727 138.084 185.676 138.066 185.63L138.37 185.246C138.77 184.494 138.274 168.574 138.194 166.286C138.796 166.294 139.385 166.111 139.877 165.763C140.368 165.415 140.737 164.92 140.93 164.35C141.27 164.535 141.658 164.616 142.045 164.581C142.431 164.547 142.799 164.399 143.102 164.156C143.404 163.913 143.628 163.586 143.746 163.217C143.863 162.847 143.869 162.451 143.762 162.078L147.698 157.854C147.692 158.379 147.837 158.895 148.116 159.34C148.394 159.786 148.794 160.142 149.268 160.368C149.743 160.593 150.272 160.678 150.793 160.613C151.314 160.547 151.806 160.334 152.21 159.998C152.623 159.697 152.965 159.309 153.211 158.861C153.458 158.413 153.602 157.916 153.634 157.406C153.64 157.351 153.627 157.295 153.597 157.248C153.567 157.202 153.521 157.167 153.469 157.15C153.416 157.133 153.359 157.135 153.307 157.155C153.256 157.176 153.213 157.213 153.186 157.262C152.92 157.66 152.526 157.956 152.07 158.102C151.613 158.247 151.121 158.233 150.674 158.062C150.83 157.398 150.799 156.704 150.585 156.057C150.37 155.41 149.98 154.836 149.458 154.398C147.058 146.718 147.282 143.678 151.586 140.798C154.786 138.382 165.986 133.006 173.522 139.87C174.04 140.471 174.656 140.98 175.346 141.374C177.298 167.95 178.546 168.302 171.25 176.014C169.015 178.28 166.038 179.666 162.866 179.918C162.306 179.918 162.242 180.734 162.866 180.798C163.678 180.909 164.501 180.909 165.314 180.798C165.314 186.222 165.074 185.806 166.626 186.35C171.922 188.798 171.458 194.974 167.586 199.022ZM214.642 280.334C212.961 281.266 211.164 281.971 209.298 282.43C209.058 279.742 208.082 271.23 207.442 266.43C213.266 266.302 219.122 266.062 224.706 265.71C222.37 271.534 218.834 278.286 214.642 280.334ZM225.218 227.534C221.698 227.438 221.698 223.086 225.218 222.99C228.738 222.894 228.738 227.518 225.218 227.614V227.534ZM210.962 219.294C210.215 219.74 209.61 220.389 209.218 221.166C208.738 222.078 194.994 259.47 194.338 261.598C194.304 261.712 194.226 261.809 194.121 261.866C194.016 261.923 193.892 261.936 193.778 261.902C193.663 261.868 193.567 261.79 193.51 261.685C193.453 261.58 193.44 261.456 193.474 261.342C194.29 258.318 206.146 224.366 206.274 224.158C209.106 217.086 210.21 217.198 215.618 217.022C218.098 216.942 236.146 216.862 238.754 217.294C239.33 217.39 239.202 218.206 238.754 218.254C237.33 218.43 212.082 218.814 210.962 219.374V219.294ZM234.834 249.694C235.442 247.646 236.002 245.646 236.434 243.742C237.146 244.03 237.886 244.244 238.642 244.382C238.724 244.401 238.811 244.386 238.883 244.341C238.955 244.296 239.006 244.224 239.026 244.142C239.045 244.059 239.03 243.972 238.985 243.9C238.94 243.828 238.868 243.777 238.786 243.758C237.041 243.075 235.42 242.113 233.986 240.91C233.01 239.806 232.562 238.99 233.698 238.19C235.874 239.902 238.706 241.39 239.746 242.142C239.812 242.174 239.887 242.183 239.959 242.167C240.031 242.15 240.095 242.109 240.14 242.051C240.186 241.992 240.209 241.92 240.207 241.846C240.205 241.772 240.178 241.701 240.13 241.646C238.962 240.59 235.01 237.934 232.946 235.87C232.913 235.543 232.981 235.215 233.142 234.929C233.302 234.642 233.546 234.412 233.842 234.27C235.698 235.889 237.726 237.3 239.89 238.478C239.96 238.52 240.044 238.534 240.125 238.516C240.205 238.498 240.276 238.45 240.322 238.382C240.562 238.078 240.322 237.966 238.722 236.638C237.522 235.646 235.842 234.254 234.61 233.038C232.866 231.438 236.21 231.726 239.266 233.038C240.33 233.645 241.197 234.546 241.764 235.632C242.331 236.719 242.575 237.945 242.466 239.166C242.226 243.79 239.378 248.59 234.834 249.854V249.694ZM103.714 19.2776C103.071 19.3713 102.416 19.2414 101.858 18.9096C101.489 17.9723 100.865 17.1574 100.056 16.5577C99.2467 15.958 98.2855 15.5976 97.2816 15.5176C94.8336 15.6776 94.3536 19.1336 92.4816 19.3896C91.3616 19.5496 89.9856 18.3976 88.3856 15.9976C88.3659 15.957 88.3353 15.9228 88.2971 15.8988C88.2589 15.8749 88.2147 15.8622 88.1696 15.8622C88.1245 15.8622 88.0803 15.8749 88.0421 15.8988C88.0039 15.9228 87.9733 15.957 87.9536 15.9976C87.7771 16.5982 87.7244 17.2283 87.7986 17.8499C87.8729 18.4715 88.0726 19.0715 88.3856 19.6136C88.1264 19.6016 87.881 19.4932 87.6976 19.3096C87.1536 18.7816 86.8816 20.7336 88.1936 22.0776C87.7909 22.0561 87.3977 21.9469 87.0416 21.7576C86.2416 21.1336 86.5776 24.4296 89.2016 25.9336C88.4594 25.8866 87.7343 25.6911 87.0691 25.3585C86.404 25.0259 85.8125 24.5631 85.3296 23.9976C85.2981 23.9539 85.2529 23.9221 85.2012 23.9073C85.1494 23.8924 85.0942 23.8954 85.0444 23.9157C84.9946 23.936 84.953 23.9725 84.9264 24.0192C84.8997 24.066 84.8896 24.1204 84.8976 24.1736C85.182 26.5473 86.2791 28.7495 88.0028 30.4061C89.7265 32.0627 91.9705 33.0716 94.3536 33.2616C99.6496 33.2616 102.994 27.5656 101.762 23.1976C102.074 23.0993 102.409 23.0993 102.722 23.1976C102.768 23.2322 102.825 23.2491 102.883 23.245C102.94 23.2409 102.994 23.2161 103.035 23.1753C103.076 23.1344 103.101 23.0802 103.105 23.0226C103.109 22.965 103.092 22.9078 103.058 22.8616C102.894 22.6006 102.785 22.3093 102.736 22.0051C102.688 21.7009 102.702 21.3901 102.776 21.0913C102.851 20.7925 102.985 20.5118 103.171 20.2661C103.357 20.0205 103.59 19.8148 103.858 19.6616C103.883 19.6292 103.9 19.5908 103.906 19.55C103.912 19.5093 103.908 19.4677 103.894 19.4291C103.879 19.3905 103.855 19.3563 103.823 19.3298C103.792 19.3032 103.754 19.2853 103.714 19.2776ZM98.7856 20.5096C98.4687 20.4742 98.176 20.3233 97.9635 20.0857C97.7509 19.848 97.6334 19.5404 97.6334 19.2216C97.6334 18.9028 97.7509 18.5951 97.9635 18.3575C98.176 18.1199 98.4687 17.9689 98.7856 17.9336C99.1025 17.9689 99.3952 18.1199 99.6077 18.3575C99.8203 18.5951 99.9378 18.9028 99.9378 19.2216C99.9378 19.5404 99.8203 19.848 99.6077 20.0857C99.3952 20.3233 99.1025 20.4742 98.7856 20.5096ZM55.6976 180.046C50.4845 179.755 45.2553 180.018 40.0976 180.83C40.0439 180.837 39.9948 180.864 39.9595 180.906C39.9242 180.947 39.905 180.999 39.9056 181.054C39.8925 183.839 40.2695 186.613 41.0256 189.294C41.041 189.338 41.0689 189.376 41.1058 189.405C41.1427 189.433 41.1871 189.45 41.2336 189.454C45.8634 189.821 50.5192 189.693 55.1216 189.07C56.0336 188.942 56.6896 180.11 55.6976 180.046ZM51.3936 185.278C51.2878 185.799 51.0305 186.278 50.6539 186.653C50.2774 187.029 49.7984 187.286 49.2768 187.391C48.7552 187.496 48.2142 187.444 47.7217 187.243C47.2291 187.042 46.8068 186.7 46.5076 186.26C46.2085 185.82 46.0457 185.302 46.0398 184.77C46.0339 184.238 46.185 183.716 46.4743 183.269C46.7636 182.823 47.1782 182.472 47.6662 182.26C48.1541 182.048 48.6938 181.984 49.2176 182.078C49.5726 182.141 49.9113 182.274 50.214 182.47C50.5166 182.666 50.7769 182.921 50.9796 183.219C51.1824 183.517 51.3235 183.853 51.3946 184.207C51.4656 184.56 51.4653 184.924 51.3936 185.278ZM52.3216 178.206C52.6011 178.257 52.8879 178.253 53.1658 178.194C53.4437 178.134 53.7071 178.021 53.9411 177.86C54.1751 177.698 54.3751 177.493 54.5296 177.254C54.6841 177.016 54.7901 176.749 54.8416 176.47C54.8931 176.19 54.889 175.903 54.8296 175.625C54.7702 175.348 54.6567 175.084 54.4955 174.85C54.3343 174.616 54.1286 174.416 53.8901 174.262C53.6516 174.107 53.3851 174.001 53.1056 173.95C52.5412 173.846 51.9587 173.97 51.4861 174.296C51.0135 174.621 50.6896 175.121 50.5856 175.686C50.4816 176.25 50.6061 176.833 50.9317 177.305C51.2573 177.778 51.7572 178.102 52.3216 178.206Z" fill="#E1FF01"/>
<path d="M60.7696 172.924C52.7696 161.34 34.5616 165.436 32.3536 179.052C31.9067 181.333 31.9782 183.684 32.5628 185.934C33.1474 188.183 34.2302 190.272 35.7311 192.046C37.232 193.821 39.1126 195.235 41.2338 196.184C43.355 197.134 45.6625 197.595 47.9856 197.532C61.2976 197.532 67.5856 182.844 60.7696 172.924ZM57.4096 190.524C57.3999 190.57 57.3762 190.611 57.3418 190.643C57.3074 190.674 57.264 190.694 57.2176 190.7C51.2732 191.497 45.261 191.663 39.2816 191.196C39.2339 191.189 39.1891 191.169 39.1523 191.138C39.1155 191.107 39.0882 191.066 39.0736 191.02C37.4844 185.132 37.1896 178.969 38.2096 172.956C38.2169 172.905 38.2415 172.858 38.2794 172.823C38.3173 172.788 38.3661 172.767 38.4176 172.764C44.8543 172.025 51.3583 172.095 57.7776 172.972C57.8253 172.981 57.8691 173.004 57.9034 173.038C57.9376 173.072 57.9607 173.116 57.9696 173.164C58.9718 178.933 58.7812 184.847 57.4096 190.54V190.524Z" fill="white"/>
</svg>
