<svg width="120" height="120" viewBox="0 0 120 120" fill="none" xmlns="http://www.w3.org/2000/svg">
<g id="02">
<path id="Ellipse 19" d="M107.368 60.2065C108.205 61.1806 108.205 62.5694 107.368 63.5435C102.172 69.5901 82.9357 90 60 90C37.0643 90 17.8279 69.5901 12.6323 63.5435C11.7953 62.5694 11.7953 61.1806 12.6323 60.2065C17.8279 54.1599 37.0643 33.75 60 33.75C82.9357 33.75 102.172 54.1599 107.368 60.2065Z" fill="#E1FF01"/>
<path id="Ellipse 2" d="M60 60C51.7157 60 45 53.2843 45 45C45 36.7157 51.7157 30 60 30C68.2843 30 75 36.7157 75 45C75 53.2843 68.2843 60 60 60Z" fill="url(#paint0_linear_176_12960)"/>
<path id="Ellipse 20" d="M60 63.75C68.2843 63.75 75 70.4657 75 78.75C75 87.0343 68.2843 93.75 60 93.75C51.7157 93.75 45 87.0343 45 78.75C45 70.4657 51.7157 63.75 60 63.75Z" fill="url(#paint1_linear_176_12960)"/>
<path id="Ellipse 21" d="M78.75 61.875C78.75 72.2303 70.3553 80.625 60 80.625C49.6447 80.625 41.25 72.2303 41.25 61.875C41.25 51.5197 49.6447 43.125 60 43.125C70.3553 43.125 78.75 51.5197 78.75 61.875Z" fill="url(#paint2_radial_176_12960)"/>
<path id="Subtract" d="M60 73.125C66.2132 73.125 71.25 68.0882 71.25 61.875C71.25 61.1044 71.0317 60.0005 70.8227 59.1202C70.6639 58.4515 69.8444 58.2054 69.2749 58.5901C68.5273 59.095 67.5517 59.625 66.75 59.625C64.2647 59.625 62.25 57.6103 62.25 55.125C62.25 54.2185 62.5181 53.3745 62.9793 52.6681C63.3872 52.0434 63.2528 51.0764 62.5255 50.9096C61.7137 50.7234 60.8683 50.625 60 50.625C53.7868 50.625 48.75 55.6618 48.75 61.875C48.75 68.0882 53.7868 73.125 60 73.125Z" fill="url(#paint3_linear_176_12960)"/>
<path id="Rectangle 3" d="M19.6875 25.3125C19.6875 23.7592 20.9467 22.5 22.5 22.5H28.125C29.6783 22.5 30.9375 23.7592 30.9375 25.3125V30.9375C30.9375 32.4908 29.6783 33.75 28.125 33.75H22.5C20.9467 33.75 19.6875 32.4908 19.6875 30.9375V25.3125Z" fill="#E1FF01"/>
<g id="Union">
<path d="M16.875 89.0625C18.4283 89.0625 19.6875 87.8033 19.6875 86.25C19.6875 84.6967 18.4283 83.4375 16.875 83.4375C15.3217 83.4375 14.0625 84.6967 14.0625 86.25C14.0625 87.8033 15.3217 89.0625 16.875 89.0625Z" fill="url(#paint4_linear_176_12960)"/>
<path d="M25.3125 89.0625C26.8658 89.0625 28.125 87.8033 28.125 86.25C28.125 84.6967 26.8658 83.4375 25.3125 83.4375C23.7592 83.4375 22.5 84.6967 22.5 86.25C22.5 87.8033 23.7592 89.0625 25.3125 89.0625Z" fill="url(#paint5_linear_176_12960)"/>
<path d="M19.6875 94.6875C19.6875 96.2408 18.4283 97.5 16.875 97.5C15.3217 97.5 14.0625 96.2408 14.0625 94.6875C14.0625 93.1342 15.3217 91.875 16.875 91.875C18.4283 91.875 19.6875 93.1342 19.6875 94.6875Z" fill="url(#paint6_linear_176_12960)"/>
<path d="M25.3125 97.5C26.8658 97.5 28.125 96.2408 28.125 94.6875C28.125 93.1342 26.8658 91.875 25.3125 91.875C23.7592 91.875 22.5 93.1342 22.5 94.6875C22.5 96.2408 23.7592 97.5 25.3125 97.5Z" fill="url(#paint7_linear_176_12960)"/>
</g>
<g id="Union_2">
<path d="M96.3113 29.0625C95.5896 27.8125 93.7854 27.8125 93.0637 29.0625L89.0042 36.0938C88.2826 37.3438 89.1847 38.9063 90.628 38.9063H98.747C100.19 38.9063 101.093 37.3438 100.371 36.0938L96.3113 29.0625Z" fill="url(#paint8_linear_176_12960)"/>
<path d="M96.3113 51.5625C95.5896 52.8125 93.7854 52.8125 93.0637 51.5625L89.0042 44.5312C88.2826 43.2812 89.1847 41.7188 90.628 41.7188H98.747C100.19 41.7188 101.093 43.2812 100.371 44.5312L96.3113 51.5625Z" fill="url(#paint9_linear_176_12960)"/>
</g>
<path id="Ellipse 23" d="M98.4375 88.125C98.4375 89.6783 97.1783 90.9375 95.625 90.9375C94.0717 90.9375 92.8125 89.6783 92.8125 88.125C92.8125 86.5717 94.0717 85.3125 95.625 85.3125C97.1783 85.3125 98.4375 86.5717 98.4375 88.125Z" fill="#E1FF01"/>
<path id="Vector 18" d="M95.625 97.5H101.25C103.321 97.5 105 95.8211 105 93.75V88.125" stroke="url(#paint10_linear_176_12960)" stroke-width="2.8125" stroke-linecap="round"/>
<path id="Ellipse 45" d="M24.375 32.8125C24.375 34.8836 22.6961 36.5625 20.625 36.5625C18.5539 36.5625 16.875 34.8836 16.875 32.8125C16.875 30.7414 18.5539 29.0625 20.625 29.0625C22.6961 29.0625 24.375 30.7414 24.375 32.8125Z" fill="url(#paint11_linear_176_12960)"/>
</g>
<defs>
<linearGradient id="paint0_linear_176_12960" x1="83.75" y1="37.5" x2="55.5966" y2="61.6943" gradientUnits="userSpaceOnUse">
<stop stop-color="#E1FF01"/>
<stop offset="1" stop-color="#626F00"/>
</linearGradient>
<linearGradient id="paint1_linear_176_12960" x1="83.75" y1="71.25" x2="55.5966" y2="95.4443" gradientUnits="userSpaceOnUse">
<stop stop-color="#E1FF01"/>
<stop offset="1" stop-color="#626F00"/>
</linearGradient>
<radialGradient id="paint2_radial_176_12960" cx="0" cy="0" r="1" gradientUnits="userSpaceOnUse" gradientTransform="translate(60 61.875) rotate(90) scale(18.75)">
<stop stop-color="white"/>
<stop offset="1" stop-color="white"/>
</radialGradient>
<linearGradient id="paint3_linear_176_12960" x1="77.8125" y1="56.25" x2="56.6974" y2="74.3957" gradientUnits="userSpaceOnUse">
<stop stop-color="#E1FF01"/>
<stop offset="1" stop-color="#626F00"/>
</linearGradient>
<linearGradient id="paint4_linear_176_12960" x1="32.4559" y1="90.4688" x2="12.3047" y2="90.4688" gradientUnits="userSpaceOnUse">
<stop stop-color="#E1FF01"/>
<stop offset="1" stop-color="#626F00"/>
</linearGradient>
<linearGradient id="paint5_linear_176_12960" x1="32.4559" y1="90.4688" x2="12.3047" y2="90.4688" gradientUnits="userSpaceOnUse">
<stop stop-color="#E1FF01"/>
<stop offset="1" stop-color="#626F00"/>
</linearGradient>
<linearGradient id="paint6_linear_176_12960" x1="32.4559" y1="90.4688" x2="12.3047" y2="90.4688" gradientUnits="userSpaceOnUse">
<stop stop-color="#E1FF01"/>
<stop offset="1" stop-color="#626F00"/>
</linearGradient>
<linearGradient id="paint7_linear_176_12960" x1="32.4559" y1="90.4688" x2="12.3047" y2="90.4688" gradientUnits="userSpaceOnUse">
<stop stop-color="#E1FF01"/>
<stop offset="1" stop-color="#626F00"/>
</linearGradient>
<linearGradient id="paint8_linear_176_12960" x1="104.282" y1="40.3125" x2="87.2659" y2="40.3125" gradientUnits="userSpaceOnUse">
<stop stop-color="#E1FF01"/>
<stop offset="1" stop-color="#626F00"/>
</linearGradient>
<linearGradient id="paint9_linear_176_12960" x1="104.282" y1="40.3125" x2="87.2659" y2="40.3125" gradientUnits="userSpaceOnUse">
<stop stop-color="#E1FF01"/>
<stop offset="1" stop-color="#626F00"/>
</linearGradient>
<linearGradient id="paint10_linear_176_12960" x1="100.313" y1="97.5" x2="100.313" y2="88.125" gradientUnits="userSpaceOnUse">
<stop stop-color="#B4C727"/>
<stop offset="1" stop-color="#626F00"/>
</linearGradient>
<linearGradient id="paint11_linear_176_12960" x1="26.6848" y1="32.8125" x2="15.9375" y2="32.8125" gradientUnits="userSpaceOnUse">
<stop stop-color="#E1FF01"/>
<stop offset="1" stop-color="#626F00"/>
</linearGradient>
</defs>
</svg>
