<svg width="151" height="151" viewBox="0 0 151 151" fill="none" xmlns="http://www.w3.org/2000/svg">
<g id="work-video-conference">
<g id="Group 1">
<g id="Group">
<path id="Vector" d="M71.5866 13.3035C65.9697 13.4602 61.5399 17.7476 61.6965 22.8787C61.8683 28.8519 68.0132 32.954 74.1732 31.6102L73.8441 27.7371C73.7724 27.0952 73.828 26.4454 74.0077 25.825C74.1873 25.2046 74.4874 24.6257 74.8909 24.1213C75.2944 23.6169 75.7935 23.197 76.3592 22.8855C76.9249 22.5741 77.5471 22.3772 78.1888 22.3062L82.0047 21.9778C81.6906 17.0049 77.0883 13.1461 71.5866 13.3035Z" fill="#E1FF01"/>
<path id="Vector_2" fill-rule="evenodd" clip-rule="evenodd" d="M66.2704 113.614L112.059 109.755C113.31 109.648 114.467 109.049 115.276 108.089C116.085 107.13 116.481 105.888 116.375 104.638L113.717 73.4118C113.61 72.1614 113.011 71.0047 112.052 70.1955C111.093 69.3863 109.851 68.9908 108.601 69.0957L84.1358 71.1543C83.7035 71.8136 83.4217 72.1571 82.7725 72.6675C82.0757 73.2003 81.263 73.5597 80.3997 73.7162C79.5373 73.8725 78.6492 73.8213 77.8101 73.5669C76.971 73.3123 76.2042 72.8618 75.5737 72.2525C75.4623 72.1426 75.3508 72.0324 75.2395 71.9218L67.6071 72.5629C70.139 81.5483 70.4048 87.7821 70.5908 96.6846C70.7449 99.3014 70.3866 101.923 69.5363 104.402L66.2704 113.614ZM92.9374 93.2913L97.5541 95.4493L96.7247 85.6452L92.5375 88.5602C92.3906 87.6367 91.8987 86.8036 91.1613 86.2282C90.4239 85.6527 89.4966 85.3785 88.5649 85.4599L79.6322 86.2319C79.1464 86.2719 78.6733 86.4082 78.2395 86.6319C77.8063 86.8556 77.4222 87.1637 77.1088 87.5373C76.7947 87.9102 76.559 88.3425 76.4128 88.808C76.2675 89.2728 76.2155 89.7624 76.2599 90.2482L76.617 94.391C76.6569 94.8769 76.7932 95.3499 77.0169 95.783C77.2407 96.2161 77.5487 96.601 77.9223 96.9144C78.2952 97.2277 78.7276 97.4642 79.1923 97.6104C79.6578 97.7558 80.1474 97.8077 80.6333 97.7633L89.5509 97.0206C90.036 96.9792 90.509 96.8421 90.9414 96.6176C91.3737 96.3931 91.7571 96.0851 92.0705 95.7122C92.3838 95.3394 92.6203 94.9078 92.7664 94.443C92.884 94.0694 92.942 93.68 92.9374 93.2898V93.2913Z" fill="#E1FF01"/>
<path id="Vector_3" d="M126.494 73.5413C126.533 73.8825 126.503 74.2281 126.408 74.558C126.312 74.8879 126.152 75.1957 125.938 75.4635C125.722 75.7317 125.456 75.9539 125.155 76.1181C124.854 76.2831 124.522 76.3862 124.181 76.4216C123.839 76.4578 123.494 76.4254 123.165 76.3275C122.836 76.2288 122.529 76.0669 122.263 75.8492C121.997 75.6315 121.777 75.3641 121.616 75.0611C121.454 74.7582 121.353 74.4262 121.32 74.0843L120.906 70.1675C120.84 69.4848 121.047 68.8037 121.481 68.2725C121.915 67.7414 122.541 67.4032 123.224 67.3316C123.905 67.26 124.589 67.4607 125.123 67.8901C125.658 68.3196 126.002 68.9429 126.079 69.6244L126.494 73.5413Z" fill="#E1FF01"/>
</g>
<g id="Group_2">
<path id="Vector_4" d="M97.8254 26.3381C98.0469 26.8579 98.2149 27.3991 98.3256 27.9531C98.7542 27.0529 99.0073 26.0791 99.0705 25.084C98.6269 25.5698 98.2119 25.9811 97.8254 26.3381Z" fill="white"/>
<path id="Vector_5" d="M58.967 45.9883C59.09 46.6642 59.3217 47.3156 59.6532 47.9173C60.7537 47.9173 61.9687 47.775 62.2685 47.3321C62.3114 47.2567 62.3544 47.1746 62.3973 47.0888C61.983 47.9053 60.4841 47.0767 58.967 45.9883Z" fill="white"/>
<path id="Vector_6" d="M21.1389 77.7729C18.4807 73.9569 1.57428 87.8911 4.00349 91.4065L4.41777 91.7779C7.93387 93.7363 23.2111 80.7745 21.1389 77.7729Z" fill="white"/>
<path id="Vector_7" d="M50.0638 126.963C46.5898 128.615 57.3333 147.995 60.6091 145.242C62.5691 142.398 52.8078 125.649 50.0638 126.963Z" fill="white"/>
<path id="Vector_8" d="M17.3796 89.8916C17.3126 90.1379 17.2934 90.3955 17.3231 90.6494C17.4662 91.5638 18.6375 91.6067 19.4239 91.3921C18.8732 90.7345 18.1719 90.22 17.3796 89.8916Z" fill="white"/>
<path id="Vector_9" d="M24.9686 82.4321C25.5117 83.104 26.0691 83.7751 26.5693 84.3905C26.653 84.151 26.7059 83.9009 26.7267 83.6478C26.741 83.4331 26.6993 83.2177 26.6056 83.0241C26.512 82.8298 26.3697 82.6641 26.1925 82.5413C26.0154 82.4185 25.8095 82.3447 25.595 82.3251C25.3805 82.3063 25.1647 82.3432 24.9686 82.4321Z" fill="white"/>
<path id="Vector_10" d="M50.9787 53.4795C50.8204 53.4965 50.6706 53.56 50.5484 53.6621C50.4262 53.7642 50.337 53.9002 50.2921 54.0531C50.2472 54.2058 50.2486 54.3685 50.2961 54.5205C50.3437 54.6725 50.4352 54.807 50.5592 54.907C50.6832 55.0069 50.834 55.0678 50.9926 55.0821C51.1513 55.0963 51.3105 55.0632 51.4503 54.9869C51.5901 54.9106 51.7042 54.7946 51.778 54.6536C51.8519 54.5125 51.8822 54.3526 51.8653 54.1943C51.8555 54.0886 51.8245 53.9859 51.7744 53.8923C51.7242 53.7987 51.6557 53.7162 51.5731 53.6495C51.4904 53.5829 51.3952 53.5335 51.2931 53.5043C51.191 53.475 51.0841 53.4666 50.9787 53.4795Z" fill="white"/>
<path id="Vector_11" d="M45.2617 60.1229C45.1033 60.14 44.9536 60.2035 44.8313 60.3056C44.7092 60.4077 44.62 60.5437 44.5751 60.6965C44.5301 60.8493 44.5315 61.012 44.5791 61.164C44.6267 61.3159 44.7182 61.4504 44.8422 61.5504C44.9662 61.6504 45.117 61.7113 45.2756 61.7255C45.4342 61.7398 45.5935 61.7066 45.7333 61.6304C45.8731 61.5541 45.9871 61.4381 46.061 61.297C46.1348 61.1559 46.1652 60.9961 46.1482 60.8378C46.1371 60.7325 46.1054 60.6305 46.0548 60.5376C46.0042 60.4446 45.9357 60.3626 45.8534 60.2962C45.771 60.2298 45.6763 60.1803 45.5748 60.1506C45.4732 60.1208 45.3668 60.1114 45.2617 60.1229Z" fill="white"/>
<path id="Vector_12" d="M48.6491 68.8972C48.4907 68.9141 48.3409 68.9775 48.2186 69.0795C48.0962 69.1815 48.0069 69.3176 47.9619 69.4703C47.9169 69.6231 47.9182 69.7859 47.9657 69.9379C48.0132 70.0899 48.1047 70.2245 48.2286 70.3245C48.3526 70.4245 48.5034 70.4855 48.6621 70.4998C48.8207 70.5141 48.98 70.481 49.1199 70.4048C49.2597 70.3285 49.3737 70.2125 49.4476 70.0713C49.5215 69.9302 49.5519 69.7704 49.5349 69.612C49.5237 69.5068 49.492 69.405 49.4414 69.3121C49.3908 69.2193 49.3224 69.1374 49.2402 69.071C49.1579 69.0046 49.0633 68.9551 48.9619 68.9253C48.8606 68.8954 48.7542 68.8859 48.6491 68.8972Z" fill="white"/>
<path id="Vector_13" d="M41.2181 58.6071C41.0597 58.624 40.9098 58.6874 40.7875 58.7895C40.6652 58.8915 40.5758 59.0275 40.5309 59.1803C40.4858 59.3331 40.4872 59.4958 40.5346 59.6478C40.5821 59.7999 40.6736 59.9344 40.7976 60.0345C40.9215 60.1345 41.0724 60.1955 41.231 60.2098C41.3896 60.2241 41.549 60.191 41.6888 60.1148C41.8286 60.0385 41.9428 59.9224 42.0166 59.7813C42.0905 59.6402 42.1208 59.4804 42.1039 59.322C42.0927 59.2169 42.0609 59.115 42.0103 59.0222C41.9598 58.9293 41.8914 58.8474 41.8091 58.781C41.7269 58.7146 41.6323 58.6651 41.5309 58.6352C41.4295 58.6054 41.3231 58.5958 41.2181 58.6071Z" fill="white"/>
<path id="Vector_14" d="M57.7823 56.6198C57.6239 56.6367 57.474 56.7002 57.3517 56.8023C57.2294 56.9043 57.1401 57.0404 57.0951 57.1932C57.0502 57.346 57.0515 57.5088 57.0991 57.6608C57.1466 57.8129 57.2382 57.9474 57.3622 58.0474C57.4863 58.1474 57.6372 58.2084 57.7959 58.2225C57.9545 58.2368 58.1139 58.2035 58.2537 58.1272C58.3935 58.0508 58.5075 57.9346 58.5813 57.7934C58.655 57.6522 58.6853 57.4923 58.6681 57.3339C58.6568 57.2288 58.625 57.1271 58.5744 57.0344C58.5238 56.9416 58.4554 56.8597 58.3732 56.7934C58.2909 56.7271 58.1964 56.6776 58.095 56.6479C57.9936 56.618 57.8874 56.6086 57.7823 56.6198Z" fill="white"/>
<path id="Vector_15" d="M53.1221 63.1386C52.9637 63.1556 52.8139 63.2192 52.6917 63.3213C52.5695 63.4234 52.4803 63.5595 52.4354 63.7124C52.3906 63.8652 52.392 64.0279 52.4397 64.1799C52.4873 64.3319 52.5789 64.4664 52.703 64.5663C52.827 64.6662 52.9779 64.7271 53.1365 64.7412C53.2952 64.7553 53.4545 64.7221 53.5943 64.6457C53.734 64.5693 53.848 64.4532 53.9217 64.312C53.9955 64.1709 54.0257 64.011 54.0086 63.8526C53.9975 63.7475 53.9656 63.6456 53.915 63.5527C53.8644 63.4599 53.7959 63.3779 53.7135 63.3116C53.6312 63.2452 53.5366 63.1958 53.435 63.1661C53.3336 63.1365 53.2271 63.127 53.1221 63.1386Z" fill="white"/>
<path id="Vector_16" d="M61.4827 66.1677C61.3243 66.1846 61.1745 66.248 61.0521 66.35C60.9298 66.452 60.8405 66.5881 60.7955 66.7408C60.7505 66.8937 60.7518 67.0564 60.7993 67.2084C60.8468 67.3604 60.9382 67.495 61.0622 67.595C61.1862 67.695 61.337 67.756 61.4956 67.7704C61.6543 67.7847 61.8137 67.7515 61.9535 67.6753C62.0933 67.599 62.2074 67.483 62.2813 67.3418C62.3552 67.2008 62.3855 67.0409 62.3685 66.8825C62.3573 66.7774 62.3256 66.6755 62.275 66.5826C62.2244 66.4898 62.156 66.4079 62.0737 66.3415C61.9915 66.2751 61.897 66.2256 61.7956 66.1958C61.6941 66.166 61.5878 66.1564 61.4827 66.1677Z" fill="white"/>
<path id="Vector_17" d="M64.9559 52.3046C64.7975 52.3214 64.6476 52.3849 64.5253 52.4868C64.403 52.5889 64.3137 52.7249 64.2687 52.8777C64.2236 53.0305 64.225 53.1932 64.2724 53.3452C64.32 53.4973 64.4114 53.6318 64.5354 53.7319C64.6594 53.8319 64.8102 53.8929 64.9688 53.9072C65.1274 53.9215 65.2868 53.8884 65.4266 53.8122C65.5665 53.7359 65.6805 53.6199 65.7544 53.4787C65.8283 53.3376 65.8587 53.1778 65.8417 53.0194C65.8319 52.9137 65.801 52.8111 65.7508 52.7176C65.7007 52.6241 65.6323 52.5415 65.5498 52.4749C65.4672 52.4083 65.3721 52.3589 65.27 52.3296C65.168 52.3003 65.0612 52.2918 64.9559 52.3046Z" fill="white"/>
<path id="Vector_18" d="M72.4449 65.8239C72.2865 65.8407 72.1366 65.9042 72.0143 66.0061C71.892 66.1082 71.8027 66.2442 71.7577 66.397C71.7127 66.5498 71.714 66.7125 71.7614 66.8645C71.8089 67.0166 71.9004 67.1511 72.0244 67.2512C72.1484 67.3512 72.2992 67.4122 72.4579 67.4265C72.6165 67.4408 72.7758 67.4077 72.9156 67.3315C73.0555 67.2552 73.1695 67.1392 73.2434 66.998C73.3173 66.8569 73.3477 66.6971 73.3306 66.5387C73.3079 66.3265 73.2018 66.1319 73.0358 65.9979C72.8697 65.8639 72.6571 65.8013 72.4449 65.8239Z" fill="white"/>
<path id="Vector_19" d="M72.4737 58.3205C72.5788 58.3095 72.6807 58.2778 72.7736 58.2272C72.8665 58.1767 72.9485 58.1083 73.015 58.026C73.0813 57.9437 73.1308 57.8491 73.1606 57.7476C73.1904 57.6462 73.1999 57.5399 73.1885 57.4347C73.1604 57.2269 73.0523 57.0382 72.8873 56.9088C72.7222 56.7794 72.5131 56.7195 72.3047 56.7419C72.0961 56.7643 71.9045 56.8672 71.7707 57.0287C71.6368 57.1901 71.5712 57.3974 71.5879 57.6065C71.5989 57.7116 71.6307 57.8135 71.6812 57.9063C71.7318 57.9992 71.8001 58.0812 71.8825 58.1474C71.9648 58.2138 72.0593 58.2633 72.1608 58.293C72.2622 58.3227 72.3686 58.3321 72.4737 58.3205Z" fill="white"/>
<path id="Vector_20" d="M81.2056 67.5241C81.0474 67.541 80.8975 67.6044 80.7747 67.7065C80.6527 67.8085 80.563 67.9445 80.5186 68.0973C80.4734 68.2501 80.4749 68.4128 80.5224 68.5648C80.5698 68.7169 80.661 68.8514 80.7853 68.9514C80.9088 69.0515 81.0602 69.1125 81.2184 69.1268C81.3773 69.1411 81.5362 69.108 81.6763 69.0317C81.8164 68.9554 81.9302 68.8394 82.004 68.6983C82.0778 68.5572 82.1079 68.3974 82.0914 68.239C82.0801 68.1338 82.0484 68.032 81.998 67.9391C81.9475 67.8463 81.879 67.7643 81.7969 67.698C81.714 67.6315 81.6198 67.5821 81.5182 67.5522C81.4172 67.5224 81.3103 67.5128 81.2056 67.5241Z" fill="white"/>
<path id="Vector_21" d="M82.206 59.0086C82.0479 59.0255 81.898 59.089 81.7752 59.191C81.6532 59.2931 81.5635 59.4291 81.5191 59.5819C81.4739 59.7348 81.4754 59.8976 81.5229 60.0496C81.5703 60.2016 81.6622 60.3362 81.7857 60.4362C81.91 60.5362 82.0607 60.5971 82.2196 60.6113C82.3785 60.6255 82.5375 60.5923 82.6776 60.5159C82.8169 60.4395 82.9314 60.3234 83.0052 60.1822C83.0791 60.041 83.1092 59.8811 83.0919 59.7227C83.0806 59.6176 83.0489 59.5157 82.9985 59.4229C82.948 59.3301 82.8794 59.2483 82.7973 59.1819C82.7145 59.1155 82.6203 59.0661 82.5186 59.0364C82.4177 59.0066 82.3108 58.9972 82.206 59.0086Z" fill="white"/>
<path id="Vector_22" d="M89.3519 56.1487C89.3353 55.9903 89.2713 55.8405 89.1696 55.7182C89.0671 55.5958 88.9316 55.5065 88.7787 55.4615C88.6258 55.4165 88.463 55.4179 88.3109 55.4653C88.1587 55.5128 88.0247 55.6043 87.9245 55.7283C87.8243 55.8522 87.7633 56.003 87.749 56.1617C87.7347 56.3203 87.7678 56.4796 87.8439 56.6195C87.9207 56.7593 88.0367 56.8734 88.1776 56.9473C88.3184 57.0211 88.4789 57.0516 88.6371 57.0345C88.7425 57.0234 88.8442 56.9916 88.9368 56.941C89.0295 56.8904 89.1116 56.822 89.1779 56.7398C89.2442 56.6575 89.2939 56.563 89.324 56.4615C89.3534 56.3602 89.3632 56.2539 89.3519 56.1487Z" fill="white"/>
<path id="Vector_23" d="M113.202 11.4319C113.115 10.3238 112.636 9.28306 111.85 8.49683C111.064 7.7106 110.024 7.23041 108.916 7.14255C107.808 7.05468 106.705 7.36493 105.805 8.01754C104.905 8.67008 104.268 9.62225 104.007 10.7028C102.716 10.1019 101.291 9.84363 99.8716 9.95285C98.4518 10.0621 97.0846 10.5351 95.9005 11.3264C94.7164 12.1177 93.756 13.2004 93.112 14.4706C92.468 15.7407 92.1622 17.1552 92.2232 18.5779C93.9444 18.1113 95.7137 17.8427 97.4959 17.7772C97.5923 18.3626 97.7256 18.9413 97.8959 19.5097C98.0533 19.8667 98.2958 19.8953 98.7244 19.2377C99.6825 17.8518 101.626 19.9955 99.3534 21.6534C100.334 23.3509 101.58 24.8805 103.044 26.1841C104.839 25.6059 106.385 24.4359 107.429 22.8653C108.472 21.2947 108.952 19.4165 108.79 17.5377C108.761 17.1929 108.71 16.8503 108.639 16.5118C108.743 16.5123 108.845 16.5065 108.947 16.4944C109.559 16.4414 110.155 16.2685 110.699 15.9853C111.245 15.7023 111.728 15.3146 112.123 14.8445C112.519 14.3744 112.818 13.8311 113.002 13.2455C113.187 12.66 113.255 12.0437 113.202 11.4319Z" fill="white"/>
<path id="Vector_24" d="M52.6367 86.7324L52.7941 92.5324L54.8354 90.6892C53.9453 89.4637 53.2069 88.1357 52.6367 86.7324Z" fill="white"/>
<path id="Vector_25" d="M65.7563 60.251L67.7855 63.1381L67.9 66.8396L65.7563 60.251Z" fill="white"/>
<path id="Vector_26" d="M62.2552 40.6862C62.5038 40.6407 62.728 40.5081 62.8879 40.3123C63.0477 40.1165 63.1327 39.8703 63.1275 39.6176C63.1224 39.3648 63.0275 39.1222 62.8597 38.9331C62.692 38.744 62.4625 38.6207 62.2122 38.5854C62.4058 38.4439 62.5461 38.2414 62.6106 38.0104C62.6751 37.7795 62.6599 37.5336 62.5675 37.3123C62.475 37.091 62.3108 36.9073 62.1013 36.7908C61.8917 36.6743 61.649 36.6316 61.4123 36.6699C61.5336 36.4686 61.585 36.2328 61.5587 35.9992C61.5324 35.7656 61.4298 35.5473 61.2667 35.3779C61.1036 35.2086 60.8892 35.0978 60.6569 35.0627C60.4244 35.0276 60.1869 35.0702 59.9811 35.1837C60.0303 34.944 59.9959 34.6947 59.8835 34.4772C59.7712 34.2598 59.5877 34.0874 59.3637 33.9889C59.1397 33.8903 58.8887 33.8715 58.6525 33.9356C58.4163 33.9996 58.2091 34.1426 58.0656 34.3409C58.0425 34.0833 57.9303 33.8418 57.7482 33.6581C57.5662 33.4743 57.3257 33.3599 57.0683 33.3345C56.8109 33.3091 56.5527 33.3742 56.3382 33.5187C56.1237 33.6633 55.9664 33.8781 55.8933 34.1262C55.7922 33.9036 55.618 33.7224 55.3995 33.6126C55.1811 33.5029 54.9317 33.4713 54.6928 33.523C54.4538 33.5748 54.2399 33.7069 54.0865 33.8972C53.9331 34.0876 53.8496 34.3247 53.8497 34.5691C53.6714 34.4157 53.4476 34.3253 53.2128 34.3116C52.978 34.2979 52.7453 34.3618 52.5503 34.4934C52.3554 34.625 52.2091 34.817 52.1339 35.0399C52.0588 35.2628 52.0591 35.5041 52.1346 35.7268C51.9123 35.6441 51.6688 35.6379 51.4426 35.7092C51.2164 35.7805 51.0205 35.9253 50.886 36.1206C50.7514 36.3159 50.6858 36.5506 50.6997 36.7873C50.7136 37.0241 50.8061 37.2494 50.9626 37.4277C50.7104 37.4138 50.4614 37.4896 50.2596 37.6415C50.0579 37.7934 49.9162 38.0117 49.8598 38.258C49.8034 38.5041 49.8358 38.7623 49.9513 38.9869C50.0668 39.2116 50.258 39.3882 50.491 39.4855C50.2433 39.5335 50.0206 39.6679 49.8628 39.8647C49.7049 40.0615 49.622 40.308 49.6288 40.5602C49.6357 40.8124 49.7319 41.0541 49.9003 41.2419C50.0687 41.4298 50.2983 41.5519 50.5483 41.5863C50.3588 41.7301 50.2228 41.9331 50.162 42.1631C50.1012 42.3931 50.1192 42.6368 50.2129 42.8554C50.3066 43.074 50.4708 43.255 50.6792 43.3695C50.8877 43.4841 51.1285 43.5256 51.3633 43.4875C51.2448 43.6898 51.1962 43.9255 51.225 44.1582C51.2537 44.3908 51.3583 44.6076 51.5224 44.775C51.6865 44.9424 51.9012 45.0511 52.1333 45.0844C52.3653 45.1178 52.6019 45.0738 52.8065 44.9593C52.7592 45.1985 52.7953 45.4467 52.9086 45.6626C53.022 45.8785 53.2059 46.049 53.4297 46.1458C53.6534 46.2427 53.9037 46.26 54.1387 46.1948C54.3736 46.1297 54.5793 45.9861 54.7212 45.7879C54.7337 45.9663 54.7902 46.1389 54.8857 46.2901C54.9812 46.4414 55.1128 46.5665 55.2685 46.6544C55.4244 46.7422 55.5995 46.7901 55.7783 46.7936C55.9572 46.7971 56.1341 46.7562 56.2933 46.6744C56.4221 46.517 58.1764 44.359 58.7948 43.5726C57.28 41.8582 58.5372 40.7434 59.3522 41.8725C59.7808 42.4872 60.4067 42.3154 60.0376 40.4858C60.5112 40.2799 60.9649 40.0313 61.3934 39.7431C61.6947 40.9001 61.9207 41.8868 62.1075 42.7154C62.3245 42.6586 62.5183 42.5353 62.6617 42.3628C62.8051 42.1903 62.891 41.9773 62.9072 41.7536C62.9235 41.5299 62.8693 41.3067 62.7524 41.1153C62.6355 40.9239 62.4616 40.7738 62.2552 40.6862Z" fill="white"/>
</g>
<g id="Group_3">
<path id="Vector_27" d="M62.1114 42.7136C61.9261 41.8851 61.6971 40.8991 61.3974 39.7413C60.9688 40.0295 60.5151 40.2781 60.0415 40.484C60.4136 42.3136 59.7892 42.4816 59.3561 41.8707C58.5501 40.7349 57.2839 41.8564 58.7987 43.5708C58.184 44.3572 56.426 46.5152 56.2972 46.6727C56.138 46.7544 55.9611 46.7953 55.7822 46.7918C55.6034 46.7883 55.4283 46.7404 55.2725 46.6526C55.1167 46.5647 54.9851 46.4395 54.8896 46.2883C54.7941 46.1371 54.7376 45.9645 54.7251 45.7861C54.5832 45.9843 54.3775 46.1279 54.1426 46.1931C53.9076 46.2581 53.6574 46.2409 53.4336 46.144C53.2099 46.0472 53.0259 45.8766 52.9125 45.6607C52.7992 45.4449 52.7631 45.1968 52.8104 44.9575C52.6058 45.072 52.3692 45.1159 52.1372 45.0826C51.9051 45.0493 51.6904 44.9406 51.5263 44.7732C51.3622 44.6058 51.2576 44.3891 51.2289 44.1564C51.2001 43.9237 51.2487 43.688 51.3672 43.4857C51.1324 43.5238 50.8916 43.4823 50.6831 43.3677C50.4747 43.2532 50.3105 43.0722 50.2168 42.8536C50.1231 42.635 50.1051 42.3912 50.1659 42.1613C50.2267 41.9313 50.3627 41.7283 50.5522 41.5845C50.3022 41.5501 50.0726 41.4281 49.9042 41.2401C49.7358 41.0522 49.6396 40.8106 49.6327 40.5584C49.6259 40.3062 49.7088 40.0597 49.8667 39.8628C50.0246 39.6661 50.2472 39.5317 50.495 39.4837C50.2619 39.3864 50.0707 39.2098 49.9552 38.9852C49.8397 38.7605 49.8073 38.5023 49.8637 38.2562C49.9201 38.0099 50.0618 37.7916 50.2635 37.6396C50.4653 37.4878 50.7143 37.412 50.9665 37.4259C50.81 37.2477 50.7175 37.0223 50.7036 36.7855C50.6897 36.5487 50.7553 36.3141 50.8899 36.1188C51.0244 35.9235 51.2203 35.7788 51.4465 35.7074C51.6727 35.6361 51.9162 35.6423 52.1385 35.7251C52.0652 35.5029 52.0664 35.2629 52.1421 35.0416C52.2178 34.8203 52.3637 34.6297 52.5577 34.499C52.7517 34.3683 52.9831 34.3047 53.2166 34.3176C53.4502 34.3307 53.6731 34.4197 53.8514 34.5711C53.8512 34.3267 53.9348 34.0895 54.0881 33.8991C54.2416 33.7089 54.4555 33.5767 54.6944 33.525C54.9333 33.4732 55.1827 33.5048 55.4012 33.6145C55.6196 33.7243 55.7938 33.9056 55.8949 34.1282C55.968 33.8801 56.1253 33.6652 56.3399 33.5207C56.5543 33.3761 56.8125 33.311 57.0699 33.3365C57.3274 33.3619 57.5678 33.4763 57.7499 33.66C57.9319 33.8438 58.0442 34.0852 58.0673 34.3429C58.2108 34.1446 58.4179 34.0016 58.6541 33.9375C58.8903 33.8734 59.1413 33.8923 59.3653 33.9909C59.5894 34.0894 59.7728 34.2617 59.8851 34.4792C59.9975 34.6967 60.032 34.946 59.9828 35.1857C60.1886 35.0721 60.426 35.0296 60.6585 35.0647C60.8909 35.0998 61.1052 35.2106 61.2683 35.3799C61.4314 35.5492 61.534 35.7676 61.5604 36.0012C61.5866 36.2348 61.5352 36.4705 61.4139 36.6719C61.6507 36.6336 61.8934 36.6762 62.1029 36.7927C62.3125 36.9092 62.4767 37.0929 62.5691 37.3142C62.6615 37.5355 62.6767 37.7814 62.6123 38.0124C62.5479 38.2434 62.4075 38.4459 62.2139 38.5874C62.4642 38.6227 62.6937 38.7459 62.8614 38.9351C63.029 39.1242 63.124 39.3668 63.1291 39.6195C63.1343 39.8722 63.0494 40.1185 62.8895 40.3143C62.7297 40.5101 62.5054 40.6426 62.2568 40.6882C62.4619 40.7764 62.6345 40.9263 62.7506 41.117C62.8666 41.3077 62.9203 41.5299 62.9044 41.7526C62.8884 41.9753 62.8034 42.1875 62.6614 42.3597C62.5192 42.5319 62.327 42.6556 62.1114 42.7136Z" stroke="white" stroke-width="0.564931" stroke-linecap="round" stroke-linejoin="round"/>
<path id="Vector_28" d="M62.2841 36.8546L66.1143 36.5405C66.5716 36.5006 67.0322 36.5515 67.4697 36.6903C67.9073 36.829 68.3131 37.053 68.6637 37.3491C69.0143 37.6454 69.303 38.008 69.513 38.4161C69.723 38.8243 69.8501 39.27 69.8873 39.7275L70.9305 52.2607" stroke="white" stroke-width="0.564931" stroke-linecap="round" stroke-linejoin="round"/>
<path id="Vector_29" d="M68.0424 66.6375L68.6284 66.5946C69.14 66.5889 69.6398 66.4404 70.0716 66.166" stroke="white" stroke-width="0.564931" stroke-linecap="round" stroke-linejoin="round"/>
<path id="Vector_30" d="M41.5184 68.8644L33.8301 69.5219C32.9075 69.5991 31.992 69.3069 31.2846 68.7095C30.5773 68.112 30.1361 67.2583 30.0579 66.3357L28.0994 43.2406C28.0219 42.3177 28.314 41.4017 28.9117 40.6942C29.5093 39.9867 30.3635 39.5454 31.2864 39.4676L50.0854 37.8838" stroke="white" stroke-width="0.564931" stroke-linecap="round" stroke-linejoin="round"/>
<path id="Vector_31" d="M66.2703 113.614L112.059 109.755C113.309 109.648 114.466 109.049 115.275 108.089C116.085 107.13 116.481 105.888 116.375 104.638L113.717 73.4118C113.61 72.1614 113.011 71.0047 112.052 70.1955C111.093 69.3863 109.851 68.9908 108.601 69.0957L84.1357 71.1543" stroke="white" stroke-width="0.564931" stroke-linecap="round" stroke-linejoin="round"/>
<path id="Vector_32" d="M67.6285 72.5544L75.2318 71.9111" stroke="white" stroke-width="0.564931" stroke-linecap="round" stroke-linejoin="round"/>
<path id="Vector_33" d="M92.295 21.0889L78.1748 22.3038C76.8815 22.4482 75.6981 23.0992 74.8837 24.1143C74.0693 25.1294 73.6904 26.4258 73.83 27.7196L76.66 60.2898" stroke="white" stroke-width="0.564931" stroke-linecap="round" stroke-linejoin="round"/>
<path id="Vector_34" d="M86.8641 65.066L129.695 61.3645C130.646 61.2787 131.549 60.9081 132.285 60.3013C133.022 59.6944 133.558 58.8795 133.825 57.9629" stroke="white" stroke-width="0.564931" stroke-linecap="round" stroke-linejoin="round"/>
<path id="Vector_35" d="M132.453 37.5551L131.18 22.7637C131.095 21.4642 130.499 20.2515 129.521 19.3914C128.543 18.5314 127.264 18.0941 125.964 18.1757L108.715 19.6626" stroke="white" stroke-width="0.564931" stroke-linecap="round" stroke-linejoin="round"/>
<path id="Vector_36" d="M116.775 41.8564C115.304 44.1712 112.202 50.9315 110.401 55.3184C113.859 56.6698 116.772 59.127 118.687 62.3069" stroke="white" stroke-width="0.564931" stroke-linecap="round" stroke-linejoin="round"/>
<path id="Vector_37" d="M93.7527 49.2598C94.2754 51.9513 94.9579 54.6094 95.7962 57.22C95.0098 60.178 94.6957 62.8076 94.3244 64.4225" stroke="white" stroke-width="0.564931" stroke-linecap="round" stroke-linejoin="round"/>
<path id="Vector_38" d="M95.1245 38.2549C94.0451 39.9189 93.4154 41.834 93.2957 43.8138" stroke="white" stroke-width="0.564931" stroke-linecap="round" stroke-linejoin="round"/>
<path id="Vector_39" d="M110.387 55.333C106.357 58.2345 98.7396 59.7771 95.7959 57.2199" stroke="white" stroke-width="0.564931" stroke-linecap="round" stroke-linejoin="round"/>
<path id="Vector_40" d="M108.558 56.4336C110.707 58.1148 112.43 60.2788 113.587 62.7503" stroke="white" stroke-width="0.564931" stroke-linecap="round" stroke-linejoin="round"/>
<path id="Vector_41" d="M98.3354 27.9355C98.7572 27.0391 99.0065 26.0715 99.0705 25.083C98.6276 25.5688 98.2119 25.9801 97.8254 26.3372" stroke="white" stroke-width="0.564931" stroke-linecap="round" stroke-linejoin="round"/>
<path id="Vector_42" d="M114.732 45.6879L119.848 54.3336C123.807 61.5082 132.051 63.7649 137.226 53.0478C139.669 47.9883 140.828 44.5874 142.971 41.0713C139.466 40.0719 136.274 38.1927 133.699 35.6125C131.319 39.1937 129.204 42.9429 127.367 46.8305C117.006 24.808 115.734 28.691 108.831 28.3091C106.725 28.251 104.697 27.5028 103.058 26.1797" stroke="white" stroke-width="0.564931" stroke-linecap="round" stroke-linejoin="round"/>
<path id="Vector_43" d="M87.9648 45.8573C90.0084 38.9116 94.5866 35.7013 96.5962 33.5101C97.5416 32.6032 98.172 31.4168 98.3927 30.1254C98.6142 28.8339 98.4153 27.5055 97.8255 26.3355C94.2243 29.5082 92.238 26.9788 92.238 18.5771" stroke="white" stroke-width="0.564931" stroke-linecap="round" stroke-linejoin="round"/>
<path id="Vector_44" d="M109.703 28.3369C106.838 30.639 104.253 33.2681 101.999 36.1706C101.646 36.6103 101.185 36.9509 100.661 37.159C100.137 37.3671 99.5671 37.4358 99.0082 37.3581C98.45 37.2804 97.9205 37.0592 97.4731 36.716C97.0257 36.3729 96.6747 35.9194 96.4547 35.4001C96.2709 34.9707 96.1112 34.5715 95.9689 34.1851" stroke="white" stroke-width="0.564931" stroke-linecap="round" stroke-linejoin="round"/>
<path id="Vector_45" d="M127.366 46.8301L125.666 50.6603" stroke="white" stroke-width="0.564931" stroke-linecap="round" stroke-linejoin="round"/>
<path id="Vector_46" d="M56.2954 46.6729C54.2978 49.2339 52.884 49.0659 49.1215 50.7456C41.4611 54.1616 44.0906 67.8525 44.0906 67.8525" stroke="white" stroke-width="0.564931" stroke-linecap="round" stroke-linejoin="round"/>
<path id="Vector_47" d="M62.1119 42.7129C62.7363 45.6076 62.6798 46.7156 62.2693 47.3144C61.968 47.7581 60.7545 47.9005 59.6541 47.9005" stroke="white" stroke-width="0.564931" stroke-linecap="round" stroke-linejoin="round"/>
<path id="Vector_48" d="M62.3996 47.0761C61.9996 47.9046 60.4826 47.0761 58.967 45.9756C59.2533 47.2907 59.4529 48.8665 60.5247 48.9336C70.0261 49.5294 71.0294 50.6058 79.2752 64.7516" stroke="white" stroke-width="0.564931" stroke-linecap="round" stroke-linejoin="round"/>
<path id="Vector_49" d="M78.2612 62.9931C78.6183 61.9928 80.8336 57.4334 82.1201 53.3177C84.9372 53.0145 87.7686 53.7514 90.0803 55.3899C89.1938 59.5915 86.6222 65.9661 84.4062 70.6513C84.0295 71.4432 83.4699 72.134 82.7731 72.6669C82.0764 73.1997 81.2636 73.5591 80.4004 73.7155C79.538 73.8719 78.6499 73.8207 77.8108 73.5663C76.9717 73.3117 76.2049 72.8612 75.5744 72.2519C71.8744 68.6139 68.5868 64.579 65.771 60.2204" stroke="white" stroke-width="0.564931" stroke-linecap="round" stroke-linejoin="round"/>
<path id="Vector_50" d="M65.7848 60.2207L67.8999 66.8379" stroke="white" stroke-width="0.564931" stroke-linecap="round" stroke-linejoin="round"/>
<path id="Vector_51" d="M50.166 72.2408C54.4105 73.5966 61.6703 73.0836 67.3444 71.5402C68.2016 69.8537 67.8446 63.1943 67.8446 63.1943" stroke="white" stroke-width="0.564931" stroke-linecap="round" stroke-linejoin="round"/>
<path id="Vector_52" d="M50.1209 71.9106C48.292 74.5402 44.6975 74.6373 43.0464 71.8963C40.966 68.4314 40.0741 63.4931 39.6312 58.005C39.6312 58.005 42.8702 56.9686 44.226 57.3746" stroke="white" stroke-width="0.564931" stroke-linecap="round" stroke-linejoin="round"/>
<path id="Vector_53" d="M54.8348 90.6885L39.7436 104.051C38.7454 104.929 37.4628 105.416 36.1333 105.421C34.8038 105.426 33.5175 104.949 32.5125 104.079L17.6654 91.2338" stroke="white" stroke-width="0.564931" stroke-linecap="round" stroke-linejoin="round"/>
<path id="Vector_54" d="M37.616 93.2763L26.3829 82.6865" stroke="white" stroke-width="0.564931" stroke-linecap="round" stroke-linejoin="round"/>
<path id="Vector_55" d="M47.8194 57.9062C47.8194 57.9062 50.3051 67.9244 50.1492 72.4973C47.1253 74.216 44.7888 76.9278 43.5357 80.172C41.7106 85.1035 35.3894 91.1046 35.3894 91.1046" stroke="white" stroke-width="0.564931" stroke-linecap="round" stroke-linejoin="round"/>
<path id="Vector_56" d="M67.3433 71.5391C70.1438 81.0713 70.4225 87.4324 70.6154 96.6627C70.7693 99.2794 70.4112 101.901 69.5608 104.38L63.0159 122.787C59.013 122.367 55.1651 121.011 51.7828 118.829L58.3285 100.079C58.4546 96.8758 57.3801 93.7416 55.3155 91.2898C53.2717 88.8003 51.9913 85.7723 51.6284 82.5718" stroke="white" stroke-width="0.564931" stroke-linecap="round" stroke-linejoin="round"/>
<path id="Vector_57" d="M53.0083 49.2163C53.0083 49.2163 55.2944 51.7313 60.7253 48.9443" stroke="white" stroke-width="0.564931" stroke-linecap="round" stroke-linejoin="round"/>
<path id="Vector_58" d="M40.7608 57.678C40.7162 55.4975 40.4721 53.3257 40.0317 51.1896C39.6102 49.5456 39.0062 47.9539 38.2307 46.4442C37.0933 44.2267 37.4624 43.6263 39.289 45.6443C41.0928 47.9086 42.5783 50.4089 43.7045 53.0757" stroke="white" stroke-width="0.564931" stroke-linecap="round" stroke-linejoin="round"/>
<path id="Vector_59" d="M43.0701 51.6629C43.9777 52.6919 44.5208 49.5539 44.862 48.8594C45.3336 47.902 45.9166 46.8595 45.8766 49.8032C45.8653 50.6174 45.9625 51.9183 46.0913 53.2041" stroke="white" stroke-width="0.564931" stroke-linecap="round" stroke-linejoin="round"/>
<path id="Vector_60" d="M39.1737 48.5453C38.7594 48.0881 37.8178 47.1744 37.5444 46.9161C36.2955 45.7214 36.047 46.1425 36.1886 46.3888C36.7309 47.3394 37.7478 48.8037 38.2223 49.7031C38.9816 51.1598 40.5227 53.9333 40.6086 55.3622" stroke="white" stroke-width="0.564931" stroke-linecap="round" stroke-linejoin="round"/>
<path id="Vector_61" d="M38.1743 49.616C37.931 49.445 37.7299 49.3042 37.6169 49.2303C36.1691 48.2865 36.0162 48.7159 36.1857 48.929C36.8719 49.7862 38.1178 51.0562 38.7302 51.8727C39.4491 52.8787 40.0711 53.9505 40.5877 55.074" stroke="white" stroke-width="0.564931" stroke-linecap="round" stroke-linejoin="round"/>
<path id="Vector_62" d="M89.4088 54.9184C90.1756 52.6326 91.1412 50.4186 92.2959 48.302C93.2729 46.7045 94.4284 45.2229 95.7398 43.8857C97.665 41.9273 97.4722 41.156 94.8826 42.685C92.241 44.4891 89.8562 46.6429 87.7938 49.0876" stroke="white" stroke-width="0.564931" stroke-linecap="round" stroke-linejoin="round"/>
<path id="Vector_63" d="M88.9946 47.7311C87.5529 48.806 88.0847 45.1347 87.9498 44.2708C87.7683 43.1123 87.5069 41.8129 86.5774 44.9426C86.3206 45.7991 85.2766 48.4535 83.3083 53.2449" stroke="white" stroke-width="0.564931" stroke-linecap="round" stroke-linejoin="round"/>
<path id="Vector_64" d="M94.0527 45.7868C94.6387 45.4298 95.9252 44.7865 96.2966 44.6012C98.0117 43.7433 98.1239 44.2848 97.9115 44.4867C97.0325 45.3221 95.4831 46.5318 94.6959 47.3302C93.426 48.619 90.8943 51.0459 90.3226 52.5328" stroke="white" stroke-width="0.564931" stroke-linecap="round" stroke-linejoin="round"/>
<path id="Vector_65" d="M94.768 47.2594C95.0821 47.1592 95.3397 47.0741 95.4828 47.0334C97.3147 46.4722 97.3396 47.0176 97.0835 47.1908C96.0786 47.8687 94.3552 48.808 93.4385 49.4769C92.3539 50.3059 91.3498 51.2341 90.4376 52.2496" stroke="white" stroke-width="0.564931" stroke-linecap="round" stroke-linejoin="round"/>
<path id="Vector_66" d="M21.1388 77.7706C18.5951 74.1166 3.00227 86.7221 3.79467 90.8951C3.91745 91.5413 4.47636 92.1198 5.78022 91.9428C10.7915 91.2642 23.0182 80.4747 21.1388 77.7706Z" stroke="white" stroke-width="0.564931" stroke-linecap="round" stroke-linejoin="round"/>
<path id="Vector_67" d="M21.1387 77.7705C21.9243 78.7708 24.6254 82.0007 26.5552 84.399" stroke="white" stroke-width="0.564931" stroke-linecap="round" stroke-linejoin="round"/>
<path id="Vector_68" d="M61.4396 122.588C60.837 124.86 57.455 129.846 60.0529 136.236C61.3839 139.508 62.1537 144.28 60.3542 145.48" stroke="white" stroke-width="0.564931" stroke-linecap="round" stroke-linejoin="round"/>
<path id="Vector_69" d="M49.6068 127.39C50.0347 126.426 51.5901 122.908 52.9798 119.632" stroke="white" stroke-width="0.564931" stroke-linecap="round" stroke-linejoin="round"/>
<path id="Vector_70" d="M50.0638 126.961C46.8686 128.48 55.3983 144.101 59.3106 145.526C60.3915 145.92 60.9082 145.149 60.8653 144.002C60.6875 139.23 52.5337 125.789 50.0638 126.961Z" stroke="white" stroke-width="0.564931" stroke-linecap="round" stroke-linejoin="round"/>
<path id="Vector_71" d="M24.9545 82.4291C25.1505 82.3402 25.3661 82.3033 25.5806 82.3222C25.795 82.341 26.0008 82.4156 26.1779 82.5384C26.355 82.6604 26.4973 82.8268 26.5908 83.0204C26.6844 83.2148 26.7261 83.4294 26.7119 83.6441C26.4753 86.6571 20.878 91.8183 18.3614 91.514C17.6082 91.4221 17.1306 90.8895 17.3822 89.8757" stroke="white" stroke-width="0.564931" stroke-linecap="round" stroke-linejoin="round"/>
<path id="Vector_72" d="M62.1238 117.468L66.5099 103.596C67.271 101.428 67.5917 99.1297 67.453 96.836C66.8451 86.9046 66.1099 79.229 64.3232 72.2412" stroke="white" stroke-width="0.564931" stroke-linecap="round" stroke-linejoin="round"/>
<path id="Vector_73" d="M53.5656 113.713C56.8098 116.181 60.739 117.585 64.8129 117.729" stroke="white" stroke-width="0.564931" stroke-linecap="round" stroke-linejoin="round"/>
<path id="Vector_74" d="M21.8954 94.8916C26.2258 93.5049 28.6557 90.3722 30.1132 86.2881" stroke="white" stroke-width="0.564931" stroke-linecap="round" stroke-linejoin="round"/>
<path id="Vector_75" d="M52.6357 86.7305L40.4739 97.5063C39.4735 98.3974 38.1819 98.8923 36.8423 98.8976C35.5026 98.9028 34.2071 98.4185 33.1998 97.5349L26.783 91.9037" stroke="white" stroke-width="0.564931" stroke-linecap="round" stroke-linejoin="round"/>
<path id="Vector_76" d="M54.6942 76.0403C54.5089 76.069 54.237 79.671 54.7228 81.1285C55.6522 82.4128 56.8401 83.4891 58.2103 84.2868C58.9941 82.9815 59.9349 81.7763 61.0116 80.6999C60.8685 78.8846 60.6968 77.9272 60.4972 76.0117C58.5732 76.2867 56.6207 76.2964 54.6942 76.0403Z" stroke="white" stroke-width="0.564931" stroke-linecap="round" stroke-linejoin="round"/>
<path id="Vector_77" d="M46.5915 75.3135C47.3251 75.324 48.0455 75.5101 48.6923 75.8566C47.3771 76.4991 46.0484 79.7734 46.0484 79.7734L43.1183 81.1744" stroke="white" stroke-width="0.564931" stroke-linecap="round" stroke-linejoin="round"/>
<path id="Vector_78" d="M139.57 28.6211C141.83 29.3352 143.086 30.4929 144.542 32.3511" stroke="white" stroke-width="0.564931" stroke-linecap="round" stroke-linejoin="round"/>
<path id="Vector_79" d="M139.013 29.6807C139.802 30.4811 140.415 31.437 140.813 32.4875C141.212 33.5379 141.387 34.6599 141.328 35.7819" stroke="white" stroke-width="0.564931" stroke-linecap="round" stroke-linejoin="round"/>
<path id="Vector_80" d="M143.357 30.9371C144.234 29.7819 144.967 28.5246 145.541 27.1928C146.596 24.7206 147.242 25.4068 146.656 27.7502C146.499 28.3791 146.342 28.9222 146.199 29.3794C145.786 30.6946 145.379 32.0225 144.998 33.3528C144.594 34.7658 141.91 40.7413 141.91 40.7413C139.395 40.0694 136.78 38.2405 134.736 36.554C134.779 36.4682 135.866 34.4683 135.907 34.396C136.129 33.9962 136.223 33.5385 136.177 33.0839C136.131 32.6294 135.947 32.1997 135.651 31.8523C134.617 30.6125 133.233 28.764 133.692 28.2646C134.404 27.491 136.65 30.107 137.851 30.266C138.279 30.3225 138.623 29.0224 138.694 28.5508C138.823 27.6937 139.274 24.7771 139.308 24.4924C139.619 21.8425 140.566 22.2914 140.552 24.6347C140.538 26.8643 140.538 28.3075 140.538 28.3075" stroke="white" stroke-width="0.564931" stroke-linecap="round" stroke-linejoin="round"/>
<path id="Vector_81" d="M140.357 28.8798C140.357 28.8798 141.915 23.9928 142.014 23.6636C142.789 21.1064 143.602 21.6916 143.214 23.992C142.844 26.1937 142.442 28.8798 142.442 28.8798" stroke="white" stroke-width="0.564931" stroke-linecap="round" stroke-linejoin="round"/>
<path id="Vector_82" d="M142.06 29.6662C142.806 28.1715 143.464 26.6348 144.032 25.0639C144.958 22.548 145.639 23.1906 145.204 25.4789C144.965 26.9015 144.626 28.3056 144.189 29.6805" stroke="white" stroke-width="0.564931" stroke-linecap="round" stroke-linejoin="round"/>
<path id="Vector_83" d="M126.493 73.5413C126.533 73.8825 126.503 74.2281 126.408 74.558C126.312 74.8879 126.152 75.1957 125.937 75.4635C125.722 75.7317 125.456 75.9539 125.155 76.1181C124.854 76.2831 124.522 76.3862 124.181 76.4216C123.839 76.4578 123.494 76.4254 123.165 76.3275C122.836 76.2288 122.529 76.0669 122.263 75.8492C121.997 75.6315 121.777 75.3641 121.615 75.0611C121.453 74.7582 121.353 74.4262 121.32 74.0843L120.906 70.1675C120.84 69.4848 121.047 68.8037 121.481 68.2725C121.915 67.7414 122.541 67.4032 123.224 67.3316C123.905 67.26 124.588 67.4607 125.123 67.8901C125.658 68.3196 126.002 68.9429 126.079 69.6244L126.493 73.5413Z" stroke="white" stroke-width="0.564931" stroke-linecap="round" stroke-linejoin="round"/>
<path id="Vector_84" d="M119.205 72.5114L119.405 74.4405C119.467 75.0335 119.645 75.6087 119.929 76.133C120.213 76.6573 120.598 77.1205 121.061 77.4956C121.524 77.8715 122.057 78.1517 122.628 78.3219C123.2 78.4914 123.799 78.5471 124.392 78.4854C124.986 78.4228 125.561 78.2451 126.085 77.9611C126.609 77.6764 127.072 77.2922 127.448 76.829C127.823 76.3658 128.104 75.8332 128.274 75.2615C128.443 74.6899 128.499 74.0904 128.437 73.4974L128.238 71.5684" stroke="white" stroke-width="0.564931" stroke-linecap="round" stroke-linejoin="round"/>
<path id="Vector_85" d="M124.393 78.4844L124.778 82.0856" stroke="white" stroke-width="0.564931" stroke-linecap="round" stroke-linejoin="round"/>
<path id="Vector_86" d="M122.85 82.2874L126.694 81.8867" stroke="white" stroke-width="0.564931" stroke-linecap="round" stroke-linejoin="round"/>
<path id="Vector_87" d="M92.9368 93.2917L97.5535 95.4497L96.7241 85.6455L92.5369 88.5605" stroke="white" stroke-width="0.564931" stroke-linecap="round" stroke-linejoin="round"/>
<path id="Vector_88" d="M88.5652 85.4603C89.497 85.379 90.4242 85.6532 91.1616 86.2286C91.8991 86.8041 92.3909 87.6372 92.5378 88.5607L92.9235 93.0048C92.9664 93.4899 92.9129 93.9787 92.7668 94.4435C92.6207 94.9082 92.3841 95.3398 92.0708 95.7127C91.7574 96.0855 91.374 96.3936 90.9417 96.6181C90.5093 96.8426 90.0363 96.9796 89.5512 97.0211L80.6336 97.7638C80.1477 97.8082 79.6581 97.7562 79.1926 97.6109C78.7279 97.4647 78.2955 97.2282 77.9227 96.9149C77.5491 96.6015 77.241 96.2166 77.0173 95.7835C76.7936 95.3504 76.6572 94.8773 76.6173 94.3915L76.2603 90.2487C76.2158 89.7628 76.2678 89.2732 76.4132 88.8085C76.5593 88.343 76.7951 87.9106 77.1092 87.5378C77.4225 87.1642 77.8067 86.8561 78.2398 86.6324C78.6737 86.4087 79.1467 86.2723 79.6325 86.2324L88.5652 85.4603Z" stroke="white" stroke-width="0.564931" stroke-linecap="round" stroke-linejoin="round"/>
<path id="Vector_89" d="M113.203 11.4313C113.114 10.326 112.635 9.28841 111.851 8.50421C111.067 7.71994 110.029 7.24025 108.924 7.15093C107.819 7.0616 106.717 7.36847 105.818 8.01664C104.918 8.6648 104.278 9.61193 104.013 10.6886C105.187 11.23 106.217 12.0376 107.024 13.0474C107.831 14.0571 108.39 15.2411 108.658 16.5051C109.296 16.4904 109.925 16.3449 110.505 16.0777C111.085 15.8106 111.603 15.4275 112.029 14.952C112.455 14.4766 112.779 13.9188 112.981 13.3133C113.182 12.7077 113.258 12.0672 113.203 11.4313Z" stroke="white" stroke-width="0.564931" stroke-linecap="round" stroke-linejoin="round"/>
<path id="Vector_90" d="M108.787 17.5323C108.607 15.3672 107.586 13.3591 105.941 11.9389C104.298 10.5188 102.162 9.79979 99.9937 9.93635C97.8259 10.0729 95.7974 11.0541 94.3444 12.6693C92.8921 14.2846 92.1298 16.405 92.2232 18.5755C93.9444 18.1089 95.7138 17.8403 97.4959 17.7748C97.5923 18.3602 97.7257 18.9389 97.8959 19.5073C98.0533 19.8643 98.2959 19.8929 98.7245 19.2353C99.6826 17.8494 101.626 19.9931 99.3534 21.651C100.334 23.3485 101.58 24.8781 103.044 26.1817C104.839 25.6029 106.385 24.4322 107.428 22.861C108.471 21.2898 108.95 19.4111 108.787 17.5323Z" stroke="white" stroke-width="0.564931" stroke-linecap="round" stroke-linejoin="round"/>
<path id="Vector_91" d="M13.0934 65.7664L16.08 65.4658" stroke="white" stroke-width="0.564931" stroke-linecap="round" stroke-linejoin="round"/>
<path id="Vector_92" d="M21.3677 64.9228L24.355 64.623" stroke="white" stroke-width="0.564931" stroke-linecap="round" stroke-linejoin="round"/>
<path id="Vector_93" d="M18.1509 59.5635L18.4514 62.5508" stroke="white" stroke-width="0.564931" stroke-linecap="round" stroke-linejoin="round"/>
<path id="Vector_94" d="M18.9951 67.8389L19.2949 70.8255" stroke="white" stroke-width="0.564931" stroke-linecap="round" stroke-linejoin="round"/>
<path id="Vector_95" d="M14.3367 61.6221L16.6657 63.5082" stroke="white" stroke-width="0.564931" stroke-linecap="round" stroke-linejoin="round"/>
<path id="Vector_96" d="M20.7819 66.8662L23.1116 68.7666" stroke="white" stroke-width="0.564931" stroke-linecap="round" stroke-linejoin="round"/>
<path id="Vector_97" d="M22.2973 60.8066L20.4104 63.1364" stroke="white" stroke-width="0.564931" stroke-linecap="round" stroke-linejoin="round"/>
<path id="Vector_98" d="M17.0508 67.252L15.1504 69.5817" stroke="white" stroke-width="0.564931" stroke-linecap="round" stroke-linejoin="round"/>
<path id="Vector_99" d="M82.2909 31.5531L80.5584 27.3229C81.6175 25.7484 82.1297 23.8692 82.0159 21.9749C81.7018 17.0035 77.0852 13.1431 71.5835 13.3005C65.9666 13.4572 61.5368 17.7447 61.6935 22.8757C61.8494 28.2923 66.9165 32.17 72.452 31.8438C74.4349 31.7188 76.347 31.0593 77.9853 29.9351L82.2909 31.5531Z" stroke="white" stroke-width="0.564931" stroke-linecap="round" stroke-linejoin="round"/>
<path id="Vector_100" d="M49.3635 29.3938C49.0993 29.6469 48.7659 29.816 48.4056 29.8797C48.0453 29.9433 47.6742 29.8987 47.3392 29.7515C47.0042 29.6042 46.7204 29.3609 46.5237 29.0523C46.3271 28.7438 46.2263 28.3838 46.2342 28.018C46.2421 27.6522 46.3583 27.2969 46.5682 26.9972C46.778 26.6974 47.072 26.4665 47.413 26.3339C47.754 26.2012 48.1267 26.1727 48.484 26.2518C48.8412 26.3309 49.1669 26.5143 49.42 26.7786C49.7582 27.1334 49.942 27.6078 49.9314 28.0979C49.9209 28.5879 49.7167 29.0539 49.3635 29.3938Z" stroke="white" stroke-width="0.564931" stroke-linecap="round" stroke-linejoin="round"/>
<path id="Vector_101" d="M125.793 5.01367L126.437 12.8172" stroke="white" stroke-width="0.564931" stroke-linecap="round" stroke-linejoin="round"/>
<path id="Vector_102" d="M130.024 8.58594L122.221 9.24352" stroke="white" stroke-width="0.564931" stroke-linecap="round" stroke-linejoin="round"/>
<path id="Vector_103" d="M19.4238 91.3898C18.8799 90.7231 18.1779 90.2026 17.3818 89.8757C15.9958 89.3748 14.6362 89.8177 13.0213 90.2757C9.76726 91.1796 6.27898 93.1425 4.44861 91.7875" stroke="white" stroke-width="0.564931" stroke-linecap="round" stroke-linejoin="round"/>
<path id="Vector_104" d="M52.7941 92.5327L52.6367 86.7305" stroke="white" stroke-width="0.564931" stroke-linecap="round" stroke-linejoin="round"/>
</g>
</g>
</g>
</svg>
