<svg xmlns="http://www.w3.org/2000/svg" width="36" height="36" viewBox="0 0 36 36"><defs><style>.a{fill:#5869eb;}</style></defs><path class="a" d="M342.774,482.174a1.5,1.5,0,0,0-1.459-1.534v0a1.536,1.536,0,1,0,1.459,1.53Zm-5.223,0a1.5,1.5,0,0,0-1.454-1.534l0,0a1.536,1.536,0,1,0,1.459,1.53Z" transform="translate(-320.783 -462.888)"/><path class="a" d="M18,36A18,18,0,1,0,0,18,18,18,0,0,0,18,36ZM21.582,9.216H21.6l0-.006Zm-.056.019.02-.019h.036Zm-.01.009H21.5l.027-.009Zm0,0a10.5,10.5,0,0,1,5.964,2.194,27.2,27.2,0,0,1,3.159,12.22c-.018-.022-.094.057-.234.2a8.745,8.745,0,0,1-6.5,2.8s-.81-.93-1.384-1.74a6.913,6.913,0,0,0,3.839-2.445,16.35,16.35,0,0,1-1.838.99c-.21.1-.408.2-.594.294a15.791,15.791,0,0,1-3.066.915l-.069.015a17.821,17.821,0,0,1-5.587,0,14.25,14.25,0,0,1-3.135-.931c-.428-.207-.944-.42-1.466-.635l-.153-.063a.142.142,0,0,1-.1-.051V23l0,0a.132.132,0,0,0-.1-.048h-.1a5.777,5.777,0,0,0-.582-.348,6.891,6.891,0,0,0,3.724,2.445c-.7.815-1.4,1.743-1.4,1.743-4.775-.116-6.516-3.144-6.516-3.144A27.248,27.248,0,0,1,8.5,11.424a10.463,10.463,0,0,1,6.053-2.211l.235.236A12.422,12.422,0,0,0,9.2,12.124s.466-.231,1.28-.585a15.568,15.568,0,0,1,4.893-1.28h.348a17.889,17.889,0,0,1,4.308,0,18.93,18.93,0,0,1,6.519,1.98A14.011,14.011,0,0,0,21.2,9.564l.321-.319Z"/></svg>