<svg xmlns="http://www.w3.org/2000/svg" width="37.118" height="44.721" viewBox="0 0 37.118 44.721"><defs><style>.a{fill:#0194b9;}.b{fill:#fff;}</style></defs><g transform="translate(-601 -529.641)"><path class="a" d="M114.428.322l.016.017,9.409,9.808.014.015.291.3V41.4a3.333,3.333,0,0,1-3.334,3.324H90.374A3.333,3.333,0,0,1,87.04,41.4V3.326A3.333,3.333,0,0,1,90.374,0h23.744l.309.322Z" transform="translate(513.96 529.641)"/><path class="b" d="M12.762,40.012a2.2,2.2,0,0,1,4.2.085A1.932,1.932,0,0,1,15.7,42.45a.723.723,0,0,0-.5.589v1.767h-.674V42.872c0-.167-.337-.337-.5-.419A2.067,2.067,0,0,1,12.762,40.012Zm-7.9,13.03A2.851,2.851,0,0,1,2,50.435,2.819,2.819,0,0,1,4.859,47.66Zm19,0v-5.38a2.735,2.735,0,0,1,2.859,2.607A2.815,2.815,0,0,1,23.858,53.042ZM22.43,45.729v9.165c0,.841-.167,1.008-1.178,1.093h-3.7c-.085,0-.085,0-.252.085v1.26h1.345c.5,0,.841.252.841.756v2.607c0,.5-.337.756-.841.756H9.987a.754.754,0,0,1-.841-.841V58.087c0-.589.252-.756.841-.841h1.178l.085-.085V55.9H7.13c-.674,0-.926-.252-.926-.841V45.644c0-.674.252-.841,1.008-.841H21.338C22.261,44.72,22.43,44.888,22.43,45.729ZM12.173,50.267a1.425,1.425,0,0,0-1.512-1.345,1.4,1.4,0,0,0-1.43,1.345v.085a1.472,1.472,0,1,0,2.942-.085Zm-1.43,8.409v1.43h7.313v-1.43Zm8.828-8.324a1.418,1.418,0,0,0-1.43-1.43h-.085a1.424,1.424,0,0,0-1.512,1.345,1.493,1.493,0,0,0,1.512,1.43A1.374,1.374,0,0,0,19.571,50.352Z" transform="translate(605 501.549)"/></g></svg>