<svg xmlns="http://www.w3.org/2000/svg" width="37.118" height="44.721" viewBox="0 0 37.118 44.721"><defs><style>.a{fill:#ff871e;}.b{fill:#fff;}</style></defs><g transform="translate(-599.882 -330.279)"><path class="a" d="M114.428.322l.016.017,9.409,9.808.014.015.291.3V41.4a3.333,3.333,0,0,1-3.334,3.324H90.374A3.333,3.333,0,0,1,87.04,41.4V3.326A3.333,3.333,0,0,1,90.374,0h23.744l.309.322Z" transform="translate(512.842 330.279)"/><path class="b" d="M15.232,62.958V58.946a1.028,1.028,0,0,0-1.108-1.065H10.247a1.026,1.026,0,0,0-1.106,1.065v4.01l-5.095,0V58.186a.306.306,0,0,0-.306-.305H2.309a.305.305,0,0,0-.306.3v5.736a1.028,1.028,0,0,0,1.11,1.065H21.244a1.027,1.027,0,0,0,1.108-1.065V58.186a.306.306,0,0,0-.305-.305l-1.427,0a.305.305,0,0,0-.306.305v4.771l-5.082,0Zm-4.076-3.036h2.038v3.036H11.156Zm9.886-13.048a1.071,1.071,0,0,1,1,.8l2.227,6.684a1.014,1.014,0,0,1-.11,1.026,1.362,1.362,0,0,1-.888.456H1.1a.992.992,0,0,1-.887-.455A1.041,1.041,0,0,1,.1,54.355l2.21-6.68a1.07,1.07,0,0,1,1-.8Zm-.492,1.892H17.909l.818,5.061h3.307L20.55,48.766Zm-4.771,0H13.137v5.061h3.108l-.467-5.061Zm-4.564,0H8.572l-.467,5.061h3.109V48.766Zm-4.762,0H3.81L2.327,53.827H5.633l.819-5.061Zm13.177-6.1a.3.3,0,0,1,.306.29v1.448a.3.3,0,0,1-.306.29H4.721a.3.3,0,0,1-.305-.29V42.957a.3.3,0,0,1,.305-.29Z" transform="translate(607.257 300.992)"/></g></svg>