<svg xmlns="http://www.w3.org/2000/svg" width="31.028" height="33.036" viewBox="0 0 31.028 33.036"><defs><style>.a{fill:#e01e5a;}.b{fill:#36c5f0;}.c{fill:#2eb67d;}.d{fill:#ecb22e;}</style></defs><g transform="translate(-42.667)"><path class="a" d="M49.2,540.01a3.272,3.272,0,1,1-3.266-3.476H49.2v3.476Zm1.633,0a3.273,3.273,0,1,1,6.533,0V548.7a3.273,3.273,0,1,1-6.533,0v-8.694Z" transform="translate(0 -519.145)"/><path class="b" d="M54.1,6.955a3.377,3.377,0,0,1-3.266-3.478,3.273,3.273,0,1,1,6.533,0V6.955Zm0,1.738a3.378,3.378,0,0,1,3.267,3.478A3.377,3.377,0,0,1,54.1,15.648H45.933a3.377,3.377,0,0,1-3.266-3.478,3.378,3.378,0,0,1,3.266-3.478H54.1Z" transform="translate(0)"/><path class="c" d="M554.726,12.171a3.272,3.272,0,1,1,6.532,0,3.376,3.376,0,0,1-3.266,3.478h-3.266Zm-1.633,0a3.273,3.273,0,1,1-6.533,0V3.478a3.273,3.273,0,1,1,6.533,0Z" transform="translate(-487.564)"/><path class="d" d="M549.827,545.185a3.484,3.484,0,1,1-3.267,3.478v-3.478Zm0-1.739a3.484,3.484,0,0,1,0-6.955h8.164a3.484,3.484,0,0,1,0,6.955Z" transform="translate(-487.564 -519.104)"/></g></svg>