<svg xmlns="http://www.w3.org/2000/svg" width="37.118" height="44.721" viewBox="0 0 37.118 44.721"><defs><style>.a{fill:#4a90e2;}</style></defs><path class="a" d="M114.428.322l.016.017,9.409,9.808.014.015.291.3V41.4a3.333,3.333,0,0,1-3.334,3.324H90.374A3.333,3.333,0,0,1,87.04,41.4V3.326A3.333,3.333,0,0,1,90.374,0h23.744l.309.322ZM100.379,18.055s-2.94,2.791-3.153,4.9a25.6,25.6,0,0,1,8.609-7.114s-2.169-.3-5.455,2.209Zm16.146,9.187,0,0a11.366,11.366,0,0,0-1.307-6.394c.6-.579.771-2.629.771-2.629a3.712,3.712,0,0,0-.788-3.053c-1.641-1.711-5.614-.315-5.614-.315a27.566,27.566,0,0,0-9.177,5.654c-6.592,5.918-7.1,11.967-7.1,11.967-.284,4.153,3.217,4.184,3.217,4.184,3.617.186,5.314-1.137,5.527-1.317a9.36,9.36,0,0,0,4.346,1.156c8.009-.521,9.611-7.06,9.611-7.06h-5.325c-1.2,2.943-4.761,2.355-4.761,2.355-3.5-.722-3.533-4.546-3.533-4.546h14.128Zm-1.742-11.265h0c1.744,1.347.521,4.043.261,4.569a8.456,8.456,0,0,0-4.268-3.638c-5.32,3.2-6.581,4.748-6.581,4.748a4.684,4.684,0,0,1,2.99-1.02c3.948.447,3.819,3.843,3.822,3.858H102.4a4.394,4.394,0,0,1,1-2.167,27.449,27.449,0,0,0-5.867,7.886,9.875,9.875,0,0,0,4.016,4.824,5.941,5.941,0,0,1-2.46.9c-3.217.392-3.122-2.191-3.122-2.191.093-2.681,2.711-6.863,2.711-6.863a40.794,40.794,0,0,1,5.7-6.442,31.6,31.6,0,0,1,6.079-4.119c2.956-1.521,4.329-.344,4.329-.344Z" transform="translate(-87.04)"/></svg>