<svg xmlns="http://www.w3.org/2000/svg" width="40" height="40" viewBox="0 0 40 40">
  <g id="组_4663" data-name="组 4663" transform="translate(-718 -90)">
    <rect id="矩形_1" data-name="矩形 1" width="40" height="40" transform="translate(718 90)" fill="#066be9"/>
    <g id="组_1" data-name="组 1" transform="translate(725 103.133)">
      <path id="路径_1" data-name="路径 1" d="M32.055,15.19H24.571a7.6,7.6,0,0,1,0-15.19h7.484a7.6,7.6,0,0,1,0,15.19M24.571,1.482a6.113,6.113,0,1,0,0,12.226h7.484a6.113,6.113,0,0,0,0-12.226Z" transform="translate(-15.614)" fill="#fff"/>
      <path id="路径_2" data-name="路径 2" d="M2.613,71.752c0,1.092-.585,1.978-1.307,1.978S0,72.845,0,71.752s.585-1.978,1.307-1.978,1.307.886,1.307,1.978" transform="translate(0 -64.175)" fill="#fff"/>
      <path id="路径_3" data-name="路径 3" d="M286.145,71.752c0,1.092-.585,1.978-1.307,1.978s-1.307-.886-1.307-1.978.585-1.978,1.307-1.978,1.307.886,1.307,1.978" transform="translate(-260.78 -64.175)" fill="#fff"/>
      <path id="路径_4" data-name="路径 4" d="M116.975,116.13h-.7a1.163,1.163,0,0,1-1.163-1.163v-.7a1.163,1.163,0,0,1,1.163-1.163h.7a1.163,1.163,0,0,1,1.163,1.163v.7a1.163,1.163,0,0,1-1.163,1.163" transform="translate(-105.875 -104.029)" fill="#fff"/>
      <path id="路径_5" data-name="路径 5" d="M166.027,116.13h-.7a1.163,1.163,0,0,1-1.163-1.163v-.7a1.163,1.163,0,0,1,1.163-1.163h.7a1.163,1.163,0,0,1,1.163,1.163v.7a1.163,1.163,0,0,1-1.163,1.163" transform="translate(-150.991 -104.029)" fill="#fff"/>
    </g>
  </g>
</svg>
