<svg width="241" height="241" viewBox="0 0 241 241" fill="none" xmlns="http://www.w3.org/2000/svg">
<g id="smart-people">
<g id="Group">
<path id="Vector" d="M85.8727 180.37C87.8731 179.661 89.9225 179.1 92.0047 178.69L92.2567 179.614C92.2848 179.723 92.3513 179.818 92.4438 179.882C92.5364 179.946 92.6489 179.974 92.7607 179.962L101.005 179.002C103.273 173.83 107.437 165.994 107.497 165.874C107.437 163.918 107.497 162.274 107.497 160.402C102.781 162.154 94.0567 165.478 89.4967 167.602C89.3936 167.668 89.3138 167.765 89.2687 167.879C89.2235 167.993 89.2151 168.119 89.2447 168.238C89.2447 168.238 89.3287 168.538 89.4367 168.97C87.2047 168.97 80.5207 168.646 78.9127 170.17C78.6627 170.518 78.5398 170.942 78.5647 171.37C78.4687 173.026 79.2967 185.89 80.6167 189.67C81.3007 191.65 82.7407 191.434 83.7247 189.538C84.8636 186.683 85.5947 183.681 85.8967 180.622C85.8967 180.466 85.8607 180.478 85.8727 180.37ZM84.4927 169.63C85.9567 169.51 86.4127 169.534 89.5567 169.438C90.1207 171.574 91.2847 175.966 91.8847 178.21C89.7675 178.538 87.6777 179.023 85.6327 179.662C84.9954 176.352 84.6143 172.998 84.4927 169.63Z" fill="#E1FF01"/>
<path id="Vector_2" d="M196.321 64.6062C196.621 64.1862 196.237 63.6462 195.913 63.2262C196.83 62.2822 197.848 61.4412 198.949 60.7182C200.805 59.7929 202.502 58.5777 203.977 57.1182C204.589 56.4822 205.741 55.1742 205.309 54.4062C204.877 53.6382 204.109 53.5902 203.065 54.0342C203.517 53.5593 203.886 53.0117 204.157 52.4142C204.493 51.4782 203.701 50.7222 201.985 51.4182C202.609 50.4222 202.753 49.3782 201.697 48.8742C200.845 48.4662 199.597 49.4382 198.877 50.0742C197.463 51.3095 196.136 52.6407 194.905 54.0582C194.149 52.4742 192.949 50.6502 191.449 51.2262C189.949 51.8022 191.113 54.3822 191.881 55.7862L189.157 57.6702C188.745 57.448 188.28 57.3441 187.813 57.3702C184.717 57.8982 170.497 68.7222 169.057 68.7222C167.953 68.7222 152.185 61.1622 138.553 58.9782C138.526 58.8964 138.477 58.8238 138.412 58.7686C138.346 58.7134 138.266 58.6779 138.181 58.6662C135.803 58.2605 133.392 58.0797 130.981 58.1262C130.907 58.1311 130.836 58.1519 130.772 58.1872C130.708 58.2224 130.652 58.2712 130.609 58.3302H129.601C129.361 57.3582 128.473 55.1142 128.161 54.2502C128.977 53.5422 130.105 53.1822 130.693 52.0422C131.773 49.9302 131.725 46.2582 131.425 43.9062C132.781 42.8742 132.817 41.2182 132.505 39.5262C132.385 38.8422 132.013 37.2942 131.437 36.9102C131.113 36.6942 130.429 36.9102 129.841 37.1262C129.253 35.7582 129.253 36.3822 129.493 35.8302C129.604 35.5758 129.669 35.3035 129.685 35.0262C130.321 35.2182 131.641 33.9462 131.185 32.2662C130.946 31.6648 130.652 31.0864 130.309 30.5382C130.477 30.1302 130.837 29.6382 129.709 28.1382C129.223 27.6142 128.592 27.2466 127.897 27.0822H127.345C126.946 26.5041 126.362 26.0804 125.689 25.8822C124.672 25.623 123.595 25.7739 122.689 26.3022C122.449 26.4822 122.257 26.7222 122.017 26.8902C121.474 26.5607 120.851 26.3865 120.217 26.3865C119.582 26.3865 118.959 26.5607 118.417 26.8902C118.099 27.0148 117.81 27.2024 117.566 27.4416C117.323 27.6808 117.131 27.9667 117.001 28.2822C116.413 28.0793 115.789 28.0012 115.169 28.0529C114.549 28.1045 113.947 28.2848 113.401 28.5822C111.328 29.7063 109.777 31.5972 109.081 33.8502C109.061 34.1899 109.061 34.5305 109.081 34.8702H108.949C107.149 34.6062 104.857 38.8782 106.693 42.2022C106.909 42.5982 107.185 42.9702 107.449 43.4022C108.217 44.6022 107.917 44.9622 109.633 46.4262C110.137 46.8582 110.221 46.8222 110.533 47.0862C110.845 47.3502 110.725 47.2182 110.905 47.8902C111.003 48.2861 111.178 48.6585 111.421 48.986C111.664 49.3136 111.97 49.5896 112.321 49.7982C112.448 50.972 112.949 52.0739 113.749 52.9422C114.002 53.2257 114.297 53.4685 114.625 53.6622C114.713 53.7119 114.811 53.7407 114.913 53.7462C115.273 55.9782 115.717 58.8822 115.909 60.1182L114.841 60.6942C113.443 61.2564 112.084 61.9099 110.773 62.6502C110.67 62.7214 110.597 62.8283 110.569 62.9502C109.297 63.6222 108.097 64.2582 107.413 64.6662C97.8845 70.3182 70.8245 107.578 70.5485 109.282C70.5181 109.38 70.5181 109.485 70.5485 109.582C70.9364 110.201 71.409 110.762 71.9525 111.25C71.785 111.556 71.5838 111.842 71.3525 112.102C68.9525 113.674 65.3525 116.014 63.4205 118.102C63.285 118.223 63.1834 118.377 63.1256 118.549C63.0678 118.721 63.0559 118.905 63.091 119.084C63.1262 119.262 63.2071 119.428 63.3259 119.565C63.4448 119.702 63.5973 119.806 63.7685 119.866C64.1285 119.986 64.1885 119.95 66.5285 118.666C65.8854 119.23 65.3595 119.915 64.9805 120.682C64.8245 121.342 65.4245 121.726 66.1805 121.606C66.6059 121.495 67.0109 121.316 67.3805 121.078C67.1641 121.412 67.0489 121.802 67.0489 122.2C67.0489 122.598 67.1641 122.988 67.3805 123.322C68.5805 124.834 71.7245 120.07 73.3805 118.894C74.0525 119.746 74.9645 121.738 76.4165 121.21C77.6765 120.742 76.2965 117.97 76.4165 117.166C76.9048 116.697 77.4262 116.264 77.9765 115.87C78.9022 116.557 79.9607 117.043 81.0845 117.298C83.0645 117.298 103.729 96.4422 105.301 94.7742C104.737 100.078 101.893 122.842 102.493 127.27C102.769 129.274 107.581 129.562 109.609 129.67C108.997 144.07 108.589 165.886 108.481 166.114C105.301 172.966 104.437 174.838 103.369 176.914C101.425 180.634 93.2405 194.362 92.3165 197.482C92.1845 197.974 92.1725 198.166 92.6885 199.078C91.1422 200.704 89.7069 202.432 88.3925 204.25C87.7325 205.45 90.5645 216.634 92.5685 220.594C93.0245 221.482 93.7685 222.85 94.7645 222.814C97.7645 222.706 97.7525 211.93 97.6685 208.918C97.6681 208.825 97.6339 208.736 97.5725 208.666C98.1163 207.855 98.7094 207.077 99.3485 206.338C99.73 206.601 100.131 206.833 100.549 207.034C100.957 207.214 101.413 206.902 101.749 206.626C105.745 203.482 127.297 176.626 131.917 163.954C134.017 158.17 136.813 150.178 137.605 144.514C138.089 140.933 138.133 137.306 137.737 133.714C137.737 133.663 137.757 133.614 137.793 133.578C137.829 133.542 137.878 133.522 137.929 133.522C137.979 133.522 138.028 133.542 138.064 133.578C138.1 133.614 138.121 133.663 138.121 133.714C138.721 137.327 138.839 141.003 138.469 144.646C137.581 152.506 131.377 168.886 128.065 174.91C130.921 174.382 136.729 173.23 139.537 172.39C148.897 169.546 157.537 161.062 158.293 151.534C158.537 147.046 158.537 142.547 158.293 138.058C158.212 131.862 157.406 125.696 155.893 119.686C158.437 118.306 160.765 116.686 161.521 115.198C163.141 112.018 158.857 93.7182 157.921 88.5822C163.045 89.1462 171.769 90.1662 175.837 86.9862C180.493 83.2422 190.549 72.7062 196.321 64.6062ZM97.0205 208.258C94.8605 206.95 91.8365 203.842 91.3805 201.406C91.8725 200.782 92.3885 200.206 92.8685 199.558C94.4948 202.04 96.5225 204.234 98.8685 206.05C98.2095 206.749 97.5924 207.486 97.0205 208.258ZM192.421 56.1222C192.483 56.0826 192.527 56.0207 192.545 55.9493C192.563 55.8779 192.553 55.8024 192.517 55.7382C192.097 54.9582 190.837 52.2102 191.713 51.8982C192.217 51.7062 192.661 52.0182 193.033 52.4382C193.601 53.1588 194.043 53.9703 194.341 54.8382C194.363 54.9088 194.404 54.972 194.459 55.021C194.515 55.0701 194.582 55.1032 194.655 55.1167C194.728 55.1303 194.803 55.1238 194.872 55.098C194.941 55.0722 195.002 55.028 195.049 54.9702C196.249 53.6382 199.057 50.6022 200.641 49.7862C201.841 49.1622 202.129 50.3142 199.189 53.0022C198.513 53.5171 197.864 54.0658 197.245 54.6462C197.21 54.6933 197.192 54.75 197.192 54.8082C197.192 54.8664 197.21 54.9231 197.245 54.9702C197.245 55.2822 197.497 55.6302 197.929 55.3062C198.972 54.3906 200.074 53.5447 201.229 52.7742C201.818 52.3556 202.503 52.0915 203.221 52.0062C202.861 53.1102 199.513 56.1102 199.225 56.4462C199.133 56.5281 199.078 56.6425 199.07 56.7649C199.062 56.8873 199.103 57.0079 199.183 57.1007C199.263 57.1935 199.377 57.2511 199.499 57.2611C199.621 57.2711 199.742 57.2327 199.837 57.1542C201.169 56.2902 203.497 54.2742 204.301 54.5742C205.105 54.8742 202.717 57.1062 202.117 57.6342C198.673 60.6222 199.561 58.7022 195.577 62.7582C193.842 60.8585 191.851 59.2105 189.661 57.8622L192.421 56.1222ZM140.281 113.518C140.077 111.862 139.825 110.074 139.513 108.214L140.029 107.53C142.429 104.446 143.149 99.5382 142.921 95.6862C144.205 101.314 145.225 106.846 146.005 112.342L140.281 113.518ZM122.437 72.4302C119.281 70.0302 114.205 65.8902 111.253 63.0582L116.053 60.6582C120.46 64.7752 124.233 69.5228 127.249 74.7462C131.859 83.2162 135.279 92.2816 137.413 101.686L120.301 77.4822L122.533 72.8502C122.562 72.7789 122.569 72.7001 122.552 72.6249C122.534 72.5496 122.494 72.4816 122.437 72.4302ZM130.549 58.8222C130.621 58.9542 131.449 60.7182 132.709 63.8022C132.709 63.9342 132.481 66.9342 132.373 67.9902C130.841 67.3831 129.396 66.5761 128.077 65.5902C128.341 64.5462 129.529 59.8062 129.613 58.7382L130.549 58.8222ZM126.289 71.7102C126.373 71.4942 126.457 71.2062 126.553 70.8702L127.357 71.2902C127.813 71.5902 127.633 70.6782 128.041 73.3182C128.041 73.7622 128.161 74.2542 128.185 74.7942C127.633 73.7982 126.949 72.7302 126.301 71.7102H126.289ZM125.617 70.7022C123.349 67.4866 120.769 64.504 117.913 61.7982L126.949 65.7222C126.601 66.5502 126.097 69.0822 125.629 70.7022H125.617ZM134.845 77.7342C133.645 74.4582 132.721 70.7982 132.265 69.8382C132.292 69.5388 132.292 69.2376 132.265 68.9382C132.438 69.0028 132.62 69.0432 132.805 69.0582C132.92 69.0595 133.033 69.0189 133.121 68.944C133.209 68.869 133.267 68.7647 133.285 68.6502C133.381 68.2542 133.537 66.2502 133.561 65.8062C137.051 74.6196 139.965 83.6507 142.285 92.8422C135.505 78.4182 136.549 82.5942 134.857 77.7342H134.845ZM144.769 100.642C142.033 87.5262 137.221 71.1702 131.749 59.0502C133.758 59.0513 135.764 59.2118 137.749 59.5302C138.769 68.6502 137.917 68.3382 138.601 68.6982C139.285 69.0582 143.401 70.7142 144.013 70.9662C143.953 71.8902 144.817 98.3142 144.781 100.642H144.769ZM130.957 37.6782C131.582 39.0434 131.803 40.5593 131.593 42.0462C131.495 42.4246 131.294 42.7685 131.013 43.0396C130.731 43.3107 130.38 43.4984 129.998 43.5817C129.616 43.665 129.219 43.6408 128.85 43.5116C128.481 43.3825 128.155 43.1535 127.909 42.8502C127.336 41.644 126.905 40.3756 126.625 39.0702C126.949 38.6502 130.405 37.8102 130.957 37.6782ZM114.445 49.6782C114.006 49.4786 113.558 49.3024 113.101 49.1502C112.794 49.0241 112.52 48.8295 112.3 48.5812C112.08 48.3329 111.92 48.0376 111.832 47.7179C111.744 47.3982 111.73 47.0625 111.792 46.7367C111.854 46.4109 111.99 46.1035 112.189 45.8382C112.945 45.2022 113.629 45.2382 114.253 46.1862C114.649 46.9182 114.637 46.9782 114.817 47.0502C114.868 47.073 114.924 47.0844 114.981 47.0838C115.037 47.0832 115.093 47.0705 115.144 47.0467C115.195 47.0228 115.24 46.9883 115.277 46.9454C115.314 46.9026 115.341 46.8524 115.357 46.7982C115.534 46.0471 115.563 45.2683 115.441 44.5062C115.297 43.6782 115.273 40.0062 115.297 39.8862C115.647 40.071 116.041 40.158 116.437 40.1382C118.609 40.0542 119.041 38.9382 119.905 38.0262C120.901 38.1222 121.105 38.6022 122.233 38.0262C122.761 37.7257 123.245 37.3543 123.673 36.9222C124.017 37.0634 124.35 37.2319 124.669 37.4262C125.388 37.7721 126.199 37.8783 126.983 37.7292C127.767 37.5802 128.482 37.1838 129.025 36.5982C129.157 36.8502 129.277 37.1022 129.385 37.3662C128.282 37.7084 127.244 38.2315 126.313 38.9142C126.109 39.1662 126.409 40.5342 126.481 40.8582C125.475 40.9847 124.503 41.2981 123.613 41.7822C123.433 41.1582 123.037 39.9942 122.413 39.6702C122.225 39.6127 122.024 39.6127 121.837 39.6702C120.757 39.8382 116.881 41.0022 116.413 41.6382C116.005 42.0822 117.169 45.5142 117.529 46.0782C118.909 48.2142 122.953 47.5902 123.709 45.0942C123.896 44.2565 123.896 43.3879 123.709 42.5502C124.057 42.5502 125.101 42.1782 125.221 42.1422C126.049 44.0022 126.289 44.1102 127.249 46.1142C127.117 46.2222 126.901 46.4022 126.721 46.5222C125.869 47.0862 125.689 46.9902 125.737 47.2302C125.751 47.2778 125.781 47.3187 125.823 47.3452C125.865 47.3718 125.916 47.382 125.965 47.3742C126.468 47.3022 126.96 47.1651 127.429 46.9662C127.709 46.8617 127.94 46.6562 128.077 46.3902C128.413 45.6342 126.553 42.7902 125.821 41.9382C125.965 41.9382 126.301 41.6982 126.553 41.5662C126.889 42.9102 127.117 43.9662 128.413 44.4942C128.787 44.6356 129.186 44.7 129.586 44.6835C129.986 44.667 130.379 44.57 130.741 44.3982C130.933 46.5102 130.897 49.9422 129.889 51.8142C129.373 52.7862 128.101 53.1582 127.285 53.9622C127.045 54.1902 127.201 54.5142 127.285 54.8622C128.617 58.5702 128.641 58.5582 128.569 59.0382C128.215 61.0305 127.722 62.9953 127.093 64.9182C126.793 64.7862 123.421 62.9982 116.821 60.4302C116.617 59.0742 115.525 51.8382 115.177 50.5062C115.201 50.0382 115.141 49.9302 114.445 49.6182V49.6782ZM122.845 44.7822C122.461 46.0902 120.649 46.6542 119.353 46.2942C118.057 45.9342 117.973 45.2742 117.361 43.7142C117.074 43.1182 116.876 42.4835 116.773 41.8302C117.169 41.3982 121.501 40.5102 122.041 40.4262C122.798 41.7219 123.082 43.2403 122.845 44.7222V44.7822ZM75.8885 116.83C75.4325 117.274 76.0445 118.726 76.1405 119.986C76.1405 120.094 76.1405 120.562 76.0685 120.598C75.4085 120.814 74.7965 119.818 74.4245 119.218C74.0525 118.618 73.6805 117.802 73.0925 118.018C71.8925 118.582 69.1085 122.278 68.0165 122.662C67.4645 121.606 70.6205 118.594 70.7285 118.426C70.7748 118.349 70.7991 118.261 70.7987 118.171C70.7983 118.081 70.7732 117.993 70.7262 117.916C70.6791 117.839 70.612 117.777 70.532 117.736C70.452 117.694 70.3623 117.676 70.2725 117.682C70.0565 117.682 69.9125 117.874 69.5765 118.174C68.5545 119.172 67.3848 120.005 66.1085 120.646C67.2657 119.319 68.504 118.064 69.8165 116.89C69.8814 116.824 69.927 116.741 69.9485 116.65C69.9485 116.65 69.6965 116.014 69.2045 116.266C68.5085 116.65 65.1245 118.606 64.0565 119.11C63.9125 119.014 63.9965 118.87 64.0565 118.726C65.7485 116.65 69.4685 114.13 71.7485 112.534C72.0161 112.259 72.2388 111.943 72.4085 111.598C73.9876 113.067 75.6721 114.419 77.4485 115.642C76.9013 116.001 76.38 116.398 75.8885 116.83ZM103.813 127.738C103.549 127.57 103.357 127.414 103.321 127.198C102.661 122.302 106.333 94.5582 106.273 93.4662C106.273 93.4021 106.26 93.3387 106.235 93.2797C106.21 93.2207 106.174 93.1672 106.128 93.1225C106.082 93.0777 106.028 93.0426 105.968 93.0192C105.908 92.9958 105.845 92.9846 105.781 92.9862C105.169 92.9862 106.249 92.9862 90.9605 107.626C89.9525 108.574 82.2485 115.942 80.9645 116.434C79.2005 116.302 72.5645 111.01 71.4845 109.342C73.5725 105.118 98.8925 70.3662 107.653 65.0502C108.325 64.6422 109.477 64.0062 110.737 63.3342C111.172 63.7451 111.642 64.1185 112.141 64.4502C114.925 67.0902 118.801 70.3782 121.741 72.8502L119.449 77.3982C119.414 77.4584 119.395 77.5267 119.395 77.5962C119.395 77.6657 119.414 77.734 119.449 77.7942C138.061 104.494 137.785 104.194 137.905 104.194C139.098 110.364 139.84 116.613 140.125 122.89C140.125 124.582 140.125 124.438 140.197 124.318C140.269 124.198 140.197 124.402 140.197 124.402C137.293 127.57 108.553 130.522 103.813 127.738ZM170.149 87.9822C164.713 88.7382 158.569 87.6102 157.381 87.5622C156.72 84.3632 155.405 81.3356 153.517 78.6702C153.488 78.6314 153.445 78.6048 153.398 78.5959C153.35 78.587 153.301 78.5964 153.26 78.6222C153.219 78.6479 153.189 78.6882 153.177 78.7349C153.164 78.7817 153.17 78.8314 153.193 78.8742C153.889 80.2902 156.217 86.3982 156.793 87.8862C156.613 88.4622 162.217 111.634 160.633 114.754C159.217 117.574 150.973 121.126 147.997 122.146C147.408 115.466 146.447 108.823 145.117 102.25C145.525 98.7942 144.997 78.2502 144.841 70.6542C144.836 70.5659 144.806 70.4808 144.756 70.4086C144.705 70.3364 144.634 70.2801 144.553 70.2462L139.165 67.9782C139.14 65.1265 138.96 62.2782 138.625 59.4462C152.077 61.7742 167.749 69.4662 169.057 69.4782C170.953 69.4782 185.041 58.6782 187.957 58.2462C189.253 58.0422 194.821 62.9022 195.469 64.2462C189.781 72.1902 179.785 82.6302 175.153 86.2422C173.66 87.2399 171.938 87.8389 170.149 87.9822Z" fill="#E1FF01"/>
<path id="Vector_3" d="M121.609 42.3824C121.594 42.3036 121.564 42.2285 121.52 42.1615C121.476 42.0944 121.419 42.0367 121.353 41.9915C121.286 41.9464 121.212 41.9148 121.133 41.8985C121.055 41.8821 120.974 41.8814 120.895 41.8964C120.816 41.9114 120.741 41.9417 120.674 41.9857C120.607 42.0297 120.549 42.0865 120.504 42.1528C120.459 42.2191 120.427 42.2936 120.411 42.3721C120.395 42.4506 120.394 42.5316 120.409 42.6104C120.649 43.8104 120.697 44.0864 121.225 44.0864C121.325 44.0868 121.423 44.0622 121.511 44.015C121.599 43.9677 121.674 43.8993 121.728 43.8159C121.783 43.7325 121.816 43.6367 121.825 43.5373C121.833 43.4379 121.817 43.3379 121.777 43.2464C121.741 43.0544 121.633 42.4904 121.609 42.3824ZM125.281 50.3264C126.061 50.5544 126.805 50.1824 126.781 49.9904C126.757 49.7984 126.781 49.8944 125.725 49.4984C125.017 49.2344 124.237 48.2984 123.961 48.4424C123.685 48.5864 124.105 49.3544 124.201 49.4984C124.458 49.8879 124.838 50.1796 125.281 50.3264ZM147.229 38.9264C145.657 45.5144 144.505 51.1064 144.313 52.2224C144.185 52.708 144.161 53.2148 144.241 53.7104C144.877 55.0664 153.097 57.7424 154.141 57.2144C155.185 56.6864 157.897 50.5784 161.053 44.2784C162.986 44.3402 164.921 44.1994 166.825 43.8584C168.83 43.4906 170.781 42.8738 172.633 42.0224C176.689 40.1504 181.129 32.1344 181.729 28.1024C182.179 23.7249 181.252 19.316 179.077 15.4904C169.009 -1.96959 139.477 7.42641 141.877 26.8184C142.562 31.2557 144.409 35.4328 147.229 38.9264ZM154.549 53.2184C154.549 53.4104 154.333 53.3864 153.349 53.2184C151.336 52.9655 149.388 52.343 147.601 51.3824C146.761 50.9264 146.533 50.8304 146.617 50.6264C146.701 50.4224 146.881 50.4944 148.177 50.8544C148.297 50.8544 152.017 52.0544 153.085 52.4264C154.465 53.0504 154.549 53.0504 154.549 53.2184ZM154.333 33.6944C155.614 33.7609 156.891 33.4964 158.041 32.9264C159.109 33.4441 160.265 33.7574 161.449 33.8504C159.433 37.6064 155.341 45.2624 154.021 49.3424L148.933 47.9384C150.133 44.9864 152.785 38.0744 154.309 33.6944H154.333ZM153.913 32.6984C153.017 32.5631 152.19 32.1376 151.56 31.4874C150.929 30.8371 150.529 29.9979 150.421 29.0984C150.085 26.6984 151.621 24.0104 153.937 24.6464C155.389 25.0424 155.569 26.1944 155.317 27.6464C155.101 28.7024 154.321 31.3544 153.889 32.6504L153.913 32.6984ZM157.177 29.8184C157.305 29.0332 157.6 28.2844 158.041 27.6224C158.251 27.2615 158.558 26.9667 158.927 26.7716C159.296 26.5764 159.712 26.4887 160.129 26.5184C161.017 26.7824 161.401 28.4624 160.669 29.5184C159.965 30.452 159.09 31.2422 158.089 31.8464C157.745 31.6443 157.47 31.3417 157.303 30.9791C157.136 30.6166 157.083 30.2116 157.153 29.8184H157.177ZM146.149 14.5664C151.525 8.09841 161.641 5.53041 168.949 8.19441C172.919 9.55718 176.258 12.3165 178.345 15.9584C180.414 19.5987 181.299 23.7926 180.877 27.9584C180.325 31.6904 176.077 39.4424 172.345 41.1584C168.933 42.7148 165.21 43.4701 161.461 43.3664C161.053 43.3664 160.621 43.3664 160.465 43.6544C159.757 45.0944 158.461 47.8784 157.189 50.4944C156.311 50.0703 155.4 49.7172 154.465 49.4384C155.857 45.4544 160.249 37.6304 162.337 33.8384C164.146 33.9934 165.965 33.6793 167.617 32.9264C168.063 32.6914 168.433 32.334 168.684 31.896C168.934 31.4581 169.055 30.9578 169.031 30.4538C169.007 29.9499 168.839 29.4633 168.549 29.051C168.258 28.6388 167.856 28.318 167.389 28.1264C165.529 27.2144 163.861 29.3984 162.889 31.2344C162.625 31.7144 162.325 32.2784 161.989 32.9144C161.018 32.8506 160.061 32.6527 159.145 32.3264C160.057 31.6851 160.867 30.9081 161.545 30.0224C161.925 29.4487 162.117 28.7711 162.096 28.0833C162.074 27.3955 161.84 26.7313 161.425 26.1824C161.099 25.8038 160.646 25.5571 160.151 25.4887C159.656 25.4202 159.153 25.5346 158.737 25.8104C157.896 26.3268 157.223 27.0748 156.797 27.9645C156.372 28.8543 156.212 29.848 156.337 30.8264C156.467 31.3787 156.765 31.8773 157.189 32.2544C156.402 32.5804 155.557 32.7437 154.705 32.7344C155.185 31.3184 155.965 28.7624 156.169 27.7184C156.297 27.1232 156.325 26.5109 156.253 25.9064C156.16 25.3875 155.919 24.9064 155.559 24.5211C155.2 24.1358 154.736 23.8626 154.225 23.7344C151.309 22.9064 149.161 26.1344 149.581 29.1464C149.7 30.2258 150.163 31.2382 150.902 32.0336C151.641 32.8291 152.617 33.3651 153.685 33.5624C152.149 37.8824 149.749 44.8544 148.549 47.8304L145.909 47.1464C147.601 38.6504 147.805 38.8544 147.565 38.7464C144.838 35.27 143.094 31.1261 142.513 26.7464C142.23 24.5747 142.408 22.3678 143.034 20.2693C143.661 18.1708 144.722 16.2277 146.149 14.5664ZM162.805 32.9864C163.645 31.4624 165.325 28.1264 166.957 28.9424C167.283 29.0739 167.568 29.2921 167.779 29.5734C167.991 29.8546 168.121 30.1883 168.157 30.5384C168.133 32.6504 164.845 33.0224 162.757 32.9864H162.805ZM208.741 38.2784C210.187 37.4279 211.895 37.1376 213.541 37.4624C215.349 37.4948 217.076 38.2176 218.368 39.4828C219.66 40.748 220.419 42.4595 220.489 44.2664C219.402 43.6356 218.13 43.3983 216.889 43.5944C213.877 43.8584 209.941 45.4904 210.469 48.3944C210.901 50.7944 214.069 50.4704 216.469 49.8224C218.869 49.1744 220.777 47.9984 221.269 45.6824C224.185 47.8064 224.869 51.5264 224.989 55.1624C224.989 55.2133 225.009 55.2622 225.045 55.2982C225.081 55.3342 225.13 55.3544 225.181 55.3544C225.232 55.3544 225.281 55.3342 225.317 55.2982C225.353 55.2622 225.373 55.2133 225.373 55.1624C225.457 51.0944 224.725 47.1104 221.401 44.7944C221.435 43.7525 221.257 42.7146 220.879 41.7433C220.5 40.7721 219.928 39.8878 219.198 39.144C218.468 38.4002 217.594 37.8124 216.63 37.4161C215.666 37.0197 214.631 36.8232 213.589 36.8384C211.923 36.5952 210.225 36.9433 208.789 37.8224C208.345 38.0384 208.549 38.3624 208.741 38.2784ZM219.685 46.8824C218.329 48.6584 214.489 49.5824 212.713 49.2824C212.053 49.1744 211.513 48.8984 211.369 48.2144C210.937 45.8144 215.077 44.5064 217.549 44.4224C218.555 44.3452 219.559 44.6026 220.405 45.1544C220.314 45.7818 220.066 46.3761 219.685 46.8824ZM203.245 24.2504C204.529 22.6664 203.665 19.9064 200.077 19.8944C198.685 19.8944 198.013 21.3104 198.109 22.6664C198.325 25.8944 201.961 25.7984 203.245 24.2504ZM198.949 22.6064C198.949 21.8144 199.321 20.7824 200.149 20.7944C202.081 20.7944 202.969 21.6944 202.969 22.6904C202.921 24.9584 198.793 26.1344 198.949 22.6064ZM198.457 158.65C187.909 154.438 183.013 174.826 174.397 192.346C174.342 193.083 174.367 193.823 174.469 194.554C174.469 196.39 174.673 208.546 175.741 209.926C176.029 210.478 177.241 209.926 177.805 209.578C182.595 206.613 187.109 203.223 191.293 199.45C191.329 199.41 191.355 199.362 191.372 199.31C191.388 199.259 191.394 199.204 191.389 199.15C193.621 195.97 201.985 179.41 204.013 171.106C205.429 165.226 204.025 160.846 198.457 158.65ZM202.225 173.89C196.578 173.167 191.118 171.384 186.133 168.634C188.941 163.318 192.409 157.258 198.133 159.538C204.505 162.07 204.373 167.314 202.225 173.854V173.89ZM182.257 205.09C181.888 204.781 181.486 204.516 181.057 204.298C179.435 203.474 177.562 203.294 175.813 203.794C175.693 202.366 175.009 193.078 175.009 192.994C183.997 196.282 181.225 194.854 190.129 199.282C189.193 200.17 185.677 202.63 182.257 205.066V205.09ZM188.449 170.362C189.619 171.002 190.821 171.583 192.049 172.102C189.298 176.423 186.868 180.939 184.777 185.614C182.761 189.826 182.833 189.802 180.781 194.398C179.581 194.014 178.381 193.654 177.181 193.294C178.477 190.714 187.693 171.85 188.449 170.338V170.362ZM181.249 194.518C185.149 187.522 189.121 178.822 192.529 172.258C193.729 172.762 194.929 173.17 196.129 173.53C195.493 174.73 193.633 177.922 193.141 178.846C192.649 179.77 187.717 189.49 187.369 190.234C186.817 191.434 185.305 194.782 184.837 195.85C183.613 195.31 182.437 194.902 181.201 194.494L181.249 194.518ZM185.269 196.006C186.001 194.674 189.013 189.082 189.385 188.362C189.949 187.246 196.237 174.394 196.585 173.65C197.689 173.962 198.853 174.226 199.597 174.37C197.401 180.37 191.077 191.926 188.797 197.626C186.721 196.654 186.253 196.414 185.221 195.982L185.269 196.006ZM186.001 168.982L188.149 170.182C183.82 177.554 180.05 185.24 176.869 193.174L175.069 192.622C182.041 177.766 182.365 175.822 185.953 168.958L186.001 168.982ZM190.945 198.67L189.133 197.806C191.089 193.966 197.209 184.114 200.005 174.454C200.677 174.574 201.337 174.682 201.973 174.766C198.889 182.995 195.187 190.977 190.897 198.646L190.945 198.67ZM153.349 206.458C153.827 206.062 154.169 205.526 154.326 204.926C154.483 204.325 154.448 203.69 154.225 203.11C154.123 202.274 153.74 201.498 153.138 200.909C152.536 200.319 151.751 199.953 150.913 199.869C150.075 199.785 149.233 199.989 148.527 200.447C147.82 200.906 147.29 201.591 147.025 202.39C145.489 201.394 143.821 200.338 142.225 199.33C143.425 197.734 146.953 198.442 147.313 199.75C147.321 199.801 147.349 199.847 147.39 199.877C147.432 199.908 147.484 199.92 147.535 199.912C147.586 199.904 147.631 199.877 147.662 199.835C147.692 199.793 147.705 199.741 147.697 199.69C147.517 197.602 143.173 196.378 141.421 198.838C139.873 197.89 137.953 196.738 136.345 195.862C137.725 194.662 140.809 195.334 141.145 196.582C141.161 196.625 141.191 196.661 141.231 196.683C141.27 196.705 141.317 196.713 141.361 196.704C141.406 196.696 141.446 196.671 141.475 196.636C141.503 196.6 141.518 196.556 141.517 196.51C141.361 194.566 137.341 193.258 135.517 195.394C134.753 194.966 133.949 194.613 133.117 194.338C132.965 194.275 132.798 194.258 132.636 194.287C132.474 194.317 132.324 194.393 132.205 194.506C129.169 198.286 118.933 208.102 114.205 209.242C114.086 209.26 113.974 209.309 113.88 209.384C113.786 209.459 113.714 209.558 113.67 209.67C113.626 209.781 113.612 209.903 113.631 210.022C113.649 210.141 113.698 210.253 113.773 210.346C114.811 211.4 116 212.294 117.301 212.998C116.101 214.198 115.165 215.278 114.469 216.058C114.109 216.442 113.917 223.786 114.229 225.406C114.275 225.565 114.378 225.701 114.517 225.79C116.029 226.822 135.505 235.246 137.497 234.118C138.829 233.362 154.729 216.814 154.981 216.31C155.365 215.518 155.233 210.238 155.209 208.126C155.113 207.49 153.925 206.806 153.349 206.458ZM114.949 222.31V219.634C119.929 222.034 131.329 226.93 135.649 228.298C136.753 228.658 136.849 228.61 137.425 228.298C140.725 226.186 152.377 213.058 154.513 211.054V213.586C148.033 220.078 137.029 231.454 136.825 230.806C135.637 230.734 115.981 222.79 114.949 222.31ZM153.049 202.414C153.48 203.141 153.712 203.969 153.721 204.814C153.717 205.083 153.651 205.348 153.528 205.587C153.405 205.826 153.229 206.034 153.013 206.194C152.005 205.522 150.097 204.274 147.841 202.81C149.077 200.374 151.825 200.338 153.001 202.414H153.049ZM114.649 210.094C119.761 208.582 129.469 199.222 132.733 195.166C133.518 195.385 134.276 195.695 134.989 196.09C133.789 198.322 135.073 200.77 135.529 200.422C135.781 200.23 135.325 200.158 135.253 198.982C135.222 198.123 135.417 197.271 135.817 196.51C137.473 197.374 139.417 198.502 141.061 199.45C140.053 201.694 141.265 203.914 141.685 203.59C142.105 203.266 141.493 203.338 141.421 202.162C141.392 201.391 141.539 200.624 141.853 199.918C143.545 200.914 145.273 201.946 146.857 202.918C146.613 203.516 146.516 204.164 146.574 204.807C146.633 205.451 146.845 206.07 147.193 206.614C147.209 206.635 147.228 206.652 147.251 206.665C147.273 206.678 147.298 206.686 147.323 206.69C147.349 206.693 147.375 206.691 147.4 206.684C147.425 206.678 147.448 206.666 147.469 206.65C147.489 206.635 147.507 206.615 147.519 206.593C147.532 206.57 147.541 206.545 147.544 206.52C147.547 206.494 147.546 206.468 147.539 206.443C147.532 206.418 147.521 206.395 147.505 206.374C147.289 205.898 147.183 205.379 147.193 204.856C147.203 204.332 147.33 203.818 147.565 203.35C150.361 205.054 152.617 206.482 153.313 206.95C153.181 207.07 140.665 218.206 136.405 221.518C133.609 220.786 118.933 213.502 114.649 210.094ZM115.105 216.778C120.541 219.178 132.889 224.746 135.733 225.286C136.225 225.382 136.417 225.418 137.353 224.674C141.349 221.47 154.345 207.874 154.465 208.018C154.471 208.054 154.471 208.091 154.465 208.126V210.526C151.789 212.674 136.909 228.298 136.669 227.554C135.469 227.554 115.969 219.598 114.973 219.154C114.949 218.65 115.057 217.306 115.105 216.778ZM136.957 233.314C135.757 233.998 117.481 226.57 115.033 225.058C114.941 224.294 114.897 223.524 114.901 222.754C120.157 225.346 135.445 231.802 136.849 231.742C138.901 231.634 153.409 215.302 154.441 214.162C154.453 214.775 154.392 215.388 154.261 215.986C154.057 216.382 137.749 232.87 136.957 233.314ZM37.5369 165.67C37.6209 166.954 37.6809 168.07 37.6809 169.114C37.6809 169.274 37.7441 169.426 37.8566 169.539C37.9691 169.651 38.1218 169.714 38.2809 169.714C38.44 169.714 38.5926 169.651 38.7051 169.539C38.8177 169.426 38.8809 169.274 38.8809 169.114C38.8809 167.998 38.8209 166.894 38.7369 165.586C38.7257 165.427 38.6518 165.279 38.5314 165.174C38.411 165.07 38.254 165.017 38.0949 165.028C37.9358 165.04 37.7876 165.113 37.6829 165.234C37.5783 165.354 37.5257 165.511 37.5369 165.67ZM220.381 141.61C220.303 141.615 220.226 141.635 220.155 141.67C220.085 141.704 220.022 141.753 219.971 141.812C219.919 141.871 219.88 141.94 219.856 142.015C219.832 142.089 219.822 142.168 219.829 142.246C219.901 143.35 219.973 144.538 219.973 145.69C219.973 145.85 220.036 146.002 220.149 146.115C220.261 146.227 220.414 146.29 220.573 146.29C220.732 146.29 220.885 146.227 220.997 146.115C221.11 146.002 221.173 145.85 221.173 145.69C221.173 144.49 221.101 143.29 221.017 142.162C221.012 142.084 220.992 142.007 220.958 141.937C220.923 141.867 220.875 141.804 220.815 141.752C220.756 141.701 220.687 141.662 220.612 141.637C220.538 141.613 220.459 141.604 220.381 141.61ZM34.4289 162.682C34.588 162.682 34.7406 162.619 34.8531 162.507C34.9657 162.394 35.0289 162.242 35.0289 162.082C35.0289 161.923 34.9657 161.771 34.8531 161.658C34.7406 161.546 34.588 161.482 34.4289 161.482C32.9769 161.482 31.7649 161.59 30.5649 161.566C30.4046 161.566 30.2508 161.629 30.1363 161.741C30.0219 161.854 29.956 162.006 29.9529 162.166C29.9529 162.326 30.0161 162.478 30.1286 162.591C30.2411 162.703 30.3938 162.766 30.5529 162.766C31.7889 162.79 33.1449 162.742 34.4289 162.682ZM216.661 138.058C215.221 138.058 214.009 138.142 212.797 138.154C212.638 138.154 212.485 138.218 212.373 138.33C212.26 138.443 212.197 138.595 212.197 138.754C212.197 138.914 212.26 139.066 212.373 139.179C212.485 139.291 212.638 139.354 212.797 139.354C214.093 139.354 215.437 139.354 216.733 139.258C216.892 139.249 217.041 139.176 217.147 139.057C217.252 138.938 217.306 138.782 217.297 138.622C217.287 138.463 217.215 138.314 217.096 138.209C216.976 138.103 216.82 138.049 216.661 138.058ZM37.2129 155.266C37.2849 156.37 37.3569 157.558 37.3569 158.71C37.36 158.869 37.4242 159.019 37.536 159.131C37.6479 159.243 37.7987 159.307 37.9569 159.31C38.116 159.31 38.2686 159.247 38.3811 159.135C38.4937 159.022 38.5569 158.87 38.5569 158.71C38.5569 157.51 38.4849 156.31 38.4129 155.182C38.4017 155.023 38.3278 154.875 38.2074 154.77C38.087 154.666 37.93 154.613 37.7709 154.624C37.6118 154.636 37.4636 154.709 37.3589 154.83C37.2543 154.95 37.2017 155.107 37.2129 155.266ZM220.849 135.286C220.849 134.086 220.777 132.886 220.693 131.758C220.682 131.599 220.608 131.451 220.487 131.346C220.367 131.242 220.21 131.189 220.051 131.2C219.892 131.212 219.744 131.285 219.639 131.406C219.534 131.526 219.482 131.683 219.493 131.842C219.565 132.946 219.637 134.134 219.637 135.286C219.637 135.446 219.7 135.598 219.813 135.711C219.925 135.823 220.078 135.886 220.237 135.886C220.397 135.886 220.551 135.824 220.665 135.711C220.78 135.599 220.846 135.447 220.849 135.286ZM46.0689 162.526C46.1477 162.523 46.2251 162.505 46.2967 162.472C46.3684 162.439 46.4328 162.392 46.4863 162.334C46.5398 162.276 46.5813 162.208 46.6085 162.134C46.6357 162.06 46.6481 161.981 46.6449 161.902C46.6328 161.745 46.5617 161.599 46.446 161.492C46.3302 161.385 46.1784 161.326 46.0209 161.326C44.5689 161.386 43.3569 161.434 42.1449 161.41C41.9858 161.41 41.8331 161.474 41.7206 161.586C41.6081 161.699 41.5449 161.851 41.5449 162.01C41.5449 162.17 41.6081 162.322 41.7206 162.435C41.8331 162.547 41.9858 162.61 42.1449 162.61C43.4289 162.634 44.7729 162.586 46.0689 162.526ZM228.301 137.902C227.101 137.962 225.769 137.998 224.437 137.998C224.358 137.995 224.279 138.008 224.204 138.036C224.13 138.064 224.063 138.107 224.005 138.162C223.948 138.217 223.903 138.283 223.872 138.356C223.841 138.429 223.825 138.507 223.825 138.586C223.825 138.747 223.888 138.901 224 139.015C224.112 139.129 224.265 139.195 224.425 139.198C225.793 139.198 226.897 139.198 228.349 139.102C228.428 139.099 228.505 139.081 228.577 139.048C228.648 139.015 228.713 138.968 228.766 138.91C228.82 138.852 228.861 138.784 228.889 138.71C228.916 138.636 228.928 138.557 228.925 138.478C228.91 138.322 228.838 138.177 228.723 138.071C228.608 137.965 228.458 137.905 228.301 137.902ZM18.4929 126.97C18.6489 127.09 52.4889 122.074 53.9409 121.186C54.0213 121.128 54.0855 121.05 54.1275 120.959C54.1694 120.869 54.1878 120.77 54.1809 120.67C54.1809 119.122 52.1529 104.59 51.1809 100.966C51.0609 100.522 50.9409 100.078 50.6649 99.9224C48.8289 98.8184 16.4769 104.914 14.5449 106.162C14.4925 106.193 14.4473 106.235 14.4121 106.285C14.377 106.334 14.3527 106.391 14.3409 106.45C13.9329 107.902 17.4489 126.25 18.4929 126.97ZM15.0729 106.738C17.3769 105.694 46.7409 100.318 50.1009 100.738C50.9169 102.838 53.1009 118.222 53.2449 120.478C51.5769 120.97 18.9489 126.574 18.8289 126.598C18.7089 126.622 18.6969 126.766 18.4449 126.01C17.3889 122.842 15.0129 109.45 15.0729 106.738Z" fill="white"/>
<path id="Vector_4" d="M56.5803 122.255C56.6456 122.134 56.6748 121.996 56.6643 121.859C56.6643 119.951 53.9283 98.7708 52.9563 97.0788C52.8801 96.954 52.7723 96.8517 52.6437 96.7821C52.5151 96.7126 52.3705 96.6783 52.2243 96.6828C48.2043 96.1908 14.2923 102.815 12.0603 104.363C11.7483 104.579 11.7963 105.119 11.8323 105.695C12.0243 108.851 15.4323 129.611 16.6323 129.491C16.7643 129.491 16.7163 129.395 16.4043 130.031C14.5323 133.883 10.9803 146.219 11.0523 148.703C11.0523 149.747 11.2923 151.103 12.3243 151.031C19.7283 150.119 56.0283 144.359 66.4683 142.211C66.8763 142.127 67.1403 141.755 67.1283 141.143C67.0052 140.123 66.696 139.135 66.2163 138.227C64.7523 135.479 58.6803 124.595 56.5803 122.255ZM16.7043 129.119C15.7683 127.919 12.3243 107.243 12.5883 104.951C15.2283 103.583 48.6843 97.1148 52.1883 97.6428C53.1483 100.283 55.6323 119.351 55.7883 121.643C51.5403 123.107 22.1283 127.859 16.7043 129.119ZM17.2323 129.479C18.2403 129.227 52.5723 123.479 55.7163 122.651C57.4323 124.247 65.1843 138.035 65.6883 139.211C58.8003 140.411 17.9403 147.239 11.9283 148.151C12.0123 144.515 15.7443 131.807 17.2323 129.479Z" fill="white"/>
<path id="Vector_5" d="M21.7446 141.923C22.7886 141.767 44.9406 139.103 52.9446 136.931C52.9939 136.918 53.0361 136.886 53.062 136.842C53.0879 136.799 53.0953 136.746 53.0826 136.697C53.0698 136.647 53.038 136.605 52.9941 136.579C52.9503 136.553 52.8979 136.546 52.8486 136.559C51.2766 136.883 32.1006 139.439 21.7206 141.551C21.6919 141.546 21.6624 141.547 21.6344 141.555C21.6063 141.563 21.5805 141.577 21.5587 141.597C21.537 141.616 21.5199 141.64 21.5089 141.667C21.4979 141.694 21.4931 141.723 21.495 141.752C21.4968 141.781 21.5053 141.809 21.5197 141.835C21.5341 141.86 21.5541 141.882 21.5782 141.898C21.6022 141.915 21.6297 141.925 21.6585 141.93C21.6874 141.934 21.7168 141.932 21.7446 141.923ZM37.9326 58.4268C37.4843 59.4392 37.1074 60.4818 36.8046 61.5468C36.7867 61.7177 36.8338 61.8891 36.9366 62.0268C38.1486 63.8508 50.5686 77.8548 53.8086 79.8228C54.2526 80.0988 54.7806 80.2908 55.1046 79.8948C57.4582 76.9661 60.5298 74.6965 64.0206 73.3068C66.8617 72.3016 69.8405 71.739 72.8526 71.6388C75.2526 71.4228 75.6726 71.1828 76.5966 69.6108C77.6865 67.542 79.1326 65.6815 80.8686 64.1148C83.082 62.1795 85.5388 60.5416 88.1766 59.2428C88.2953 59.1755 88.3881 59.0705 88.4403 58.9444C88.4925 58.8183 88.501 58.6783 88.4646 58.5468C88.0589 57.5146 87.5225 56.5386 86.8686 55.6428C87.3006 55.4988 87.7806 55.3668 87.7806 54.9348C87.7806 53.7348 77.3166 38.5908 74.4126 35.7348C74.1126 35.4348 73.6806 35.0388 73.2846 35.0628C67.2846 35.3988 61.4406 41.0628 58.0566 46.0068C54.1806 45.8628 51.6726 45.5148 47.2566 47.3748C44.1391 48.6981 41.3284 50.6509 39.0006 53.1108C38.6406 53.4828 36.1926 56.0748 36.1566 56.2788C36.1206 56.4828 36.1926 56.4828 37.9326 58.4268ZM85.9326 58.0908C80.9286 58.9428 77.7366 63.1068 75.3846 67.6308C74.3406 69.6468 74.4366 69.7428 73.3326 69.7188C71.402 69.6095 69.4655 69.6818 67.5486 69.9348C66.1425 70.145 64.7601 70.4906 63.4206 70.9668C60.3726 72.0468 56.8806 75.5028 55.0206 78.0708C54.981 78.1236 54.9308 78.1675 54.8732 78.1995C54.8155 78.2316 54.7517 78.2511 54.686 78.2568C54.6203 78.2624 54.5541 78.2541 54.4918 78.2324C54.4295 78.2107 54.3725 78.1761 54.3246 78.1308C50.4246 74.1108 43.5246 67.0548 40.0566 62.9988C39.8886 62.8188 40.1766 62.5548 40.3446 62.7468C42.5886 65.1468 48.3846 70.8948 54.6006 77.1468C56.7006 74.4708 59.9406 71.2308 63.1446 70.1028C64.8917 69.4796 66.7097 69.0765 68.5566 68.9028C70.2861 68.7715 72.023 68.7715 73.7526 68.9028C74.4606 68.0868 77.9646 58.8228 85.9086 57.7908C85.9318 57.8079 85.9509 57.83 85.9645 57.8554C85.978 57.8809 85.9856 57.9091 85.9868 57.9379C85.988 57.9667 85.9826 57.9955 85.9711 58.0219C85.9597 58.0484 85.9424 58.0719 85.9205 58.0908H85.9326ZM73.2726 36.0348C75.6726 37.7148 85.4406 52.1748 86.7126 54.7068C84.5054 55.4062 82.3745 56.3268 80.3525 57.4548C78.4378 58.4147 76.7613 59.7896 75.4451 61.4794C74.129 63.1692 73.2064 65.1313 72.7446 67.2228C68.4366 60.2148 62.4246 52.4988 58.4286 46.8228C58.6686 46.6668 65.4126 36.5028 73.2726 36.0348ZM47.5206 48.0348C51.9006 46.2708 54.3246 46.6788 57.9486 46.8348C61.5486 52.9788 68.0166 61.6428 72.2766 67.3188C68.3447 66.3884 64.2072 66.9575 60.6726 68.9148C58.5486 70.1148 55.9566 72.9948 54.3606 74.7828C52.0566 72.9348 38.7606 58.7748 36.6246 56.3748C39.9126 52.6548 42.9486 49.8588 47.5206 47.9868V48.0348ZM25.5606 78.5508C25.264 78.3427 24.9133 78.2251 24.5512 78.2123C24.1891 78.1995 23.8311 78.2921 23.5206 78.4788C23.2944 78.5797 23.0904 78.7241 22.92 78.9038C22.7497 79.0835 22.6164 79.295 22.5279 79.5262C22.4393 79.7574 22.3971 80.0038 22.4037 80.2514C22.4104 80.4989 22.4657 80.7427 22.5666 80.9688C22.6674 81.1949 22.8118 81.399 22.9915 81.5693C23.1713 81.7397 23.3828 81.8729 23.614 81.9615C23.8452 82.0501 24.0916 82.0923 24.3391 82.0856C24.5866 82.079 24.8304 82.0237 25.0566 81.9228C25.4178 81.8438 25.7465 81.6569 25.9991 81.3868C26.2517 81.1167 26.4162 80.7763 26.4709 80.4105C26.5256 80.0448 26.4678 79.6711 26.3052 79.339C26.1426 79.0068 25.8829 78.732 25.5606 78.5508ZM24.7686 80.9508C23.9286 81.2148 23.4246 80.9508 23.2206 80.5428C22.8366 79.6908 23.3166 78.3828 24.5646 78.7668C25.4406 79.0908 26.1486 80.5668 24.7686 81.0108V80.9508ZM86.5806 23.6388C86.9286 24.3468 88.5485 24.0828 89.2565 23.8548C89.6285 23.7348 89.8686 23.6028 89.9046 23.2428C90.0126 22.3428 90.1326 14.5428 89.7246 13.7868C89.6824 13.7075 89.6178 13.6425 89.5388 13.5998C89.4598 13.5571 89.37 13.5387 89.2806 13.5468C88.0002 13.5433 86.7264 13.7293 85.5005 14.0988C85.0086 14.3988 86.1486 22.8468 86.5806 23.6388ZM85.7526 14.3868C86.861 14.2282 87.9821 14.176 89.1005 14.2308C89.1726 15.1188 88.9806 22.8108 88.9686 22.9308C88.4616 23.1125 87.9203 23.1781 87.3846 23.1228C87.3006 22.8468 87.1566 22.1028 86.9766 21.1668C86.4478 18.9303 86.0392 16.667 85.7526 14.3868ZM24.3966 68.4228C24.5117 68.4818 24.6392 68.5125 24.7686 68.5125C24.8979 68.5125 25.0254 68.4818 25.1406 68.4228C25.6042 68.1368 25.9719 67.719 26.1966 67.2228C26.2271 67.1434 26.2365 67.0574 26.2239 66.9733C26.2112 66.8892 26.177 66.8098 26.1246 66.7428C25.5486 66.0588 19.2606 58.7748 18.4926 59.2308C17.5496 59.8413 16.655 60.5233 15.8166 61.2708C15.7828 61.301 15.7557 61.338 15.7371 61.3793C15.7185 61.4207 15.7088 61.4655 15.7086 61.5108C15.6846 62.1348 22.6686 67.7268 24.3966 68.4228ZM18.6366 59.5428C19.5126 60.1788 22.4646 63.8268 25.2006 67.0548C25.0829 67.2401 24.9371 67.4061 24.7686 67.5468C21.892 65.7057 19.1455 63.6689 16.5486 61.4508C17.1996 60.7673 17.8973 60.1297 18.6366 59.5428ZM37.4886 33.0708C37.7526 28.4148 40.4646 26.2548 43.2966 25.7028C42.4926 28.6548 42.6246 32.4948 45.5406 32.9868C46.9326 33.2148 47.6166 32.4948 48.6246 31.6548C52.9326 28.0548 49.4526 24.4548 44.5926 24.7068C46.4046 19.7388 50.5926 15.6948 56.1486 15.5628C56.1995 15.5628 56.2483 15.5426 56.2843 15.5066C56.3203 15.4706 56.3406 15.4217 56.3406 15.3708C56.3406 15.3199 56.3203 15.271 56.2843 15.235C56.2483 15.199 56.1995 15.1788 56.1486 15.1788C50.1486 15.0588 45.4326 19.3788 43.5726 24.7788C40.3686 25.3308 37.1886 27.7308 37.1046 32.9988C37.0998 33.024 37.1001 33.0499 37.1054 33.075C37.1107 33.1001 37.1208 33.1239 37.1353 33.1451C37.1498 33.1663 37.1683 33.1844 37.1898 33.1984C37.2113 33.2124 37.2353 33.2221 37.2606 33.2268C37.2858 33.2315 37.3117 33.2313 37.3368 33.226C37.3619 33.2207 37.3857 33.2105 37.4069 33.196C37.428 33.1815 37.4461 33.163 37.4602 33.1415C37.4742 33.1201 37.4838 33.096 37.4886 33.0708ZM44.3166 25.5588C46.1046 25.4388 48.7686 25.9908 49.5006 27.6108C49.9206 28.5348 49.5006 29.6748 48.0126 30.9228C47.6086 31.3275 47.1477 31.6711 46.6446 31.9428C44.8446 32.7108 42.8526 30.4908 44.3166 25.5588ZM47.7486 195.275C46.5892 194.964 45.3794 194.889 44.1904 195.053C43.0015 195.217 41.8573 195.617 40.8252 196.23C39.7932 196.842 38.8942 197.655 38.181 198.621C37.4678 199.586 36.9549 200.684 36.6726 201.851C36.1395 204.274 36.591 206.81 37.9277 208.901C39.2645 210.992 41.377 212.466 43.8006 212.999C46.2241 213.532 48.7602 213.08 50.8508 211.744C52.9415 210.407 54.4155 208.294 54.9486 205.871C55.1763 204.702 55.1704 203.499 54.9312 202.333C54.692 201.166 54.2243 200.059 53.555 199.074C52.8857 198.089 52.028 197.246 51.0315 196.594C50.0349 195.942 48.9192 195.494 47.7486 195.275ZM51.4566 205.055C50.9751 206.975 49.8224 208.66 48.207 209.804C46.5915 210.949 44.6199 211.477 42.6486 211.295C40.8389 210.588 39.3367 209.265 38.406 207.56C37.4754 205.854 37.176 203.875 37.5606 201.971C38.0096 200.004 39.1515 198.264 40.7776 197.07C42.4038 195.876 44.4054 195.307 46.4166 195.467C48.244 196.222 49.7466 197.597 50.6597 199.351C51.5729 201.105 51.838 203.125 51.4086 205.055H51.4566Z" fill="white"/>
<path id="Vector_6" d="M63.7329 198.695C62.6883 198.335 61.5687 198.248 60.4809 198.443C60.0301 197.41 59.4752 196.425 58.8249 195.503C59.6049 194.795 61.7409 192.827 61.2249 191.903C59.3885 189.707 57.2083 187.822 54.7689 186.323C53.7503 185.753 52.6287 185.39 51.4689 185.255C50.7009 185.363 48.8769 188.351 48.4689 189.023C48.2049 189.023 47.2689 188.723 47.1969 188.687C47.1969 187.823 46.9449 184.703 46.1649 184.343C45.2927 184.022 44.3869 183.801 43.4649 183.683C42.6129 183.551 34.9449 184.955 34.3809 185.987C34.0089 186.683 34.8729 189.311 35.1249 190.043C34.4777 190.4 33.8562 190.801 33.2649 191.243C32.0649 192.095 32.3889 192.059 32.1729 191.963C31.9119 191.839 31.6322 191.758 31.3449 191.723C30.3863 191.161 29.2624 190.949 28.1649 191.123C27.0609 191.483 24.4569 197.411 24.0369 198.935C23.8995 199.32 23.8623 199.733 23.9289 200.135C24.2169 200.927 26.1369 201.563 26.9409 201.815C26.7189 203.36 26.7189 204.927 26.9409 206.471C25.8849 206.759 23.6889 207.407 23.8089 208.487C23.9289 209.567 26.7369 216.695 27.9009 217.259C28.5386 217.616 29.2437 217.836 29.9711 217.904C30.6985 217.972 31.4321 217.887 32.1249 217.655C32.5151 217.461 32.8919 217.24 33.2529 216.995C33.7329 217.355 34.2369 217.679 34.7529 217.991C34.3809 218.915 33.5529 220.979 33.8169 221.915C33.9489 222.407 34.3449 222.563 34.8969 222.767C36.4209 223.319 44.6289 225.287 45.8769 225.071C46.3449 224.999 46.5969 224.507 46.7409 224.039C47.0075 222.974 47.1644 221.885 47.2089 220.787C47.8252 220.727 48.438 220.635 49.0449 220.511C49.4156 221.164 49.8898 221.751 50.4489 222.251C51.0609 222.683 51.5769 222.467 52.2729 222.023C52.6089 222.455 53.1129 223.055 53.6529 223.115C55.0089 223.271 60.6129 217.991 61.1889 216.911C61.6689 216.011 59.9169 214.403 59.1369 213.695C59.9807 212.426 60.6431 211.044 61.1049 209.591C61.9704 209.722 62.8463 209.77 63.7209 209.735C64.1169 209.735 64.5729 209.591 64.7409 209.219C65.4729 207.551 65.2569 201.227 64.7409 199.619C64.6689 199.151 64.1289 198.839 63.7329 198.695ZM64.0209 199.799C64.4289 201.359 64.5609 207.251 63.9609 208.775C62.9234 208.878 61.8765 208.829 60.8529 208.631C60.7436 208.613 60.6313 208.636 60.538 208.696C60.4448 208.756 60.3773 208.848 60.3489 208.955C59.871 210.578 59.1291 212.11 58.1529 213.491C58.0834 213.583 58.052 213.698 58.0655 213.812C58.0789 213.926 58.1361 214.031 58.2249 214.103C59.0669 214.771 59.7822 215.584 60.3369 216.503C59.7369 217.487 55.0449 221.783 53.7489 222.143C53.5569 222.143 53.0289 221.423 52.8969 221.231C52.4537 220.565 52.0529 219.872 51.6969 219.155C51.645 219.051 51.5559 218.97 51.4471 218.928C51.3383 218.885 51.2177 218.885 51.1089 218.927C47.6289 220.235 46.3089 219.467 46.3089 220.331C46.3105 221.625 46.0997 222.91 45.6849 224.135C42.8649 223.829 40.0877 223.209 37.4049 222.287C37.5345 221.006 37.8921 219.759 38.4609 218.603C38.8209 217.799 37.3809 218.027 34.6929 215.291C34.6064 215.211 34.4928 215.167 34.3749 215.167C34.257 215.167 34.1434 215.211 34.0569 215.291C32.8569 216.275 31.2969 217.235 30.9849 217.079C30.3729 216.779 27.5529 210.383 27.3849 209.087C28.2384 208.493 29.2074 208.084 30.2289 207.887C30.3379 207.857 30.432 207.787 30.4937 207.693C30.5555 207.598 30.5808 207.484 30.5649 207.371C30.2708 205.672 30.2708 203.935 30.5649 202.235C30.5833 202.131 30.5613 202.023 30.5034 201.934C30.4455 201.845 30.356 201.781 30.2529 201.755C29.3483 201.518 28.4773 201.168 27.6609 200.711C27.3969 200.519 27.4209 200.531 27.4449 200.327C28.2216 197.526 29.4673 194.877 31.1289 192.491C31.7769 192.311 33.5289 193.595 34.1289 194.051C34.1916 194.112 34.2756 194.146 34.3629 194.146C34.4503 194.146 34.5342 194.112 34.5969 194.051C35.1483 193.48 35.742 192.95 36.3729 192.467C38.1969 191.087 38.6889 191.267 38.5329 190.787C37.9813 189.583 37.6714 188.283 37.6209 186.959C37.8069 186.805 38.0179 186.683 38.2449 186.599C39.3652 186.156 40.5163 185.796 41.6889 185.519C43.1103 185.123 44.5712 184.886 46.0449 184.811C46.2969 184.919 46.5249 186.011 46.5849 186.347C47.0289 188.747 46.7289 189.239 47.0769 189.275C50.4969 189.611 51.1929 190.559 51.4329 190.139C52.0984 188.976 52.8739 187.879 53.7489 186.863C54.0009 186.611 53.9889 186.491 54.7449 186.923C57.0035 188.399 59.0262 190.208 60.7449 192.287C60.9249 192.599 59.3649 194.255 58.2249 195.227C57.8289 195.575 58.3929 195.731 59.4249 197.699C60.4569 199.667 60.2169 200.219 60.7689 200.099C61.833 199.845 62.9282 199.744 64.0209 199.799ZM230.569 99.5275C228.053 98.5 225.415 97.8022 222.721 97.4515C220.753 97.1395 218.437 96.8275 216.481 96.5755C218.365 93.9115 223.945 87.1675 224.881 85.5235C225.145 85.0795 224.641 84.4555 224.269 84.0835C222.181 81.8515 218.149 81.0115 215.053 80.5315C213.277 80.2435 205.861 79.3315 204.601 79.9315C203.089 80.6515 191.905 97.4515 191.569 100.007C191.569 100.439 191.713 100.607 192.133 100.763C193.897 101.411 201.853 102.419 203.629 102.839C201.229 107.039 190.561 121.235 189.517 123.239C189.265 123.743 189.421 124.043 189.721 124.139C190.801 124.568 191.912 124.913 193.045 125.171C193.477 125.303 194.425 124.715 195.805 123.875C201.997 120.155 228.565 102.611 230.605 100.343C230.661 100.29 230.705 100.226 230.735 100.154C230.764 100.082 230.777 100.005 230.773 99.9272C230.77 99.8498 230.75 99.7741 230.715 99.7051C230.679 99.6361 230.63 99.5755 230.569 99.5275ZM204.781 113.927C194.581 120.659 191.137 122.627 191.017 122.711C192.661 120.203 202.873 106.211 204.625 102.863C204.655 102.799 204.671 102.728 204.671 102.657C204.671 102.585 204.654 102.515 204.623 102.45C204.592 102.386 204.547 102.329 204.491 102.284C204.436 102.24 204.371 102.208 204.301 102.191C203.101 101.759 194.365 100.823 192.301 100.091C192.565 97.8595 203.461 80.9875 204.781 80.3155C206.101 79.6435 218.905 81.1675 221.305 82.8835C220.045 85.3435 213.085 93.9595 211.957 95.9635C211.729 96.3715 211.657 96.7675 212.101 96.8755C212.545 96.9835 223.825 98.3035 226.285 99.1075C223.285 101.615 208.141 111.671 204.781 113.879V113.927ZM127.801 40.5595C127.801 40.6675 127.873 40.7995 128.053 41.4955C128.1 41.6465 128.204 41.7733 128.343 41.8493C128.481 41.9254 128.644 41.9448 128.797 41.9035C128.95 41.8589 129.079 41.7555 129.155 41.616C129.232 41.4764 129.249 41.3122 129.205 41.1595C129.085 40.6915 128.977 40.2955 128.905 40.1035C128.835 39.9717 128.719 39.8707 128.578 39.8202C128.438 39.7696 128.284 39.7732 128.146 39.8301C128.008 39.8871 127.896 39.9933 127.832 40.1282C127.769 40.263 127.757 40.4168 127.801 40.5595Z" fill="white"/>
</g>
</g>
</svg>
