<?xml version="1.0" standalone="no"?><!DOCTYPE svg PUBLIC "-//W3C//DTD SVG 1.1//EN" "http://www.w3.org/Graphics/SVG/1.1/DTD/svg11.dtd"><svg t="1726666598738" class="icon" viewBox="0 0 1024 1024" version="1.1" xmlns="http://www.w3.org/2000/svg" p-id="3360" xmlns:xlink="http://www.w3.org/1999/xlink" width="64" height="64"><path d="M839.576064 115.8656A433.3568 433.3568 0 0 1 972.798464 428.3904a437.504 437.504 0 0 1-57.856 219.136c-58.7264 101.376-88.4736 204.1344-88.4736 305.3056v32.768c0 21.1968-16.896 38.4-37.7344 38.4h-393.216a38.0928 38.0928 0 0 1-37.7856-38.4v-83.6608a8.9088 8.9088 0 0 0-8.8064-8.96H214.731264c-46.592 0-84.2752-38.3488-84.3776-85.6576v-114.9952a83.456 83.456 0 0 1-66.8672-41.216 86.4256 86.4256 0 0 1-2.56-84.2752l69.5296-134.656C135.217664 203.8272 306.174464 15.36 523.672064 1.0752a413.184 413.184 0 0 1 315.904 114.7904z m-133.7856 199.8336a38.0928 38.0928 0 0 0-37.7344 38.4v297.728l0.3584 5.2224a37.888 37.888 0 0 0 39.9872 33.4848 38.144 38.144 0 0 0 35.2256-38.7072V354.0992l-0.3584-5.2224a37.9904 37.9904 0 0 0-37.4784-33.1776z m-234.0352 4.352a62.6176 62.6176 0 0 0-81.3568 36.5568l-107.4176 282.112-1.536 4.9664a38.5536 38.5536 0 0 0 23.1424 44.6976l4.864 1.536a37.632 37.632 0 0 0 43.9808-23.4496l22.528-59.4944h145.4592l22.528 59.392 2.1504 4.7104a37.4272 37.4272 0 0 0 48.896 16.1792 38.656 38.656 0 0 0 19.456-48.4352l-106.6496-282.112-2.7136-6.144a63.2832 63.2832 0 0 0-33.3312-30.5152zM448.971264 415.232l43.4688 114.944H405.195264L449.022464 415.232z" p-id="3361" fill="#409EFF"></path></svg>