<svg xmlns="http://www.w3.org/2000/svg" width="37.118" height="44.721" viewBox="0 0 37.118 44.721"><defs><style>.a{fill:#9342d5;}.b{fill:#b46eec;}.c{fill:#fff;}.d{fill:#dcb1ff;}</style></defs><g transform="translate(-1000.881 -348.279)"><path class="a" d="M114.428.322l.016.017,9.409,9.808.014.015.291.3V41.4a3.333,3.333,0,0,1-3.334,3.324H90.374A3.333,3.333,0,0,1,87.04,41.4V3.326A3.333,3.333,0,0,1,90.374,0h23.744l.309.322Z" transform="translate(913.841 348.279)"/><path class="b" d="M90.062,250.912h-18.3a4.18,4.18,0,0,1-4.181-4.181v-2.764a4.18,4.18,0,0,1,4.181-4.181h18.3a4.18,4.18,0,0,1,4.181,4.181v2.764A4.18,4.18,0,0,1,90.062,250.912Z" transform="translate(933.58 118.088)"/><path class="c" d="M210.712,285.131h2.216v3.883a6,6,0,0,1-.219,1.863,2.159,2.159,0,0,1-.869,1.08,2.916,2.916,0,0,1-1.675.446,3.856,3.856,0,0,1-1.675-.29,2.059,2.059,0,0,1-.916-.853,3.174,3.174,0,0,1-.384-1.394l2.114-.29a2.246,2.246,0,0,0,.086.7.751.751,0,0,0,.266.368.6.6,0,0,0,.36.094.586.586,0,0,0,.54-.274,1.8,1.8,0,0,0,.172-.924v-4.415Zm3.3,4.783,2.1-.133a1.7,1.7,0,0,0,.274.783,1.165,1.165,0,0,0,.971.431,1.079,1.079,0,0,0,.728-.219.667.667,0,0,0,.258-.517.629.629,0,0,0-.243-.493,2.848,2.848,0,0,0-1.127-.415,4.846,4.846,0,0,1-2.075-.869,1.751,1.751,0,0,1-.626-1.378,1.893,1.893,0,0,1,.321-1.041,2.089,2.089,0,0,1,.963-.767,4.455,4.455,0,0,1,1.754-.282,3.613,3.613,0,0,1,2.09.509,2.176,2.176,0,0,1,.853,1.621l-2.083.125a.978.978,0,0,0-1.088-.924.882.882,0,0,0-.579.164.5.5,0,0,0-.2.4.38.38,0,0,0,.164.305,1.873,1.873,0,0,0,.744.266,9.087,9.087,0,0,1,2.075.634,2.174,2.174,0,0,1,.908.791,2.014,2.014,0,0,1,.282,1.057,2.236,2.236,0,0,1-.384,1.268,2.362,2.362,0,0,1-1.065.877,4.225,4.225,0,0,1-1.722.3,3.516,3.516,0,0,1-2.521-.7A2.877,2.877,0,0,1,214.008,289.915Z" transform="translate(800.379 74.938)"/><path class="d" d="M496.94,532.147c0,1.252-.007,2.511,0,3.763a2.217,2.217,0,0,1-1.155,2.064c-1.952,1.17-3.912,2.317-5.85,3.51a2.4,2.4,0,0,1-2.765-.03c-.3-.194-.626-.343-.917-.544a.616.616,0,0,1-.253-.879.661.661,0,0,1,.954-.291c.395.2.775.425,1.155.648a.9.9,0,0,0,1.006-.008q2.984-1.8,5.976-3.584a.9.9,0,0,0,.469-.842c0-2.548-.007-5.089,0-7.638a.939.939,0,0,0-.514-.872q-3.107-1.8-6.207-3.607a.85.85,0,0,0-.917-.007c-2.1,1.215-4.2,2.437-6.3,3.644a.788.788,0,0,0-.41.76c.007,2.593.007,5.194,0,7.787a.771.771,0,0,0,.425.745c.76.417,1.5.864,2.273,1.259.939.477,1.662.015,1.662-1.051.007-2.548,0-5.089.007-7.638,0-.223-.112-.529.186-.626a1.529,1.529,0,0,1,1,.008c.149.052.149.216.149.35-.022,2.712.119,5.432-.067,8.137a2.4,2.4,0,0,1-3.7,1.96c-.753-.388-1.483-.82-2.221-1.245a2.191,2.191,0,0,1-1.133-2.027c-.007-2.526-.007-5.06,0-7.586a2.288,2.288,0,0,1,1.259-2.109c2-1.133,3.994-2.3,5.984-3.48a2.332,2.332,0,0,1,2.586-.015c2.012,1.192,4.039,2.362,6.073,3.532a2.288,2.288,0,0,1,1.222,2.176c.007,1.252.022,2.489.022,3.733Z" transform="translate(537.673 -148.908)"/><path class="d" d="M670.269,672.049a4.572,4.572,0,0,1-1.319-.216,2.377,2.377,0,0,1-1.684-2.086c-.015-.231.06-.335.291-.372.678-.1.864-.008,1.125.648a1.251,1.251,0,0,0,.879.768,3.353,3.353,0,0,0,1.759-.052.816.816,0,0,0,.693-.723.829.829,0,0,0-.551-.887c-.6-.238-1.215-.432-1.818-.641-.32-.112-.641-.224-.954-.343a1.7,1.7,0,0,1-1.229-1.587,1.778,1.778,0,0,1,.984-1.721,3.78,3.78,0,0,1,3.748.037,2.1,2.1,0,0,1,.939,1.565.237.237,0,0,1-.082.276,1.186,1.186,0,0,1-1.252-.291,2.008,2.008,0,0,0-2.69-.663.744.744,0,0,0,.052,1.274,4.951,4.951,0,0,0,.887.38c.7.261,1.416.477,2.1.768a1.868,1.868,0,0,1,1.207,1.788,1.988,1.988,0,0,1-1.3,1.788A4.827,4.827,0,0,1,670.269,672.049Z" transform="translate(358.383 -284.742)"/></g></svg>