<svg xmlns="http://www.w3.org/2000/svg" width="36" height="36" viewBox="0 0 36 36"><defs><style>.a{fill:#00c300;}</style></defs><path class="a" d="M106.537,98.761a.684.684,0,0,0-.684.684v3.006l-2.52-3.348a.72.72,0,0,0-.594-.342.684.684,0,0,0-.684.684v5.112a.684.684,0,1,0,1.368,0v-3.024l2.5,3.438a.486.486,0,0,0,.27.2.576.576,0,0,0,.252,0,.594.594,0,0,0,.486-.036l.18-.126a.7.7,0,0,0,.2-.486V99.445a.684.684,0,0,0-.774-.684Zm-8.244,5.058H96.385V99.445a.684.684,0,0,0-1.368,0v5.112a.684.684,0,0,0,.684.684h2.592a.711.711,0,0,0,0-1.422Zm2-5.058a.7.7,0,0,0-.7.684v5.112a.7.7,0,0,0,.7.684.684.684,0,0,0,.684-.684V99.445a.684.684,0,0,0-.684-.684Zm13.68-13.428H92.7A7.38,7.38,0,0,0,85.333,92.7v21.276a7.38,7.38,0,0,0,7.362,7.362h21.276a7.38,7.38,0,0,0,7.362-7.362V92.7A7.38,7.38,0,0,0,113.971,85.333Zm.558,22.1a2.792,2.792,0,0,1-.234.306,9.9,9.9,0,0,1-1.44,1.44c-3.6,3.366-9.648,7.4-10.458,6.768s1.152-3.168-.954-3.6a1.8,1.8,0,0,1-.45,0c-6.192-.864-10.8-5.2-10.8-10.4,0-5.85,5.922-10.584,13.212-10.584s13.212,4.734,13.212,10.584a9,9,0,0,1-2.088,5.49Zm-3.078-8.658h-2.718a.684.684,0,0,0-.684.684v5.112a.684.684,0,0,0,.684.684H111.4a.684.684,0,0,0,0-1.368h-1.854v-1.08h1.908a.7.7,0,0,0,.684-.7.684.684,0,0,0-.684-.684h-1.908v-1.1h1.908a.774.774,0,0,0,0-1.548Z" transform="translate(-85.333 -85.333)"/></svg>