<svg xmlns="http://www.w3.org/2000/svg" width="36" height="36.002" viewBox="0 0 36 36.002"><defs><style>.a{fill:#0085ff;}</style></defs><path class="a" d="M.037,17.458C.037,7.424,7.9,0,18.035,0s18,7.424,18,17.458-7.86,17.458-18,17.458a19.651,19.651,0,0,1-5.2-.69,1.4,1.4,0,0,0-.375-.049,1.445,1.445,0,0,0-.595.128l.009,0L8.284,35.877A1.415,1.415,0,0,1,7.7,36,1.44,1.44,0,0,1,6.26,34.6v0l-.1-3.209a1.455,1.455,0,0,0-.479-1.019h0A17.049,17.049,0,0,1,.033,17.688c0-.08,0-.161,0-.241v.012Zm12.478-3.285-5.279,8.4A.845.845,0,0,0,8.466,23.7l5.684-4.305a1.057,1.057,0,0,1,1.3,0l4.2,3.15a2.708,2.708,0,0,0,3.9-.72l5.279-8.4A.846.846,0,0,0,27.6,12.3L21.919,16.6a1.036,1.036,0,0,1-1.29,0l-4.2-3.15a2.7,2.7,0,0,0-3.909.709l-.007.011Z" transform="translate(-0.034)"/></svg>