<svg xmlns="http://www.w3.org/2000/svg" width="36" height="36" viewBox="0 0 36 36"><defs><style>.a{fill:#ff4300;}</style></defs><path class="a" d="M22,23.443a.382.382,0,0,1,0,.623,5.478,5.478,0,0,1-4,1.246,5.478,5.478,0,0,1-4-1.246.382.382,0,0,1,0-.623.437.437,0,0,1,.6,0,4.674,4.674,0,0,0,3.4.984,4.717,4.717,0,0,0,3.4-.984.437.437,0,0,1,.6,0Zm-6.167-3.636A1.783,1.783,0,0,1,14.041,21.6a1.757,1.757,0,0,1-1.276-.522,1.707,1.707,0,0,1-.532-1.266,1.731,1.731,0,0,1,.532-1.286A1.757,1.757,0,0,1,14.041,18a1.707,1.707,0,0,1,1.266.532,1.757,1.757,0,0,1,.522,1.276Zm7.935,0a1.707,1.707,0,0,1-.532,1.266,1.757,1.757,0,0,1-1.276.522,1.783,1.783,0,0,1-1.788-1.788,1.757,1.757,0,0,1,.522-1.276A1.707,1.707,0,0,1,21.956,18a1.757,1.757,0,0,1,1.276.522,1.731,1.731,0,0,1,.532,1.286ZM28.806,17.4a2.3,2.3,0,0,0-.7-1.688,2.325,2.325,0,0,0-1.708-.7,2.358,2.358,0,0,0-1.728.723A11.39,11.39,0,0,0,18.42,13.8l1.266-5.685,4.018.9a1.8,1.8,0,1,0,3.064-1.3,1.74,1.74,0,0,0-1.276-.532,1.705,1.705,0,0,0-1.607,1l-4.44-.984q-.382-.1-.5.321L17.556,13.8a11.376,11.376,0,0,0-6.208,1.949,2.426,2.426,0,0,0-3.455-.04,2.3,2.3,0,0,0-.7,1.687,2.342,2.342,0,0,0,.372,1.286,2.4,2.4,0,0,0,.994.884,5.171,5.171,0,0,0-.121,1.125,5.91,5.91,0,0,0,2.812,4.882,11.261,11.261,0,0,0,6.77,2.029,11.3,11.3,0,0,0,6.79-2.029,5.91,5.91,0,0,0,2.813-4.882,4.254,4.254,0,0,0-.141-1.145,2.379,2.379,0,0,0,.964-.874,2.34,2.34,0,0,0,.362-1.276ZM36,18a17.6,17.6,0,0,1-1.426,6.991,17.686,17.686,0,0,1-9.583,9.583,17.846,17.846,0,0,1-13.982,0A17.686,17.686,0,0,1,1.424,24.99a17.846,17.846,0,0,1,0-13.982,17.686,17.686,0,0,1,9.583-9.583,17.846,17.846,0,0,1,13.982,0,17.686,17.686,0,0,1,9.583,9.583A17.6,17.6,0,0,1,36,18Z" transform="translate(0.002 0.001)"/></svg>