<svg xmlns="http://www.w3.org/2000/svg" width="21.42" height="23.421" viewBox="0 0 21.42 23.421"><defs><style>.a{fill:rgba(214,71,59,0.4);}.b{fill:#ef6a63;}.c{fill:#fa4e4e;}.d{fill:#fff;}</style></defs><g transform="translate(0 0)"><path class="a" d="M143.616,5.473l.062,16.274a.676.676,0,0,1-.678.678H127.269a.676.676,0,0,1-.678-.678V1.67a.676.676,0,0,1,.678-.678l11.95-.025L138.276,0H127.3a1.59,1.59,0,0,0-1.591,1.592V21.83a1.589,1.589,0,0,0,1.591,1.591h15.666a1.59,1.59,0,0,0,1.592-1.591V6.441l-.943-.968Z" transform="translate(-123.143 0)"/><path class="b" d="M675.126,4.717a1.727,1.727,0,0,0,1.728,1.728h4.559L675.126,0Z" transform="translate(-659.993 0)"/><path class="c" d="M25.341,230.17h-9.66a2.207,2.207,0,0,1-2.207-2.207V226.5a2.206,2.206,0,0,1,2.207-2.207h9.66a2.206,2.206,0,0,1,2.207,2.207v1.459a2.207,2.207,0,0,1-2.207,2.207" transform="translate(-13.474 -219.166)"/><path class="d" d="M89.3,274.864h.81v2.844h1.261v.93H89.3v-3.774Zm-3.46,0h1.062l.409,2.294.409-2.294h1.063v3.774h-.662v-2.877l-.508,2.877h-.6l-.509-2.877v2.877h-.661v-3.774Zm-2.815,0h2.46v.93h-.827v2.84h-.81v-2.84h-.827v-.93Zm-2.86,0h.81v1.319h.884v-1.319h.814v3.774h-.814v-1.525h-.884v1.525h-.81v-3.775Z" transform="translate(-78.643 -268.576)"/><path class="b" d="M290.538,581.9l-.054-.054a.427.427,0,0,0-.608,0l-2.773,2.774a.433.433,0,0,0,0,.611L289.876,588a.427.427,0,0,0,.608,0l.054-.054a.426.426,0,0,0,0-.607l-2.418-2.419,2.418-2.418a.427.427,0,0,0,0-.608m3.3-.149-.074-.029a.428.428,0,0,0-.55.256l-2.033,5.58a.428.428,0,0,0,.256.55l.075.029a.428.428,0,0,0,.55-.256l2.034-5.58a.429.429,0,0,0-.256-.55m4.381,2.869-2.773-2.773a.427.427,0,0,0-.608,0l-.054.053a.426.426,0,0,0,0,.607l2.418,2.419-2.418,2.418a.427.427,0,0,0,0,.608l.054.054a.427.427,0,0,0,.608,0l2.773-2.774a.434.434,0,0,0,0-.612" transform="translate(-280.721 -568.388)"/></g></svg>