<svg xmlns="http://www.w3.org/2000/svg" width="18.552" height="23.422" viewBox="0 0 18.552 23.422"><defs><style>.a{fill:#1296db;}</style></defs><path class="a" d="M178.3,69.874a.831.831,0,0,1,.248.591V86.585a.839.839,0,0,1-.843.836H160.843a.839.839,0,0,1-.843-.836V64.836a.839.839,0,0,1,.843-.836h11.192a.851.851,0,0,1,.6.246Zm-1.7.975-4.959-4.92v4.92Zm-9.594,7.187,1.558,3.476a.422.422,0,0,0,.385.248h.634a.422.422,0,0,0,.386-.249l1.558-3.486v4.116a.42.42,0,0,0,.422.418h.72a.42.42,0,0,0,.422-.418v-7.11a.42.42,0,0,0-.422-.418h-.916a.422.422,0,0,0-.387.251l-2.094,4.773-2.094-4.773a.422.422,0,0,0-.387-.251h-.921a.42.42,0,0,0-.422.418v7.11a.42.42,0,0,0,.422.418h.715a.42.42,0,0,0,.422-.418V78.035Z" transform="translate(-160 -64)"/></svg>