<svg xmlns="http://www.w3.org/2000/svg" width="23.351" height="22.815" viewBox="0 0 23.351 22.815"><defs><style>.a{fill:#dc2e1b;}.b{fill:#fff;}</style></defs><path class="a" d="M75.592,74.67h1.5v2.388c2.836.016,5.674-.029,8.507.013A.919.919,0,0,1,86.63,78.1c.045,4.956-.011,9.914.026,14.872a3.123,3.123,0,0,1-.255,1.6,2.392,2.392,0,0,1-1.345.265c-2.653-.013-5.306-.008-7.961-.008v2.653h-1.65c-4.044-.738-8.094-1.411-12.139-2.122q0-9.284,0-18.565C67.4,76.089,71.494,75.368,75.592,74.67Z" transform="translate(-63.305 -74.67)"/><path class="b" d="M110.51,430.432V427.19h.973a3.258,3.258,0,0,1,.721.049.787.787,0,0,1,.432.317,1.066,1.066,0,0,1,.174.631,1.127,1.127,0,0,1-.1.5.872.872,0,0,1-.255.32.847.847,0,0,1-.315.153,3.2,3.2,0,0,1-.629.047h-.394v1.223Zm.606-2.694v.92h.332a1.461,1.461,0,0,0,.479-.051.4.4,0,0,0,.189-.159.462.462,0,0,0,.069-.252.439.439,0,0,0-.1-.292.411.411,0,0,0-.243-.144,2.692,2.692,0,0,0-.436-.022Zm2.189-.548h1.108a2.009,2.009,0,0,1,.571.062,1,1,0,0,1,.452.3,1.441,1.441,0,0,1,.287.525,2.579,2.579,0,0,1,.1.766,2.283,2.283,0,0,1-.092.69,1.456,1.456,0,0,1-.322.573,1.036,1.036,0,0,1-.426.259,1.7,1.7,0,0,1-.537.069H113.3Zm.606.547v2.148h.452a1.55,1.55,0,0,0,.367-.031.549.549,0,0,0,.244-.135.7.7,0,0,0,.158-.313,2.292,2.292,0,0,0,.062-.594,2.074,2.074,0,0,0-.062-.578.749.749,0,0,0-.172-.313.564.564,0,0,0-.281-.152,2.544,2.544,0,0,0-.5-.031Zm2.428,2.7V427.19H118.4v.547h-1.452v.768H118.2v.547h-1.253v1.38Z" transform="translate(-109.28 -418.003)"/><path class="b" d="M642.514,387.709a.578.578,0,0,0-.082-.073,2.327,2.327,0,0,0-.857-.342l-.15-.034a2.4,2.4,0,0,0,.826.443A.462.462,0,0,0,642.514,387.709Zm-2.774-4.889c.063-.222.107-.621.015-.7l0,0a2.643,2.643,0,0,0-.226,1.285A2.362,2.362,0,0,0,639.74,382.82Zm.016,3.732a5.527,5.527,0,0,1-.69-1.37,14.112,14.112,0,0,1-1.175,1.421A16.512,16.512,0,0,1,639.756,386.552Z" transform="translate(-622.916 -374.107)"/><path class="b" d="M589.051,196.82v9.432c.245-.07.414-.106.414-.106.147-.153.13-.139.307-.328a19.742,19.742,0,0,0,1.562-1.917c0-.062-.173-2.375.559-2.683a.486.486,0,0,1,.3-.022.552.552,0,0,1,.326.22,1.535,1.535,0,0,1,.026,1.182,4.4,4.4,0,0,1-.545,1.322,4.453,4.453,0,0,0,1.094,2.21,8.081,8.081,0,0,1,1.163.172c.546.13.87.311.992.552a.585.585,0,0,1,0,.5.545.545,0,0,1-.318.355.794.794,0,0,1-.473.007,5.02,5.02,0,0,1-1.772-1.087,23.611,23.611,0,0,0-2.8-.021q-.483.519-.836.83V213h8.755V196.82Z" transform="translate(-575.348 -193.637)"/></svg>